<svg xmlns="http://www.w3.org/2000/svg" width="40" height="40" viewBox="0 0 40 40">
    <defs>
        <linearGradient id="ti7t45a3ba" x1="0%" x2="100%" y1="0%" y2="100%">
            <stop offset="0%" stop-color="#0FADC1"/>
            <stop offset="100%" stop-color="#49DE82"/>
        </linearGradient>
    </defs>
    <g fill="none" fill-rule="evenodd">
        <g fill="url(#ti7t45a3ba)" transform="translate(-156 -3673)">
            <g>
                <g>
                    <g>
                        <g>
                            <g>
                                <path d="M7.862 9.396l.22.005c2.398.103 4.309 1.879 4.309 4.055v19.15l-.005.197c-.115 2.151-2.097 3.864-4.524 3.864l-.22-.005c-2.398-.103-4.309-1.879-4.309-4.056v-19.15c0-2.242 2.029-4.06 4.529-4.06zm24.175-6.063c2.557 0 4.63 1.846 4.63 4.123v25.088l-.006.2c-.117 2.184-2.143 3.923-4.624 3.923l-.224-.005c-2.453-.104-4.406-1.908-4.406-4.118V7.456l.006-.2c.117-2.184 2.143-3.923 4.624-3.923zM20 16.803l.22.005c2.398.103 4.309 1.88 4.309 4.056v11.742l-.006.197c-.114 2.151-2.096 3.864-4.523 3.864l-.22-.005c-2.398-.103-4.309-1.879-4.309-4.056V20.864c0-2.243 2.028-4.06 4.529-4.06z" transform="translate(0 3109) translate(110 100) translate(46 264) translate(0 200)"/>
                            </g>
                        </g>
                    </g>
                </g>
            </g>
        </g>
    </g>
</svg>
