<svg xmlns="http://www.w3.org/2000/svg" width="40" height="40" viewBox="0 0 40 40">
    <defs>
        <linearGradient id="bzqawdu5ba" x1="4.649%" x2="95.351%" y1="0%" y2="100%">
            <stop offset="0%" stop-color="#F67717"/>
            <stop offset="100%" stop-color="#FACA15"/>
        </linearGradient>
    </defs>
    <g fill="none" fill-rule="evenodd">
        <g fill="url(#bzqawdu5ba)" transform="translate(-443 -1018)">
            <g>
                <g>
                    <g>
                        <g>
                            <path d="M11.235 27.556l1.644 1.231c-.591.785-1.17 1.573-1.774 2.343-.176.226-.18.371-.01.612 1.736 2.473.235 6.01-2.757 6.523-.075.018-.15.04-.221.068h-1.03c-.765-.164-1.49-.407-2.12-.898-1.633-1.273-2.108-3.531-1.123-5.348.99-1.819 3.152-2.666 5.108-1.985.226.08.334.048.474-.142.593-.809 1.204-1.603 1.809-2.404zm23.476-2.288c2.07 1.816 2.562 4.79 1.162 7.102-1.423 2.35-4.277 3.36-6.816 2.395-1.444-.548-2.504-1.53-3.148-2.93-.644-1.402-.66-2.836-.162-4.298l-1.577-.954 1.065-1.75 1.568.934c2.46-2.584 5.965-2.204 7.908-.5zm-17.4-10.8c3.714.027 6.717 3.032 6.714 6.72-.004 3.706-3.04 6.727-6.749 6.714-3.725-.012-6.747-3.036-6.734-6.732.013-3.697 3.069-6.727 6.77-6.702zm-9.28-5.69c1.796.658 2.736 2.633 2.097 4.427-.072.201-.059.319.115.459.4.321.776.668 1.158 1.002l-1.358 1.541c-.378-.328-.765-.648-1.13-.99-.166-.154-.287-.182-.502-.07-1.322.69-2.851.458-4.002-.586-.996-.904-1.348-2.449-.85-3.738.688-1.786 2.688-2.7 4.473-2.045zm24.2-1.977c.406 2.246-1.037 4.382-3.311 4.89-.775.176-1.586.116-2.327-.172-.225-.087-.34-.048-.483.137-.783 1.01-1.577 2.01-2.37 3.012-.076.096-.159.19-.23.279l-1.613-1.266 2.783-3.53c-.434-.592-.723-1.276-.844-1.998-.367-2.202 1.28-4.45 3.512-4.772 2.347-.338 4.47 1.15 4.882 3.42z" transform="translate(110 578) translate(46 240) translate(287 200)"/>
                        </g>
                    </g>
                </g>
            </g>
        </g>
    </g>
</svg>
