<svg xmlns="http://www.w3.org/2000/svg" width="40" height="40" viewBox="0 0 40 40">
    <defs>
        <linearGradient id="782ogkr7da" x1="0%" x2="100%" y1="0%" y2="100%">
            <stop offset="0%" stop-color="#F67717"/>
            <stop offset="100%" stop-color="#FACA15"/>
        </linearGradient>
    </defs>
    <g fill="none" fill-rule="evenodd">
        <g fill="url(#782ogkr7da)" transform="translate(-1056 -1906)">
            <g>
                <g>
                    <g>
                        <g>
                            <path d="M35.6 29.372v2.732h1.294c.795 0 1.44.645 1.44 1.44v3.35c0 .795-.645 1.44-1.44 1.44h-3.35c-.796 0-1.44-.645-1.44-1.44V35.6H29.37v-.76h2.733v-1.296c0-.794.644-1.439 1.44-1.439h1.294v-2.732h.761zm-30.438 0v2.732h1.295c.795 0 1.44.645 1.44 1.44v1.294h2.732v.761H7.896v1.295c0 .795-.644 1.44-1.44 1.44h-3.35c-.795 0-1.44-.645-1.44-1.44v-3.35c0-.795.645-1.44 1.44-1.44h1.295v-2.731h.761zm22.768 5.466v.761h-2.884v-.76h2.884zm-8.651 0v.761h-2.883v-.76h2.883zm-4.325 0v.761H12.07v-.76h2.884zm8.65 0v.761h-2.883v-.76h2.883zM11.267 17.066c0-5.338 4.484-9.629 9.876-9.293 4.667.301 8.442 4.148 8.666 8.832.142 2.9-1.043 5.53-2.996 7.324-.125.117-.209.285-.209.452v3.604c0 .603-.434 1.14-1.06 1.282l-8.817 2.036c-.884.21-1.727-.427-1.727-1.29v-1.257c0-.126-.1-.227-.226-.235-1.227-.075-2.213-.352-2.404-1.064-.292-1.09-.492-4.358-.81-4.358-.326 0-1.41-.159-1.52-.813-.074-.428.902-1.826 1.562-2.732-.217-.787-.335-1.625-.335-2.488zm-6.104 7.98v2.884h-.761v-2.883h.76zm30.436 0v2.884h-.761v-2.883h.76zM5.163 20.722v2.884h-.761V20.72h.76zm30.436 0v2.884h-.761V20.72h.76zm-13.92 1.197h-2.563c-.2 0-.36.125-.36.285 0 .159.16.284.36.284h2.563c.192 0 .359-.125.359-.284 0-.16-.167-.285-.36-.285zm0-.956h-2.563c-.2 0-.36.126-.36.285 0 .16.16.285.36.285h2.563c.192 0 .359-.125.359-.285 0-.159-.167-.285-.36-.285zm-1.286-9.67c-.134 0-.276.008-.41.017-1.677.176-3.088 1.5-3.356 3.176-.216 1.332.26 2.564 1.119 3.402.46.444.743 1.038.743 1.676v.41c0 .327.268.596.593.596h2.63c.326 0 .584-.269.584-.596v-.402c0-.646.283-1.231.743-1.676.727-.704 1.177-1.684 1.177-2.773 0-2.112-1.712-3.83-3.823-3.83zm-15.23 5.103v2.884h-.761v-2.884h.76zm30.436 0v2.884h-.761v-2.884h.76zM5.163 12.07v2.884h-.761V12.07h.76zm30.436 0v2.883h-.761V12.07h.76zM6.457 1.667c.795 0 1.44.644 1.44 1.439V4.4h2.732v.76H7.896v1.296c0 .794-.644 1.439-1.44 1.439H5.163v2.733h-.76V7.896H3.105c-.795 0-1.44-.645-1.44-1.44v-3.35c0-.795.645-1.44 1.44-1.44zm30.437 0c.795 0 1.44.644 1.44 1.439v3.35c0 .795-.645 1.44-1.44 1.44h-1.295v2.732h-.76V7.896h-1.296c-.795 0-1.44-.645-1.44-1.44V5.163h-2.732V4.4h2.733V3.106c0-.795.644-1.44 1.44-1.44zM27.93 4.4v.76h-2.884v-.76h2.884zm-8.651 0v.76h-2.883v-.76h2.883zm4.325 0v.76h-2.883v-.76h2.883zm-8.65 0v.76H12.07v-.76h2.884z" transform="translate(0 1367) translate(768 339) translate(288 200)"/>
                        </g>
                    </g>
                </g>
            </g>
        </g>
    </g>
</svg>
