<svg xmlns="http://www.w3.org/2000/svg" width="451" height="340" viewBox="0 0 451 340">
    <defs>
        <linearGradient id="cpanfqlioa" x1="-.689%" x2="98.319%" y1="44.918%" y2="57.457%">
            <stop offset="0%" stop-color="#454451"/>
            <stop offset="100%" stop-color="#161616"/>
        </linearGradient>
        <linearGradient id="oh5dru33wb" x1="-.675%" x2="99.72%" y1="48.867%" y2="51.552%">
            <stop offset="0%" stop-color="#161616"/>
            <stop offset="100%" stop-color="#161616"/>
        </linearGradient>
        <linearGradient id="9c0kpfd8ec" x1="-1.738%" x2="97.417%" y1="2.51%" y2="100.776%">
            <stop offset="0%" stop-color="#454451"/>
            <stop offset="100%" stop-color="#161616"/>
        </linearGradient>
    </defs>
    <g fill="none" fill-rule="evenodd">
        <g>
            <g>
                <g>
                    <g>
                        <g fill="#E8E8E8">
                            <path d="M103.5 48.5c.1 1 .1 2 .2 3 0 .2.1.5.4.5 27.7 3.8 55.6.6 83.4.7 7.9 0 15.7.3 23.5 1.1.2 0 .4-.2.5-.4.3-1.3.6-2.7.8-4 .1-.6-.8-.9-1-.3-.3 1.3-.6 2.7-.8 4 .2-.1.3-.2.5-.4-27.5-2.7-55.2.7-82.8.1-8-.2-16-.7-23.9-1.8.1.2.2.3.4.5-.1-1-.1-2-.2-3 0-.6-1-.6-1 0z" transform="translate(-478 -2574) translate(110 2297) translate(46 240) translate(322 37) translate(217.668 .533)"/>
                            <path d="M104.4 49h107.2c.6 0 .6-1 0-1H104.4c-.7 0-.7 1 0 1z" transform="translate(-478 -2574) translate(110 2297) translate(46 240) translate(322 37) translate(217.668 .533)"/>
                            <path d="M110.4 48.2c.8-11.8 1.5-23.6 2.5-35.4.1-1.5.3-3.1.6-4.6.1-.6.1-1.7.5-2.2.4-.6 1.3-.6 2-.7 1.5-.3 4-1.2 5.1.4.3.5.4 1.4.5 2 .2 1 .3 2 .4 3 .5 5.8-.2 11.7-.7 17.5l-1.5 20.1c0 .6 1 .6 1 0 .7-9.6 1.5-19.2 2.1-28.8.3-4.4.4-8.9-.7-13.3-.3-1.2-.8-2.2-2.1-2.4-2.1-.2-4.5.6-6.6 1-.2 0-.3.2-.3.3-1.7 6.8-1.7 14.1-2.2 21.1l-1.5 21.9c-.2.7.8.7.9.1z" transform="translate(-478 -2574) translate(110 2297) translate(46 240) translate(322 37) translate(217.668 .533)"/>
                            <path d="M122.6 18.5c4 10.1 8.3 20.1 12.7 30 .3.6 1.1.1.9-.5-4.4-9.8-8.6-19.8-12.6-29.8-.3-.6-1.2-.3-1 .3zM123.4 13.2c.8-2.3 3.4-3.6 5.7-3 .6.2.9-.8.3-1-2.9-.8-6 .8-6.9 3.7-.2.7.7.9.9.3z" transform="translate(-478 -2574) translate(110 2297) translate(46 240) translate(322 37) translate(217.668 .533)"/>
                            <path d="M129.2 10.4c6.5 12.6 13 25.3 19.5 37.9.3.6 1.2.1.9-.5-6.5-12.6-13-25.3-19.5-37.9-.4-.6-1.2-.1-.9.5z" transform="translate(-478 -2574) translate(110 2297) translate(46 240) translate(322 37) translate(217.668 .533)"/>
                            <path d="M146.3 1.9c1.1 15.3 2.1 30.6 3.1 45.9 0 .6 1 .6 1 0-1.1-15.3-2.1-30.6-3.1-45.9 0-.6-1-.6-1 0z" transform="translate(-478 -2574) translate(110 2297) translate(46 240) translate(322 37) translate(217.668 .533)"/>
                            <path d="M147.2 2.5c1.7-1.5 3.9-1.5 6.1-1.2.9.1 1.8.3 2.6.6 1.5.6 1.3 1.9 1.3 3.3l.6 14.1c.4 9.5.8 19 1.1 28.6 0 .6 1 .6 1 0-.5-11.4-.9-22.8-1.3-34.1-.1-2.8-.2-5.7-.3-8.5-.1-1.4.1-3.2-1.4-4-1.6-.8-4-1.1-5.8-1.1-1.7 0-3.2.5-4.5 1.6-.6.4.1 1.1.6.7zM130 9.9c3.1.2 6.2 1.1 9.2 2 2.8.8 5.5 1.8 7.8 3.5.5.4 1-.5.5-.9-2.4-1.7-5.2-2.8-8.1-3.6-3.1-.9-6.2-1.8-9.4-2-.7-.1-.7.9 0 1z" transform="translate(-478 -2574) translate(110 2297) translate(46 240) translate(322 37) translate(217.668 .533)"/>
                            <path d="M158.3 8.1c1.4-.4 3.1-.7 4.6-.4 2.2.5 2.7 2.4 2.8 4.4.2 4 .2 8.1.3 12.1.2 8 .3 15.9.3 23.9 0 .6 1 .6 1 0 0-9.5-.2-19-.4-28.5-.1-2.3-.1-4.6-.2-6.9-.1-1.5 0-3.2-1-4.5-1.7-2.4-5.2-1.8-7.7-1.2-.6.3-.3 1.3.3 1.1z" transform="translate(-478 -2574) translate(110 2297) translate(46 240) translate(322 37) translate(217.668 .533)"/>
                            <path d="M165.5 2.9v8.8c0 .6 1 .6 1 0V2.9c0-.6-1-.6-1 0z" transform="translate(-478 -2574) translate(110 2297) translate(46 240) translate(322 37) translate(217.668 .533)"/>
                            <path d="M167 3.3c.3.1.6.2.8.3 0 .2.1.5.1.7.1.5.1 1.1.1 1.6.1.9.1 1.7.2 2.6.1 1.8.2 3.7.3 5.6.2 3.8.4 7.6.5 11.4.3 7.5.4 15.1.4 22.6 0 .6 1 .6 1 0 0-9.4-.2-18.8-.6-28.2-.2-4.6-.5-9.1-.8-13.7-.1-1.1.1-3.2-.9-3.9-.7-.5-1.6-.3-2 .5-.2.6.6 1.1.9.5zM118.5 53.3c1 1.7 2 4.3 3.7 5.5 1.6 1.2 3.6.1 5.4.8.6.2.9-.8.3-1-1.6-.6-3.4.3-4.8-.6-1.6-1-2.6-3.7-3.6-5.3-.5-.4-1.4.1-1 .6z" transform="translate(-478 -2574) translate(110 2297) translate(46 240) translate(322 37) translate(217.668 .533)"/>
                            <path d="M128.8 53.7c-.1 1.7-.7 3.3-1.5 4.7-.3.6.5 1.1.9.5 1-1.6 1.5-3.4 1.6-5.2.1-.6-.9-.6-1 0z" transform="translate(-478 -2574) translate(110 2297) translate(46 240) translate(322 37) translate(217.668 .533)"/>
                            <path d="M126 54.6l.9 4.5c.1.6 1.1.4 1-.3l-.9-4.5c-.2-.6-1.1-.4-1 .3z" transform="translate(-478 -2574) translate(110 2297) translate(46 240) translate(322 37) translate(217.668 .533)"/>
                            <path d="M127.2 54.5c.1 0 .1 0 .2.1.1.2.1.4.1.6 0 .2-.1.5-.2.7-.1.5-.2.9 0 1.3.2.6 1.1.4 1-.3-.2-.9 0-1.8.3-2.6-.3 0-.7-.1-1-.1-.1 1-.2 2.1-.3 3.1-.1.6.9.6 1 0 .1-1 .2-2.1.3-3.1.1-.6-.8-.6-1-.1-.4 1-.5 2.1-.3 3.1.3-.1.6-.2 1-.3-.3-1 .9-2.2-.1-3.1-.6-.5-1.5-.3-1.8.4-.4.7.6 1 .8.3zM178.7 47.3c-.3-1.2-.4-2.4-.3-3.7l-.5.5c5.8-.3 11.6-.7 17.5-.8 2.9-.1 5.9-.1 8.8 0h1.9c.7 0 2-.2 2.6.1 1.3.6.8 3.2.8 4.3 0 .6 1 .6 1 0 0-1.5.8-4.8-1.3-5.3-1.4-.3-3.2-.1-4.6-.2-1.8 0-3.7-.1-5.5 0-7 0-14 .5-21.1.8-.3 0-.5.2-.5.5-.1 1.3 0 2.6.4 3.9 0 .8 1 .6.8-.1z" transform="translate(-478 -2574) translate(110 2297) translate(46 240) translate(322 37) translate(217.668 .533)"/>
                            <path d="M182.4 37.4c.4 1.8.7 3.6.8 5.5 0 .6 1 .6 1 0-.1-1.9-.4-3.8-.9-5.7-.1-.6-1-.4-.9.2z" transform="translate(-478 -2574) translate(110 2297) translate(46 240) translate(322 37) translate(217.668 .533)"/>
                            <path d="M183 38.1c4-.3 8-.7 11.9-.5 3.7.2 7.5 1.4 11.3 1l-.5-.5c-.1 1.7.1 3.4.6 5.1.2.6 1.2.3 1-.3-.5-1.6-.7-3.1-.6-4.8 0-.3-.2-.5-.5-.5-3.7.4-7.5-.9-11.3-1-4-.2-8 .2-11.9.5-.6 0-.6 1 0 1zM149.6 140.1v4.1c0 .6 1 .6 1 0v-4.1c-.1-.6-1-.6-1 0z" transform="translate(-478 -2574) translate(110 2297) translate(46 240) translate(322 37) translate(217.668 .533)"/>
                            <path d="M150.1 139.8h76.8c.6 0 .6-1 0-1h-76.8c-.7 0-.7 1 0 1zM150.8 144.3h75.6c.6 0 .6-1 0-1h-75.6c-.6 0-.6 1 0 1z" transform="translate(-478 -2574) translate(110 2297) translate(46 240) translate(322 37) translate(217.668 .533)"/>
                            <path d="M226.3 140.1v2.9c0 .6 1 .6 1 0v-2.9c0-.6-1-.6-1 0zM157.2 129c.9 3.4 1.6 6.8 2.3 10.2.1.6 1.1.4 1-.3-.7-3.4-1.4-6.8-2.3-10.2-.3-.6-1.2-.3-1 .3zM174.3 128.7c-.8 3.4-1.4 6.8-1.9 10.2-.1.6.9.9 1 .3.5-3.4 1.2-6.8 1.9-10.2 0-.6-.9-.9-1-.3z" transform="translate(-478 -2574) translate(110 2297) translate(46 240) translate(322 37) translate(217.668 .533)"/>
                            <path d="M154.5 127.2c.1 1.7 2.6 1.6 3.9 1.6 2.8.1 5.7-.3 8.5-.5 1.4-.1 2.8-.1 4.2 0 1.2.1 2.4.5 3.5.3 1.2-.3 2-1.4 1.3-2.6-.3-.5-1.2 0-.9.5.9 1.5-2.2 1.1-2.5 1-.7-.1-1.4-.2-2.1-.2-1.6-.1-3.3 0-4.9.1-1.1.1-10.1 1.2-10.2-.3.1-.6-.8-.6-.8.1z" transform="translate(-478 -2574) translate(110 2297) translate(46 240) translate(322 37) translate(217.668 .533)"/>
                            <path d="M155.6 127.1c-.6-1.8 4.5-1.6 5.4-1.7 1.5-.1 3.1-.1 4.6-.2.8 0 9.4-.3 9.1.4-.2.6.8.9 1 .3 1-2.9-9.7-1.6-11.1-1.6-2.6.1-5.4-.1-7.9.4-1.3.3-2.4 1.2-2 2.7.2.5 1.1.3.9-.3z" transform="translate(-478 -2574) translate(110 2297) translate(46 240) translate(322 37) translate(217.668 .533)"/>
                            <path d="M160 124.3c-1.5-.7-2.9-1.7-3.9-2.9-.4-.5-3.5-4.9-1.7-5.2.3 0 .5-.5.3-.7-1-1.4-1.3-3.2-1.8-4.7-.6-1.7-1.1-3.4-1.6-5.1-.1-.4-.3-.7-.3-1.1-.2-.7-.3-.7.6-.8.9-.1 1.3.6 1.9 1.2 1.1 1.1 2.1 2.3 3 3.6 3.3 4.8 5.2 10.5 6.5 16.1.2.6 1.1.4 1-.3-1.8-7.2-4.4-14.5-9.6-20-.7-.8-2.1-2.5-3.3-2.3-.9.2-1.2 1.2-1.1 2 .1 1.8 1.1 3.8 1.7 5.6.7 2 1.1 4.4 2.3 6.2.1-.2.2-.5.3-.7-2.2.3-.9 3.4-.3 4.5 1.2 2.4 3.3 4.2 5.7 5.4.4.4.8-.5.3-.8z" transform="translate(-478 -2574) translate(110 2297) translate(46 240) translate(322 37) translate(217.668 .533)"/>
                            <path d="M161.1 115.3c-.1-4.2-.2-8.5 1.2-12.5.7-1.9 1.7-3.7 3-5.3.3-.4.6-1.1 1.1-1.4.3-.5.8-.6 1.4-.2.8-.2 1.2 0 1.2.6.4.9.3 2.4.3 3.3 0 2.2-.5 4.2-1.1 6.3-.2.7-.4 1.5-.3 2.2.1.9.5 1.5.8 2.3.7 2.2-.5 4.5-1.3 6.6-.8 2.1-1.6 4.3-2.4 6.4-.2.6.7.9 1 .3 1.1-2.8 2.2-5.6 3.2-8.5.7-2 1-3.7.2-5.7-1.1-2.7.6-5.7.9-8.4.1-1.8.4-4.8-.7-6.4-2.5-3.5-6.5 3.9-7.3 5.6-2.2 4.6-2.2 9.8-2.1 14.8 0 .7.9.7.9 0zM152.8 107.2c3.3 4.6 5.2 10.1 7.5 15.2.3.6 1.1.1.9-.5-2.2-5.1-4.2-10.6-7.5-15.2-.4-.5-1.2 0-.9.5z" transform="translate(-478 -2574) translate(110 2297) translate(46 240) translate(322 37) translate(217.668 .533)"/>
                            <path d="M161.9 104.9c.1 1.7.7 3.3 1.8 4.6.4.5 1.1-.2.7-.7-.9-1.2-1.4-2.5-1.5-3.9-.1-.6-1-.6-1 0zM166.4 104.7l2.4-3.6c.4-.5-.5-1-.9-.5l-2.4 3.6c-.3.5.5 1 .9.5zM176.2 104c-.8 1.3-2 2.3-3.1 3.4-1.2 1.1-2.4 2.3-3.6 3.4-.5.4.2 1.2.7.7 2.3-2.2 5.1-4.3 6.8-7 .4-.5-.5-1-.8-.5z" transform="translate(-478 -2574) translate(110 2297) translate(46 240) translate(322 37) translate(217.668 .533)"/>
                            <path d="M175.7 105.3c.1 1.7 3 5 .7 6-.3.2-.3.6-.1.8.8.9.3 2.3.2 3.4-.1 1.2 0 2.4-.3 3.6-.6 2.3-2.7 3.6-4.6 4.8-.5.3 0 1.2.5.9 2.3-1.4 4.6-3.1 5.1-5.9.3-1.5.3-3.1.4-4.6.1-1.1.1-1.9-.6-2.8 0 .3-.1.5-.1.8 3.1-1.5-.2-4.8-.2-6.9 0-.7-1-.7-1-.1z" transform="translate(-478 -2574) translate(110 2297) translate(46 240) translate(322 37) translate(217.668 .533)"/>
                            <path d="M174.2 110.2c-2.3 3.7-4.2 7.5-5.8 11.5-.2.6.7.9 1 .3 1.6-3.9 3.5-7.7 5.7-11.2.2-.7-.6-1.2-.9-.6zM158.9 135.8c1.3 1.8 3.1 3 5.3 3.5.6.1.9-.8.3-1-1.9-.4-3.6-1.4-4.7-3-.4-.5-1.3 0-.9.5zM158.3 131.7c3.4 2.6 7 6.3 11.3 7.2.6.1.9-.8.3-1-4.2-.9-7.8-4.6-11.1-7.1-.5-.3-1 .5-.5.9zM160.9 129.2c2 1.7 4 3.4 6.1 5 .9.7 1.8 1.3 2.9 1.8 1 .4 2.1.6 3 1.3.5.4 1-.5.5-.9-.7-.5-1.4-.7-2.2-1-1.3-.5-2.4-1.1-3.6-2-2-1.6-4-3.3-6-4.9-.5-.4-1.2.3-.7.7zM166.3 128.8c1.9 2 4.2 3.4 6.8 4.3.6.2.9-.8.3-1-2.5-.8-4.6-2.2-6.4-4-.4-.5-1.1.2-.7.7zM190.5 138.3c-.2-.5-.5-1.2-.5-1.8.1-1.4 1.1-1.6 2.1-1.7 1.4-.3 2.8-.3 4.2-.3 2.4 0 4.8.2 7.2.3 2.4.1 4.8-.1 7.2-.3 1-.1 2.7-.5 3.7-.2 1 .4 1.2.9 1.3 1.8 0 .7 0 1.4.1 2.2 0 .6 1 .6 1 0 0-1.1.3-3.1-.3-4.1-.5-.9-1.7-.8-2.7-.8-3.7 0-7.4.6-11.2.4-3.5-.1-7-.4-10.5.1-2.8.4-3.6 2.2-2.6 4.8.3.5 1.2.2 1-.4z" transform="translate(-478 -2574) translate(110 2297) translate(46 240) translate(322 37) translate(217.668 .533)"/>
                            <path d="M197.5 133c.3-.6.5-1.2.8-1.8.3 0 .6-.1.9-.1h3.7c1.8 0 3.6 0 5.4-.1 1.7 0 3.4 0 5.1-.1h1.3c.5 0 .7-.1.9.3.2.5-.2 1.9-.2 2.4-.1.6.9.6 1 0 .1-.8.6-2.4.2-3.2-.3-.6-.8-.5-1.5-.5-3.2 0-6.3.1-9.5.1-1.5 0-3 0-4.4.1-1.1 0-2.5-.1-3.5.4-1.2.6-1.7 2.2-.6 3.2.2.4.9-.3.4-.7zM204.3 129c-.9-1.2 2.7-1 3-1.1.8-.1 3.5-.6 3 1.2-.2.6.8.9 1 .3.2-.8 0-1.5-.7-2-1.1-.9-2.4-.5-3.7-.4-1 0-2.2-.3-3.1.5-.6.5-.8 1.3-.3 2 .3.5 1.2 0 .8-.5zM154 145.1c1.2 1.7 2.7 3.1 4.5 4.3.5.4 1-.5.5-.9-1.6-1.1-3-2.4-4.1-4-.5-.5-1.3 0-.9.6z" transform="translate(-478 -2574) translate(110 2297) translate(46 240) translate(322 37) translate(217.668 .533)"/>
                            <path d="M158.3 149h3.3c.6 0 1.6.2 2.2-.1.4-.2.6-.8.8-1.2.5-1.1 1.2-2 1.9-3 .4-.5-.3-1.2-.7-.7-.4.4-.7.9-1 1.3-.4.6-.7 1.5-1.1 2.1-.9 1.1-3.9.6-5.3.6-.7 0-.7 1-.1 1z" transform="translate(-478 -2574) translate(110 2297) translate(46 240) translate(322 37) translate(217.668 .533)"/>
                            <path d="M162 145c.3 1 .5 2 .8 3 .2.6 1.1.4 1-.3-.3-1-.5-2-.8-3-.2-.6-1.2-.3-1 .3zM202.1 144.8c.5 1.1 1.1 2.1 1.8 3.1.4.5.8 1.3 1.4 1.6.7.3 1.6.1 2.2 0 1.2-.1 2.4-.2 3.6-.4.6-.1.6-1.1 0-1-.8.1-1.6.2-2.4.2-.7.1-1.7.4-2.4.2-1.7-.3-2.8-3-3.4-4.4-.3-.4-1.1.1-.8.7z" transform="translate(-478 -2574) translate(110 2297) translate(46 240) translate(322 37) translate(217.668 .533)"/>
                            <path d="M211.1 144c-.4 1.4-.6 2.9-.6 4.3 0 .6 1 .6 1 0 0-1.4.1-2.7.5-4 .2-.6-.7-.9-.9-.3z" transform="translate(-478 -2574) translate(110 2297) translate(46 240) translate(322 37) translate(217.668 .533)"/>
                            <path d="M211.5 148.8c1.3-1.2 2.6-2.6 3.8-3.9.4-.5-.3-1.2-.7-.7-1.2 1.3-2.5 2.7-3.8 3.9-.4.4.3 1.1.7.7zM.3 48.5v27.8c0 .6 1 .6 1 0V48.5c0-.6-1-.6-1 0z" transform="translate(-478 -2574) translate(110 2297) translate(46 240) translate(322 37) translate(217.668 .533)"/>
                            <path d="M1.1 77h35.3c.6 0 .6-1 0-1H1.1c-.7 0-.7 1 0 1zM1.1 49h34.2c.6 0 .6-1 0-1H1.1c-.7 0-.7 1 0 1z" transform="translate(-478 -2574) translate(110 2297) translate(46 240) translate(322 37) translate(217.668 .533)"/>
                            <path d="M35.3 48.5v27.8c0 .6 1 .6 1 0V48.5c0-.6-1-.6-1 0zM18.6 47.7c0-.4 0-.8.2-1.2.1-.2.5-.8.7-.7.4.2.5.9.5 1.2.1.5.1 1 0 1.5-.1.6.9.6 1 0 .1-.9 0-1.7-.3-2.5-.2-.5-.5-1.2-1.1-1.2-1.3-.2-2 1.9-2 2.9.1.6 1.1.6 1 0zM2.2 51.7v22.2c0 .6 1 .6 1 0V51.7c0-.7-1-.7-1 0z" transform="translate(-478 -2574) translate(110 2297) translate(46 240) translate(322 37) translate(217.668 .533)"/>
                            <path d="M2.7 74.3h31c.6 0 .6-1 0-1h-31c-.7 0-.7 1 0 1z" transform="translate(-478 -2574) translate(110 2297) translate(46 240) translate(322 37) translate(217.668 .533)"/>
                            <path d="M34.4 73.6V51.4c0-.6-1-.6-1 0v22.2c.1.6 1 .6 1 0zM2.9 52.4h29.9c.6 0 .6-1 0-1H2.9c-.6 0-.6 1 0 1zM3.1 69.1c3.8-1.2 7.8-2.2 11.6-.4 2.7 1.3 5.1 3.2 8.2 3.8.6.1.9-.8.3-1-3.5-.7-6.1-3.2-9.4-4.3-3.6-1.2-7.3-.1-10.8.9-.8.3-.5 1.2.1 1z" transform="translate(-478 -2574) translate(110 2297) translate(46 240) translate(322 37) translate(217.668 .533)"/>
                            <path d="M15.9 68.5c4.7-1.6 9.6-2.2 14.5-1.7.6.1.6-.9 0-1-5-.5-10 .1-14.8 1.8-.5.2-.3 1.2.3.9zM16.9 60.9c-.4-.6-.3-1.5.4-2 .6-.4 1.4-.2 1.8.3.4.6.2 1.4-.5 1.8-.7.4-1.5-.3-1.5-1.1 0-.6-1-.6-1 0 0 1.3 1.3 2.4 2.6 2.1 1.2-.3 1.9-1.9 1.3-3-.5-1.2-2.1-1.6-3.2-1-1.2.7-1.5 2.3-.9 3.4.5.6 1.3.1 1-.5zM177.2 53.3c1.2 1.6 1.4 3.7 2.9 5.1 1.3 1.3 3 1.1 4.6.5.6-.2.3-1.2-.3-1-.9.3-1.9.6-2.8.3-.8-.3-1.3-1.1-1.7-1.8-.6-1.2-1-2.5-1.8-3.7-.5-.5-1.3 0-.9.6z" transform="translate(-478 -2574) translate(110 2297) translate(46 240) translate(322 37) translate(217.668 .533)"/>
                            <path d="M184.5 58.5c1.6-1.3 3-2.9 4.1-4.6.4-.5-.5-1-.9-.5-1.1 1.6-2.5 3.1-4 4.4-.4.4.3 1.1.8.7zM182.1 52.9c.5 1.1.7 2.2.6 3.4 0 .6 1 .6 1 0 0-1.3-.2-2.6-.8-3.8-.2-.7-1-.2-.8.4zM155.7 181.6v13.2c0 .6 1 .6 1 0v-13.2c0-.7-1-.7-1 0zM143.7 196.5h34.9c.6 0 .6-1 0-1h-34.9c-.6 0-.6 1 0 1zM162.7 197.4v8.2c0 .6 1 .6 1 0v-8.2c-.1-.7-1-.7-1 0z" transform="translate(-478 -2574) translate(110 2297) translate(46 240) translate(322 37) translate(217.668 .533)"/>
                            <path d="M143.4 207.1h30.9c.6 0 .6-1 0-1h-30.9c-.6 0-.6 1 0 1zM151.1 207.9v6.2c0 .6 1 .6 1 0v-6.2c0-.6-1-.6-1 0zM154.4 48.6c0-1.4-.3-3.1 0-4.5.4-1.9 3-1.5 4.6-1.6.6 0 .6-1 0-1-1.2.1-2.6.1-3.8.3-.6.1-1.1.3-1.4.8-.4.6-.3 1.4-.3 2.1v4c-.1.6.9.6.9-.1zM148.6 11.9c3-.8 6-.6 8.8.5.6.2.9-.7.3-1-3-1.2-6.2-1.4-9.4-.5-.5.2-.3 1.2.3 1zM147.4 8.9c2.6-1.8 5.8-2.1 8.7-1 .6.2.9-.7.3-1-3.2-1.3-6.7-.9-9.5 1.1-.5.4 0 1.3.5.9zM136.7 26.1c-1.1.7-3.1 1.7-3.4 3.1-.1.7.2 1.4.5 2 .5 1.2.9 2.3 1.4 3.5 1.9 4.5 4 8.9 6.4 13.2.3.6 1.2.1.9-.5-1.8-3.3-3.5-6.6-5-10.1-.8-1.8-1.6-3.7-2.3-5.5-.4-1.1-1-2-.2-3.2.5-.7 1.6-1.2 2.3-1.7.5-.3 0-1.1-.6-.8z" transform="translate(-478 -2574) translate(110 2297) translate(46 240) translate(322 37) translate(217.668 .533)"/>
                        </g>
                        <g>
                            <path fill="#FFF" stroke="#161616" stroke-width=".987" d="M54.3 40.7c-2.7 2-6 5.2-7.1 9.8-.9 3.4 0 5.4-.3 9.8-.2 3.1-1 7.4-3.5 12.5-5.8-1.2-15.4-2.3-26.8.3-6.8 1.6-12.3 4-16.3 6.3.6.4 1.5.9 2.6 1.2 6.2 1.7 12.6-3.5 12.8-3.1.2.3-7.2 3.8-6.8 6.8.3 2 3.9 3.1 7.7 4.3 3.2 1 6.2 1.9 10.3 1.4 5.6-.6 9.4-3.4 11.1-4.9 1.6.8 4.1 1.9 7.1 2.9 5.6 1.7 13.4 4.1 18.6.9 3.4-2.1 4.4-7 6.3-16.8 2.1-12.1 3.2-18.1.1-23-4-6.5-12.3-8-15.8-8.4z" transform="translate(-478 -2574) translate(110 2297) translate(46 240) translate(322 37) translate(161.75 147.232)"/>
                            <path fill="#161616" d="M42.3 73.2c4 1.5 7.3 4.2 9.5 7.8.3.5 1.2 0 .9-.5-2.4-3.8-5.9-6.6-10.1-8.2-.7-.3-.9.7-.3.9zM21.1 79.7c-3.9.7-7.1 3.3-8.5 7-.2.6.7.9 1 .3 1.3-3.4 4.2-5.7 7.8-6.3.6-.2.3-1.1-.3-1zM25.7 83c-1.4.9-2.7 1.8-4 2.9-.8.7-1.7 1.6-1.5 2.8.5 3.1 4.2 2.4 6.3 1.6.6-.2.3-1.2-.3-1-.9.3-1.9.8-2.8.7-1.5-.1-2.9-1.5-1.6-2.9 1.2-1.3 2.9-2.4 4.4-3.4.5-.3 0-1.1-.5-.7z" transform="translate(-478 -2574) translate(110 2297) translate(46 240) translate(322 37) translate(161.75 147.232)"/>
                            <path fill="#6E8EFF" d="M85 .2c-1.7.6-3.8 1.4-6.2 2.6-.7.3-2.4 1.2-4.3 2.4-2.9 1.8-5 3.8-7.4 6.2-3.1 3.1-6.2 6.2-9.8 11.2-3.1 4.2-7.9 10.8-11.3 20.5-1.4 3.8-2.2 7.2-2.6 9.5 1.8-1.1 3.5-1.6 4.7-1.9 7.4-1.7 14.5 2.1 21.2 5.6 2.5 1.3 4.5 2.6 5.9 3.5.7-3.6 1.4-7.1 2.2-10.7l1.8-9c1-.8 2.2-2 3.7-3.6 2.7-3 8-9 8.7-17.4.8-9.5-4.9-16.9-6.6-18.9z" transform="translate(-478 -2574) translate(110 2297) translate(46 240) translate(322 37) translate(161.75 147.232)"/>
                            <path fill="#161616" d="M83.1.6c-3.5.5-6.5 2.4-9.3 4.6-3.2 2.5-6.1 5.2-8.9 8.1-5.4 5.6-10.1 11.8-14 18.6-.3.6.5 1.1.9.5 3.7-6.5 8.2-12.6 13.4-18 2.5-2.6 5.2-5.1 8-7.5 3-2.5 6.2-4.8 10.1-5.4.7-.1.4-1-.2-.9zM81.7 36.5c-2.4 2.5-4.9 4.9-7.5 7.2-.5.4.2 1.1.7.7 2.5-2.3 5-4.7 7.5-7.2.4-.5-.3-1.2-.7-.7z" transform="translate(-478 -2574) translate(110 2297) translate(46 240) translate(322 37) translate(161.75 147.232)"/>
                            <path fill="#161616" d="M78.3 41c-1.2 6.3-2.3 12.7-3.4 19 .2-.1.5-.2.7-.3-5.2-3.7-11.1-6.4-17.2-8.1-4.8-1.3-11-2.6-15.1 1.1-.5.4.2 1.1.7.7 4.2-3.7 11-1.8 15.8-.3 5.5 1.7 10.7 4.2 15.4 7.5.3.2.7 0 .7-.3 1.2-6.3 2.3-12.7 3.4-19 0-.7-.9-.9-1-.3z" transform="translate(-478 -2574) translate(110 2297) translate(46 240) translate(322 37) translate(161.75 147.232)"/>
                            <path fill="#161616" d="M51.2 31.3c-3.4 6.7-7.7 13.6-8 21.3 0 .6 1 .6 1 0 .3-7.5 4.5-14.2 7.9-20.8.2-.5-.7-1-.9-.5z" transform="translate(-478 -2574) translate(110 2297) translate(46 240) translate(322 37) translate(161.75 147.232)"/>
                            <path fill="#3D3D3D" d="M80.4 18.9c-5.9 11.7-9.1 21.6-11 28.5-2.7 10.1-3.7 18.1-10.8 24.8-1.2 1.1-4.5 4.2-9.9 6.2-11.2 4-19.5-1.4-26.5 4.4-.8.7-3.1 2.3-2.9 4.2.3 1.8 2.7 2.7 3.1 2.9 2.9 1.1 5.9 0 9.6-1.5 4.2-1.7 3.8-2.3 5.7-2.6 4-.7 5.9 1.8 11.2 3.5 2.3.7 9 2.8 13.8 0 3.6-2.1 4.6-6 6.3-12.5 1.2-4.4 2.4-10.9 2.2-19.1 1.3 1 2.6 2 3.9 3.1 2-14.1 3.6-28 5.3-41.9z" opacity=".4" transform="translate(-478 -2574) translate(110 2297) translate(46 240) translate(322 37) translate(161.75 147.232)"/>
                            <path fill="#3D3D3D" d="M78.4 33.2c-4.5 8.5-6.7 15.7-7.9 20.6-2.4 9.8-1.6 14.4-4.8 21.2-3.5 7.5-9 12.2-12.9 14.9 2.2.5 7.4 1.4 11.2-1.5 2.7-2.1 3.4-5 4.4-9.9 1.3-6 2.6-12.7 3.9-20.2 1 .7 2 1.3 3.1 2 1-9 2-18.1 3-27.1z" opacity=".38" transform="translate(-478 -2574) translate(110 2297) translate(46 240) translate(322 37) translate(161.75 147.232)"/>
                        </g>
                        <g>
                            <path fill="#6E8EFF" d="M15.3 7.4c-1.2 7.7-2.3 15.5-3.5 23.4C7.5 61.1 3.7 90.9.6 120.3c.1 1 .3 2.6 1.3 4.1 1 1.6 2.3 2.4 2.9 2.9 6 4.3 9 6.4 12 7.9 14.5 7 30.6 6.2 30.6 6.2 3.4-.2 10.1-.6 17.4-3.5.4-.2 3.2-1.4 8.7-4 5-2.3 5.9-2.8 7.1-3.9 2.9-2.7 4-6 4.8-8.3 1.6-5 1.4-9.2 1.4-10.2 0 0-.3-8.2-.6-56 0-9.7.9-24 6.1-41.7C87 11.2 82 8.8 76 5.9c-4.1-2-8-3.8-13.5-4.5-1.6-.2-3-.3-5.1-.2-8.8 0-15.8 1.3-18.8 1.8-5.9.9-13.9 2.4-23.3 4.4z" transform="translate(-478 -2574) translate(110 2297) translate(46 240) translate(322 37) translate(230.824 139.338)"/>
                            <path fill="#161616" d="M15 8.6c10.2-2.2 20.5-3.9 30.8-5.2.5-.1.7-.7.3-.9-.1-.1-.3-.2-.4-.2-.6-.3-1.1.5-.5.9.1.1.3.2.4.2l.3-.9C35.4 3.7 25 5.4 14.8 7.6c-.7.1-.4 1.1.2 1zM11.9 25.8C8.3 51.6 5 77.4 2.1 103.3c-.4 3.3-.7 6.5-1.1 9.7-.3 2.8-1.1 6-.8 8.8.3 2.5 2.3 4.1 4.1 5.6 2 1.6 4 3.2 6.2 4.6 8.9 5.8 19.3 9.2 29.9 9.8 12.6.7 25.3-2.5 36-9.1.5-.3 0-1.2-.5-.9-18.8 11.5-42.8 11.9-61.9 1.1-2.2-1.2-4.3-2.6-6.4-4.1-2.1-1.5-5.4-3.7-6.3-6.2-.4-1.2-.2-2.6-.1-3.8.2-1.6.4-3.3.5-4.9.3-3 .7-6.1 1-9.1C4.3 92.6 5.8 80.3 7.3 68c1.8-14 3.6-28 5.6-41.9.1-.7-.9-.9-1-.3zM60.4 1C66.2 2.2 71.6 4.8 77 7.1c5.3 2.2 11.2 4 15.9 7.5.5.4 1-.5.5-.9-4.6-3.3-10.4-5.1-15.5-7.3C72.3 4.1 66.7 1.3 60.7.1c-.7-.2-.9.8-.3.9z" transform="translate(-478 -2574) translate(110 2297) translate(46 240) translate(322 37) translate(230.824 139.338)"/>
                            <path fill="#161616" d="M86.2 56.8c-.5 13.8-1.1 27.7-.6 41.5.2 6.7 1.3 13.7 0 20.4-1.1 5.5-4.1 11-9.6 13-.6.2-.3 1.2.3 1 8.7-3.3 11-13.2 10.9-21.6-.1-5.7-.6-11.3-.7-17-.1-5.8-.1-11.5 0-17.3.1-6.6.4-13.3.6-19.9.1-.8-.9-.8-.9-.1z" transform="translate(-478 -2574) translate(110 2297) translate(46 240) translate(322 37) translate(230.824 139.338)"/>
                            <path fill="#3D3D3D" d="M81.4 49c-1.7 6-4.5 12.5-8.7 19-18.8 29-53.4 34.8-62.2 36 11.8 1.2 23.8 2.6 35.9 4 13.4 1.6 26.5 3.3 39.5 5-.8-14.7-.8-26.8-.6-35.5.4-17.9 1.6-32.4-.7-32.8-.4-.1-1.4.6-3.2 4.3z" opacity=".38" transform="translate(-478 -2574) translate(110 2297) translate(46 240) translate(322 37) translate(230.824 139.338)"/>
                            <path fill="#3D3D3D" d="M85.5 59.8c-1.2 3.5-3 8.4-5.7 14.1-3.7 8.1-7.3 15.8-12 20.6-13 13.3-38.3 7.6-38.4 8.5 0 .5 9.2 2 56.1 6.3.1-16.5.1-33 0-49.5z" opacity=".42" transform="translate(-478 -2574) translate(110 2297) translate(46 240) translate(322 37) translate(230.824 139.338)"/>
                        </g>
                        <g>
                            <path fill="#FFF" stroke="#161616" stroke-width=".987" d="M363.6 110.5C242.8 94.4 122.1 78.3 1.4 62.2 37 41.5 72.7 20.9 108.3.2 217.2 11 326.1 21.7 435 32.4c-23.8 26-47.6 52.1-71.4 78.1z" transform="translate(-478 -2574) translate(110 2297) translate(46 240) translate(322 37) translate(11.762 224.2)"/>
                            <path stroke="#161616" stroke-width="5.263" d="M.2 65c121 16.1 242 32.1 363 48.2M360.9 113.9c25.4-26.8 50.7-53.6 76-80.5" transform="translate(-478 -2574) translate(110 2297) translate(46 240) translate(322 37) translate(11.762 224.2)"/>
                            <path fill="#161616" d="M320.5 43.4C308.2 53 296.1 63 284.2 73.2c-.5.4.2 1.1.7.7 11.9-10.2 24-20.1 36.3-29.8.5-.4-.2-1.1-.7-.7z" transform="translate(-478 -2574) translate(110 2297) translate(46 240) translate(322 37) translate(11.762 224.2)"/>
                            <path fill="#161616" d="M284.7 73.7c3.9.8 7.8.8 11.8.9 4.5.1 8.7.5 13 1.8 8 2.3 15.9 3.9 24.3 3.7.6 0 .6-1 0-1-4.3.1-8.6-.2-12.9-.9-4-.7-7.8-1.8-11.7-2.9-3.7-1.1-7.5-1.5-11.4-1.6-4.3-.1-8.6 0-12.8-.9-.7-.2-.9.8-.3.9zM321.2 44.1c13 1.1 26 3.1 38.6 6.2.6.2.9-.8.3-1-12.8-3.1-25.8-5.2-38.9-6.2-.6 0-.6 1 0 1z" transform="translate(-478 -2574) translate(110 2297) translate(46 240) translate(322 37) translate(11.762 224.2)"/>
                            <path fill="#161616" d="M334.5 79.4c9.2-9.1 18-18.6 26.3-28.4.4-.5-.3-1.2-.7-.7-8.4 9.8-17.2 19.3-26.3 28.4-.5.5.2 1.2.7.7zM296.2 69.8c11.3-1.4 22.8 0 33.4 4.2.6.2.9-.7.3-1-10.7-4.1-22.3-5.6-33.6-4.2-.8.1-.8 1.1-.1 1zM313.3 66.2c7 .5 13.8 1.6 20.7 3.2.6.2.9-.8.3-1-6.9-1.6-13.8-2.7-20.9-3.3-.8.1-.7 1-.1 1.1zM308.1 58.9c10.5.2 20.9 1.7 31 4.5.6.2.9-.8.3-1-10.2-2.8-20.7-4.3-31.3-4.6-.7.1-.7 1.1 0 1.1zM321.1 55.9c5.7.8 11.2 1.8 16.8 3 .6.1.9-.8.3-1-5.6-1.2-11.2-2.2-16.8-3-.7-.1-.9.9-.3 1zM313.9 78c-2 3.1-4 6.2-6.1 9.2-.2.3.1.8.4.8 16.2-1.8 32.7-.8 48.5 3.1.6.2.9-.8.3-1-16-3.9-32.5-5-48.8-3.2.1.3.3.5.4.8 2-3.1 4-6.2 6.1-9.2.4-.6-.4-1.1-.8-.5z" transform="translate(-478 -2574) translate(110 2297) translate(46 240) translate(322 37) translate(11.762 224.2)"/>
                            <path fill="#161616" d="M353.7 59.3c6.3-.1 12.7-.3 19-.4-.2-.2-.3-.4-.5-.6L359 89.5c-.2.6.7.9 1 .3l13.2-31.2c.1-.3-.2-.6-.5-.6-6.3.1-12.7.3-19 .4-.7-.1-.7.9 0 .9zM329.6 83.8c1.7-.3 3.4-.4 5.1-.3.6 0 .6-1 0-1-1.8-.1-3.6 0-5.3.3-.7.1-.4 1.1.2 1zM339 83.9c5.2.2 10.3.7 15.5 1.5.6.1.9-.9.3-1-5.2-.8-10.5-1.3-15.7-1.5-.8 0-.8.9-.1 1zM339.3 77.7h3.7c.6 0 .6-1 0-1h-3.7c-.7 0-.7 1 0 1z" transform="translate(-478 -2574) translate(110 2297) translate(46 240) translate(322 37) translate(11.762 224.2)"/>
                            <path fill="#161616" d="M346.9 77.6c4 .1 8.1.5 12.1 1.2.6.1.9-.9.3-1-4.1-.7-8.2-1.1-12.3-1.2-.7 0-.7 1-.1 1zM346.3 72c4.6.1 9.2.3 13.7.9.6.1.6-.9 0-1-4.6-.5-9.1-.8-13.7-.9-.6-.1-.6.9 0 1zM315.4 82.9c2.2.1 4.4-.2 6.5-.7.6-.2.4-1.1-.3-1-2.1.5-4.1.8-6.3.7-.5 0-.5 1 .1 1zM331 31.3c-.9 1.1-1.8 3.2-.8 4.5.6.8 1.8.6 2.7.7 1.6.1 3.2.2 4.8.2 6.5.3 13.1.6 19.6.9.6 0 .6-1 0-1-4.8-.2-9.6-.5-14.5-.7-2.4-.1-4.7-.2-7.1-.3-1.2-.1-2.4 0-3.5-.2-.9-.1-1.5-.2-1.4-1.2 0-.8.4-1.6.9-2.2.4-.5-.3-1.2-.7-.7z" transform="translate(-478 -2574) translate(110 2297) translate(46 240) translate(322 37) translate(11.762 224.2)"/>
                            <path fill="#161616" d="M331.9 32.6c5.5.2 11.1.4 16.6.6l8.1.3c2.4.1 5 .3 6.7 2.1.4.5 1.1-.2.7-.7-1.3-1.4-3.1-2-5-2.3-2.8-.4-5.8-.3-8.6-.4-6.2-.2-12.4-.4-18.5-.6-.6 0-.6 1 0 1z" transform="translate(-478 -2574) translate(110 2297) translate(46 240) translate(322 37) translate(11.762 224.2)"/>
                            <path fill="#161616" d="M357 37.7c2.5 0 4.9-.8 7-2.3.5-.4 0-1.2-.5-.9-1.9 1.4-4.1 2.2-6.5 2.1-.6.1-.6 1.1 0 1.1z" transform="translate(-478 -2574) translate(110 2297) translate(46 240) translate(322 37) translate(11.762 224.2)"/>
                            <path fill="#161616" d="M357.8 32.6c-1.4.9-2 2.6-1.5 4.2.2.6 1.1.4 1-.3-.3-1.2.1-2.4 1.1-3.1.4-.3-.1-1.2-.6-.8z" transform="translate(-478 -2574) translate(110 2297) translate(46 240) translate(322 37) translate(11.762 224.2)"/>
                        </g>
                        <g>
                            <g>
                                <path fill="#161616" d="M17.9 2.4c4.4-1.3 9-2.2 12.8-.5 7.7 3.2 4.4 17.7 2.8 27.8-.1.4-.2.5-.3.5 0 0-.1.1-.2.1-11 4.2-22 4.8-31.9 1.6-.2 0-.3-.2-.3-.3-1.3-1.3-.6-5.1-.4-7.4.3-3.7 1-9 2-15.8v-.2c.2-.5.5-1.1.9-1.2 5.2-1.9 9.4-3 14.6-4.6zm10.4.7c-3.8-.8-8 .3-12 1.6C11.6 6.1 7 7.9 2.4 9.5L3.7 9c-.5 3.3-1.1 6.5-1.5 9.8C2 20.4.3 30.2 2 30.3c.1 0 .3.1.3.2 9.6 2.9 20 2.3 30.6-1.8l-.3.1c.9-5.3 2.1-10.3 2.1-15.5-.1-6-2.3-9.4-6.4-10.2z" transform="translate(-478 -2574) translate(110 2297) translate(46 240) translate(322 37) translate(99.022 129.93)"/>
                                <g>
                                    <g fill="url(#cpanfqlioa)" transform="translate(-478 -2574) translate(110 2297) translate(46 240) translate(322 37) translate(99.022 129.93) translate(9.242 6.281)">
                                        <g>
                                            <path d="M16.8 6.5c0-1.6-1.2-2.9-2.6-2.9-.1-2-1.5-3.6-3.3-3.6C9.6 0 8.6.8 8 1.9 7.5 1.2 6.7.8 6 .8 4.6.8 3.4 2.1 3.4 3.7c-.3-.1-.5-.1-.7-.1C1.2 3.6 0 4.9 0 6.5v.4c0 .8.3 1.6.8 2.2.5.6 1.2.9 1.9.9h12c1.3-.2 2.2-1.5 2.2-3v-.2c-.1-.1-.1-.2-.1-.3zM2.3 9.7h.1-.1z" transform="translate(.056 .083)"/>
                                        </g>
                                    </g>
                                    <g>
                                        <path fill="url(#oh5dru33wb)" d="M0.2 5.9L2.2 0.2 12 0.2 14.2 5.9z" transform="translate(-478 -2574) translate(110 2297) translate(46 240) translate(322 37) translate(99.022 129.93) translate(9.242 6.281) translate(1.44 12.258)"/>
                                        <path fill="#FFF" fill-rule="nonzero" stroke="#454451" stroke-width=".66" d="M.3 5.2h13.4c.1 0 .2.1.2.2v5c0 .1-.1.2-.2.2H.3c-.1 0-.2-.1-.2-.2v-5c.1-.1.1-.2.2-.2z" transform="translate(-478 -2574) translate(110 2297) translate(46 240) translate(322 37) translate(99.022 129.93) translate(9.242 6.281) translate(1.44 12.258)"/>
                                        <path fill="url(#9c0kpfd8ec)" d="M9.9 6.5H12.600000000000001V9.2H9.9z" transform="translate(-478 -2574) translate(110 2297) translate(46 240) translate(322 37) translate(99.022 129.93) translate(9.242 6.281) translate(1.44 12.258)"/>
                                    </g>
                                </g>
                            </g>
                            <path fill="#A7BAFD" d="M24.4 22.9c3 1.4 5.3-1.3 5.4-4.5 0-.3-.2-1.1-.1-1.3h-.1c.2.1.4.2.5.5.4.6.6 1.3 1.1 1.9.9 1.2 2.2 1.4 3.6 1.5.7 0 1.5-.1 1.9.6.4.7.2 1.8.1 2.6-.1 1.1-.1 2.1-.2 3.2 0 .3-.3 1.3.1.9-.2.3-1.1.3-1.4.4-1.8.4-3.6.6-5.4.5-.9-.1-2.4.1-2.9-.8-.5-.8-.5-2.1-.4-3.1-.7.1-1.5.2-2.2.3.6 1.5 1.3 3.1 1.9 4.7.4 1 2 .7 2.2-.3.6-3.2-.2-6.5.7-9.5-.7.2-1.3.4-2 .6.8 1 .6 3.2.8 4.5.2 1.5.6 2.8 1.2 4.1.6 1.1 2.3.6 2.3-.7l-.6-10.5c-.8.1-1.6.2-2.4.4 1.1 3.3 1.3 6.7.4 10.1.6-.3 1.2-.5 1.8-.8-1.5-1.3-2.6-2.9-3.4-4.8-.5-1.4-2.3-.8-2.3.5.1 1.2.1 2.3.1 3.5h2.4c-.1-1.5 0-2.9.3-4.3.1-.5.2-1 .4-1.5.1-.3.2-.7.3-1 .4-.5.3-.6-.2-.5 1.3 2 1.5 5 1.2 7.3.8-.2 1.5-.4 2.3-.7-.6-1.4-1-2.8-1.2-4.3-.1-.8-.1-1.6-.1-2.4 0-.1.1-.9.1-1-.2 0-.4 0-.6.1.1.2.2.4.3.7 1.2 2.7 1.6 5.8 1.3 8.9.8-.2 1.5-.4 2.3-.7-.5-1.1-.9-2.3-1.1-3.6-.1-.5-.1-1.1-.1-1.6 0-.3.1-.6.2-.9.3-.4.3-.5.1-.4-.3-.1-.6-.1-.9-.1.4.2.7 2.5.8 3.1.2 1.3.1 2.6 0 3.8h2.3c-.3-.9-.5-1.9-.6-2.9-.1-.9-.1-1.9-.3-2.8.6 2 .5 4.1-.1 6.1.7-.1 1.5-.2 2.2-.3-.3-.8-.6-1.6-.7-2.4-.1-.4-.1-.8-.1-1.2v-.5c.1-.4-.1-.4-.5-.1-.2-.2-.5-.4-.7-.6 1.5 2.9-1.5 6-4.2 5.6.3.4.6.8.9 1.3 0-.5-.2-1.3 0-1.8-.2.3-.4.5-.6.8-.5.3 2-.1 1-.2-1.4-.1-1.6 2.2-.3 2.6 1.3.4 2.5 1.1 3.9 1 1.2-.1 2.1-.9 2.6-2 .5-1.2.6-2.6.5-3.9-.1-.7-.2-1.4-.5-2-.1-.3-.2-.6-.4-.9-.1-.2-.2-.4-.3-.5-.1-.3-.2-.2-.1.2.8.2 1.5.4 2.3.7 0-.6.1-1.1.1-1.6-.8.1-1.6.2-2.4.4.5 1.5.4 2.8-.2 4.2-.6 1.6 1.8 2.2 2.3.7.7-1.8.7-3.8.2-5.6-.4-1.4-2.3-1.1-2.4.4 0 .6-.1 1.1-.1 1.6-.1 1.3 1.8 1.8 2.3.7.6-1.4.4-3.2-.9-4-1.2-.7-2.8-.1-3.3 1.2-.8 1.8 1 3.4 1.1 5.2.1.8.1 2.5-.8 2.9-.8.4-2.3-.6-3.1-.9-.1.8-.2 1.7-.3 2.6 2.5.2 2.5-3.3.8-4.4-.8-.6-2-1-2.9-.4-1.1.7-.8 2.2-.8 3.4 0 .5.4 1.2.9 1.3 4.3.7 8.3-3.1 7.4-7.9-.2-1-.5-2-1.5-2.2-.8-.2-1.7.4-2 1.2-.9 2.1.2 5.1 1 7 .5 1.1 1.9.7 2.2-.3.5-2 .7-4 .4-6-.2-1.5-.7-3.5-2.4-3.6-3.9-.1-2.3 6.9-1.6 9 .4 1.1 2.1 1.4 2.3 0 .3-2.2.3-4.5-.2-6.7-.3-1.3-1-3.9-2.7-3.2-1.4.6-1.8 2.7-1.8 4.2 0 2.1.7 4.2 1.5 6 .6 1.3 2.2.5 2.3-.7.2-2.5.1-4.9-.6-7.3-.5-1.7-1.3-5-3.3-4.9-2 .1-2.1 2.8-2.1 4.4 0 2.5.6 5 1.6 7.3.6 1.3 2.2.5 2.3-.7.2-2.1 0-4.2-.6-6.2-.4-1.5-1.1-3.6-2.8-3.8-1.8-.2-2.4 2-2.8 3.4-.6 2.1-.8 4.3-.7 6.5.1 1.7 2.5 1.7 2.4 0-.1-1.2-.1-2.3-.1-3.5-.8.2-1.5.4-2.3.7 1 2.3 2.5 4.2 4.3 5.7.6.5 1.6-.1 1.8-.8 1-3.8.9-7.8-.4-11.5-.5-1.3-2.5-1.2-2.4.4l.6 10.5c.8-.2 1.5-.4 2.3-.7-1.4-2.8-.5-6.6-2.4-9.1-.6-.8-1.8-.3-2 .6-.9 3.1 0 6.4-.7 9.5.7-.1 1.5-.2 2.2-.3-.6-1.5-1.3-3.1-1.9-4.7-.4-1-2.1-.8-2.2.3-.3 2-.2 4.9 1.5 6.3.8.6 1.8.7 2.7.8 1.3.1 2.6.2 3.9.1 1.2-.1 2.5-.3 3.7-.6.8-.2 1.9-.4 2.5-1.1.7-.8.6-2.2.7-3.3.1-1.3.2-2.5.2-3.8 0-2.1-.8-3.9-2.8-4.5-.8-.2-1.6-.1-2.5-.2-1.3-.2-1.4-1.4-2.1-2.4-.9-1.3-2.8-2.1-4-.8-.8.8-.6 1.9-.6 2.9 0 .9-.4 3.3-1.8 2.7-2-.9-3.2 1.4-1.8 2z" transform="translate(-478 -2574) translate(110 2297) translate(46 240) translate(322 37) translate(99.022 129.93)"/>
                        </g>
                        <g>
                            <path fill="#6E8EFF" fill-opacity=".468" d="M19.4 10.7c.7.1 1.6.2 2.1.8.6.7.4 1.7.4 2.6v7c0 .8 0 1.7-.5 2.4-.6.7-1.5.6-2.3.7l-3.5.1c-1.2 0-2.4.1-3.5.1-.9 0-1.7 0-2.3-.7-1-1.2-.3-3.5-.3-4.9.1-2.1-.1-4.3-.5-6.4-.1-.5.2-.9.6-1h.1c0-.4.3-.7.7-.7h.1c2-.3 4-.4 5.9-.3 1 0 2 .1 3 .3zm-4.5 2.8c.2-.1 1.2-.5 1.9-.6h.1c0-.4-.2-.4-.4-.1-.2.1-.4.2-.7.3-.3.2-.7.3-1 .4l-.4.1h-.1v.1h-.1l-.1.1c0 .1-.1.1-.1.2v.2l-.2.1c-.2.1-.4.3-.7.4l-.1.1.2.5c.2-.2.3-.4.5-.6l.1-.1v.1l-.3.9v.2h-.4l.1.3c-.2 0-.4 0-.6.1v.5c.2 0 .4-.1.7-.1v.2c-.2.1-.5.3-.7.4v.6c.2-.2.5-.4.7-.6v.2c0 .2.1.4.1.5v.4h-.1l-.1.1h-.7v.1l.1.1h-.1v.1l.1-.1.4.3v.2h-.6v.2l.2.7.1.2h-.2c0 .1 0 .2.1.2 0 0 .1 0 .1.1l-.1-.3h.2v-.1c0-.4.1-.8.4-1h.1V19h.7l-.1-.1-.1-.1.2-.1c.1 0 .1-.1.2-.1l.3-.2.1-.1.2-.1h.2c.9-.1 1.7-.4 2.6-.7l.2-.1v-.1l.2-.1c.2-.1.3-.1.5-.2h.1l.2-.1v-.1H19.4c.2 0 .4.1.6.2V14.6v-1.3h.1c.4-.1.8 0 1 .3l.1.1c.2.2.3.5.4.7l.1.1v.2c0 .5-.2 1-.3 1.5l-.1.2c-.2.6-.4 1.3-.7 1.9l-.1.3v.1c.2.5.1 1-.4 1.3v.7H20c-.1-.1-.2-.1-.4-.1h-.1l-.1.1h-.1v1.6H17.5c-.8 0-1.6.1-2.4.1H13.3v-.1c.2-.3.3-.7.4-1.1v-.1h-.2c.2.5.2 1.1-.4 1.3h.2l-.1.1c-.2.2-.4.3-.6.4H12l-.6-.1.3-.4H12c-.1 0-.2-.1-.2-.1v.1c-.2 0-.3-.1-.4-.3v-.3c-.1-.2-.3-.5-.3-.8-.3.3-.4.9-.1 1.3.3.6 1.1.8 1.7.6h.2c1.9.1 3.8.1 5.7-.2l.4-.1c.4.1.8.1 1.2-.2-.1 0-.1.1-.2.1h-.1c-.2 0-.4.1-.6.1h-.4c-.2-.1-.3-.2-.4-.4l.6.1c.2 0 .4.1.6.1v-.2c.2 0 .3-.1.4-.1l.1-.1c.2-.2.2-.7.2-1.3.3.2.4.5.4.8l-.1.2c0 .1-.1.2-.1.2l-.6.3c0 .1-.1.1-.1.2h.1c.3-.2.4-.5.5-.8v-.1c1.2-2.2 2.1-4.6 1.2-6.9v-.2c0-.3 0-.6-.1-.9-.3-1-1.1-1.6-2-1.8h-.1l.1.1c.2.2.3.5.3.9v.1H19.6c-.2-.1-.4-.1-.6-.2h-.1v.2h-.1c-.3 0-.5.1-.8.1h-.9v.2l-.3.1c-.5.1-1 .3-1.5.5h-1l.2-.1c.2 0 .3 0 .4-.1zm-2.1 7c-.3-.1-.5-.1-.7 0-.1 0-.1 0-.2.1l1 .2c0-.2-.1-.2-.1-.3zm.9-.3h-.5c0 .2.1.3.2.4.1-.1.2-.1.3-.2v-.2zM20 17v1.1h-.2V18.7h-.1l-.1.1-.1.2-.1.2.1.3.1.2h-.3v.1c-.1.1-.1.3-.2.4v.1h-.4c-.2 0-.4 0-.5.1h-.1l-.4.1c-.7.1-1.4.3-2.1.5l-.4.1H14.6v.2L14 21h-.1l.5.2c1.2.4 2.5.8 3.7 1-.1-.2-.1-.4 0-.7l.1-.1.3-.6.1-.2c.2.1.5 0 .7-.1v-.1h.2c.1-.1.2-.2.2-.3l.1-.2h.2v-.2l.2-.4.2-.6c-.1-.1-.1-.2-.2-.3.1-.6.1-1.1-.2-1.4zm-5.6 3.2h-.3l-.2.1-.3.2V20.8h.8v-.6zM10.5 17c-.4.4-.3 1 0 1.3V17zm3.6 2h-.4v.1c0 .3.1.5.1.8v.2h.4l.1-.1.2-.1v-.6l-.1-.1c-.1.1-.2 0-.3-.2zm2.4.8h-.4c-.4.2-.8.2-1.2 0h-.1c-.1.1-.2.1-.3.2h-.1v.2h.4c.4-.1.9-.1 1.3-.2l.4-.2zm-2.8-1.4c.1.2.1.3.2.3l-.2.1-.1.1v-.6l.1.1zm1.8 1.1l-.4-.1c-.2-.1-.4-.1-.6-.2v.3c.1.1.3.2.4.3h.1l.3-.1.2-.2zm3.7.9l-.5.1h-.1l-.1.1h-.1c-.1 0-.1 0-.2-.1h-.1c-.6.1-1.2.1-1.8.2h-.1l.4-.1c.4-.1.7-.1 1.1-.2l.4-.1s-.1-.1-.1-.2l.3.1.3.1.3-.1-.1.1h.1l.3.1zm-1.4-2.3l-.5.1c-1 .2-2.1.4-3.1.8H14l.1.1c1.2-.1 2.4-.3 3.5-.5h.1l.1-.1v-.4zm-.6.9l-.3.1c-.5.1-.9.2-1.4.4h-.1l.2.1.5.2h.1c.1-.1.3-.2.4-.3.3-.2.4-.3.6-.5zm.6.5l-.3.1c-.3.1-.6.2-.9.2h-.1l.4.1c.2.1.4.1.6.2l.3.1c0-.1 0-.1-.1-.2v-.1c.1-.2.1-.3.1-.4zm.2-2.7V17.1l-.3.1c-.8.3-1.7.6-2.6.8H14.8l.2-.1c.1-.1.2-.1.3-.2l.3-.1v-.1c0-.1 0-.1-.1-.2v-.1l.3-.1c.1 0 .2-.1.3-.1h.1v.1c-.1.1-.1.2-.2.3l-.1.1c.5-.2 1.1-.4 1.7-.6l.4-.1zm-4.1-.5c.3-.2.5-.3.8-.4l.2-.1h.7l.1-.2.1-.1.2-.1.9-.3.4-.1.1-.3h.1c.4-.2.8-.5 1-.9l.1-.1h.1v-.1c.1-.3.2-.5.2-.8v-.1h.1c.4 0 .7.3.8.7-.1 0-.1.1-.1.2l-.2.3-.1.1.1.1c.1.1.1.2.2.4 0 .1-.1.1-.1.1h-.5v.1l-.1.1h-.4c-.3.2-.7.3-1 .4l-.3.1-.2.1c-.3.1-.7.2-1 .3l-.3.1v.1c-.1.4-.1.8-.1 1.2v.2c-.6.2-1.1.4-1.7.7l-.1.1V18c-.1-.3-.2-.6-.2-.9v-.5l.1-.1v-.2l.4-.1-.3.1-.1.1c-.1.1-.2.1-.4.2v.4l.2-.2.9-.6.3-.2-.5.1-.4.2zm4.9 4h-.2l-.3.1h-.2l.1.1.4-.1.2-.1zm-9.2-8.9c-.1.3-.1.5 0 .6.4.8.7 1.6 1 2.5.1-.7.2-1.4.2-1.9h-.1l.2-.3v-.2.1c-.1-.7-.7-1-1.3-.8zm3.3 3.5l-.3.2V15.7h.5v-.1c0-.2-.1-.3-.1-.5l-.1-.2zm6.9 3.1c-.2-.1-.3-.1-.4-.1l-.4.1v.1l-.4.1-.4.1-.2.6H17.7v.6H18l1.2.1.1-.2c0-.1.1-.1.1-.2v-.1l-.1-.2.2-.1v-.1c.1-.2.2-.4.3-.7zm-2 .5c-.2.2-.3.3-.4.5h-.2.1c.1 0 .2 0 .4-.1h.1v-.1-.3zm1.3-.4c.1.2.1.4.2.7v.1h-.1c-.3.1-.6.2-.8.3l-.4.2h-.1l.2-.5h1l-.1-.8h.1zm.9.4v1.1l-.1.3-.3.1-.1-.4h.3c0-.3-.1-.6-.1-.9v-.1c.1 0 .2-.1.3-.1zm-4.2-3.2l-.1.1-.2.1c-.1.1-.3.1-.4.2l-.2.1h-.6c.5-.1 1-.3 1.3-.4l.2-.1zm2.6 2.7H18c-.1.1-.1.2-.2.2l-.1.1v.1l.4-.1h.1v-.1l.2-.2zm-4.1-4.2h-.2l-.3.1c-.3.1-.5.2-.8.2h-.2l.2.6c.3-.3.8-.5 1.2-.7l.1-.2zm4.4 1c-.3.6-.5 1.2-.7 1.8v.2h-.1c-.5.1-1 .1-1.4.2l-.3.1.1-.2.3-.6.1-.3c.1-.1.1-.2.2-.4l.1-.3h.1c.4-.1.8-.2 1.2-.4l.4-.1zm-.1 2.2l.3-.1c-.3.1-.5.2-.8.4l-.2.1v.7h.2l.1-.2c.1-.3.2-.6.4-.9zm-3.4-3.3l-.1.1c-.4.2-.8.4-1.1.7l-.1.1.1-.1c0-.1.1-.1.1-.2l.1-.1.1-.1c.2-.1.5-.2.7-.3l.1-.1h.1zm.7-1.4H13.5l-.2.1c-.2.1-.3.2-.5.4 0 .3-.1.6-.1.9.3 0 .6.1 1 .1h.4l.3-.1.1-.2c.4-.5.9-.9 1.4-1.2zm3 4.6l-.2.3-.3.8h.6v-.1c-.1-.3-.1-.7-.1-1zm-1.8-1.8c-.5.2-1 .3-1.4.5h-.1.3c.3 0 .5-.1.8-.2l.2-.1v-.1l.2-.1zm.6-1.5c-.1.4-.3.7-.3.9v.1l-.1.1c-.4.2-.9.4-1.3.5h-.1c.3-.7 1-1.3 1.8-1.6zm-2.2-2.4c-.9.2-1.7.6-2.5 1v.1h.6c1.2-.8 2.6-1.2 3.8-1h.2c.2 0 .3.1.5.2h.1c.4 0 .7 0 1 .1h.1c-.7-.9-2.5-.8-3.8-.4zm4 3.6c.2.4.4.8.4 1.2v.1l-.2.2-.1.1c-.2.1-.3.2-.5.2l-.2.1h-.1l.1-.1.4-.1-.1-.5v-.1c.1-.3.3-.7.3-1.1zm-2.8-1.4l-1.5.3.1-.1c.2-.1.5-.2.7-.2h.7zm2.1 1.2l.3-.1c-.6.1-1.2.2-1.8.4h-.1v.1l-.1.2.3-.1c.2-.1.5-.1.7-.2h.3l.4-.3zm2.3.2H20v.1c.3.4.3.9 0 1.3V17v-.1c.2-.7.6-1.5 1.1-2.1zm-1.6-.3c-.1.5-.2.8-.4 1.2v.1l-.1-.5-.1-.5.2-.1c.1 0 .1-.1.2-.1l.1-.1h.1zM17.8 13l-.1.1c-.2.1-.5.2-.7.2V13h.1c.1 0 .3-.1.4-.1h.2l.1.1c-.1-.1-.1-.1 0 0zm1.5.9c-.1-.1-.2-.1-.3-.2-.1 0-.2-.1-.4-.1l.1.5.1.4h.1l.1-.2c.1-.1.1-.2.2-.3l.1-.1zm-1.1-2.3h-.1c-.5 0-1.1.2-1.5.4-.1.1-.3.1-.4.2l-.2.1h.3c.8 0 1.6 0 2.4.2h.2v-.1c-.2-.3-.4-.6-.7-.8zm.2 1.2c.1.2.1.4.2.7v.2H17.7v-.1c.1-.2.1-.3.1-.5l.2-.1.4-.2z" transform="translate(-478 -2574) translate(110 2297) translate(46 240) translate(322 37) translate(47.31 96.922)"/>
                            <path fill="#161616" d="M17.3 2.1c4.3-1 8.7-1.7 12.4-.4 7.5 2.5 4.3 14 2.7 22-.1.3-.2.4-.3.4 0 0-.1.1-.2.1-10.6 3.3-21.2 3.8-30.8 1.2-.2 0-.3-.1-.3-.2-1.3-1-.6-4-.4-5.8.3-2.7.9-6.5 1.8-11.3l.2-1.2v-.1c.1-.5.4-1 .8-1.1 5-1.4 9.1-2.3 14.1-3.6zm10.1.6c-3.7-.7-7.7.2-11.7 1.2C11.3 5 6.8 6.4 2.3 7.7l1.3-.4C3 9.9 2.5 12.4 2.1 15c-.2 1.3-1.8 9-.2 9.1.1 0 .2.1.3.1l.5.1c9.1 2.1 19 1.6 29-1.5l-.2.2c.8-4.2 2-8.1 2-12.2 0-4.8-2.2-7.5-6.1-8.1z" transform="translate(-478 -2574) translate(110 2297) translate(46 240) translate(322 37) translate(47.31 96.922)"/>
                            <path fill="#454451" fill-rule="nonzero" d="M23 6.5c1.2 0 2.1 1 2.1 2.2v11.5c0 1.2-1 2.1-2.1 2.2H10.2c-1.2 0-2.1-1-2.1-2.2V8.7c0-1.2 1-2.1 2.1-2.2H23zm.7 3.6H9.5v10c0 .4.3.7.7.7H23c.4 0 .7-.3.7-.7v-10zm-10.1 3.1l2.1 2.2c.1.1.2.3.2.5s-.1.4-.2.5l-2.1 2.2c-.1.1-.3.2-.5.2s-.4-.1-.5-.2c-.1-.1-.2-.3-.2-.5s.1-.4.2-.5l1.6-1.7-1.6-1.7c-.3-.3-.3-.7 0-1 .3-.3.7-.3 1 0zm6.5 4.1c.4 0 .7.3.7.7 0 .4-.3.7-.7.7h-2.8c-.4 0-.7-.3-.7-.7 0-.4.3-.7.7-.7h2.8z" transform="translate(-478 -2574) translate(110 2297) translate(46 240) translate(322 37) translate(47.31 96.922)"/>
                        </g>
                        <path fill="#EC615B" d="M72.9 154.9v-.3c0-2.5-3.9-2.5-3.9 0v.3c0 2.6 3.9 2.6 3.9 0v-.3c0-2.5-3.9-2.5-3.9 0v.3c0 2.6 3.9 2.6 3.9 0z" transform="translate(-478 -2574) translate(110 2297) translate(46 240) translate(322 37)"/>
                        <path fill="#6886F0" d="M28.3 128.3c2.5 0 2.5-3.9 0-3.9s-2.5 3.9 0 3.9zM37.2 130c1.9 0 1.9-3 0-3-1.9.1-1.9 3 0 3z" transform="translate(-478 -2574) translate(110 2297) translate(46 240) translate(322 37)"/>
                        <path fill="#5222D0" d="M171.2 53.9c1.9 0 1.9-3 0-3s-1.9 3 0 3zM189.7 98.7v.6c0 .4.2.8.4 1.1.3.3.7.5 1.1.4.4 0 .8-.1 1.1-.4.3-.3.4-.7.4-1.1v-.6c0-.4-.2-.8-.4-1.1-.2-.3-.7-.5-1.1-.4-.4 0-.8.1-1.1.4-.2.3-.4.7-.4 1.1z" transform="translate(-478 -2574) translate(110 2297) translate(46 240) translate(322 37)"/>
                        <g>
                            <path fill="#161616" d="M23.1 2c5.4-1.8 11.1-3 15.8-.7 9.5 4.4 5.5 24.4 3.4 38.4-.1.5-.2.7-.4.7-.1.1-.1.1-.2.1-13.6 5.9-27.1 6.7-39.4 2.2-.2-.1-.3-.2-.4-.4-1.6-1.7-.8-7-.5-10.1C1.9 27 2.7 19.8 4 10.3c0-.1 0-.2.1-.3.2-.8.6-1.7 1-1.8 6.4-2.5 11.5-4 18-6.2zm12.8.9c-4.7-1.1-9.8.3-14.9 2.2-5.7 2-11.4 4.4-17.1 6.6l1.6-.7c-.6 4.6-1.4 9-1.8 13.5-.3 2.3-2.3 15.8-.2 15.9.2 0 .3.1.4.3 11.8 4 24.7 3.2 37.7-2.4l-.4.2c1.1-7.3 2.6-14.2 2.6-21.3C43.7 8.7 41 4 35.9 2.9z" transform="translate(-478 -2574) translate(110 2297) translate(46 240) translate(322 37) translate(89.22 22.005)"/>
                            <g fill-rule="nonzero">
                                <path fill="#161616" d="M14.1 22.1l-2.8 2.8c-1.4 1.1-3.5 1-4.8-.3-1.3-1.3-1.4-3.3-.3-4.8l5.6-5.5c1.3-1.3 3.3-1.4 4.7-.3l.3.3c.3.3.7.5 1.1.5.4 0 .8-.2 1.1-.4l1.7-1.7c-.3-.4-.6-.8-1-1.2-2.5-2.5-6.5-3-9.5-1.1-.5.3-1 .7-1.4 1.1L3.2 17c-2 1.9-2.8 4.8-2.1 7.5.7 2.7 2.8 4.8 5.5 5.5 2.7.7 5.6-.1 7.5-2.1l5-5c-1.6.2-3.3-.1-5-.8z" transform="translate(-478 -2574) translate(110 2297) translate(46 240) translate(322 37) translate(89.22 22.005) translate(7.78 8.995)"/>
                                <path fill="#454451" d="M29 2.3c-3-3-7.9-3-10.9 0l-5 5c1.8-.2 3.5 0 5.2.7l2.8-2.8c1.4-1.2 3.5-1.1 4.8.2 1.3 1.3 1.4 3.4.2 4.8l-5.6 5.6c-1.3 1.3-3.3 1.4-4.7.3l-.3-.3c-.6-.6-1.6-.6-2.2 0l-1.7 1.7c2.3 3.5 7 4.5 10.6 2.3.5-.3.9-.7 1.3-1.1l5.6-5.5C32 10.1 32 5.3 29 2.3z" transform="translate(-478 -2574) translate(110 2297) translate(46 240) translate(322 37) translate(89.22 22.005) translate(7.78 8.995)"/>
                            </g>
                        </g>
                        <path fill="#6E8EFF" d="M115.3 63.5c.4.3.8.9.9 1.4.1.5 0 1.1-.3 1.6l-.2.2c-.3.4-.8.7-1.4.8-.5.1-1.1-.1-1.6-.4-.4-.3-.8-.9-.9-1.4-.1-.5 0-1.1.3-1.6l.2-.2c.4-.5.8-.7 1.4-.8.5-.2 1.1.1 1.6.4zm4.1-21.9c4.4-2.1 10.8-.7 12.9 4.5 1.1 2.7.3 5.2-1.2 7.3-.9 1.2-1.9 2.3-2.8 3.4-.8.9-1.5 1.9-2.6 2.4-.7.4-1.4.4-2.1.6-.7.2-.8.4-1.3.8-.7.5-1.5.8-2.4.8l.3.6c.3 1-.5 1.9-1.5 1.9-.5 0-1.1-.2-1.5-.5l-.1-.1h-.1c-.5 0-1.1-.1-1.6-.3-1.2-.5-2-1.5-2-2.7 0-.9.7-1.4 1.5-1.5-.5-.6-.8-1.3-.8-2.1 0-.3.1-.7.2-1v-.2l-.1-.2c-1.7-5.4.1-11.3 5-13.8l.2.1zm-3.2 20.8c.1.4.4.8.8 1.2h.5c.4.1 0-.3-1.3-1.2zm.9-1.5l-.2-.1c-.2-.1-.5-.2-.7-.4.2.2.5.6.9 1v-.5zm5.9-18.2c-3.1.6-4.9 2.7-6 5.4-.6 1.5-1.1 3-1.6 4.5-.3 1-.8 2-1.1 3V55.9c.2.7.7 1.1 1.3 1.2h.1c-.4-.5-.5-1.2-.1-1.9l.1-.1 1.6-2.3c-.3-3.3 1.5-6.7 4.6-7.9 1-.4 2.1-.5 3.3-.4h.1v-.1c0-.1-.1-.2-.1-.3-.4-.9-1.5-1.5-2.2-1.4zm4.5 1.6c-.7-.3-1.5-.3-2.3 0h-.1v.1h-.2l-.2.1c-.7.3-1.4.8-2 1.3l-.1.1-.4-.2c-.2-.1-.5-.3-.7-.4.4 1.3-1.8 3.5-2.4 4.4l-1.9 2.7-.3.4v.4l-.3.4c-.4.6-.8 1.1-1.3 1.6l1.7 1.3c-.4.5-1.1.8-1.7.7v.1c.6.8 1.9 1.1 2.8.4l.1.1c.8.7 1.6.8 2.4.6 1.7.1 3.1-1.1 4.3-2.2 1.8-1.8 3.3-4.1 3.9-6.5.1-.6.1-1.2-.1-1.8v-.2c.5-1.5.2-2.8-1.2-3.4zm-9.6 12.6l.1.1c0 .1.1.1.1.2l.1.2.1.1-.2-.1c-.1-.1-.2-.2-.4-.2l-.1-.1V57l.3-.1zm.8.4c.2.2.4.4.6.5l.1.1c-.2 0-.4 0-.7-.1l-.2-.1-.2-.1.1-.1.1-.1.2-.1zm-1.1-1.5v.1c0 .3.1.5.2.8l.1.1-.6-.4v-.1c.1-.1.2-.3.3-.5zm.7-.2v.1c-.1.5 0 1 .3 1.4l-.1.1-.7-.5.1-.2c0-.1.1-.2.1-.4l.3-.5zm9.2-3.8l-.1.2c-1 1.7-2.3 3.2-3.7 4.5-.7.6-1.6 1.4-2.5 1.6H120.9c-.4 0-.7-.1-1.1-.3l-.2-.1h.1c.4-.1.7-.6 1.2-.9l.1-.1c1-.5 2.2-.3 3.1-.9.9-.6 1.5-1.7 2.2-2.5l1.2-1.5zm-.8-4.1c.5-.1.5-.1-.1.1-.3.1-.6.3-.9.5l.1.1c1.2.6 1.4 1.1.7 1.4h-.1l-.9.6c-1 .7-1.8 1.6-2.5 2.5-.4.5-.8 1-1.1 1.5-.1.2-.4 1.2-.7 1.3-.4-.2-.8-.3-1-.4l-.1-.1c-.4.5-.7 1-1.2 1.5l-.1.1 1.2-1.7-.1-.1c-.3-.2-.2-.5.1-.7h.1l.1-.1H120.5l.7-1.1.3-.3.1-.1.2-.3c.2-.4.5-.7.7-1.1.5-.7 1-1.4 1.6-2l.2-.2.1-.2.3-.6.1-.3c.1-.2.4-1.4.4-1.3.6.5 1.1.8 1.5 1zm-3.1-1.4c-1.9.3-2.8 2.2-3.5 4v.1l-.1.1c-.1.2-.3.4-.4.6-.7.9-1.7 2.3-2 3.7v.2c0-.1 0-.2-.1-.3-.2-.5-.3-1-.4-1.5v-.1l.1-.2c1-1.5 1.9-3.1 3.1-4.6l.4-.5c.5-.5 1.1-1.3 1.9-1.9l.1-.1.3.2.6.3zm1.7-.1c-.1 1.4-.8 2.6-1.7 3.9-.6.8-1.1 1.6-1.7 2.5l-.6.9-.3.3-.4.4-.3.3c-.8-.2-1.5.2-1.8.8v.1l.3-.9c.2-.6.5-1.3.7-1.9.2-.6.4-1.2.6-1.9l.1-.2.1-.1c1.2-1.5 2.8-3.1 4.6-3.9l.4-.3zm-4.6 8.3h-.1l-.3.4-.2.3s.1 0 .1.1l.3-.5.2-.3zm4.8-6c-.4.3-.7.5-1 .8l-.1.1-.1.1c-.6 1.1-1.4 2.1-2.2 3l-.3.3-.2.2-.1.2c-.2.4-.5.7-.7 1.1l-.2.2h.1c.7.1 1.7-1.1 2.1-1.6l.1-.1c.9-.9 1.6-2 2.1-3.1.1-.1.3-.8.5-1.2zm3.5-.2v.1c0 .8-.3 1.6-.7 2.4-.2.3-.4.5-.6.8l-.2.2.1-.2c.2-.3.3-.6.5-.9.3-.6.6-1.3.8-2.2l.1-.2zm-1.4-2.7c.4.4.7.8.9 1.2l.1.2-.1-.1c-.7-.8-2-1.2-3.2-.8h-.1v-.2c0-.5 0-1-.2-1.5v-.1c1.1.3 1.9.7 2.6 1.3zm1 1.4c.2.2.3.4.4.6v.2c0 .2-.1.4-.1.5 0-.5-.1-.9-.3-1.3z" opacity=".592" transform="translate(-478 -2574) translate(110 2297) translate(46 240) translate(322 37)"/>
                        <path fill="#161616" d="M184.2 86.5c-1 3.4-3.6 5.8-6.2 7.9-2.6 2.1-5.1 4.1-7.4 6.4-2.2 2.2-4.3 4.7-6.2 7.2-1.5 2-3.5 4.6-3.3 7.3.2 2.4 2.3 3 4.3 3.8 2.8 1.1 5.8 3 6.8 5.9 1.4 3.9-1.6 7.4-4.4 9.8-2.6 2.1-5.4 3.9-7.1 6.8-.3.6.5 1.1.9.5 3.1-5.3 11.1-7.4 12-14 .4-2.6-.8-5-2.7-6.8-.9-.9-2-1.6-3.1-2.2-1.3-.7-2.9-1-4.2-1.8-3.7-2.1.9-7.6 2.5-9.7 2.3-3 4.8-5.8 7.6-8.3 4.5-4.1 11.5-7.7 12-14.5.5-6.9-6.9-9.2-12.4-10.1-.7-.2-1 .8-.3.9 5.4 1 13.3 3.6 11.2 10.9zM71.8 74.1C66 81.3 59.4 87.9 52.1 93.6c-7.2 5.6-15 10.1-22.9 14.5-7.3 4.1-14.7 8.3-20.9 14-2.8 2.5-5.9 5.5-7.5 9-1.2 2.7-1.3 6.3 1.8 7.7 1.7.8 3.7.5 5.5.2 2.9-.5 5.8-1.1 8.6-1.7 2.9-.6 5.9-1.2 8.8-1.7 2.8-.5 8-1 8.2 3.2 0 .6 1 .6 1 0-.1-3.9-4.3-4.9-7.5-4.5-4.9.6-9.7 1.8-14.5 2.8-3.4.7-12.4 3.4-11.8-3.1.4-4.2 4.4-7.8 7.2-10.5 6.1-5.7 13.3-10 20.6-14 7.6-4.3 15.2-8.5 22.1-13.7 8-6.1 15.3-13.1 21.6-20.9.5-.6-.2-1.2-.6-.8zM28.3 141.7c-2.9 3.5-6.3 7.6-5.8 12.4.4 3.7 3.1 7.2 7.1 6.9 2.6-.2 4.8-1.6 7.1-2.7 2.8-1.3 5.7-2.6 8.6-3.5 2.9-.9 6-1.4 9-1.5 2.4 0 5.2.1 7.2 1.6 3.1 2.2 1.2 5.6-.5 8.1-1.6 2.4-3 4.9-4.3 7.5-1.1 2.4-2.1 4.8-2.9 7.3-.6 1.9-1.3 4.1.2 5.7 3.1 3.6 7.8.5 10.4-1.9 4-3.7 8.3-6.8 13.3-9.1 5.6-2.6 11.6-4.1 17.7-4.4 3.1-.2 6.2-.1 9.3.4 2.7.4 5.8 1.3 7.1 4 .3.6 1.1.1.9-.5-1.8-3.8-6.6-4.4-10.4-4.8-4.9-.5-9.9-.1-14.7 1-4.8 1.1-9.5 2.8-13.8 5.3-2.1 1.2-4.1 2.5-6 4-2.1 1.7-3.9 3.7-6.1 5.3-1.9 1.4-6.1 2.4-7.2-.6-.6-1.5.2-3.2.6-4.6.5-1.5 1.1-3 1.7-4.4 1.1-2.6 2.4-5 3.8-7.4 1.3-2.1 3.2-4.2 3.7-6.6.8-4-3.2-6.1-6.6-6.6-5-.7-10.4.5-15.1 2.2-2.9 1.1-5.6 2.4-8.4 3.7-2.9 1.4-6.4 2.5-8.8-.3-4.5-5.2.2-11.7 3.7-15.9.3-.4-.4-1.1-.8-.6z" transform="translate(-478 -2574) translate(110 2297) translate(46 240) translate(322 37)"/>
                        <path fill="#161616" d="M47.2 158.3c3.1-1 5.8 2 5.9 5 .1 3.1-2 5.8-4 7.9-.5.5.3 1.2.7.7 2.5-2.6 5.1-6.2 4.1-10-.8-3-3.8-5.4-6.9-4.4-.6.1-.4 1 .2.8zM135.5 89.9c1.5 1.2 3.3 1.5 5.2 1.9 2 .4 3.8 1.2 5.2 2.8 2.7 3 3.5 7.5 1.5 11.1-.3.6.5 1.1.9.5 1.9-3.4 1.5-7.6-.6-10.9-1-1.5-2.4-2.8-4-3.6-2.4-1.1-5.3-.8-7.4-2.5-.6-.4-1.3.3-.8.7zM41.5 143.5c1.9 5 7.8 3.7 11.5 1.8 2.3-1.2 4.5-2.9 6.4-4.7 2-2 3.7-4.4 5.7-6.4 2.2-2.2 5.3-4.3 8.6-3.7 3 .5 4.8 3.2 6.7 5.2 2.5 2.6 7.5 5.3 10.1 1.2.3-.6-.5-1.1-.9-.5-1.6 2.6-5 1.7-7 .1-1.8-1.4-3.1-3.4-4.8-4.9-3.3-2.8-7.4-2.6-10.9-.2-3.8 2.6-6.2 6.9-9.7 9.9-2.1 1.7-4.5 3.4-7 4.3-2.7 1-6.5 1-7.7-2.3-.3-.6-1.2-.3-1 .2zM109.6 126.4c-.4-3.5-.4-7.5 3.7-8.5 2.1-.5 3.8-1.1 5.1-3.1 1.2-2 1.1-3.8.6-6-.4-1.7-.3-3.2 1.1-4.5 1.1-1 2.6-1.4 4-1 .6.2.9-.8.3-1-2.1-.7-4.3.2-5.7 1.9-2.1 2.7.4 5.5-.5 8.4-.5 1.7-1.8 3.2-3.6 3.8-1.4.5-2.9.4-4.1 1.4-2.5 2-2.3 5.5-1.9 8.4.1.9 1.1.9 1 .2zM101.6 108c-1-.8-.2-2.7 1.1-2 .5.3.9.9.6 1.4-.3.7-1.1 1-1.7.6-.5-.3-1 .6-.4.9 1 .5 2.3.1 2.9-.8.7-1 .2-2.2-.7-2.8-1-.6-2.2-.4-2.9.6-.6.9-.4 2.2.4 2.9.5.3 1.2-.4.7-.8zM146.6 57c-.6-1-1-2.2-.6-3.3.3-.9 1.2-1.5 2.2-1.4 1.1.1 1.6 1.1 1.1 2-.5.9-1.5 1.3-2.5 1.2-.6-.1-.6.9 0 1 1.4.2 3-.7 3.5-2 .5-1.2-.1-2.6-1.4-3-1.2-.4-2.6.1-3.4 1.1-1.1 1.5-.7 3.5.2 5 .4.5 1.2 0 .9-.6zM93.5 97.4c1.8 3.2 5.4 5 9 4.5 4.5-.7 6.9-4.1 8.7-7.9 2.1-4.4 4.9-8 9.5-10 4.1-1.7 9.5-.9 12.9-4.1 1.3-1.2 2.2-3 1.9-4.8-.2-1.4-1.1-2.6-.8-4.1.4-1.6 1.6-2.8 3.2-3.1.6-.1.4-1.1-.3-1-1.9.4-3.5 1.9-3.9 3.8-.3 1.1-.1 2 .3 3 .5 1.6.7 3-.4 4.5-1.9 2.7-5.3 3-8.3 3.5-2.7.4-5.2 1.1-7.5 2.5-2 1.2-3.8 2.9-5.3 4.8-1.5 2.1-2.4 4.6-3.7 6.8-1.6 2.8-4.2 4.9-7.5 5.1-3 .2-5.9-1.4-7.3-4.1.1-.5-.8 0-.5.6zM84.8 58.2c-.7 3.6-2.1 6.8-4.5 9.6-.4.5.3 1.2.7.7 2.4-2.9 4-6.3 4.7-10 .1-.6-.9-.9-.9-.3zM77.9 62.3c-3.4 2.5-7 4.8-10.8 6.8-.6.3-.1 1.2.5.9 3.7-2 7.4-4.3 10.8-6.8.5-.4 0-1.3-.5-.9zM152.4 137.2c-.9-1.4-2.4-.7-3.2.4-.9 1.1-1.5 2.4-2.3 3.6-.6.9-1.2 1.9-1.3 3.1-.2 2.3 1.5 2.6 3.3 3.1 2.1.7 1.9 3.1.6 4.5-1.1 1.1-2.6 1.5-4 2-.6.2-.3 1.2.3 1 2.8-.9 6.9-2.9 5.5-6.6-.2-.6-.6-1.1-1.2-1.4-.3-.2-.6-.3-1-.4-1-.3-1.2-.2-2-1-.6-.4-.8-.9-.5-1.5.1-.5.3-.9.5-1.3l.9-1.5c.3-.5 2.6-4.6 3.4-3.4.4.4 1.3-.1 1-.6zM101.7 176.2c2.7-.7 5 2 3.8 4.5-.3.6.6 1.1.9.5 1.5-3.3-1.3-6.9-4.9-6-.7.3-.4 1.2.2 1zM152.1 122.1c-1.2-.9-1.2-3.3.7-3.4.7 0 1.4.4 1.4 1.1 0 .6-.6 1.4-1.2 1.3-.6-.1-.9.9-.3 1 1.2.2 2.3-.7 2.5-1.9.2-1.2-.7-2.3-1.8-2.4-1.2-.2-2.5.5-2.9 1.7-.4 1.3.2 2.7 1.2 3.5.4.3.9-.6.4-.9zM4.3 118c.5-1.8 2-2.9 3.5-3.9 1.5-1.1 3.1-2.2 4.7-3.3 3.1-2.2 6.2-4.4 9.4-6.6.5-.4 0-1.2-.5-.9-3.7 2.6-7.3 5.1-11 7.7-2.5 1.7-6.3 3.5-7.1 6.7-.1.7.8.9 1 .3z" transform="translate(-478 -2574) translate(110 2297) translate(46 240) translate(322 37)"/>
                        <g>
                            <path fill="#FFF" stroke="#161616" stroke-width=".987" d="M137.7 107.2c-40-6.8-79.9-13.7-119.9-20.5C42 76.8 66.3 67.1 90.6 57.3c38 8.5 75.9 16.9 113.8 25.4-22.2 8.1-44.5 16.3-66.7 24.5z" transform="translate(-478 -2574) translate(110 2297) translate(46 240) translate(322 37) translate(97.61 183.742)"/>
                            <path fill="#161616" d="M136 107.7c.1.4.2.8.4 1.2.2.5 1 .4 1-.1v-1c0-.6-1-.6-1 0 0 .4-.1.8-.2 1.1h1c-.1-.4-.2-.8-.1-1.3-.4.1-.7.1-1.1.1.2.2.2.3.1.4.3 0 .6.1.9.1-.1-.2 0-.4.1-.6l-.9-.3c-.1.5-.1 1-.2 1.5 0 .3.3.5.5.5.3 0 .5-.2.5-.5.1-.5.1-1 .2-1.5s-.7-.6-.9-.3c-.3.4-.3.9-.2 1.4.1.4.7.5.9.1.3-.4.3-.9 0-1.2-.2-.3-.8-.3-.9.1-.1.6-.1 1.2.1 1.8.2.5.8.4 1 0 .2-.5.3-.9.3-1.4h-1v1c.3 0 .7-.1 1-.1-.1-.4-.2-.8-.4-1.2-.3-.7-1.3-.5-1.1.2z" transform="translate(-478 -2574) translate(110 2297) translate(46 240) translate(322 37) translate(97.61 183.742)"/>
                            <path fill="#161616" d="M136.8 110c5.3-2.7 11.1-4.2 16.8-5.8 2.8-.8 5.6-1.6 8.2-2.8 2.6-1.1 5-2.4 7.6-3.6 5.6-2.6 11.7-4.3 17.6-6.3 6.1-2 12.2-4.1 18.3-6.1.6-.2.3-1.2-.3-1-6.1 2-12.2 4.1-18.3 6.1-5.8 1.9-11.7 3.6-17.3 6.2-2.9 1.3-5.7 2.9-8.7 4-2.7 1.1-5.5 1.9-8.3 2.7-5.5 1.6-11.1 3-16.2 5.7-.5.4 0 1.2.6.9z" transform="translate(-478 -2574) translate(110 2297) translate(46 240) translate(322 37) translate(97.61 183.742)"/>
                            <path fill="#161616" d="M137.2 109.8C160 102 182.6 94 205.3 85.9c1.8-.6 1-3.5-.8-2.9-22.6 8.1-45.3 16.1-68.1 23.9-1.7.7-1 3.6.8 2.9zM134.7 78.1c4.3.4 7.9 3 12.1 3.8.6.1.9-.8.3-1-4.3-.9-8-3.5-12.4-3.9-.7 0-.7 1 0 1.1z" transform="translate(-478 -2574) translate(110 2297) translate(46 240) translate(322 37) translate(97.61 183.742)"/>
                            <path fill="#161616" d="M147.1 81.4c2.6-1.4 5-3.1 7.2-5.1.5-.4-.2-1.1-.7-.7-2.2 1.9-4.5 3.6-7 4.9-.6.4-.1 1.3.5.9zM135.7 76.2c2.1-1.5 4.2-2.9 6.4-4.2.6-.3 0-1.2-.5-.9-2.2 1.3-4.3 2.7-6.4 4.2-.5.4 0 1.3.5.9z" transform="translate(-478 -2574) translate(110 2297) translate(46 240) translate(322 37) translate(97.61 183.742)"/>
                            <path fill="#161616" d="M142.3 72.1c3.7 1.4 7.5 2.8 11.3 4.2.6.2.9-.7.3-1-3.7-1.4-7.5-2.8-11.3-4.2-.7-.1-.9.8-.3 1zM131.7 81.8c9.9 3.1 19.7 6.6 29.2 10.6.6.2.9-.7.3-1-9.6-4-19.3-7.5-29.2-10.6-.7-.1-.9.8-.3 1zM132.7 89.5c6.2 3 12.4 5.8 18.6 8.5.6.3 1.1-.6.5-.9-6.3-2.7-12.5-5.5-18.6-8.5-.6-.3-1.1.6-.5.9zM133.5 97.9c3.4 1.7 6.7 3.5 10.1 5.2.6.3 1.1-.6.5-.9-3.4-1.7-6.7-3.5-10.1-5.2-.5-.2-1 .6-.5.9z" transform="translate(-478 -2574) translate(110 2297) translate(46 240) translate(322 37) translate(97.61 183.742)"/>
                            <path fill="#161616" d="M135.5 98.2c4.6-3.9 9.5-7.6 14.6-10.9.5-.4 0-1.2-.5-.9-5.1 3.4-10.1 7.1-14.8 11.1-.5.5.2 1.1.7.7zM134.2 91.5c2.6-1.8 5.3-3.7 7.9-5.6.5-.4 0-1.2-.5-.9-2.6 1.8-5.3 3.7-7.9 5.6-.5.4 0 1.2.5.9z" transform="translate(-478 -2574) translate(110 2297) translate(46 240) translate(322 37) translate(97.61 183.742)"/>
                            <path fill="#FFF" stroke="#161616" stroke-width=".987" d="M135.9 109.4c-41.3-7-82.7-14.1-124-21.1C8 58.9 4 29.6.2.2l133.5 18c.7 30.4 1.5 60.8 2.2 91.2z" transform="translate(-478 -2574) translate(110 2297) translate(46 240) translate(322 37) translate(97.61 183.742)"/>
                            <path fill="#161616" d="M62.2 58.6c-3.6-1.1-5.5-4.1-5.8-7.8-.3-3.7.4-7.3 3.9-9.2 3.1-1.7 6.7-1.2 9.4.9s5.2 6.3 3 9.6c-.4.5.5 1 .9.5 2.4-3.5.1-8.1-2.8-10.5-3-2.5-7-3.2-10.6-1.5-4.1 2-5.1 6.1-4.8 10.3.3 4.1 2.5 7.5 6.5 8.7.6.2.9-.8.3-1z" transform="translate(-478 -2574) translate(110 2297) translate(46 240) translate(322 37) translate(97.61 183.742)"/>
                            <path fill="#161616" d="M63.1 59c-1.5-2.5-1-6 1.4-7.7 2.4-1.7 5.9-1 7.8 1.2.4.5 1.1-.2.7-.7-2.2-2.6-6.2-3.3-9.1-1.3-2.8 2-3.4 6.1-1.6 9 .3.5 1.1 0 .8-.5z" transform="translate(-478 -2574) translate(110 2297) translate(46 240) translate(322 37) translate(97.61 183.742)"/>
                            <path fill="#161616" d="M66.5 60.4c-1.5-1.6-1.3-4.7.8-5.9 2-1.2 4.8.2 5.5 2.3.2.6 1.2.4 1-.3-.9-2.8-4.3-4.4-6.9-2.9-2.6 1.5-2.9 5.3-1 7.4.3.5 1-.2.6-.6z" transform="translate(-478 -2574) translate(110 2297) translate(46 240) translate(322 37) translate(97.61 183.742)"/>
                            <path fill="#161616" d="M69 62.7c1.3.5 2.8-.3 3.3-1.5s-.2-2.5-1.3-3.1c-1.2-.5-2.5-.2-3.2.9-.6 1.1-.4 2.6.6 3.4.5.4 1.2-.3.7-.7-1.3-1-.4-3.4 1.3-2.7.8.3 1.3 1.1.9 1.9-.4.8-1.3 1.2-2.1.9-.5-.3-.8.7-.2.9z" transform="translate(-478 -2574) translate(110 2297) translate(46 240) translate(322 37) translate(97.61 183.742)"/>
                            <path stroke="#161616" stroke-width=".987" d="M133.6 18.2L136.5 108.8M133.8 18.1l2.7 89.4" transform="translate(-478 -2574) translate(110 2297) translate(46 240) translate(322 37) translate(97.61 183.742)"/>
                            <path fill="#3D3D3D" d="M76.9 12.1C79 13.2 97.4 23.2 98.7 41c.7 9.8-4.1 17.2-7.1 21.8C75.3 87.3 43 91.6 34.2 92.5c12.7 8.5 57.2 36.3 105.8 34.7 10.8-.4 27.6-1.1 45.8-11.1 13.7-7.5 22.5-17.1 27.6-23.6-3.1-1.9-6.2-3.8-9.3-5.8-23 7.9-46 15.7-68.9 23.6-1.2-30.4-2.4-60.8-3.6-91.1-18.3-2.4-36.5-4.7-54.7-7.1z" opacity=".37" transform="translate(-478 -2574) translate(110 2297) translate(46 240) translate(322 37) translate(97.61 183.742)"/>
                            <path fill="#3D3D3D" d="M50.8 94.7c4.3 2.8 10.9 6.9 19.4 10.8 10.7 4.9 42.2 19.3 76.4 11.3 24.8-5.8 44-21.8 42.8-24.4-.8-1.6-10.4.1-53.4 17.1-.7-13.9-1.4-27.9-2-41.8l-3.6 35.1c-26.6-2.7-53.1-5.4-79.6-8.1z" opacity=".5" transform="translate(-478 -2574) translate(110 2297) translate(46 240) translate(322 37) translate(97.61 183.742)"/>
                        </g>
                        <g fill="#6C8BFF">
                            <path d="M2.7 15.7C.3 13.1-.5 9.4.7 6.2 1.9 2.9 5.1.1 9 .3c3.4.1 6.1 2.5 7.1 4.7.7 1.7.6 3.3.6 3.3-.1.9-.4 1.6-.6 2-1.8-1.9-4.3-2.8-6.7-2.3-3 .7-4.2 3.2-4.4 3.5-1.3 2.8-.2 5.3 0 5.6-.8-.5-1.5-.9-2.3-1.4z" transform="translate(-478 -2574) translate(110 2297) translate(46 240) translate(322 37) translate(154.514 225.187)"/>
                        </g>
                        <g>
                            <path fill="#FFF" stroke="#161616" stroke-width=".987" d="M53.7 48.4c-1.8 1.3-3.7 3.1-5.4 5.4-6.5 8.7-5.6 18.9-5.1 22.3-5.8-1.2-15.4-2.3-26.8.3C9.5 78 4 80.5 0 82.7c.6.4 1.5.9 2.6 1.2 6.2 1.7 12.6-3.5 12.8-3.1.2.3-7.2 3.8-6.8 6.8.3 2 3.9 3.1 7.7 4.3 3.2 1 6.2 1.9 10.3 1.4 5.6-.6 9.4-3.4 11.1-4.9 1.6.8 4.1 1.9 7.1 2.9 5.6 1.7 13.4 4.1 18.6.9 3.4-2.1 4.4-7 6.3-16.8 2.4-12.6 3.7-18.8.3-22.8-4.5-5.5-13.5-4.6-16.3-4.2z" transform="translate(-478 -2574) translate(110 2297) translate(46 240) translate(322 37) translate(269.966 150.85)"/>
                            <path fill="#161616" d="M42 76.4c4 1.5 7.3 4.2 9.5 7.8.3.5 1.2 0 .9-.5-2.4-3.8-5.9-6.6-10.1-8.2-.6-.2-.9.7-.3.9zM20.9 83c-3.9.7-7.1 3.3-8.5 7-.2.6.7.9 1 .3 1.3-3.4 4.2-5.7 7.8-6.3.5-.2.3-1.1-.3-1z" transform="translate(-478 -2574) translate(110 2297) translate(46 240) translate(322 37) translate(269.966 150.85)"/>
                            <path fill="#161616" d="M12.8 90.6c2 1.9 4.9 2.6 7.5 1.7.6-.2.3-1.2-.3-1-2.3.8-4.8.2-6.6-1.5-.3-.4-1 .3-.6.8z" transform="translate(-478 -2574) translate(110 2297) translate(46 240) translate(322 37) translate(269.966 150.85)"/>
                            <path fill="#161616" d="M25.4 86.2c-1.4.9-2.7 1.8-4 2.9-.8.7-1.7 1.6-1.5 2.8.5 3.1 4.2 2.4 6.3 1.6.6-.2.3-1.2-.3-1-.9.3-1.9.8-2.8.7-1.5-.1-2.9-1.5-1.6-2.9 1.2-1.3 2.9-2.4 4.4-3.4.6-.2.1-1-.5-.7z" transform="translate(-478 -2574) translate(110 2297) translate(46 240) translate(322 37) translate(269.966 150.85)"/>
                            <path fill="#6E8EFF" d="M52 1.5c1.4 1 3.1 2.5 5 4.4.5.5 1.9 1.9 3.2 3.6 2.1 2.6 3.5 5.1 4.9 8.2 1.9 3.9 3.8 7.8 5.7 13.7 1.6 4.9 4.1 12.7 4.4 23 .1 4.1-.1 7.5-.4 9.9-1.3-1.5-2.7-2.6-3.8-3.2-6.3-3.8-13.9-2.5-21.1-1.2-2.7.5-4.9 1.1-6.5 1.5.4-3.6.8-7.2 1.2-10.9.3-3 .6-6.1 1-9.1-.6-1.1-1.5-2.6-2.3-4.6-1.5-3.7-4.6-11-2.9-19.2C42.5 8.2 49.9 2.9 52 1.5z" transform="translate(-478 -2574) translate(110 2297) translate(46 240) translate(322 37) translate(269.966 150.85)"/>
                            <path fill="#161616" d="M53.2 3.3C56.5 5 58.7 8 60.6 11c2 3.2 3.7 6.4 5.3 9.8 3.2 6.8 5.6 14.1 7.1 21.5.1.6 1.1.4 1-.3-1.6-7.7-4.1-15.2-7.5-22.3-1.7-3.5-3.5-6.9-5.6-10.1C59 6.7 56.8 4 53.7 2.4c-.6-.3-1.1.6-.5.9zM42.9 36.7c1.5 3.1 3.1 6.1 4.7 9.1.3.6 1.2.1.9-.5-1.6-3-3.2-6.1-4.7-9.1-.3-.5-1.2-.1-.9.5z" transform="translate(-478 -2574) translate(110 2297) translate(46 240) translate(322 37) translate(269.966 150.85)"/>
                            <path fill="#161616" d="M45.3 42.4c-.8 6.4-1.6 12.8-2.4 19.1 0 .3.4.6.6.5 5.6-1.8 11.4-2.6 17.3-2.4 4.6.2 10.8.6 13.4 5.1.3.6 1.2.1.9-.5-2.5-4.3-7.9-5.2-12.4-5.5-6.7-.5-13.3.4-19.5 2.3.2.2.4.3.6.5.8-6.4 1.6-12.8 2.4-19.1.1-.6-.8-.6-.9 0z" transform="translate(-478 -2574) translate(110 2297) translate(46 240) translate(322 37) translate(269.966 150.85)"/>
                            <path fill="#161616" d="M73 41.8c1.2 7.2 3 14.9 1.1 22.2-.2.6.8.9 1 .3 2-7.4.1-15.3-1.1-22.7-.2-.7-1.1-.5-1 .2z" transform="translate(-478 -2574) translate(110 2297) translate(46 240) translate(322 37) translate(269.966 150.85)"/>
                            <path fill="#3D3D3D" d="M49.5.3c3 5.6 6 12.3 8.5 19.9 5 15.1 6.3 28.7 6.4 38.9-3.4.2-6.7.4-10.1.6l3.3 23.4c-2.1-1.2-5.3-2.8-9.5-3.7-1.3-.3-6.3-1.3-11.6-.4-11.1 1.9-17.8 11-19.3 13.2 1.5.6 3.5 1.2 5.8 1.3 7.2.4 12.4-3.7 13.9-5 4.9 2.5 9.2 3.7 12.2 4.2 5.3 1.1 11.5 2.3 14.9-1 .3-.3.9-.9 2.1-4.1 2-5.1 3.1-9.8 4.4-18.4.3-1.9.7-4.5 1.2-7.5l2.5 2.5c.4-1.5.9-3.7 1.2-6.4.7-7-.7-12.5-1.9-17-5.2-18.2-8.3-29.2-18.6-37.2C52.8 2.1 50.8 1 49.5.3z" opacity=".32" transform="translate(-478 -2574) translate(110 2297) translate(46 240) translate(322 37) translate(269.966 150.85)"/>
                            <path fill="#3D3D3D" d="M66.9 22.8c2.2 10.7 2.5 19.8 2.3 26.4-.2 6.1-.8 10.6-1.4 15.1-1.9 13.6-2.9 20.4-6.7 23.5-7.1 6-19.8 1.4-22.8.3 2.9 1.9 13.2 8.4 23.2 4.8 1.1-.4 2.2-.9 3.3-1.6 1.2-2 2.8-5.1 3.8-9.1.6-2.4.8-4.1 1-6.2.4-3.3 1-8.1 2-14.1 1 .8 1.9 1.6 2.9 2.5.3-1.7.8-4.2.9-7.4.3-7.6-1.4-13.4-3.3-20-1-3.7-2.7-8.6-5.2-14.2z" opacity=".29" transform="translate(-478 -2574) translate(110 2297) translate(46 240) translate(322 37) translate(269.966 150.85)"/>
                        </g>
                        <g>
                            <path fill="#FFF" d="M12.7 32.8c.3 3.5.9 8.5 2.2 14.3.9 3.8 1.4 6.2 2.5 9.2 1.7 4.5 4.9 13.1 13.2 18.7 2 1.4 5.3 3.2 10 4.3.8.1 1.5.2 2.3.2.3 1.4.6 3.4.9 5.9.8 6.3.4 8.3 2 10 2 2.1 5.2 1.9 5.9 1.8 5.5-.4 8.3-5.8 8.4-6.1-.9-1.6-1.8-3.6-2.5-5.9-1.6-5.1-1.6-9.6-1.3-12.7 2.5-3.7 5.3-6.4 8.2-8.6 1.1-.8 2-1.9 3.6-2.5 2.3-.8 3.5 0 5.2-.5 2.8-.9 4-4.5 4.6-6.1 2-6-.5-11.9-2-15.4-1.4-3.2-5.1-11.2-14.1-17.5-9.2-6.4-27.7-13.6-40-4.3-2.2 1.6-7 6-9.1 15.2z" transform="translate(-478 -2574) translate(110 2297) translate(46 240) translate(322 37) translate(233.785 54.476)"/>
                            <path fill="#454451" d="M14.1 46.4C12 46 6.6 44.8 3.2 40.2c-5.3-6.9-2.4-16.6.5-21.8 4.6-8 13-10.8 23.5-14.4C33.5 2 39.4 0 47.5.3c4.5.2 19.6.9 28.7 12.2 5.4 6.7 6 13.8 7.2 28 .6 6.5.1 10-1 13.4-.8 2.4-3.5 10.2-11.2 13.4-4 1.6-7.7 1.3-9.8 1 1.8-2.7 3.7-5.4 5.6-8.2 1.1.1 4.8.1 7.7-2.5 3.9-3.6 4.6-10.7 1.7-12.6-2.1-1.4-6.3 0-9.9 3.2-.3-2.1-.9-4.3-1.7-6.7-4.1-11.2-13.2-17.3-17.6-19.8-1.7 2.2-7.2 8.7-17 11.3-7.8 2-14.2.6-17.1-.3.3 4.6.6 9.1 1 13.7z" transform="translate(-478 -2574) translate(110 2297) translate(46 240) translate(322 37) translate(233.785 54.476)"/>
                            <path fill="#161616" d="M12.4 33.7c1.3 10.2 2.8 20.7 7.7 29.9 4.1 7.5 10.7 13.9 19.1 16.1.6.2.9-.8.3-1-8.4-2.1-14.8-8.6-18.7-16.1-4.7-8.9-6.1-19.1-7.4-28.9-.1-.6-1.1-.6-1 0z" transform="translate(-478 -2574) translate(110 2297) translate(46 240) translate(322 37) translate(233.785 54.476)"/>
                            <path fill="#161616" d="M39.3 79.7c6 0 12.2-3.2 16.9-6.6 4.7-3.5 8.6-7.9 11.3-13 .3-.6-.6-1.1-.9-.5-2.7 5-6.4 9.3-11 12.7-4.6 3.4-10.6 6.5-16.4 6.5-.6-.1-.6.9.1.9z" transform="translate(-478 -2574) translate(110 2297) translate(46 240) translate(322 37) translate(233.785 54.476)"/>
                            <path fill="#161616" d="M56.1 72.3c-.7 6.6.6 13.3 3.7 19.2.3.6 1.2.1.9-.5-3-5.8-4.1-12.3-3.5-18.7 0-.6-1-.6-1.1 0z" transform="translate(-478 -2574) translate(110 2297) translate(46 240) translate(322 37) translate(233.785 54.476)"/>
                            <path fill="#161616" d="M41.8 79.6c1.1 3.7 2 7.6 2.6 11.4.4 2.6.6 5.5 3.5 6.4 4.3 1.4 10.6-1.1 12.2-5.4.2-.6-.7-.9-1-.3-.9 2.4-3.2 3.7-5.6 4.4-2 .6-5 1.2-6.6-.5-1-1-1.1-2.5-1.3-3.7-.2-1.3-.5-2.7-.7-4-.6-2.9-1.3-5.8-2.1-8.6-.2-.6-1.2-.3-1 .3z" transform="translate(-478 -2574) translate(110 2297) translate(46 240) translate(322 37) translate(233.785 54.476)"/>
                            <path fill="#161616" d="M43.2 83.6c5.9-.8 9.7-5.2 12.5-10 .3-.6-.5-1.1-.9-.5-2.6 4.5-6.2 8.8-11.7 9.5-.5.2-.5 1.1.1 1z" transform="translate(-478 -2574) translate(110 2297) translate(46 240) translate(322 37) translate(233.785 54.476)"/>
                            <path fill="#161616" d="M43 80.3c4.6-.5 8.7-2.7 11.7-6.1.4-.5-.3-1.2-.7-.7-2.9 3.3-6.7 5.3-11.1 5.8-.5.1-.5 1.1.1 1z" transform="translate(-478 -2574) translate(110 2297) translate(46 240) translate(322 37) translate(233.785 54.476)"/>
                            <path fill="#161616" d="M43.2 79.6c3.7-.5 7-2 9.8-4.4.5-.4-.2-1.1-.7-.7-2.7 2.3-5.9 3.7-9.4 4.2-.6 0-.4 1 .3.9z" transform="translate(-478 -2574) translate(110 2297) translate(46 240) translate(322 37) translate(233.785 54.476)"/>
                            <path fill="#161616" d="M43 80.4c.2.8.1 2.4 1.1 2.6 1 .3 2.4-.9 3.2-1.3 2.6-1.6 4.8-3.7 6.5-6.2.4-.5-.5-1-.9-.5-1.2 1.8-2.7 3.4-4.4 4.7-.8.6-1.7 1.2-2.6 1.6-.4.2-1.2.8-1.5.5-.2-.1-.3-1.5-.4-1.8-.2-.5-1.2-.2-1 .4z" transform="translate(-478 -2574) translate(110 2297) translate(46 240) translate(322 37) translate(233.785 54.476)"/>
                            <path fill="#161616" d="M43.4 81.3c2.8-1.2 5.5-2.6 8-4.3.5-.4 0-1.2-.5-.9-2.4 1.7-5 3.1-7.8 4.2-.5.3-.3 1.2.3 1z" transform="translate(-478 -2574) translate(110 2297) translate(46 240) translate(322 37) translate(233.785 54.476)"/>
                            <path fill="#161616" d="M43.9 82.3c3.2-1.1 5.9-2.9 8.2-5.3.4-.5-.3-1.2-.7-.7-2.2 2.3-4.8 4-7.8 5-.5.3-.3 1.2.3 1z" transform="translate(-478 -2574) translate(110 2297) translate(46 240) translate(322 37) translate(233.785 54.476)"/>
                            <path fill="#161616" d="M44.4 81.8c2.3-1 4.5-2.4 6.3-4.2.5-.4-.2-1.1-.7-.7-1.8 1.7-3.8 3-6.1 4-.5.3-.1 1.1.5.9zM17.6 58.7c-5.4-1.9-7.1-8.9-6.6-14 .6-5.6 5.6-11.6 11.7-9 2.9 1.2 4 4.5 4.8 7.3.8 3 1.2 6.4.4 9.5-.7 2.7-2.4 5.3-5 6.5-2.6 1.2-5.8.5-7.5-1.7-.4-.5-1.1.2-.7.7 3 3.8 8.6 3.1 11.6-.3 3.8-4.3 3.5-10.9 1.8-16-.8-2.4-1.7-4.9-3.9-6.3-1.9-1.2-4.3-1.5-6.5-1-5 1.3-7.6 6.6-7.7 11.5-.1 5.3 2 11.8 7.4 13.7.5.2.8-.7.2-.9z" transform="translate(-478 -2574) translate(110 2297) translate(46 240) translate(322 37) translate(233.785 54.476)"/>
                            <path fill="#161616" d="M28.9 48.8c3.2-1.9 7.1-2.1 10.5-.5.6.3 1.1-.6.5-.9-3.7-1.8-8-1.7-11.5.5-.5.4 0 1.3.5.9z" transform="translate(-478 -2574) translate(110 2297) translate(46 240) translate(322 37) translate(233.785 54.476)"/>
                            <path fill="#161616" d="M44.7 55.9c-3.7-3.6-5.3-9.1-3.8-14.1 1.5-5.2 6.7-9.7 12.3-7.8 6.2 2 6.5 10.9 4.9 16.1-1 3.1-2.9 6.1-6 7.2-3.2 1.1-5.9-.6-8.4-2.3-.5-.4-1 .5-.5.9 2.1 1.5 4.3 3 6.9 2.9 2.5-.1 4.8-1.5 6.3-3.4 3.5-4.2 4.2-10.6 2.7-15.8-1.3-4.7-5.2-7.7-10.2-6.9-4.7.8-8.2 5-9.3 9.5-1.2 5.2.4 10.8 4.2 14.4.6.4 1.3-.3.9-.7zM20.6 45c-.3 2.1 0 4.1 1.2 5.9.2.4.8.3.9-.1.8-2.3-.3-4.5-1.4-6.4-.2-.4-.9-.2-.9.3 0 1.7.4 3.5 1.1 5.1.2.6 1.2.3 1-.3-.6-1.5-1-3.1-1-4.8l-.9.3c1 1.7 2.1 3.7 1.3 5.7.3 0 .6-.1.9-.1-1-1.5-1.3-3.3-1.1-5.1-.1-.8-1-1.1-1.1-.5z" transform="translate(-478 -2574) translate(110 2297) translate(46 240) translate(322 37) translate(233.785 54.476)"/>
                            <path fill="#161616" d="M49.7 44.1c0-.4 0-.5-.2-.9s-.9-.2-.9.3c0 2 .2 4.2 1.8 5.7.3.3.8.1.9-.4.3-2.4-.5-4.7-2-6.6-.3-.4-.9 0-.8.5.4 1.6.9 3.2 1.5 4.7.2.6 1.2.3 1-.3-.6-1.5-1.1-3.1-1.5-4.7-.3.2-.6.3-.8.5 1.3 1.7 1.9 3.7 1.7 5.9.3-.1.6-.2.9-.4-1.4-1.3-1.5-3.2-1.5-5l-.9.3c0 .1.1.3.1.4-.3.6.7.6.7 0zM32.2 50.6c-.7 2-1.2 4-1.6 6-.2 1.1-.9 3.1-.4 4.2 1 2.2 5.4.9 6.9.1.6-.3.1-1.1-.5-.9-1.2.6-2.5.9-3.9.8-.8-.1-1.4-.2-1.6-1.1-.1-.5.2-1.8.3-2.3.4-2.3 1-4.5 1.7-6.6.3-.5-.7-.8-.9-.2zM37.2 69.6c2.5-.3 4.6-1.9 5.7-4.2.3-.6-.6-1.1-.9-.5-1 2.1-2.8 3.4-5.1 3.7-.6.1-.3 1.1.3 1zM18.5 42.2c.6-.8 1.8-.9 2.6-.2.5.4 1.2-.3.7-.7-1.2-1-2.9-.9-3.9.2-.5.5.2 1.2.6.7zM46.7 40.4c1-.9 2.6-.9 3.6 0 .5.4 1.2-.3.7-.7-1.4-1.2-3.6-1.2-5 0-.5.4.2 1.1.7.7zM59.7 44.9c3.6-1.2 7.2-2 11-2.2.6 0 .6-1 0-1-3.8.2-7.6 1-11.2 2.2-.7.3-.5 1.2.2 1z" transform="translate(-478 -2574) translate(110 2297) translate(46 240) translate(322 37) translate(233.785 54.476)"/>
                            <path fill="#3D3D3D" d="M64.6 3.9c2 2.5 9.6 12.9 8.2 27.2-.8 8-4.1 13.8-6.2 16.9 1.2-.9 2.2-1.5 3-2 2-1.1 3.3-1.8 4.9-1.7.5 0 1.7.1 2.5.8 2.5 2.1 1.6 9.6-2.8 13.1-2.4 1.9-5.3 2.1-6.7 2.1-1.9 2.7-3.8 5.3-5.7 8 1.2.2 3.2.4 5.4 0 1-.1 4.8-.8 8.4-3.7 3.6-2.9 5-6.3 6-8.7 2.6-6.6 2.1-12.4 1.2-22.8-.4-4.6-.6-7-1.5-10.1-1-3.4-2.5-8.4-6.9-12.9C71 6.8 67.5 5 64.6 3.9z" opacity=".4" transform="translate(-478 -2574) translate(110 2297) translate(46 240) translate(322 37) translate(233.785 54.476)"/>
                            <path fill="#3D3D3D" d="M32.8 32c3.3-2.9 7-6.7 10.5-11.3 2.2-2.9 4-5.7 5.6-8.3-.6 3-1.1 5.9-1.6 8.9-1.3 1.8-3.4 4.5-6.7 6.9-3 2-5.8 3.2-7.8 3.8z" opacity=".48" transform="translate(-478 -2574) translate(110 2297) translate(46 240) translate(322 37) translate(233.785 54.476)"/>
                            <path fill="#3D3D3D" d="M56.2 28.3c2.5 8.3 2.7 15.3 2.5 19.9-.2 3.4-1.1 21.3-10.5 27.5-.9.6-3.3 2-3.2 2.2.1.2 4.5-1.7 6.9-3 3.8-2 9.6-6.2 15-14.8.9.1 5.2.4 8.4-2.6 3.8-3.6 4.4-10.6 1.4-12.7-2.1-1.5-6.2-.2-9.8 2.7-.4-1.5-.8-3.1-1.4-4.8-2.5-6.5-6.3-11.3-9.3-14.4z" opacity=".27" transform="translate(-478 -2574) translate(110 2297) translate(46 240) translate(322 37) translate(233.785 54.476)"/>
                            <path fill="#3D3D3D" d="M48.3 77.6c.9 2.6 1.7 5.3 2.6 7.9 1.2 3.6 2.3 7.3 3.5 10.9.7-.1 2.3-.6 3.7-2 1.4-1.4 1.9-3 2-3.7-1.3-2.5-2.8-6.4-3.3-11.2-.3-2.5-.2-4.8 0-6.6-2.9 1.5-5.7 3.1-8.5 4.7z" opacity=".36" transform="translate(-478 -2574) translate(110 2297) translate(46 240) translate(322 37) translate(233.785 54.476)"/>
                            <path fill="#3D3D3D" d="M31.8 51.7c-1.6 3.5-3.3 7-4.9 10.5 2.7-.1 5.4-.1 8.1-.2l-4.8-1.5c.5-2.8 1.1-5.8 1.6-8.8z" opacity=".43" transform="translate(-478 -2574) translate(110 2297) translate(46 240) translate(322 37) translate(233.785 54.476)"/>
                        </g>
                        <g>
                            <g>
                                <g fill="#263E92">
                                    <path d="M7 4.6V2.3c0-.7 0-1.4-.2-2 0-.2-.1-.2-.3-.2-.5.2-.9.7-1.3 1.1-.5.5-.9 1-1.2 1.5-.8 1-1.5 2.1-2 3.3-.3.5-.6 1.1-.8 1.7-.2.4-.4 1.1 0 1.5.3.4 1 .2 1.3 0 .5-.3.9-.7 1.4-1 .3-.3.7-.6 1.1-.4.3.2.5.6.7.9.3.4 1.1 1.3 1.2.7.1-.2.1-.1.1-.4V4.6z" transform="translate(-478 -2574) translate(110 2297) translate(46 240) translate(322 37) translate(246 153) rotate(2 -21.002 198.094) translate(0 .003)"/>
                                </g>
                                <path fill="#6E8EFF" d="M6.7 8.1V4.6 2.8c0-.5 0-1.1-.1-1.6-.1-.2-.2-.2-.3-.1-.4.1-.8.5-1.1.8-.4.4-.7.7-1 1.1-.6.9-1.1 1.8-1.6 2.7-.2.4-.4.9-.6 1.3-.1.4-.3.9 0 1.2.3.3.8.1 1.1 0 .4-.2.7-.5 1.1-.8.2-.2.5-.4.9-.3.3.1.4.4.6.7.2.3.8 1 1 .5v-.2" transform="translate(-478 -2574) translate(110 2297) translate(46 240) translate(322 37) translate(246 153) rotate(2 -21.002 198.094)"/>
                                <g fill="#263E92">
                                    <path d="M.2 9.4c.1.6 1-.3 1.2-.7.2-.3.4-.7.7-.9.4-.2.8.1 1.1.3.5.3.9.8 1.4 1 .4.2 1 .4 1.3 0 .3-.4.1-1.1 0-1.5-.2-.5-.5-1.1-.8-1.6-.6-1.2-1.2-2.3-2-3.3-.4-.5-.8-1-1.2-1.4C1.6.8 1.1.3.6.1.5 0 .3.1.3.2 0 .9.1 1.6.1 2.3V9c0 .3 0 .2.1.4" transform="translate(-478 -2574) translate(110 2297) translate(46 240) translate(322 37) translate(246 153) rotate(2 -21.002 198.094) translate(7.61 .003)"/>
                                </g>
                                <path fill="#6E8EFF" d="M8.2 8.4c.1.5.8-.2 1-.5.2-.3.3-.5.6-.7.3-.2.6 0 .9.2.3.3.6.6 1 .8.3.1.8.3 1.1 0 .3-.3.1-.9 0-1.2-.2-.5-.4-.9-.6-1.3-.5-.9-1-1.8-1.6-2.6-.3-.4-.6-.8-1-1.2-.3-.3-.7-.7-1.1-.8-.1-.1-.2-.1-.3.1-.1.5-.1 1-.1 1.6v5.3c0 .2 0 .1.1.3" transform="translate(-478 -2574) translate(110 2297) translate(46 240) translate(322 37) translate(246 153) rotate(2 -21.002 198.094)"/>
                                <path fill="#263E92" d="M8.9 4.6c-.1.2-.3.3-.5.3-.5.1-1 .2-1.5.2h-.7C6.1 5 6 5 6 4.9c-.1 0-.1-.1 0-.1 0-.1.2-.1.2-.2.1 0 .2-.1.3-.1.3-.1.5-.1.7-.2.5-.1 1-.1 1.5-.2l.1.1c.2.1.2.3.1.4m0-.7c0-.1-.1-.1-.2-.1-.5.1-1.1.1-1.6.2l-.9.3c-.2.1-.5.2-.6.4-.1.3.1.6.4.6.1 0 .3.1.4.1h.5c.6 0 1.2-.1 1.8-.3.3-.1.6-.3.6-.6 0-.2-.1-.5-.4-.6" transform="translate(-478 -2574) translate(110 2297) translate(46 240) translate(322 37) translate(246 153) rotate(2 -21.002 198.094)"/>
                            </g>
                            <g fill="#142A77" fill-rule="nonzero">
                                <path d="M3.6 1.2c0 .1-.1.1-.1.1h-.2H3h-.1-.1-.1-.1-.1-.1-.1-.1-.1c-.2 0-.3.1-.4.1l-.2.1c-.1 0-.2.1-.3.2l-.1.1-.2.2-.2.2v-.1V2v-.1-.1c.1-.1.1-.1.1-.2 0 0 .1 0 .1-.1l.1-.1.1-.1c.1-.1.1-.1.2-.1 0 0 .1 0 .1-.1 0 0 .1 0 .1-.1h.1s.1 0 .2-.1h.4s.1 0 .2-.1c.1 0 .1 0 .2-.1.1 0 .2 0 .3-.1H3.6s.1 0 .2.1c-.2.3-.2.4-.2.5 0-.1 0 0 0 0zm-2.4.4c.1 0 .2-.1.4-.2h-.1c-.1.1-.3.2-.3.2-.2.1-.2.1-.3.2l-.1.1c.2-.1.3-.2.4-.3zm.6-.2s-.1 0 0 0h-.1-.1-.1-.1l-.2.1s-.1.1-.2.1l.1-.1.1-.1s.1 0 .1-.1.1 0 .1-.1h.1c.1 0 .1-.1.1-.1.1.3.1.3.2.3zm.5 1.4V3h-.1H1.9h-.1c-.1 0-.1 0-.2.1h-.1v.1c0 .1 0 .2-.1.3v.1c0 .1-.1.3-.1.6v.5h0s-.1 0-.1-.1c0 0-.1 0-.1-.1v-.1-.3V4v-.2-.2-.5H1l.1-.1.1-.1.1-.4v-.1-.1l.1-.3v-.2-.2s.1 0 .1.1v1.1h.2c.1 0 .2-.1.3-.1h.1c.1 0 .2 0 .2.1zm-.9.4s-.1 0 0 0c0 .1-.1.2-.1.2 0 .1-.1.3-.1.5v.4V4c0-.1.1-.3.1-.4l.1-.4zm-.2.4v-.1c.1 0 0 0 0 .1zm.4-1.1c0 .1-.1.2-.1.3V3c0-.2 0-.3.1-.5zm.5.4c-.1 0-.1 0 0 0-.1 0-.2 0-.2.1-.1 0-.2.1-.3.1h-.1.2s.1 0 .2-.1.1-.1.2-.1zm-.5.1c.2-.1.3-.1.4-.1-.1 0-.2 0-.4.1zm.1-1.6c0-.1 0-.1 0 0 0-.1.1-.1 0 0 .1 0 .1 0 .1-.1l-.1.1c0-.1 0-.1 0 0 0-.1 0-.1 0 0 0-.1 0 0 0 0zM4.8 3.3s-.1 0 0 0c-.1.1-.1.1 0 0-.2.3-.3.5-.4.6l-.1.1v.2l-.2.1c-.1 0-.1.1-.2.1h-.1c-.1 0-.2-.1-.2-.2s0-.1-.1-.2v-.1c0-.2.1-.4.1-.6v-.1l-.2.4c-.1.1-.1.2-.2.3 0 0-.1.1-.1.2l-.1.1h-.1s-.1 0-.1-.1L2.7 4l-.1-.1v-.1c0-.1 0-.2.1-.3 0 0 0-.1.1-.3.1-.1.1-.2.2-.3 0 0 0-.1.1-.1h.2s.1 0 .1.1V3l-.1-.1-.1.1s-.1.1-.1.2c-.1.1-.1.2-.2.4V3.9l.3-.3c.2-.2.3-.4.3-.5 0-.1.1-.1.2-.2v-.1c0-.1 0 0 0 0l.1-.2v.1l.2.2c-.1.3-.1.5-.2.6v.7h.1l.1-.1.1-.1.1-.1c.1-.1.1-.2.2-.2 0-.1.1-.2.2-.3v-.1c.1-.1.1-.1.2 0-.1-.1-.1-.1 0 0-.1-.1-.1 0 0 0-.1 0-.1 0 0 0-.1 0-.1 0 0 0-.1 0-.1 0 0 0-.1 0-.1 0 0 0zM3 3.2c0-.1 0-.1 0 0 0-.1 0-.1 0 0V3v.2c-.1.1-.1.2-.2.4 0-.2.1-.3.2-.4zM6.7 3.1l-.1.1h-.1s-.1 0-.1.1v.4s0 .1-.1.1c-.3.1-.3.2-.4.3 0 .1-.1.1-.2.1h-.1-.1c-.1 0-.1-.1-.1-.1V4v-.1-.1c.1-.2.2-.3.4-.4 0 0 .1-.1.2-.1v-.1-.4h-.1s-.1.1-.2.1l-.3.3c-.1.1-.2.2-.2.3l-.1.1s-.1.1-.1.2V4.7s-.1 0-.1-.1v-.2-.1-.2V3.8v-.1-.2-.1-.1-.1c.1-.2.1-.3.1-.4v-.2-.2-.2c0-.1.1-.2.1-.4 0-.1 0-.2.1-.2l.1-.2v-.1l.1-.2c0-.1.1-.2.1-.2 0-.1.1-.2.2-.2v.1l.1-.1v.1l.1.2s0 .1-.1.2c0 0 0 .1-.1.3 0 0 0 .1-.1.2 0 .1 0 .1-.1.2v.2l-.1.4v.2c0 .1 0 .1-.1.2v.2l.1-.1.3-.3c.1-.1.2-.1.2-.2h.2c.1 0 .1.1.2.1.1.1.1.1.1.2V3h.2c0 .1 0 .1.1.1zm-1.3.1c.1-.2.2-.3.4-.4 0 0-.1 0-.1.1l-.1.1h-.1c-.1.1-.1.1-.1.2 0-.1 0-.1 0 0-.1-.1-.1-.1 0 0-.1 0-.1 0 0 0-.1 0-.1 0 0 0-.1 0-.1.1-.1.1l.1-.1-.1.1v.1c0-.1 0-.2.1-.2zm.4-.4s-.1 0 0 0c-.1.1-.1.1-.2.1s0 .1-.1.1l-.1.1.1-.1c.1 0 .2-.1.3-.2zm-.2 1.1c0-.1 0-.1 0 0 .1-.2.2-.3.3-.4v-.1l-.1.1-.1.1c-.1.2-.1.2-.1.3 0-.1 0-.1 0 0 0-.1 0-.1 0 0 0-.1 0-.1 0 0 0-.1 0-.1 0 0 0-.1 0-.1 0 0zm.4-.3c0-.1 0-.1 0 0-.1 0-.1.1-.2.2s-.1.1-.1.2c.1-.1.2-.2.3-.4zm-.2.4c.1 0 .1-.1.2-.2-.1 0-.2.1-.2.2zm.2-.1s-.1 0 0 0c-.1.1-.2.1-.2.2l.2-.2zm0-.4s-.1 0 0 0l-.1.1c0-.1 0-.1.1-.1zM9 3.3c0 .1 0 .1 0 0-.2.3-.3.5-.4.6V4.2l-.2.1c-.1 0-.1.1-.2.1h-.1c-.1 0-.2-.1-.2-.2s0-.1-.1-.2v-.1c0-.2.1-.4.1-.6v-.1l-.2.4c-.1.1-.1.2-.2.3 0 0-.1.1-.1.2l-.1.1h-.1s-.1 0-.1-.1C7 4 6.9 4 6.9 4l-.1-.1v-.1c0-.1 0-.2.1-.3 0 0 0-.1.1-.3.1-.1.1-.2.2-.3 0 0 0-.1.1-.1h.2s.1 0 .1.1V3l-.1-.1V3s-.1.1-.1.2c-.1.1-.1.3-.2.5V4l.3-.3c.2-.2.3-.4.3-.5 0-.1.1-.1.2-.2v-.1c0-.1 0 0 0 0l.1-.2v.1L8 3c-.1.3-.1.5-.2.6v.7h.1l.1-.1.1-.1.1-.1c.1-.1.1-.2.2-.2 0-.1.1-.2.2-.3v-.1c.3-.2.3-.2.4-.1-.1-.1-.1-.1 0 0-.1-.1-.1 0 0 0zm-1.8-.1c0-.1 0-.1 0 0 0-.1 0-.1 0 0 0-.1.1-.1.1-.1-.1-.1-.1 0-.1.1-.1.1-.1.2-.2.4.1-.2.1-.3.2-.4zm.1-.1s0 .1 0 0c0 .1-.1.1-.1.1.1 0 .1 0 .1-.1 0 .1 0 .1 0 0zM14.2 1.4v-.1h-.1-.1-.1-.1H13.5c-.2 0-.4 0-.6.1h-.5l-.5.1c-.2 0-.3.1-.3.1h-.4-.1-.1l-.2.1c-.2.1-.4.1-.6.2-.1 0-.2.1-.4.2l.1-.1c.1-.1.3-.2.4-.2 0 0 .1 0 .3-.1.2-.1.3-.1.4-.1.2-.1.5-.1.6-.2l.5-.1H12.4c.2 0 .4-.1.5-.1h1.2c0-.1.1 0 .1.2 0-.1 0-.1 0 0zm-4.3.5s.1 0 0 0l.6-.3.2-.1c.1 0 .1 0 .1-.1.1 0 .2-.1.4-.1H11.3c-.1 0-.3.1-.4.1h-.1-.2-.1-.1-.1c-.3.4-.3.4-.4.5.1 0 .1 0 0 0zm1.8-.5h-.1-.1c-.3.1-.5.1-.7.2-.2.1-.3.1-.5.2h-.1-.1H10.4c.1 0 .1-.1.2-.1s.1 0 .2-.1h.1c.1 0 .2-.1.4-.1h.4v-.1zm.1.3v.2c-.1.2-.1.4-.2.5 0 .1 0 .1-.1.2V2.9l-.1.2-.1.3c0 .2-.1.3-.1.3V4.3v-.2c0-.1 0-.2.1-.3v-.1-.4-.1l.1-.3v-.2l.1-.4c0-.1.1-.3.1-.4v-.1-.1-.1s0-.1.1-.1l.1.2c0-.1 0-.1 0 0 0-.1 0 0 0 0zm.2-.4c-.1 0-.1 0 0 0-.1 0-.1 0 0 0h-.2c0 .1 0 .1.2 0-.1.1-.1.1 0 0-.1 0-.1 0 0 0zM13.3 3.8c-.1.1-.1.2-.3.3-.1.1-.2.2-.4.2h-.1c-.1 0-.1 0-.2-.1-.1 0-.1-.1-.1-.1l-.1-.1v-.1-.1-.2-.2-.1s0-.1.1-.1c.1-.1.1-.2.2-.2 0-.1.1-.1.2-.1h.4c.1 0 .1.1.1.2v.2c-.1.1-.1.2-.2.2-.1.1-.2.1-.3.2h-.1l-.1.1V4.1s0 .1.1.1.2-.1.3-.1c.1-.1.2-.1.3-.2l.1-.1.1-.1.2-.2c0-.1.1-.1.1-.2v.1c0 .1 0 .2-.1.2s-.1.1-.2.2c.1 0 0 0 0 0zm-.9-.6c0-.1.1-.1.1-.1-.1 0-.1 0-.1.1zm0 .1c.1-.2.2-.3.3-.4l-.1.1c-.1 0-.1.1-.2.3zm.3-.4c-.1.1-.1.1-.1.2l.1-.2zm-.1.4c.1 0 .1 0 0 0 .2-.1.2-.2.3-.2V3h-.1c-.1.1-.1.2-.2.3zm.3-.2s0 .1 0 0v.1-.1c0 .1 0 .1 0 0 .1 0 .1 0 0 0 .1 0 .1 0 0 0 .1 0 .1 0 0 0 .1 0 0 0 0 0zm.4.7l.1-.1c-.1 0-.1.1-.1.1zm.1-.1l.1-.1v-.1.1l-.1.1c0-.1 0-.1 0 0zM15.3 3.1l-.1.2c-.1.2-.3.4-.6.7-.1.1-.1.2-.2.2-.1.1-.2.2-.4.2h-.1-.1c-.1-.1-.2-.1-.2-.2V4v-.2-.1c0-.1.1-.2.1-.3l.1-.2c.1-.1.1-.2.2-.3l.1-.1h.4c.1 0 .1.1.1.2v.2h-.1s-.1 0-.1.1c-.1.1-.2.2-.3.4 0 0 0 .1-.1.2v.5c.2-.1.3-.2.4-.3l.2-.2.2-.2c.1-.1.2-.2.2-.3l.2-.2c0-.1 0-.1.1-.1-.1 0-.1 0 0 0-.1 0-.1 0 0 0-.1 0-.1 0 0 0-.1 0 0 0 0 0zm-1.4.4c.1-.2.2-.3.2-.4l.1-.1-.1.1c-.1.1-.2.2-.2.4-.1 0-.1 0 0 0zm0-.1l.1-.1c-.1 0-.1 0-.1.1zm.3-.3c0 .1-.1.1-.1.2 0-.1.1-.1.1-.2s0-.1 0 0zm.8.3c0 .1-.1.1 0 0-.1.1-.1.1 0 0l-.1.1.1-.1c0 .1 0 .1 0 0 0 .1 0 .1 0 0zm.1-.2s0 .1 0 0c0 .1 0 .1 0 0-.1.1-.1.1-.1.2 0 0 .1-.1.1-.2 0 .1 0 .1 0 0 0 .1 0 .1 0 0zM17.2 3.5c-.1.1-.1.2-.2.3l-.1.2-.1.1-.1.1s-.1 0-.1.1h-.1s-.1 0-.1-.1c-.1 0-.1-.1-.1-.1v-.2-.1-.2c0-.1 0-.3.1-.3v-.1l-.1.1s-.1.1-.1.2-.2 0-.2 0c-.1.1-.1.2-.2.3-.1.1-.1.3-.2.4v-.1-.2-.1-.1-.1-.1-.2c0-.2.1-.3.1-.5 0-.1 0-.2.1-.2 0-.1 0-.1.1-.2v-.1s0-.1.1-.1v-.1s0-.1.1-.1h.1s.1 0 .1.1v.1s0 .1-.1.2-.1.3-.2.4c0 .1-.1.2-.1.3v.8c.1-.1.2-.3.3-.4l.2-.2c.1 0 .2.1.2.1v.2c0 .1-.1.2-.1.3V4.5h.2l.2-.2.1-.1.1-.1V4c0-.5 0-.5.1-.5-.1 0-.1 0 0 0-.1 0-.1.1-.1.1v-.1c0 .1 0 0 .1 0 0-.1 0-.1 0 0zm-1.1-.3s0-.1 0 0c0-.1 0-.1 0 0-.1 0-.1 0 0 0-.1.1-.1.1 0 0l-.1.1s0-.1.1-.2V3v-.1-.1s-.1.5 0 .4c-.1.1-.1.1 0 0zm-.1-1c-.1.3-.2.5-.2.5l.1-.4c.1-.3.2-.5.2-.5 0-.1 0 .1-.1.4zM19.6 3.2s-.1 0 0 0c-.1.1-.1.1-.1.2-.1.1-.1.1-.1.2l-.1.1c-.1.1-.1.2-.1.2l-.2.2c-.1.1-.1.2-.2.2 0 0-.1 0-.1.1-.1 0-.1 0-.1.1h-.1-.1l-.1-.1v-.2-.1V4l.1-.3v-.2-.1-.1l.1-.2-.1.1-.1.1-.1.1s0 .1-.1.1l-.1.1c-.2.3-.3.5-.3.5l-.1.1h-.1-.1s-.1 0-.1-.1V4v-.4-.2c0-.1 0-.1.1-.2 0-.1 0-.1.1-.2h.1v.1V3c0 .1-.1.2-.1.3v.5l.1-.1s0-.1.1-.1c.1-.1.1-.2.2-.2.1-.1.2-.2.2-.3l.2-.1h.2v.2c0 .1 0 .2-.1.3 0 .2-.1.2-.1.2v.2c0 .1 0 .2-.1.3v.2h.1l.1-.1c.1-.1.1-.2.2-.2.1-.2.3-.4.3-.5l.1-.1s0-.1.1-.1l.1-.1c.1-.1.3-.2.4-.1-.1-.1-.1-.1 0 0zm-1.9.7c.1-.1.2-.2.2-.3l.1-.2.1-.1-.1.1c-.1.2-.2.3-.3.5.1-.1.1-.1 0 0zm.5-.6l-.1.1-.1.1s-.1.2-.2.3l.1-.1.1-.1v-.1-.1c.2 0 .2-.1.2-.1zm.7.8l-.1.1v.1l.1-.1s.1 0 .1-.1c-.2.1-.2.1-.1 0 0 .1 0 .1 0 0zm.5-.8l-.1.1h.1s.1-.1.2-.3l.2-.3c0-.1 0-.1.1-.1 0 0 0-.1.1-.1l.1-.1c-.8.9-.7.8-.7.8zm-.4.6c0 .1 0 .1 0 0V4v-.1c0 .1 0 .1 0 0 0 .1 0 .1 0 0 0 .1 0 0 0 0z" transform="translate(-478 -2574) translate(110 2297) translate(46 240) translate(322 37) translate(246 153) translate(0 13)"/>
                                <path d="M21.2 3.2s0 .1 0 0c0 .1 0 .1 0 0-.1.1-.1.1-.2.1 0 0-.1 0-.2.1h-.2-.1v.2c0 .1 0 .2-.1.2v.1s0 .1-.1.1c0 0-.1 0-.1.1h-.4c-.1 0-.1 0-.1-.1-.1 0-.1-.1-.1-.1v-.1-.2-.2c0-.1 0-.1.1-.2v-.1V3s0-.1.1-.1v-.1s0-.1.1-.1h.2v.1s0 .1-.1.1v.2c0 .1 0 .1-.1.2v.6h.1c.1-.1.1-.1.1-.2l.1-.1v-.1h-.1c-.1 0 0 0 0 0 0-.1.1-.1.1-.1h.2l.1.1v.1H20.8l.1-.1c.2-.3.3-.3.3-.3zm-1.5.5c.1 0 .1 0 0 0 .1-.1.1-.1 0 0v-.1-.1-.1c0-.1 0-.1.1-.2 0-.1.1-.1.1-.2 0 .1-.1.1-.1.2s-.1.1-.1.2v.1c.1.1.1.1 0 .2zm.2-.4c0-.1 0-.1.1-.3v-.1s0 .1-.1.1c.1 0 0 .2 0 .3 0 .1-.1.1-.1.2V3.6c0-.1.1-.2.1-.3zm.3-.4c0 .1-.1.1-.1.2 0-.1 0-.2.1-.2 0-.1 0-.1 0 0zm.3.7v.1c0 .1-.1.2-.1.3v0c0-.1.1-.1.1-.2-.1-.1 0-.1 0-.2 0 .1 0 0 0 0zm-.2.3c.1 0 .1 0 0 0 .1-.1.1-.1 0 0l.1-.1-.1.1c.1-.1.1-.1 0 0 .1-.1.1-.1 0 0zm.2-.1c0 .1-.1.1-.1.2 0 0 0-.1.1-.2zM22.3 1.3V1.6l-.1.3s0 .1-.1.2 0 .1-.1.2c0 0 0 .1-.1.2 0 .1-.1.2-.1.2 0 .1-.1.2-.1.3 0 .1-.1.2-.1.3v.2c0 .1 0 .2-.1.3-.1.1 0 .1 0 .2v.2c.1 0 .2-.1.3-.2.1-.1.2-.3.4-.5l.2-.3c-.1.2-.1.3-.2.4-.1.1-.1.2-.3.3l.1.3-.2.2c-.1.1-.2.1-.2.1s-.1 0-.1-.1l-.1-.1v-.2-.2-.6c0-.2.1-.4.1-.7l.3-.9c.1-.3.2-.5.4-.5l.1.1c-.1-.1-.1-.1 0 0-.1-.1 0-.1 0 0 0-.1 0-.1 0 0zm-.8 1.8c0 .1 0 .3-.1.4V3.2c.1 0 .1-.1.1-.1 0-.1 0-.1.1-.2v-.2-.2-.1l.1-.3-.1.6c-.1.1-.1.3-.1.4zm.4-.7c.1-.4.2-.7.3-.9 0 0-.1.1-.2.3-.1.2-.1.4-.2.7-.1.2-.1.4-.1.5l-.1.3c.1-.2.2-.5.3-.9zm-.1-.5v-.1.1c0 .1-.1.1-.1.1.1 0 .1-.1.1-.1zM24.3 3.2s0 .1 0 0c0 .1 0 .1 0 0-.1.1-.1.1-.2.1 0 0-.1 0-.2.1h-.2-.1v.2c0 .1 0 .2-.1.2v.1s0 .1-.1.1c0 0-.1 0-.1.1h-.4c-.1 0-.1 0-.1-.1-.1 0-.1-.1-.1-.1v-.1-.2-.2c0-.1 0-.1.1-.2v-.1V3s0-.1.1-.1v-.1s0-.1.1-.1h.2v.1s0 .1-.1.1v.2c0 .1 0 .1-.1.2v.6h.1c.1-.1.1-.1.1-.2l.1-.1v-.1h-.1c-.1 0 0 0 0 0 0-.1.1-.1.1-.1h.2l.1.1v.1H23.9l.1-.1c.2-.3.2-.3.3-.3-.1 0-.1 0 0 0-.1 0-.1 0 0 0-.1 0 0 0 0 0zm-1.5.5c0-.1 0-.1 0 0v-.1-.1-.1c0-.1 0-.1.1-.2 0-.1.1-.1.1-.2 0 .1-.1.1-.1.2s-.1.1-.1.2V3.7zm.2-.4c0-.1 0-.1.1-.3l.1-.1v-.1s0 .1-.1.1c-.1.1-.1.3-.1.4 0 .1-.1.1-.1.2V3.6c0-.1 0-.2.1-.3zm.2-.4c0 .1-.1.1-.1.2.1-.1.1-.2.1-.2.1-.1.1-.1 0 0zm.3.7v.1c0 .1-.1.2-.1.3v0c0-.1.1-.1.1-.2v-.2c0 .1 0 0 0 0zm-.1.3c0-.1 0-.1 0 0l.1-.1-.1.1c0-.1 0-.1 0 0 0-.1 0-.1 0 0zm.1-.1c0 .1-.1.1-.1.2.1 0 .1-.1.1-.2zM26.3 3.3c-.1.1-.2.2-.4.3-.1.1-.2.1-.2.1V4c0 .2 0 .4-.1.5V5s0 .1-.1.2c0 .1-.1.2-.1.4-.1.2-.2.3-.2.4-.1.2-.3.3-.4.3-.1 0-.2.1-.3.1h-.1c-.2-.1-.2-.2-.3-.4v-.1c0-.1.1-.2.1-.4.1-.1.1-.3.2-.4 0-.1.1-.2.2-.3l.2-.2c.1-.1.1-.2.3-.3.1-.2.3-.3.4-.4l.1-.1v-.1-.2l-.2.3-.3.3c-.1.1-.1.1-.2.1h-.1-.1l-.1-.1V4v-.1c0-.1.1-.2.1-.3v-.1l.1-.2.2-.2c.1 0 .1-.1.2-.1h.1l.1.1s-.1 0-.1-.1c-.1 0-.1.1-.2.2 0 .1-.1.1-.1.2s-.1.2-.1.3h.1l.3-.3.2-.3.2-.3h.1c.1 0 .1.1.1.1v.5l.2-.1c.1 0 .1-.1.1-.1h.1c-.2.1-.2.1 0 .1-.1-.1-.1-.1 0 0-.1-.1-.1-.1 0 0zm-1 .7l-.1.1-.1.1-.1.1-.2.2-.2.2c-.1.2-.2.3-.3.4-.1.1-.1.2-.2.3-.1.1-.1.2-.2.4V6.1H24.2c.1-.1.2-.1.3-.2.1-.1.1-.2.2-.2 0-.1.1-.1.1-.3.1-.1.1-.3.2-.5 0-.1.1-.3.1-.5v-.2V4h.2zm-1.1 1.3s.1 0 0 0l.2-.3s0-.1.1-.1c0-.1.1-.1.1-.1l.1-.1.1-.1.1-.1.1-.1.1-.1-.1.1-.1.1-.1.1-.1.1V5c-.5.2-.5.2-.5.3 0-.1 0-.1 0 0zm.4-2l.2-.3.1-.1h-.1l-.1.1c-.1.2-.1.3-.1.3zm.3-.3c-.1.1-.1.1 0 0l-.1.1.1-.1c-.1.1-.1.1 0 0zm.1 2.6c0 .1 0 .1 0 0-.1.1-.1.2-.1.2v-.1l.1-.1c0 .1 0 .1 0 0-.1.1-.1.1 0 0l-.1.1v.1s0 .1-.1.1c.1-.1.1-.2.2-.3 0 .1 0 .1 0 0 0 .1 0 0 0 0zm0 .2l-.2.2c.1 0 .1-.1.2-.2 0 .1 0 .1 0 0zm.4-2.9s0 .1 0 0c0 .1 0 .1 0 0l-.1.1.1-.1v.2l-.1.1.1-.1.1-.1.1-.1s0-.1.1-.1l.1-.1.1-.1c-.5.4-.5.4-.5.3zm-.3.5c-.1 0-.1.1 0 0-.1.1-.1.1-.1.2 0 0 0-.1.1-.2-.1.1-.1.1 0 0 0 .1 0 0 0 0zM28.8 3.1l-.5.3s-.1.1-.2.1-.1.1-.2.1v.1l-.1.7v.3c0 .1 0 .1-.1.3 0 .1 0 .1-.1.2-.1.2-.1.3-.2.4-.1.2-.2.3-.2.4-.1.2-.3.3-.4.3-.1 0-.2.1-.3.1h-.1c-.1-.1-.2-.2-.3-.4v-.1c0-.1 0-.2.1-.4.1-.1.1-.3.2-.4.1-.1.1-.2.2-.3l.1-.1.1-.1c.1-.1.1-.2.3-.3.1-.1.2-.3.4-.4l.1-.1-.1.1c0-.1 0-.2.1-.5v-.1c-.1.1-.1.2-.2.4l-.3.3c-.1.1-.2.1-.2.2h-.1-.1c-.1 0-.1-.1-.1-.2v-.1c0-.1 0-.1.1-.2 0-.1.1-.1.1-.1v-.1-.1s0-.1.1-.1l.1-.1v.4c-.1.1-.1.2-.2.4v.1h.1c.2-.1.3-.2.3-.3 0 0 .1-.1.1-.2s.1-.1.1-.2c0 0 0-.1.1-.1 0 0 0-.1.1-.1 0 0 0-.1.1-.1h.2c.1 0 0 0 0 .1v.4h.1c.2-.1.3-.1.3-.1.3-.4.4-.5.5-.4-.1-.1 0-.1 0 0zm-1.2.8l-.1.1-.1.1-.2.3-.2.2c-.1.1-.2.3-.3.4 0 0-.1.1-.2.3-.1.1-.1.3-.2.4V6H26.6c.1-.1.2-.1.3-.2.1-.1.1-.2.2-.2 0-.1.1-.1.1-.2s0-.1.1-.1c0-.1.1-.3.2-.5 0-.1.1-.3.1-.5v-.1V3.9zm-1.1 1.3c0-.1 0-.1 0 0l.2-.3v-.1l.1-.1.1-.1.1-.1.1-.1.1-.1v-.1.1l-.1.1-.1.1s0 .1-.1.1v.1l-.1.1c-.3.3-.3.3-.3.4 0-.1 0-.1 0 0 0-.1 0-.1 0 0zm1.1-2.4c0 .1 0 .1 0 0 0 .1 0 .1 0 0 0 .1-.1.1 0 0-.1.1-.1.1 0 0l-.1.1V3h-.1c-.1 0-.1 0-.1.1l-.1.1.1-.1h.1c.1 0 .1 0 .1-.1 0 0 0-.1.1-.1 0-.1.1-.1.1-.1s-.1.1-.1 0c0 .1 0 .1 0 0 0 .1 0 0 0 0zm-.3 2.7l-.1.2v-.1l.1-.1c-.1.1-.1.1 0 0-.1.1-.1.1 0 0l-.1.1-.1.1v.1c0 .1 0 0 0 0 .1-.1.2-.2.2-.3 0 .1 0 .1 0 0zm0 .2l-.2.2c.1 0 .1-.1.2-.2zm0-2.3c0 .1-.1.1 0 0l-.1.1-.1.1h.1c.1 0 0 0 .1-.2-.1.1-.1.1 0 0 0 .1 0 .1 0 0z" transform="translate(-478 -2574) translate(110 2297) translate(46 240) translate(322 37) translate(246 153) translate(0 13)"/>
                            </g>
                        </g>
                    </g>
                </g>
            </g>
        </g>
    </g>
</svg>
