<svg xmlns="http://www.w3.org/2000/svg" width="40" height="40" viewBox="0 0 40 40">
    <defs>
        <linearGradient id="26utonwdya" x1="0%" x2="100%" y1="0%" y2="100%">
            <stop offset="0%" stop-color="#0DA0E0"/>
            <stop offset="100%" stop-color="#22D1EE"/>
        </linearGradient>
    </defs>
    <g fill="none" fill-rule="evenodd">
        <g fill="url(#26utonwdya)" transform="translate(-1020 -2805)">
            <g>
                <g>
                    <g>
                        <g>
                            <path d="M19.343 1.667c4.689 0 8.693 3.112 10.083 7.454.58-.171 1.16-.264 1.788-.264 3.942 0 7.12 3.237 7.12 7.205 0 3.829-2.919 6.972-6.631 7.221v-2.116c0-.085-.01-.168-.026-.249l-.032-.118c.037.116.058.24.058.367v4.794c1.726.498 2.978 2.116 2.978 4.03 0 2.32-1.848 4.202-4.125 4.202-2.276 0-4.125-1.883-4.125-4.201 0-1.915 1.253-3.533 2.98-4.031v-2.662h-8.266V30.1c1.648.478 2.872 1.996 2.96 3.819l.006.211c0 2.32-1.835 4.202-4.112 4.202-2.276 0-4.125-1.883-4.125-4.202 0-1.915 1.253-3.517 2.964-4.03h.017v-6.802h-8.327v-2.132c0-.043-.003-.085-.007-.126l.007.126v5.104c0 .031 0 .062-.016.093 1.726.515 2.994 2.133 2.994 4.049 0 2.317-1.849 4.2-4.125 4.2-2.275 0-4.123-1.883-4.123-4.2 0-1.916 1.25-3.52 2.977-4.048v-3.082c-3.65-.265-6.568-3.393-6.568-7.22 0-3.97 3.177-7.206 7.058-7.206.214 0 .411 0 .626.046 1.421-4.217 5.393-7.236 9.992-7.236zm2.581 31.406c-.152-.157-.382-.157-.534-.017-.152.142-.168.39-.014.546l.565.621-.597.638c-.138.157-.138.405.015.547.078.077.168.107.261.107.106 0 .199-.03.274-.125l.855-.902c.138-.156.138-.39 0-.53zm-1.329-.778c-.198-.062-.412.062-.473.265l-.642 2.474c-.046.2.061.419.275.465.032.016.061.016.093.016.167 0 .321-.107.365-.28l.659-2.473c.046-.202-.077-.422-.277-.467zm-1.787.761c-.153-.14-.398-.14-.535.017l-.825.886c-.137.14-.137.373 0 .529l.84.902c.077.095.184.125.277.125.105 0 .198-.03.273-.107.153-.142.153-.39 0-.547l-.594-.638.58-.62c.138-.158.138-.405-.016-.547zm-7.5-3.703c-.14-.156-.382-.156-.537-.016-.15.156-.166.39-.013.545l.579.622-.612.638c-.137.156-.137.405.017.562.077.06.167.092.26.092.105 0 .212-.031.289-.109l.842-.918c.137-.14.137-.374 0-.53zm-1.33-.778c-.198-.063-.414.062-.46.264l-.656 2.476c-.046.2.076.419.275.481h.093c.168 0 .334-.109.382-.28l.641-2.475c.046-.202-.076-.42-.275-.466zm-1.787.762c-.154-.14-.382-.14-.536.016l-.825.887c-.138.155-.138.389 0 .529l.857.918c.076.078.166.109.275.109.09 0 .183-.031.258-.092.153-.157.153-.406.015-.562l-.594-.638.565-.622c.151-.156.138-.39-.015-.545zm24.29-.404c-.137-.157-.381-.157-.534-.015-.153.155-.153.389-.014.544l.579.623-.596.636c-.153.158-.137.407.017.562.061.062.167.092.26.092.09 0 .197-.03.273-.107l.84-.919c.138-.141.138-.373 0-.53zm-1.329-.778c-.198-.062-.397.062-.458.265l-.642 2.474c-.06.2.061.42.26.481h.107c.168 0 .32-.107.368-.28l.642-2.473c.061-.202-.063-.42-.277-.467zm-1.772.763c-.153-.142-.397-.142-.55.015l-.81.886c-.152.157-.152.389 0 .53l.84.919c.079.077.169.107.277.107.09 0 .184-.03.258-.092.153-.155.168-.404.016-.562l-.595-.636.58-.623c.137-.155.137-.389-.016-.544zM21.07 8.98c-.673-.155-1.33.218-1.498.903l-.107.404-2.001 7.533c-.168.685.23 1.37.87 1.556.108.016.215.047.322.047.29 0 .58-.14.81-.327.167-.14.305-.358.381-.607l2.093-7.984c.168-.653-.229-1.354-.87-1.525zm4.583 1.448c-.459-.514-1.222-.53-1.727-.047-.488.467-.52 1.276-.03 1.758l1.848 1.992-1.94 2.086c-.458.498-.428 1.292.046 1.758.243.234.535.358.856.358.336 0 .641-.155.886-.404l2.734-2.926c.459-.482.459-1.245 0-1.712zm-10.649-.047c-.504-.483-1.268-.467-1.726.047l-2.674 2.863c-.458.467-.458 1.23 0 1.712l2.733 2.926c.246.249.567.404.888.404.32 0 .611-.124.856-.358.488-.466.504-1.26.045-1.758l-1.94-2.086 1.864-1.992c.474-.482.443-1.291-.046-1.758z" transform="translate(110 2297) translate(46 240) translate(864 268)"/>
                        </g>
                    </g>
                </g>
            </g>
        </g>
    </g>
</svg>
