<svg xmlns="http://www.w3.org/2000/svg" width="40" height="40" viewBox="0 0 40 40">
    <defs>
        <linearGradient id="m28ik0dmia" x1="0%" x2="100%" y1="0%" y2="100%">
            <stop offset="0%" stop-color="#F98C41"/>
            <stop offset="100%" stop-color="#E52E58"/>
        </linearGradient>
    </defs>
    <g fill="none" fill-rule="evenodd">
        <g fill="url(#m28ik0dmia)" transform="translate(-156 -2805)">
            <g>
                <g>
                    <g>
                        <g>
                            <path d="M12.24 31.905v4.591c0 1.02-.826 1.837-1.819 1.837H5.838c-.993 0-1.818-.817-1.818-1.837v-4.59h8.22zm12.268-.062v4.653c0 1.02-.825 1.837-1.82 1.837h-4.583c-.992 0-1.817-.817-1.817-1.837v-4.653h8.22zm12.268 0v4.653c0 1.02-.825 1.837-1.82 1.837h-4.583c-.993 0-1.818-.817-1.818-1.837v-4.653h8.221zm-28.616 3.4H6.02c-.213 0-.382.171-.382.386 0 .218.17.387.382.387h2.14c.212 0 .382-.169.382-.387 0-.215-.17-.386-.382-.386zm12.268 0h-2.154c-.198 0-.382.171-.382.386 0 .218.184.387.382.387h2.154c.213 0 .382-.169.382-.387 0-.215-.17-.386-.382-.386zm12.267 0h-2.152c-.199 0-.382.171-.382.386 0 .218.183.387.382.387h2.152c.214 0 .382-.169.382-.387 0-.215-.168-.386-.382-.386zm-22.38-1.59H6.02c-.213 0-.382.168-.382.386 0 .201.17.386.382.386h4.294c.214 0 .382-.185.382-.386 0-.218-.168-.386-.382-.386zm12.268 0h-4.309c-.198 0-.382.168-.382.386 0 .201.184.386.382.386h4.309c.213 0 .382-.185.382-.386 0-.218-.169-.386-.382-.386zm12.267 0h-4.307c-.199 0-.382.168-.382.386 0 .201.183.386.382.386h4.307c.215 0 .381-.185.381-.386 0-.218-.166-.386-.381-.386zm1.923-2.588h-8.22v-.557c0-.741.627-1.36 1.452-1.499.122-.015.244-.03.368-.03l1.52-.001-.002-.074c-.064-.629-.59-1.12-1.23-1.12l-9.502-.001v1.195h1.529c.122 0 .244.016.366.031.825.14 1.452.758 1.452 1.5v.556h-8.22v-.557c0-.741.625-1.36 1.45-1.499.122-.015.245-.03.368-.03l1.527-.001v-1.195h-9.502c-.663 0-1.206.53-1.235 1.195h1.525c.122 0 .245.016.367.031.825.14 1.451.758 1.451 1.5v.617h-8.22v-.618c0-.741.627-1.36 1.452-1.499.122-.015.243-.03.367-.03l1.53-.001.004-.116c.088-1.462 1.292-2.624 2.76-2.624h9.503v-.528h1.528v.528h9.5c1.505 0 2.735 1.224 2.763 2.74h1.532c.122 0 .245.016.367.031.825.14 1.45.758 1.45 1.5v.556zm-7.04-11.027c.207 0 .395.077.54.203.114.1.2.231.247.382.024.079.037.163.037.25v2.457c0 .448-.367.834-.825.834h-8.571v.001h-1.528v-.001h-8.57c-.425 0-.769-.329-.819-.732l-.006-.102v-2.457c0-.464.365-.835.825-.835h18.67zm-2.293.945c-.271 0-.519.097-.71.26-.236.2-.387.502-.39.842 0 .488.29.905.718 1.06h.765c.097-.036.188-.084.27-.144.28-.204.461-.537.461-.907 0-.618-.502-1.111-1.114-1.111zm-14.101 0c-.611 0-1.1.493-1.1 1.11 0 .48.29.897.718 1.051h.763c.208-.074.387-.21.516-.386.137-.187.218-.417.218-.664 0-.618-.504-1.111-1.115-1.111zm7.058 0c-.271 0-.519.097-.71.26-.239.202-.39.508-.39.85 0 .31.123.604.337.82l.083.069.09.064c.063.04.132.075.208.098h.764l.079-.031.03-.011c.104-.05.193-.12.273-.19.214-.215.337-.509.337-.818 0-.092-.011-.181-.032-.266-.117-.488-.548-.845-1.069-.845zM19.343 1.667c4.69 0 8.71 3.09 10.083 7.401.58-.17 1.162-.247 1.803-.247 3.927 0 7.104 3.214 7.104 7.139 0 3.677-2.734 6.706-6.248 7.139v-2.225c0-1.314-1.054-2.38-2.353-2.38h-18.67c-1.298 0-2.352 1.066-2.352 2.38v2.27c-3.88-.014-7.043-3.214-7.043-7.184 0-3.925 3.177-7.139 7.058-7.139.214 0 .428 0 .626.03 1.421-4.171 5.393-7.184 9.992-7.184z" transform="translate(110 2297) translate(46 240) translate(0 268)"/>
                        </g>
                    </g>
                </g>
            </g>
        </g>
    </g>
</svg>
