<svg xmlns="http://www.w3.org/2000/svg" xmlns:xlink="http://www.w3.org/1999/xlink" width="597" height="324" viewBox="0 0 597 324">
    <defs>
        <path id="22dcciinca" d="M0 0.108L7.195 0.108 7.195 11.416 0 11.416z"/>
        <path id="mt24p051bc" d="M0.079 0.108L7.273 0.108 7.273 11.416 0.079 11.416z"/>
    </defs>
    <g fill="none" fill-rule="evenodd">
        <g>
            <g>
                <g>
                    <g>
                        <g>
                            <path fill="#E8E8E8" d="M9.6 92.8h572.5c.8 0 .8-1.3 0-1.3H9.6c-.8 0-.8 1.3 0 1.3z" transform="translate(-799.000000, -3491.000000) translate(0.000000, 3109.000000) translate(110.000000, 100.000000) translate(688.000000, 282.000000) translate(13.500000, 175.000000)"/>
                            <path fill="#E8E8E8" d="M167.7 91c-4.3-2-8-5.2-10.5-9.3-1.1-1.9-2.1-4.1-2.6-6.3s.4-4.4 2.9-4c1.7.2 3 1.3 4.2 2.3.3-.3.5-.7.8-1-2.8-1.8-4.9-4.3-6.2-7.3-.9-2.1-3-8.7.6-9.3.4-.1.6-.6.4-.9-3.4-7-4.2-14.9-4.9-22.5-.3-3.7-.7-8.1 2.2-10.9 3.3-3.4 8-1 10.8 1.9 5.2 5.4 7.9 13.1 10.7 20 2.9 7.2 5.4 14.5 7.2 22 2.1 8.7 3.2 17.6 2.7 26.5 0 .8 1.2.8 1.3 0 .9-18.2-4.5-35.9-11.4-52.5-2.8-6.8-6.1-15.6-12.8-19.5-2.6-1.5-5.7-1.9-8.3-.1-2.6 1.8-3.6 5.1-3.7 8.1-.2 4.6.6 9.5 1.3 14.1.7 4.7 1.9 9.4 4 13.7.1-.3.3-.6.4-.9-3.7.7-3 6.1-2.2 8.7 1.1 4.3 3.9 7.9 7.6 10.3.6.4 1.3-.6.8-1-2-1.7-4.6-3.6-7.4-2.4-2.9 1.3-2.1 4.7-1.3 7.2 2.2 6.4 7 11.7 13.1 14.5.3 0 1-1.1.3-1.4z" transform="translate(-799.000000, -3491.000000) translate(0.000000, 3109.000000) translate(110.000000, 100.000000) translate(688.000000, 282.000000) translate(13.500000, 175.000000)"/>
                            <path fill="#E8E8E8" d="M181.2 53.9c-1.4-10.2-.9-20.1 2.2-29.9 1.5-4.7 3.1-9.4 4.7-14.1 1.3-3.8 3.5-10.8 8.9-7.5 3.9 2.3 4.6 8.6 5.5 12.6 1.1 4.9 1.9 9.9 2.3 15 .9 9.5.8 19.2-.3 28.7-1.2 11.2-3.5 22.3-6.7 33.2-.2.8 1 1.1 1.2.3 6.1-21 9.2-43.2 6.7-65-.6-5.3-1.5-10.5-2.8-15.6-1-3.8-2-8.6-5.8-10.6-3.2-1.6-6.2 0-7.9 2.9-1 1.7-1.5 3.6-2.2 5.4-.9 2.8-1.9 5.6-2.8 8.4-1.9 5.6-3.9 11.2-4.6 17.1-.8 6.4-.6 12.9.3 19.2.1.7 1.4.7 1.3-.1zM155.7 20.9c12.2 21.8 21.8 45.6 24 70.8.1.8 1.4.8 1.3 0-2.2-25.4-11.9-49.3-24.2-71.4-.4-.8-1.5-.1-1.1.6z" transform="translate(-799.000000, -3491.000000) translate(0.000000, 3109.000000) translate(110.000000, 100.000000) translate(688.000000, 282.000000) translate(13.500000, 175.000000)"/>
                            <path fill="#E8E8E8" d="M194.6 1.8c1 7.4.6 15 .3 22.5-.3 7.4-.6 14.7-.9 22.1-.6 15-1 30.1-3.7 44.9-.1.8 1.1 1.1 1.2.3 2.8-14.9 3.2-30.1 3.8-45.2.3-7.7.6-15.3.9-22.9.3-7.3.6-14.7-.4-22 0-.9-1.3-.5-1.2.3z" transform="translate(-799.000000, -3491.000000) translate(0.000000, 3109.000000) translate(110.000000, 100.000000) translate(688.000000, 282.000000) translate(13.500000, 175.000000)"/>
                            <path fill="#E8E8E8" d="M182.4 23.3c5.4 7.3 9.2 15.5 11.3 24.4.2.8 1.4.5 1.2-.3-2.1-8.9-5.9-17.3-11.4-24.7-.4-.7-1.5-.1-1.1.6zM202.7 14.4c-3.4 6.3-6.1 12.9-8.1 19.8-.2.8 1 1.1 1.2.3 1.9-6.8 4.7-13.3 8-19.5.3-.6-.8-1.3-1.1-.6zM156.6 55.9c8.9 3.7 16.4 10.3 21.1 18.8.4.7 1.5.1 1.1-.6-4.9-8.8-12.6-15.6-21.8-19.4-.8-.3-1.1.9-.4 1.2zM168.6 27.2c-.8 7.3-.4 14.6.9 21.8.2.8 1.4.5 1.2-.3-1.3-7.1-1.6-14.3-.9-21.4.1-.9-1.1-.9-1.2-.1zM17.4 91.2c-1-2.9-1.7-5.8-2-8.9-.1-1.3-.2-2.6-.2-3.9 0-.7-.1-1.7 0-2.3v-.8c.8-.6 1.5-.5 2 .2.4.3 1.1.1 1.1-.5-.1-1.7-.1-3.5.1-5.2.1-.9.3-1.7.5-2.5.1-.3 1.1-3.2 1.2-3.1.3.4 1 .4 1.1-.2 1.8-7.5 5.1-14.6 9.1-21.2 1-1.7 2.1-3.4 3.2-5.1 1.2-1.8 3.3-4.7 5.1-1.5 1.9 3.2 2.5 8 2.6 11.7.4 7.8-1.4 15.6-3.9 23C35 78.3 32 85.5 26.9 91.1c-.6.6.3 1.5.9.9 4.5-4.9 7.3-10.9 9.7-17.1 2.5-6.6 4.4-13.5 5-20.5.3-3.4.3-6.9-.3-10.3-.4-2.9-1.1-6.7-2.9-9.2-3.8-5-8.1 4.1-9.7 6.7C25.4 48.7 22 56 20 63.9c.4 0 .8-.1 1.1-.2-1.1-1.4-2.4 0-2.8 1.2-1.3 3.2-1.6 6.9-1.3 10.3.4-.2.7-.3 1.1-.5-.8-.7-2.1-1.7-3.3-1.1-1.2.6-1 2.2-1 3.3-.1 5 .7 9.9 2.3 14.6.3.8 1.6.5 1.3-.3z" transform="translate(-799.000000, -3491.000000) translate(0.000000, 3109.000000) translate(110.000000, 100.000000) translate(688.000000, 282.000000) translate(13.500000, 175.000000)"/>
                            <path fill="#E8E8E8" d="M37 35c-1.4 10-3.9 19.9-7.3 29.5-3.2 8.9-8.5 17.5-9.7 27.1-.1.8 1.2.8 1.3 0 .6-5.1 2.6-9.7 4.6-14.3 1.9-4.3 3.7-8.7 5.3-13.2 3.3-9.3 5.6-18.9 7-28.7.1-.9-1.1-1.2-1.2-.4z" transform="translate(-799.000000, -3491.000000) translate(0.000000, 3109.000000) translate(110.000000, 100.000000) translate(688.000000, 282.000000) translate(13.500000, 175.000000)"/>
                            <path fill="#E8E8E8" d="M25.3 50.2c.5 6.8 1.1 13.5 2 20.2.1.8 1.3.5 1.2-.3-.9-6.6-1.6-13.2-2-19.9 0-.8-1.2-.9-1.2 0zM33.2 57.8c3.4-3.4 6.3-7.2 8.8-11.2.4-.7-.7-1.4-1.1-.6-2.4 4-5.3 7.7-8.6 11-.6.5.3 1.4.9.8zM12.7 90.6c-2.9-4.2-5.4-8.7-7.2-13.5-.8-2.2-1.6-4.4-2.2-6.7-.3-1.2-.6-2.4-.8-3.6-.2-.7-1.3-5.4.3-5.2.5.1.9-.3.8-.8C2.4 55 1.7 49 1.5 43.1c-.1-2.7-.1-5.5.5-8.2.3-1.3.7-2.8 1.6-3.8 1.9-2.4 4-.4 5.3 1.4 6.1 8.6 10 18.9 11.9 29.3.1.8 1.4.5 1.2-.3-1.2-6.4-3.1-12.6-5.8-18.6-1.4-3.1-3-6-4.7-8.8-1.2-1.9-2.7-4.8-5.1-5.3-5.3-1.1-6 8.2-6 11.5-.1 7.1.8 14.2 2 21.1.1-.4.4-.7.6-.9-5.1-.9-.9 10.8-.3 12.8 2 6.4 5 12.5 8.8 18.1.6.5 1.7-.1 1.2-.8z" transform="translate(-799.000000, -3491.000000) translate(0.000000, 3109.000000) translate(110.000000, 100.000000) translate(688.000000, 282.000000) translate(13.500000, 175.000000)"/>
                            <path fill="#E8E8E8" d="M4.4 30c4.7 14.8 8.8 29.8 12.1 45 .2.8 1.4.5 1.2-.3-3.3-15.2-7.3-30.2-12.1-45-.3-.8-1.5-.5-1.2.3z" transform="translate(-799.000000, -3491.000000) translate(0.000000, 3109.000000) translate(110.000000, 100.000000) translate(688.000000, 282.000000) translate(13.500000, 175.000000)"/>
                            <path fill="#E8E8E8" d="M1.3 49.8c5 2.2 9.2 5.9 11.8 10.7.4.7 1.5.1 1.1-.6-2.8-5-7-8.9-12.2-11.2-.9-.3-1.5.8-.7 1.1zM13.1 38.9c-1.1 4.2-1.8 8.5-2 12.8 0 .8 1.2.8 1.3 0 .2-4.2.9-8.4 2-12.5.1-.8-1.1-1.1-1.3-.3zM526 92.1c-3.3-8.2-4.3-17.1-2.6-25.8-.2.2-.4.3-.6.5 1-.2 1.7.3 2.2 1.3.2.6 1.3.6 1.2-.2-.4-3.7-.4-7.5.1-11.3.3-1.9.6-3.7 1.1-5.5.2-.9.5-1.7.7-2.6.2-.5.3-1 .5-1.4.3-.7.5-1.4.5-2.2.3.2.7.4 1.1.6 1.4-7.8 5.2-14.8 10.8-20.3h-.9c1.9 2.1 2 5.1 2.3 7.7.3 2.8.5 5.6.6 8.4.3 5.5.3 11 0 16.5-.6 11.4-2.3 22.6-5.2 33.6-.2.8 1 1.1 1.2.3 3-11.6 4.8-23.5 5.3-35.5.3-6 .1-12.1-.3-18.1-.3-4.3 0-10.5-3.1-13.9-.3-.3-.7-.3-.9 0-5.8 5.7-9.7 12.9-11.1 20.9-.1.6.6 1.1 1.1.6l.2-.2c.2-.2.3-.4.2-.6-.3-1-1.2-1.3-2-.5-.6.6-.8 1.5-1 2.3-.5 1.4-.9 2.9-1.3 4.4-1.4 5.5-1.7 11.2-1.1 16.8.4 0 .8-.1 1.2-.2-.6-1.5-1.8-2.4-3.4-2.3-.3 0-.6.2-.6.5-1.7 8.9-.8 18.1 2.6 26.4.3.9 1.5.6 1.2-.2z" transform="translate(-799.000000, -3491.000000) translate(0.000000, 3109.000000) translate(110.000000, 100.000000) translate(688.000000, 282.000000) translate(13.500000, 175.000000)"/>
                            <path fill="#E8E8E8" d="M544.9 57.8c1.1-7.6 4.1-14.8 8.9-20.9 1.1-1.4 2.3-2.8 3.6-4 .8-.8 2.8-3.1 4.1-1.2.5.7.5 1.9.5 2.8 0 4.1-.6 8.3-1.2 12.5-2.4 16-8.1 31.3-16.6 45-.4.7.7 1.4 1.1.6 7.8-12.6 13.2-26.4 16-41 .7-3.5 1.2-7 1.5-10.5.3-2.9 1.2-6.7.1-9.5-2.2-6-8.9 3-10.5 5.1-4.6 6-7.6 13.2-8.6 20.7-.2.8 1 1.2 1.1.4z" transform="translate(-799.000000, -3491.000000) translate(0.000000, 3109.000000) translate(110.000000, 100.000000) translate(688.000000, 282.000000) translate(13.500000, 175.000000)"/>
                            <path fill="#E8E8E8" d="M544.2 54.6c-.5 7.2-1.5 14.3-2.9 21.4-.2.8 1.1 1.1 1.2.3 1.5-7.2 2.5-14.4 3-21.7 0-.8-1.3-.8-1.3 0zM560.5 30.6c-7.2 20.3-14.2 40.7-20.9 61.1-.3.8 1 1.1 1.2.3 6.7-20.5 13.6-40.8 20.9-61.1.3-.8-.9-1.1-1.2-.3zM539.8 25.8c-3.3 22.1-6.7 44.2-10 66.4-.1.8 1.1 1.1 1.2.3 3.3-22.1 6.7-44.2 10-66.4.1-.8-1.1-1.2-1.2-.3z" transform="translate(-799.000000, -3491.000000) translate(0.000000, 3109.000000) translate(110.000000, 100.000000) translate(688.000000, 282.000000) translate(13.500000, 175.000000)"/>
                            <path fill="#E8E8E8" d="M528.7 44.7l4.2 25.8c.1.8 1.4.5 1.2-.3l-4.2-25.8c-.1-.8-1.4-.5-1.2.3zM542.9 38.2c-2.8 4.9-5.3 9.9-7.2 15.2-.3.8.9 1.1 1.2.3 1.9-5.2 4.3-10.1 7.1-14.9.5-.7-.6-1.3-1.1-.6zM548.3 43.2v22c0 .8 1.3.8 1.3 0v-22c-.1-.8-1.3-.8-1.3 0zM151.4 109.1c2.8-1.8 6.1-2.3 9.3-1.4 2.8.9 5 2 8 1.9 2.8-.1 5.4-.9 8.2-1 1.5-.1 3 0 4.4.5 1.4.5 2.5 1.3 4 1.4.8 0 .8-1.2 0-1.3-1.7-.1-3.2-1.3-4.9-1.7-1.4-.3-2.8-.3-4.2-.1-3 .3-5.9 1.1-8.9 1-3.1-.2-5.7-2-8.8-2.3-2.8-.3-5.5.5-7.8 2-.6.3 0 1.4.7 1zM259.2 105.5c4.2-.1 8.5-.3 12.7-.4 2.1-.1 4.2-.3 6.3-.1 1.7.1 3.1 1.1 4.7 1.5 1.3.3 2.6.1 3.9-.2 2.2-.5 4.4-1 6.8-1.1 4-.2 8.1.3 12 .7.8.1.8-1.2 0-1.3-4-.5-8-.9-12-.7-1.9.1-3.8.3-5.7.8-2.2.5-4 .9-6.1-.1-3.1-1.4-6.4-.9-9.7-.8-4.2.1-8.5.3-12.7.4-1 .1-1 1.3-.2 1.3zM411.5 148.4c4.3.6 8.5-.2 12.7-1 2.6-.5 5.2-1 7.8-1.1 2.6-.1 5.1.5 7.6 1.1 2.2.5 4.3.7 6.6.5 2.2-.3 4.4-.9 6.7-1.1 4.9-.6 9.5 1.8 14.3 1.5.8 0 .8-1.3 0-1.3-4.5.3-8.8-1.9-13.3-1.6-2.2.1-4.2.7-6.4 1.1-2.9.5-5.4.3-8.3-.4-4.2-1.1-8.2-1.1-12.5-.4-5 .9-9.9 2.3-14.9 1.5-.8-.2-1.1 1-.3 1.2zM528.9 107c8.5-2.9 17.7-.2 26.4-1.4 2.5-.3 5-.8 7.5-.6 2.1.2 4 1 6.1 1.2 2.1.2 4.2-.4 6.3-.6 2.6-.3 5.1-.1 7.7.4.8.2 1.1-1.1.3-1.2-2.1-.4-4.3-.6-6.4-.6-2.3.1-4.5.7-6.8.8-2.2 0-4.2-.9-6.4-1.1-2.3-.3-4.7 0-7 .3-5 .7-9.7.6-14.7.4-4.5-.2-9-.3-13.3 1.2-.8.2-.5 1.5.3 1.2z" transform="translate(-799.000000, -3491.000000) translate(0.000000, 3109.000000) translate(110.000000, 100.000000) translate(688.000000, 282.000000) translate(13.500000, 175.000000)"/>
                            <path fill="#161616" d="M178.4 139.9h104.9c.8 0 .8-1.3 0-1.3H178.4c-.8.1-.8 1.3 0 1.3zM276 146.9h53.9c.8 0 .8-1.3 0-1.3H276c-.8 0-.8 1.3 0 1.3zM412.7 126.5h56.6c.8 0 .8-1.3 0-1.3h-56.6c-.8 0-.8 1.3 0 1.3zM490.9 128.4h33.6c.8 0 .8-1.3 0-1.3h-33.6c-.8 0-.8 1.3 0 1.3zM30.2 115.5H90c.8 0 .8-1.3 0-1.3H30.2c-.8 0-.8 1.3 0 1.3zM87.3 110.8h33.1c.8 0 .8-1.3 0-1.3H87.3c-.8 0-.8 1.3 0 1.3zM277.5 121.2h43.4c.8 0 .8-1.3 0-1.3h-43.4c-.9 0-.9 1.3 0 1.3z" transform="translate(-799.000000, -3491.000000) translate(0.000000, 3109.000000) translate(110.000000, 100.000000) translate(688.000000, 282.000000) translate(13.500000, 175.000000)"/>
                        </g>
                        <g>
                            <path fill="#454451" d="M474.8 73.5c2.4-.9 4.7-.5 6.6 1.3.6.6-.3 1.4-.9.9-1.2-1.2-2.9-1.7-4.5-1.2-1.1.3-1.9.9-3 1.1-1.7.2-3.2-.6-4.8-.9-2.6-.6-3.1 2-5.4 2.4-1.7.3-7.9-3-8.1.3 0 .8-1.3.8-1.2 0 .1-2.2 2.1-3.1 4.1-2.8 2.5.4 4.3 2.3 6.7.2.8-.7 1.3-1.3 2.5-1.5 1-.1 2 .2 3 .5 1.8.3 3 .4 5-.3zm6-6.9c2.1-.9 4.2-.8 5.9.8.6.6-.3 1.4-.9.9-1.5-1.4-3.1-1.2-4.7-.3-.6.3-1 .8-1.7.8-2.6.1-4.5-2.3-7-.4-1.4 1-1.9 2.1-3.8 1.9-1.4-.1-6.4-2.5-6.7.3-.1.8-1.4.8-1.4 0 .3-1.9 2-2.7 3.9-2.6 1.4.1 2.5.9 3.8 1 2.6.2 2.7-1.7 4.6-2.4 1.1-.5 2.3-.3 3.5 0 .8.2 1.8.8 2.6.8 1.5.1 1-.3 1.9-.8zM74.1 220.6c.9-.2 1.7-.1 2.6.2.6.2 1.1.6 1.7 1 1.2.7 2 .7 3.3.5 1.9-.3 3.9-1.1 5.4.5.6.6-.3 1.4-.9.9-1.6-1.6-4.6.4-6.7 0-1-.2-1.7-.8-2.6-1.3-1.6-.8-2.9-.5-4.4.2-1.7.7-3.3 1.7-5.2 1.4-.9-.2-1.7-.6-2.5-1-2-1-3.5-.4-5.3.9-.6.5-1.3-.6-.8-1.1 2.3-1.7 4-2.1 6.6-.9 2 .9 3.3.9 5.3.1 1.3-.6 2.4-1.2 3.5-1.4zm-3.1-4.2c2.4-2.7 5.9-1.4 8.9-.8 1.5.3 2.6.3 4.1-.1.8-.3 1.4-.5 2.2-.3 2.6.4 3.9 2.7 6.9 1.2.7-.3 1.4.8.6 1.1-1.4.7-2.9.9-4.5.4-.8-.3-1.5-.8-2.3-1.1-1.4-.5-2.2 0-3.5.3-3.6.8-8.5-3-11.4.3-.6.4-1.5-.5-1-1zM163.2 43.5c-3.3-2.5-1.1-8.1 3.1-7.2 1.7.4 3.2 1.8 3.2 3.6 0 2.2-1.9 4.1-4 4.3-.8 0-.8 1.3 0 1.3 2.7-.1 5-2.3 5.3-5 .3-2.6-1.7-4.8-4.2-5.4-5.7-1.3-8.5 6.2-4.1 9.5.7.5 1.4-.6.7-1.1z" transform="translate(-799.000000, -3491.000000) translate(0.000000, 3109.000000) translate(110.000000, 100.000000) translate(688.000000, 282.000000) translate(23.500000, 0.000000)"/>
                            <path fill="#6E8EFF" d="M34.9 179c-2.1-2.3-.1-6.5 3.1-5.6 3.9 1.1 2.9 6.6-1 6.6-.8 0-.8 1.3 0 1.3 2.4 0 4.5-1.8 4.9-4.1.3-2.2-1.1-4.1-3.2-4.8-4.6-1.6-7.8 4.2-4.7 7.6.5.5 1.4-.4.9-1zM253.5 165.8c-1.6 1.1-2.8 2.7-3.3 4.5-.6 2.2.9 5.3-.6 6.9-.9 1.1-2.5 1.8-3 3.2-.2.5-.1 1 0 1.5.2.7.5.8.5 1.6 0 1.3-1.1 1.8-2.2 2.4-.7.4-.1 1.5.6 1.1 1.4-.7 3.1-1.9 3-3.6-.1-1.1-1.1-1.8-.6-3 .4-.7 1.4-1.3 1.9-1.8 1.1-1 1.8-2 1.6-3.5-.2-1.6-.7-2.8-.3-4.5.4-1.6 1.4-2.8 2.7-3.8.9-.4.3-1.5-.3-1zM259.7 170c-3.6-.3-4 4.1-3.9 6.7.1 1.4.2 2.9-.7 4.1-.5.6-1.1 1.1-1.4 1.8-.3.6-.1 1.1 0 1.8.4 2.1-.8 3.4-2.2 4.8-.6.6.3 1.5.9.9 1.1-1.1 2.4-2.4 2.7-4 .1-.8-.2-1.4-.2-2.1 0-1.3.8-1.8 1.4-2.7.9-1.4.9-3 .8-4.6-.1-1.8-.3-5.7 2.6-5.4.8.1.8-1.2 0-1.3zM263.5 13.5c.2-2.9 5.1-1.8 6.9-2.8 1.3-.7 2.1-2 2.8-3.3.4-.7.8-1.5 1.4-2.2 1.1-1.3 2.4-1.1 3.9-1.2 2-.2 3.6-1.1 4.8-2.7.5-.6-.4-1.5-.9-.9-1.2 1.5-2.7 2.2-4.6 2.4-.9 0-1.8 0-2.7.4-1.6.8-2.4 2.5-3.2 4-.7 1.1-1.3 2.1-2.6 2.5-1.2.5-2.6.2-3.9.5-1.7.4-3 1.4-3.1 3.2-.1.9 1.2.9 1.2.1zM267.3 18.8c1.3-2.1 3.9-2.6 5.9-3.6 1.8-.9 2.8-2 3.3-4 .8-3 3.1-2.6 5.7-3 1.6-.3 2.8-.8 3.5-2.3.3-.8-.9-1.1-1.2-.3-.8 1.9-4 1.4-5.7 1.8-1.7.3-2.9 1.1-3.4 2.9-.5 1.6-.6 2.5-2.1 3.4-.9.6-1.9.9-2.9 1.4-1.7.7-3.3 1.5-4.2 3.1-.4.7.7 1.3 1.1.6zM458.3 213c-1-3.1 2.2-6.3 5.3-4.4 3.3 2.1 1.5 6.8-2.2 6.7-.8 0-.8 1.2 0 1.3 4.7.2 7.2-5.9 3.3-8.8-3.9-2.9-8.9 1.2-7.5 5.6.1.7 1.4.4 1.1-.4zM258.6 254.7c-1.2-2.2.1-5.4 2.9-5 1.1.2 2.2 1 2.2 2.3 0 1.2-1 2.5-2.2 2.5-.8 0-.8 1.3 0 1.3 4-.2 4.7-5.8 1-7.1-4.1-1.4-6.8 3.3-5 6.7.5.7 1.6 0 1.1-.7zM438.8 6.3c-1.2-1.4.6-3.3 2.1-2.4 1.9 1.1.8 3.5-1 3.9-.8.2-.5 1.4.3 1.2 3.1-.8 4.2-5.1.8-6.5-2.8-1.1-5.2 2.4-3.2 4.6.6.7 1.5-.2 1-.8z" transform="translate(-799.000000, -3491.000000) translate(0.000000, 3109.000000) translate(110.000000, 100.000000) translate(688.000000, 282.000000) translate(23.500000, 0.000000)"/>
                            <path fill="#454451" d="M2.9 49.5c-2.5-1.3-1-5.2 1.8-4.4 3.2.9 2.1 5.1-.7 5.7-.8.2-.5 1.4.3 1.2 4.2-.9 5-7.2.4-8.2-4-.9-6.1 4.9-2.5 6.7.8.5 1.4-.6.7-1z" transform="translate(-799.000000, -3491.000000) translate(0.000000, 3109.000000) translate(110.000000, 100.000000) translate(688.000000, 282.000000) translate(23.500000, 0.000000)"/>
                        </g>
                        <g>
                            <path fill="#454451" d="M1.7 2.2l-.3 51.7 252-.9c-.2-17-.5-33.9-.7-50.9-83.7 0-167.4.1-251 .1z" transform="translate(-799.000000, -3491.000000) translate(0.000000, 3109.000000) translate(110.000000, 100.000000) translate(688.000000, 282.000000) translate(0.500000, 76.000000)"/>
                            <path fill="#161616" d="M.5 2.2v50.1C.5 54 3 54 3 52.3V2.2C3 .6.5.6.5 2.2z" transform="translate(-799.000000, -3491.000000) translate(0.000000, 3109.000000) translate(110.000000, 100.000000) translate(688.000000, 282.000000) translate(0.500000, 76.000000)"/>
                            <path fill="#161616" d="M3.1 2.7h249.4c1.8 0 1.8-2.6 0-2.6H3.1c-1.8.1-1.8 2.6 0 2.6z" transform="translate(-799.000000, -3491.000000) translate(0.000000, 3109.000000) translate(110.000000, 100.000000) translate(688.000000, 282.000000) translate(0.500000, 76.000000)"/>
                            <path fill="#161616" d="M251.5 1.4l.6 52.2c0 1.7 2.5 1.7 2.5 0L254 1.4c0-1.6-2.5-1.6-2.5 0z" transform="translate(-799.000000, -3491.000000) translate(0.000000, 3109.000000) translate(110.000000, 100.000000) translate(688.000000, 282.000000) translate(0.500000, 76.000000)"/>
                            <path fill="#161616" d="M2.1 54.6H253.5c1.8 0 1.8-2.6 0-2.6H2.1c-1.8.1-1.8 2.6 0 2.6z" transform="translate(-799.000000, -3491.000000) translate(0.000000, 3109.000000) translate(110.000000, 100.000000) translate(688.000000, 282.000000) translate(0.500000, 76.000000)"/>
                            <path fill="#FFF" d="M142.1 20.3c-1-1.6-1.4-3.4-.9-5.2.6-2.1 3.3-4.7 5.1-1.9 1.5 2.4 0 6.7-.7 9.2-1.7 5.8-4.9 11-9.2 15.3-.3.3-.2.8.3 1 4.9 1.8 10.6 3.6 15.3.3.6-.4 0-1.4-.6-1-4.5 3.2-9.8 1.3-14.4-.4.1.3.2.6.3 1 3.1-3.2 5.7-6.8 7.6-10.8 1.7-3.7 3.4-8.3 3.3-12.5-.1-2.9-2.7-5.8-5.7-3.8-3 2.1-3 6.5-1.2 9.4.2.6 1.2 0 .8-.6zM185.4 20.3c-1-1.6-1.4-3.4-.9-5.2.6-2.1 3.3-4.7 5.1-1.9 1.5 2.4 0 6.7-.7 9.2-1.7 5.8-4.9 11-9.2 15.3-.3.3-.2.8.3 1 4.9 1.8 10.6 3.6 15.3.3.6-.4 0-1.4-.6-1-4.5 3.2-9.8 1.3-14.4-.4.1.3.2.6.3 1 3.1-3.2 5.7-6.8 7.6-10.8 1.7-3.7 3.4-8.3 3.3-12.5-.1-2.9-2.7-5.8-5.7-3.8-3 2.1-3 6.5-1.2 9.4.2.6 1.2 0 .8-.6zM155.1 12.3c3.9-.2 7.7 0 11.5.7l-.3-.9c-2.1 3-4.7 5.5-7.6 7.6-.6.4-.1 1.4.6 1.1 2.8-1.5 5.9.4 7.2 3.3 1.1 2.5 1.2 5.5.7 8.1-.5 2.6-1.7 5.2-3.9 6.6-2.3 1.5-5.4 1.5-7.5-.5-.5-.5-1.4.3-.8.9 2.2 2.1 5.3 2.4 7.9 1.2 3.1-1.5 4.9-4.9 5.5-8.4.5-3.4.2-7.3-1.8-10.1-1.9-2.5-5-3.5-7.8-2.1.2.4.4.7.6 1.1 3.1-2.2 5.8-4.8 8-8 .2-.3 0-.9-.3-.9-3.9-.7-7.9-.9-11.8-.7-1-.2-1 1-.2 1zM198.1 12.3c3.9-.2 7.7 0 11.5.7l-.3-.9c-2.1 3-4.7 5.5-7.6 7.6-.6.4-.1 1.4.6 1.1 2.8-1.5 5.9.4 7.2 3.3 1.1 2.5 1.2 5.5.7 8.1-.5 2.6-1.7 5.2-3.9 6.6-2.3 1.5-5.4 1.5-7.5-.5-.5-.5-1.4.3-.8.9 2.2 2.1 5.3 2.4 7.9 1.2 3.1-1.5 4.9-4.9 5.5-8.4.5-3.4.2-7.3-1.8-10.1-1.9-2.5-5-3.5-7.8-2.1.2.4.4.7.6 1.1 3.1-2.2 5.8-4.8 8-8 .2-.3 0-.9-.3-.9-3.9-.7-7.9-.9-11.8-.7-1-.2-1 1-.2 1z" transform="translate(-799.000000, -3491.000000) translate(0.000000, 3109.000000) translate(110.000000, 100.000000) translate(688.000000, 282.000000) translate(0.500000, 76.000000)"/>
                            <g fill="#FFF">
                                <path d="M38.4 1.6c.1-.8 1.3-.8 1.3-.1-.3 2-.6 4.1-1.1 6.1-.3 1.1-.5 2.1-.8 3.1-.1.4-.5 1.2-.5 1.5-.3.4-.1.6.4.5.3.1.6.2 1 .2.6.1 4.5.3 7.9.5-.1-3.2-.3-6.4-.4-9.5 0-.8 1.2-.8 1.3 0 .1 3.2.2 6.4.4 9.6 2.2.1 3.8.2 3.8.2.1-.8 1.3-.5 1.2.3-.3 1.7-4 .7-5 .7.2 5.5.5 10.9.8 16.3 0 .8-1.2.8-1.3 0-.3-5.5-.6-10.9-.8-16.4-2.9-.2-5.9-.3-8.8-.5-1.9-.2-2.1-.8-1.6-2.6 1-3.2 1.8-6.4 2.2-9.9zM24.2 4.5c2.5-1.7 6.6-3.8 9.1-1.2l-.1-.1c.4-.1.9.4.7 1-2.1 4.6-4.1 9.3-6.1 13.9-.1.3-.2.5-.3.8 1.5.9 3 1.9 4 3.2 2.1 2.5 2.6 6.1.1 8.5-2.8 2.9-6.9 2.5-10.5 1.8-.5-.1-.6-.7-.3-1-.1-.2-.1-.4 0-.6 1.3-1.9 2-4.6 2.9-6.7 1-2.2 1.9-4.4 2.9-6.6l-.8 1.9c-2.3-1.4-4.5-2.9-5.5-5.5-1.3-3.7 1-7.4 3.9-9.4zM27 20.1l-.2.4c-.7 1.6-1.4 3.1-2.1 4.7-.9 2-1.6 4.5-2.8 6.3l.1-.1c2.8.5 5.8.7 8.1-1 3-2.3 1.9-5.9-.5-8.2-.7-.9-1.7-1.5-2.6-2.1zm5.6-15.9c-2-2-5.5-.1-7.4 1.2-2.4 1.6-4.6 4.4-3.7 7.5.7 2.5 2.7 4 4.9 5.4l.3-.8c2.1-4.6 4.1-9.3 6.1-13.9l-.2.6z" transform="translate(-799.000000, -3491.000000) translate(0.000000, 3109.000000) translate(110.000000, 100.000000) translate(688.000000, 282.000000) translate(0.500000, 76.000000) translate(7.500000, 10.000000)"/>
                                <g fill-rule="nonzero">
                                    <path d="M8.3.3c0 .1 0 .2-.1.2l-.8.8c-.3.3-.6.6-.9 1.1-.6 1-1.1 2-1.5 2.9 0 .1-.1.2-.1.3 0 .1-.1.2-.1.3v.2c0 .1-.1.1-.1.1 0 .3-.2.5-.3.9-.3 1-.4 1.6-.5 1.8v.2l-.6 2.4-.1.1c-.1.5-.2 1.1-.4 1.9v.1s0 .1-.1.1c-.1.8-.2 1.5-.3 2 0 .3-.1.7-.2 1.2-.2.7-.2 1.4-.3 2.3-.1 1-.1 2-.1 3.1 0 .6 0 1.2.1 1.7 0 .4.1 1 .3 1.9l.1.8.2 1.3c.1.8.2 1.4.3 1.7v.1s0 .1-.1.1l-.4.1-.2.2c0 .1 0 .1-.1.1s-.2-.1-.2-.1h-.1l-.2.1s-.1 0-.1-.1c-.1-.1-.1-.2-.1-.4-.2-.7-.4-1.4-.5-2.3L.5 26c0-.2-.1-.4-.1-.6 0-.2-.1-.4-.1-.5l-.2-1.5V23v-4.1l.1-.9c.1-.9.1-1.4.2-1.7 0-.1 0-.4.1-.8 0-.3.1-.7.1-.9.1-.5.2-1.3.4-2.3 0-.2.1-.6.2-1s.1-.8.2-1L1.7 9l.3-.9c.1-.2.2-.4.2-.7l.3-.6c.1-.4.3-.9.6-1.5.3-.7.7-1.4 1.3-2.2.5-.7 1-1.3 1.6-1.8.6-.5 1.3-.8 1.9-1h.4zM.6 19.8v-.2c-.1.2-.1.4-.1.7 0 1 0 2.1.1 3.2v.7l.1.6s0 .1.1.1c0 0 0 .1.1.1v.4-.4-.2l-.1-.6c0-.3-.1-.9-.1-1.6l-.1-.9v-1.8-.1zm-.1-.4c0 .1 0 .1 0 0 .1 0 .1 0 0 0v-.1.1zm.9 0c0-.2 0-.4.1-.6V18v.4c-.2.9-.2 1.6-.2 2.1l-.1.5v-.2-.8c.1-1.3.2-2.5.3-3.6V16 16.3c-.1.1-.1.3-.1.5s0 .3-.1.4C1 19.8 1 22 1.2 23.9v.3c0 .2.1.5.2.9V25.4v-.2c.1-.1.1-.2.1-.3l-.1-.2-.3-1.7c0-.1.1-.2.1-.3v-.2l.1.2c.1-.1.1-.2.1-.3v-.1c0-.1.1-.2 0-.2 0 0 0-.1-.1-.1v-.2c0-.1 0-.1.1-.2V19.4zm0 6.1c0-.1 0-.2-.1-.2v.1s0 .1.1.1v0zm.2-8.6l-.1.1v.1c-.1.3-.1.6-.1.8v.1c.1-.3.1-.5.1-.7v-.1l.1-.3zm.2-.6s-.1 0 0 0h-.1v.1l.1-.1z" transform="translate(-799.000000, -3491.000000) translate(0.000000, 3109.000000) translate(110.000000, 100.000000) translate(688.000000, 282.000000) translate(0.500000, 76.000000) translate(7.500000, 10.000000) translate(0.000000, 1.000000)"/>
                                </g>
                                <g fill-rule="nonzero">
                                    <path d="M1.5.6l.2.1c.6.3 1.1.8 1.7 1.4.5.6.9 1.3 1.2 2.1.3.9.6 1.7.8 2.4.2.7.3 1.3.3 1.6l.2.7c0 .3 0 .5.1.7l.1.9v1.4c0 .3.1.6 0 1v1c0 1-.1 1.8-.1 2.3 0 .3 0 .6-.1 1 0 .3-.1.6-.1.7 0 .3-.1.9-.2 1.7l-.1.9c-.2.8-.4 2.2-.8 4.1l-.1.4-.5 1.5c-.1.2-.1.3-.2.5s-.2.3-.2.5L3 28.9c-.3.8-.6 1.5-1 2.1 0 .1-.1.2-.2.3 0 .1-.1.1-.1.1l-.2-.1s0-.1-.1-.1h-.2c-.1 0-.1-.1-.1-.1 0-.1-.1-.2-.1-.2l-.5-.1c-.1 0-.1-.1-.1-.1v-.1c.2-.3.4-.9.7-1.6l.5-1.2.2-.7c.3-.8.5-1.4.7-1.8.2-.5.3-1.1.4-1.7.3-1 .5-2 .6-3 .1-.9.2-1.6.2-2.2 0-.6.1-1 .1-1.3 0-.5 0-1.2.1-2v-.2-.1c-.1-.8-.1-1.5 0-1.9v-.1l-.1-2.5v-.1-.1c0-.2 0-.9-.1-1.9-.1-.4-.1-.7-.1-.9v-.2-.2-.3-.3c-.2-1-.5-2.1-.9-3.2-.2-.5-.4-.9-.6-1.2l-.6-1c-.1-.2-.1-.2 0-.3zm1.4 26.1v.1-.1l.1-.1v-.1s-.1.1-.1.2zm1-4.6v.1c0 .1-.1.4-.2.7v.4h-.1v.2s-.1 0-.1.1v.4l.1-.2v.5l-.5 1.5v.5l-.1.1v.1l.1-.2v-.1c.2-.3.3-.6.4-.8l.1-.3c.6-1.8 1-4 1.3-6.6v-.4-.5s.1 0 .1-.1v-.2.3l-.1.1c-.1 1.1-.2 2.3-.4 3.6-.1.3-.1.6-.2.8l-.1.2v-.4c.1-.5.2-1.1.2-2.1 0-.1 0-.2.1-.4l-.1.1c-.1.2-.1.5-.1.7 0 .2 0 .4-.1.6l-.3 1.3zm1-.7c-.2.8-.3 1.3-.4 1.7l-.2.9c-.2.7-.3 1.2-.4 1.6l-.2.6V26.8l.1-.1v-.1l.1-.1v-.1s0-.1.1-.1l.1-.1.2-.6c.1-.3.1-.5.2-.6.3-1.1.6-2.2.7-3.1.1-.3.1-.5.1-.7l-.1.1v.1c-.3-.1-.3-.1-.3 0zm-.4-3v.1c-.1.2-.1.4 0 .7v-.1-.7c.1-.1.1-.2 0-.2v.2zm.1-.6c0-.1 0-.1-.1-.2l.1.2zm.4 3c0 .1 0 .1-.1.2l.1-.1v-.1z" transform="translate(-799.000000, -3491.000000) translate(0.000000, 3109.000000) translate(110.000000, 100.000000) translate(688.000000, 282.000000) translate(0.500000, 76.000000) translate(7.500000, 10.000000) translate(56.000000, 1.000000)"/>
                                </g>
                                <g fill-rule="nonzero">
                                    <path d="M11.3 5v.4l-.2.2H11c-.1-.1-.3-.1-.6-.1h-.3c-.9.2-1.7.3-2.1.4-.1 0-.4.1-.7.1h-.2c-.1 0-.2.1-.2.2 0 .3-.1.5-.1.6l-.3 2.5c-.1.6 0 1.3 0 1.9v.4c0 .1 0 .3-.1.4l-.1.1-.2-.1v-.1c-.1-.1-.2-.1-.2-.1-.1 0-.2 0-.2-.1-.1-.1-.2-.1-.4-.2-.2 0-.3-.1-.3-.2l-.3-.8v-.8c.1-.6.1-1 .1-1.3.1-.5.2-1.1.3-1.7v-.1h-.4l-2 .5c-.2.1-.4.1-.6.2-.3 0-.5.1-.6.1h-.4c0-.1.1-.1.3-.1.2-.1.5-.2.9-.3h.2c.3-.1.6-.1 1.1-.3.5-.1.9-.2 1.3-.3l.2-.1.1-.1H5l-2.4.6-.2.1c-.3 0-.5.1-.8.2l-.1.1h-.4L1 7.1l.1-.1c.1 0 .3-.1.8-.4.5-.2 1.1-.3 1.8-.5.7-.1 1.2-.3 1.4-.3.1 0 .1 0 .1-.1H5c-.1 0-.1 0-.1.1-.3.1-.7.2-1.4.3-.7.1-1.3.3-1.8.5l-.7.2H.7v-.1c.1-.1.2-.2.3-.2.4-.2.8-.4 1.2-.4.6-.2 1.5-.4 2.6-.7h.1c.1 0 .1 0 .1-.1.1 0 .2-.1.2-.2.1-.1.1-.2.1-.4 0-.1 0-.3.1-.3v-.5c0-.1 0-.3.1-.3l.6-2.5s.1-.1.1-.2.1-.1.2-.2l.3.1h.1c.2 0 .3 0 .4.2.1.1.2.2.2.3v.2c0 .6-.1 1.2-.2 1.6v.7c0 .2-.1.4-.1.6v.2c0 .1 0 .1.1.1l.9-.1c.3-.1.7-.1 1.2-.2l.5-.1h.6l.2.1c.5.3.6.5.7.6zm-1.6.3h-.6c-.2 0-.4.1-.6.2l-.1.1h-.2c-.1 0-.3 0-.4.1h-.2c-.1 0-.1.1-.2.1s-.2 0-.2.1h.5c.1-.1.2-.1.2-.2.1 0 .2.1.3.1.1 0 .1 0 .3-.1h.1c.2 0 .5-.1.8-.1l.3-.3zm-2.4 0h.3c.3 0 .5-.1.7-.1h.2c.1 0 .1-.1.1-.1h.3c.1 0 .3 0 .4-.1h.2s.1 0 .1-.1h.2-.1l-.1.1h-.2c-.1 0-.1 0-.1.1H9c-.2 0-.3 0-.4.1h-.2c-.1 0-.1 0-.1.1h-.5c-.3-.1-.4-.1-.5 0zm2.7-.1c-.1 0-.2 0-.2.1 0 0 .1-.1.2-.1z" transform="translate(-799.000000, -3491.000000) translate(0.000000, 3109.000000) translate(110.000000, 100.000000) translate(688.000000, 282.000000) translate(0.500000, 76.000000) translate(7.500000, 10.000000) translate(5.000000, 14.000000)"/>
                                </g>
                            </g>
                            <path fill="#FFF" d="M213.9 11.6c.1-.8 1.3-.8 1.3-.1-.3 2-.6 4.1-1.1 6.1-.3 1.1-.5 2.1-.8 3.1-.1.4-.5 1.2-.5 1.5-.3.4-.1.6.4.5.3.1.6.2 1 .2.6.1 4.5.3 7.9.5-.1-3.2-.3-6.4-.4-9.5 0-.8 1.2-.8 1.3 0 .1 3.2.2 6.4.4 9.6 2.2.1 3.8.2 3.8.2.1-.8 1.3-.5 1.2.3-.3 1.7-4 .7-5 .7.2 5.5.5 10.9.8 16.3 0 .8-1.2.8-1.3 0-.3-5.5-.6-10.9-.8-16.4-2.9-.2-5.9-.3-8.8-.5-1.9-.2-2.1-.8-1.6-2.6 1-3.2 1.8-6.4 2.2-9.9z" transform="translate(-799.000000, -3491.000000) translate(0.000000, 3109.000000) translate(110.000000, 100.000000) translate(688.000000, 282.000000) translate(0.500000, 76.000000)"/>
                            <path fill="#FFF" d="M228.9 13.1c2.4-.3 4.6.1 7 .3 1.6.1 3 0 4.6-.1.5 0 .8-.2 1.2.1.3.2.4.6.2.9 0 0 0 .1-.1.1-.2.3-.6.3-.9.2h-.1c-.1 0-.1-.1-.2-.1h-.1c-.6.1-1.7.3-2 .3h-.1c-1 0-2 0-3-.1-2.1-.2-4.2-.5-6.3-.3.9 2.5 1.6 5.2 2.1 7.9l.1.7h.1c2.7-.7 5.3-.4 7.4 1.6l.2.2c2.2 2.3 2.9 5.5 2.4 8.5-.4 2.8-1.6 6.3-4.5 7.5-3.2 1.4-6.5-.3-9.3-1.8-.7-.4-.1-1.5.6-1.1 2.4 1.3 5.3 2.9 8.1 1.7 2.4-1 3.4-4.1 3.7-6.5.4-2.7-.1-5.5-2.1-7.5-2.1-2-4.6-2.1-7.2-1.2-.4.2-.8-.2-.8-.6-.4-3.4-1.3-6.7-2.6-9.9-.3-.6.4-.9.9-.7l.7-.1zm2.4 9.8h-.1c-.2.1-.4.1-.6.2.3.2.5.4.8.6l-.1-.8zm9.3-8.5c.2.1.3.1.3.1-.1-.2-.1-.4-.2-.6v-.2l.2-.1c.2-.1.4-.1.6-.1h-.1c-.6-.4-1.2.4-.8.9zM105.8 10.1c-5 3.5-8.4 8.8-9.5 14.9-.8 4.4-.8 12.5 4.1 14.6 4.9 2.1 8.9-4.7 7-8.9-1.7-4-9.8-4.5-11.1.1-.2.9 1.1 1.3 1.4.4.7-2.4 4.2-2.6 6.1-2 2.9.9 3.3 4.3 2.1 6.7-1.5 2.9-4.9 3.5-6.8.6-1.1-1.7-1.5-3.7-1.7-5.6-.7-7.6 2.9-15.2 9.1-19.6.8-.5.1-1.7-.7-1.2zM91.7 15.1c2.3-2.3-.5-5.1-3-5.1-3.1 0-7.7 2.1-8.5 5.5-.7 3 2.1 5.8 5 5.9 3.6.1 5.9-3.4 6.3-6.7-.4 0-.8.1-1.2.2 1.1 5.7 1.4 11.6.8 17.4-.3 2.6-.8 6.1-3.7 7-3.4 1-6.1-2-7.7-4.5-.4-.7-1.5 0-1.1.6 1.6 2.5 3.7 5 6.9 5.3 2.7.3 4.8-1.2 5.8-3.8 1.3-3.1 1.3-7 1.3-10.3 0-4.1-.4-8.1-1.1-12.2-.1-.8-1.2-.5-1.2.2-.3 2.3-1.6 4.6-3.8 5.2-2.1.6-4.7-.8-5-3.1-.3-2.2 1.7-3.7 3.4-4.5.9-.4 1.8-.8 2.7-.9.7-.2 1.4-.2 2.1 0 1.4.5 1.7 1.4 1.1 2.8-.6.7.3 1.6.9 1zM132.7 15.1c2.3-2.3-.5-5.1-3-5.1-3.1 0-7.7 2.1-8.5 5.5-.7 3 2.1 5.8 5 5.9 3.6.1 5.9-3.4 6.3-6.7-.4 0-.8.1-1.2.2 1.1 5.7 1.4 11.6.8 17.4-.3 2.6-.8 6.1-3.7 7-3.4 1-6.1-2-7.7-4.5-.4-.7-1.5 0-1.1.6 1.6 2.5 3.7 5 6.9 5.3 2.7.3 4.8-1.2 5.8-3.8 1.3-3.1 1.3-7 1.3-10.3 0-4.1-.4-8.1-1.1-12.2-.1-.8-1.2-.5-1.2.2-.3 2.3-1.6 4.6-3.8 5.2-2.1.6-4.7-.8-5-3.1-.3-2.2 1.7-3.7 3.4-4.5.9-.4 1.8-.8 2.7-.9.7-.2 1.4-.2 2.1 0 1.4.5 1.7 1.4 1.1 2.8-.6.7.3 1.6.9 1z" transform="translate(-799.000000, -3491.000000) translate(0.000000, 3109.000000) translate(110.000000, 100.000000) translate(688.000000, 282.000000) translate(0.500000, 76.000000)"/>
                            <path fill="#161616" d="M307.7 7.7c-1.3 1.1-3.1 2.8-4.7 5.1-1.4 2-2.3 3.9-2.8 5.4 1.3.6 4 2.1 4.5 4.7.6 2.9-1.7 5.5-4.8 9-2.1 2.2-5.2 5.2-9.8 7.9-.8 0-2.4-.1-4.2-1-2.1-1.2-3.1-2.9-3.5-3.5-1.8.5-4 1.4-6.5 2.9-2.3 1.4-4.1 2.9-5.3 4.2.6 1.4 2.4 5.1 6.4 6.7 1.6.6 3.5 1 7.2.3 3.7-.6 8.7-2.2 14.6-6.3 8.5-5.8 12.7-12.7 13.8-14.7 2.9-5.1 5-8.7 3.8-12.8-1.5-5.2-7.3-7.4-8.7-7.9zM282.5 26.2c2.3-3.2 5.4-5.7 9-7.1.8-.3.4-1.5-.3-1.2-4 1.6-7.3 4.2-9.8 7.7-.5.7.6 1.3 1.1.6zM275.6 27c3.4-7.5 10-13.1 18-15.1.8-.2.5-1.4-.3-1.2-8.2 2-15.2 7.8-18.8 15.6-.4.8.7 1.5 1.1.7z" transform="translate(-799.000000, -3491.000000) translate(0.000000, 3109.000000) translate(110.000000, 100.000000) translate(688.000000, 282.000000) translate(0.500000, 76.000000)"/>
                            <path fill="#161616" d="M269.7 28.4c1-5.9 4.1-11 8.6-14.9 4.3-3.7 10.9-7.7 16.7-6.9.8.1.8-1.2 0-1.3-6-.8-12.6 3.2-17.1 6.9-4.9 4-8.4 9.6-9.5 15.9 0 .7 1.2 1.1 1.3.3z" transform="translate(-799.000000, -3491.000000) translate(0.000000, 3109.000000) translate(110.000000, 100.000000) translate(688.000000, 282.000000) translate(0.500000, 76.000000)"/>
                        </g>
                        <g>
                            <g>
                                <path fill="#161616" stroke="#161616" stroke-width="2" d="M25.4 109.2c.2 5.5.3 11 .5 16.5-17.4 5.1-26 8.5-25.7 10.1.4 2 14.3 1.4 41.9-2-.6-9.4-1.2-18.8-1.8-28.1-5 1.1-9.9 2.3-14.9 3.5z" transform="translate(-799.000000, -3491.000000) translate(0.000000, 3109.000000) translate(110.000000, 100.000000) translate(688.000000, 282.000000) translate(294.500000, 28.000000) translate(26.560800, 156.564956)"/>
                                <path fill="#FFF" d="M80.5 1.1c-2.5.8-2 1.1-15.6 11.6-14.5 11-21.7 16.6-26.7 19.4-2.9 1.6-5.3 2.8-8.2 5.5-4.8 4.5-7.3 9.7-9.1 14.7C15 68 14.1 83 13.9 89.6c-.2 6.2 0 14.9 1.4 25.3 4.6 1.1 8.3 1.4 11 1.4 4.7.1 11.3.2 18.3-3.4 2-1.1 3.6-2.2 4.6-2.9-1.2-7.2-2.2-16.3-1.7-26.7.4-8.4 1.5-15.8 2.9-21.9 2.2-1.7 5.6-4.1 10.1-6.5 5.1-2.7 10.2-4.8 24.3-8.9 16.9-4.9 17.5-4.4 19.9-6.5 6.5-5.4 11.1-16.3 7.5-25.7C107.4 1.4 90.8-1.9 80.5 1.1z" transform="translate(-799.000000, -3491.000000) translate(0.000000, 3109.000000) translate(110.000000, 100.000000) translate(688.000000, 282.000000) translate(294.500000, 28.000000) translate(26.560800, 156.564956)"/>
                                <path fill="#161616" d="M74 5.3c-7.8 5.4-15.6 10.9-23.4 16.4-6.9 4.9-14.3 9.4-20.7 15.1-6.1 5.4-9.4 12.2-11.6 20-2.4 8.6-4 17.5-4.8 26.4-.9 10.3-.7 20.6.5 30.8.1.8 1.3.8 1.3 0-2.1-17.5-1.1-35.2 3.1-52.3 2-8.2 4.6-16.2 10.7-22.3C35 33.5 42.5 29 49.2 24.3c8.5-6 16.9-11.9 25.4-17.9.7-.4.1-1.5-.6-1.1zM97.9 41.1c-9.3 2.7-18.4 5.6-27.4 9-4 1.5-8 3-11.9 4.7-3.2 1.4-6.2 3.2-8.1 6.3-.4.7.7 1.4 1.1.6 2-3.4 5.6-5.1 9.1-6.5 4-1.6 8.1-3.2 12.3-4.7 8.3-3 16.7-5.7 25.2-8.1.8-.3.5-1.5-.3-1.3z" transform="translate(-799.000000, -3491.000000) translate(0.000000, 3109.000000) translate(110.000000, 100.000000) translate(688.000000, 282.000000) translate(294.500000, 28.000000) translate(26.560800, 156.564956)"/>
                                <path fill="#161616" d="M51.1 54.8c-4.4 17.9-5.2 36.6-2.4 54.8.1.8 1.3.5 1.2-.3-2.8-18-2-36.5 2.4-54.1.2-.9-1-1.2-1.2-.4z" transform="translate(-799.000000, -3491.000000) translate(0.000000, 3109.000000) translate(110.000000, 100.000000) translate(688.000000, 282.000000) translate(294.500000, 28.000000) translate(26.560800, 156.564956)"/>
                                <path fill="#161616" d="M14.6 113.9c.2 2.4 3.9 2 5.5 2.2 3.9.4 7.8.7 11.7.5 6.3-.3 12.5-2.1 17.5-6.2.6-.5-.3-1.4-.9-.9-4.3 3.5-9.5 5.1-14.9 5.7-2.8.3-5.6.3-8.3.1-1 0-9.1-.3-9.2-1.3-.2-.9-1.5-.9-1.4-.1z" transform="translate(-799.000000, -3491.000000) translate(0.000000, 3109.000000) translate(110.000000, 100.000000) translate(688.000000, 282.000000) translate(294.500000, 28.000000) translate(26.560800, 156.564956)"/>
                                <path fill="#666" d="M97.6 26.9c-5.8-3-12.5 4.6-28.9 12.1-13.4 6.2-16.8 4.6-22 7.8-9.3 5.6-17.5 21.6-11.6 68.1 1.3 0 2.8-.1 4.5-.5 4.4-.9 7.6-3 9.5-4.5-1.5-9.2-2.4-20.9-.9-34.2.6-5.6 1.5-10.8 2.6-15.4 4-2.3 10.2-5.7 18.3-8.8 19.4-7.6 31.5-7.2 33.4-14 .9-3.8-1.5-8.9-4.9-10.6z" opacity=".11" transform="translate(-799.000000, -3491.000000) translate(0.000000, 3109.000000) translate(110.000000, 100.000000) translate(688.000000, 282.000000) translate(294.500000, 28.000000) translate(26.560800, 156.564956)"/>
                                <path fill="#666" d="M93.3 42.5c-.2-1.1-13.9-.5-28.2 4.3-9.1 3-14.1 4.7-18.5 9.5-6.9 7.5-7.3 17.2-7.8 30.6-.3 6.4-.1 15.6 2.2 26.6 2.8-.9 5.5-1.7 8.3-2.6-1.1-7.8-1.7-17.3-1.2-28 .4-8 1.4-15.1 2.6-21.4 1.2-1.3 3.1-3.2 5.7-5 5.7-4 10.7-5 16.6-6.6 7.6-2.1 20.5-6.3 20.3-7.4z" opacity=".12" transform="translate(-799.000000, -3491.000000) translate(0.000000, 3109.000000) translate(110.000000, 100.000000) translate(688.000000, 282.000000) translate(294.500000, 28.000000) translate(26.560800, 156.564956)"/>
                            </g>
                            <g>
                                <path fill="#161616" stroke="#161616" stroke-width="2" d="M75.5 85.5c9.2-3 17-4.7 22.7-5.7 8.1-1.4 10-1.1 11.6 0 2.6 1.9 2.1 4.8 3 22.7.3 5.9.5 7.3-.7 9.2-4 6.4-17.3 6.1-18.3 3.3-.4-1.1.9-3.1 7.2-7.2-.2-4-.4-8-.7-12-7.2 1.7-14.4 3.5-21.6 5.2-1-5.1-2.1-10.3-3.2-15.5z" transform="translate(-799.000000, -3491.000000) translate(0.000000, 3109.000000) translate(110.000000, 100.000000) translate(688.000000, 282.000000) translate(294.500000, 28.000000) translate(115.096800, 151.500860)"/>
                                <path fill="#FFF" d="M1.8 12.9c-2.8 6.5-.8 13.5.1 16.8C3 33.5 4 34 5.7 39.1c1.8 5.5 2.4 9.5 3.1 14.2 1.1 7 2.4 14.9 4.3 22.8C15.6 86 16.9 91 21 96.4c1.8 2.4 5.9 7.8 13.3 10.7 1.4.5 3.2 1.1 7.8 1.7 5.1.7 12.9 1.7 23.3.4 8.9-1.1 16.2-3.4 21.8-5.7 1.1-4.1 1.1-7.4.9-9.6-.3-2.7-.7-7.7-4.3-12-1.1-1.2-2.6-3-5.2-3.9-2.9-1-5.4-.3-10 .9-5.3 1.4-7.2 2.9-10.7 2.2-1.5-.3-2.6-.9-3.2-1.3-1-1.6-2.4-3.9-3.7-7-3.4-7.9-3.7-14.3-4.1-21.3-1.1-15.8-1.6-23.7-4.1-32.4-2.9-9.1-3.6-13.7-7.6-16.4C31.1-.2 26.5 0 23.6.1 16.6.4 5.7 3.8 1.8 12.9z" transform="translate(-799.000000, -3491.000000) translate(0.000000, 3109.000000) translate(110.000000, 100.000000) translate(688.000000, 282.000000) translate(294.500000, 28.000000) translate(115.096800, 151.500860)"/>
                                <path fill="#161616" d="M37.2 5.6c6.9 14.5 7.5 30.8 9 46.5C47.3 63.4 48.3 79 59.8 85c.7.4 1.3-.7.6-1.1-5.9-3.1-8.9-9.2-10.5-15.4-1.8-6.8-2.2-13.9-2.8-20.9-1.3-14.5-2.4-29.3-8.7-42.7-.4-.7-1.5-.1-1.2.7z" transform="translate(-799.000000, -3491.000000) translate(0.000000, 3109.000000) translate(110.000000, 100.000000) translate(688.000000, 282.000000) translate(294.500000, 28.000000) translate(115.096800, 151.500860)"/>
                                <path fill="#161616" d="M3 34.5c7.4 16.8 5.6 36 12.8 52.9 2.9 6.8 7.2 13.1 13.3 17.3 7.4 5 17.1 6 25.8 5.9 11-.2 21.8-2.7 32-6.7.8-.3.4-1.5-.3-1.2-8.9 3.5-18.3 5.9-27.8 6.5-9.1.6-19.5.1-27.5-4.6C17 96.2 13.3 78.4 11 63.5 9.5 53.4 8.1 43.2 4 33.8c-.3-.7-1.4 0-1 .7z" transform="translate(-799.000000, -3491.000000) translate(0.000000, 3109.000000) translate(110.000000, 100.000000) translate(688.000000, 282.000000) translate(294.500000, 28.000000) translate(115.096800, 151.500860)"/>
                                <path fill="#161616" d="M53.8 80.1c7.6 4.5 16.4-4.1 24.4-1.5 4.5 1.5 6.7 6.3 7.9 10.5 1.3 4.6 1.5 9.3.6 14-.2.8 1.1 1.1 1.2.3.8-4.4.8-8.9-.2-13.3-1-4-2.7-8.5-6-11.1-3.1-2.4-7.2-2.5-10.9-1.8-5 1-11.5 4.6-16.4 1.8-.7-.4-1.4.7-.6 1.1z" transform="translate(-799.000000, -3491.000000) translate(0.000000, 3109.000000) translate(110.000000, 100.000000) translate(688.000000, 282.000000) translate(294.500000, 28.000000) translate(115.096800, 151.500860)"/>
                                <path fill="#666" d="M31 5c-7.1 7 7.2 22.3 7.5 48 .2 20.1-4.6 28.5 1.9 35.2 9.2 9.7 30 4.1 32.3 3.5 3.6-1 11.4-2.5 12-6.4.4-2.6-2.3-5.5-5.1-6.9-8.4-4.4-16.2 5.4-23.6 2.2-5.5-2.5-6.7-10.6-9-25.7-1.9-12.4-.7-15-3-28.6-1.6-10-3.8-22.5-8.8-23.2-2-.3-3.9 1.5-4.2 1.9z" opacity=".11" transform="translate(-799.000000, -3491.000000) translate(0.000000, 3109.000000) translate(110.000000, 100.000000) translate(688.000000, 282.000000) translate(294.500000, 28.000000) translate(115.096800, 151.500860)"/>
                                <path fill="#666" d="M42.5 21.6c-.7 0-.7 8.1-.8 18.1-.2 28.4 1.4 34.4 5.1 39.8 1.5 2.2 4.4 6.2 9.6 8.5 11.6 5.1 26.9-1.6 26.9-5.9 0-2.2-3.9-3.8-4.6-4-4-1.6-7.1 0-15.2 1.4-3.4.6-6.2.9-8.3 1.1-1.5-1.9-3.6-4.9-5.3-8.8-3.2-7.5-3-13.5-3.2-20-.5-16.1-3.4-30.3-4.2-30.2z" opacity=".17" transform="translate(-799.000000, -3491.000000) translate(0.000000, 3109.000000) translate(110.000000, 100.000000) translate(688.000000, 282.000000) translate(294.500000, 28.000000) translate(115.096800, 151.500860)"/>
                            </g>
                            <g>
                                <path fill="#FFF" d="M.9 25.9c.1-1 2.3-1.5 3.7-1.8 5.5-1.2 10.3-.3 11.6.2 2.4.9 4.7 1.9 7.1 2.8.1-.7.5-2.2 1.7-3.4 2.2-2 5.3-1.2 6.2-1 1.1.3 2.8 1 5.8 4.2 3 3.3 3.5 5 5.2 7.1 4 5 10 6.3 13.1 6.9 2.7.6 8 1.7 14-.8 5.3-2.2 8.3-6.2 9.6-7.9 1.3-1.7 1.7-2.7 4.2-8.5 5.1-11.8 6.8-15.4 10.4-19 1.9-2 4.3-4.3 6.7-3.8 3 .7 4.3 5.4 4.8 7.3.6 2.2 1.3 6.4-.4 13.7-.6 2.5-2.6 10-8.5 18.2-2.4 3.5-5.9 8.1-11.9 12.1-2.7 1.7-7 4.5-13.3 5.4-5.6.8-9.8-.4-13.4-1.4-4-1.1-10.7-3.5-17.7-9.3-4.5.2-8 .5-10.4.8-4.1.5-5.8.8-7.7-.2-.6-.4-1.6-1.1-2.9-1-1.2.1-1.6.8-2.7 1-1.2.3-3.1 0-4.2-1.4-.9-1.1-.8-2.6-.8-3-.7-.6-1.9-1.8-2.4-3.6-.4-1.2-.3-2.2-.3-3.4 0-1.4 0-2 .4-2.6 1-1.7 3.8-1.6 4.2-1.6-1.3-1-2.6-1.6-3.3-1.9-2.6-1.1-4-.7-6.4-2-1.1-.4-2.5-1.2-2.4-2.1z" transform="translate(-799.000000, -3491.000000) translate(0.000000, 3109.000000) translate(110.000000, 100.000000) translate(688.000000, 282.000000) translate(294.500000, 28.000000) translate(0.000000, 76.805450)"/>
                                <path fill="#161616" d="M100.5.4c-3.7-1.4-6.4 1.7-8.3 4.4-2.9 4.1-5.4 8.5-7.5 13-4 8.7-6.7 18.8-14.8 24.6-.7.5 0 1.6.6 1.1 6.6-4.8 9.9-12.2 12.9-19.5 1.8-4.4 3.8-8.7 6.1-12.8 1.2-2 2.4-4 3.8-5.8 1.6-2.2 3.8-5 6.9-3.8.7.3 1.1-.9.3-1.2z" transform="translate(-799.000000, -3491.000000) translate(0.000000, 3109.000000) translate(110.000000, 100.000000) translate(688.000000, 282.000000) translate(294.500000, 28.000000) translate(0.000000, 76.805450)"/>
                                <path fill="#161616" d="M26.8 27.9c-1.8.6-2.5-1.6-2-2.9.4-1 1.5-1.5 2.4-1.8 1.8-.5 3.8-.2 5.4.6 2.7 1.4 4.3 4.1 6 6.5 3 4.3 6.9 7.8 11.6 9.9 9.5 4.2 20.6 1.9 27.9-5.4.6-.6-.3-1.5-.9-.9-5 5.1-12 7.8-19.1 7.1-7.3-.7-13.8-4.9-18-10.8-3.1-4.4-7-10.4-13.5-8.2-1.8.6-3.6 2.2-3.3 4.3.3 1.9 1.9 3.3 3.8 2.7.8-.1.4-1.4-.3-1.1zM22.4 26.2c-3.4-1.7-6.9-3-10.7-3.4-3.3-.3-7.9-.2-10.6 2-2.4 2 .8 3.3 2.5 4.1 4 1.6 8.4 2.2 12.3 4.1.7.4 1.3-.7.6-1.1-2.4-1.2-4.9-1.8-7.4-2.5-1.3-.4-2.7-.8-4-1.3-.7-.3-2.2-.5-2.7-1.1-1-1 .3-1.6 1.2-2 5.9-2.4 12.8-.4 18.2 2.3.7.3 1.3-.8.6-1.1z" transform="translate(-799.000000, -3491.000000) translate(0.000000, 3109.000000) translate(110.000000, 100.000000) translate(688.000000, 282.000000) translate(294.500000, 28.000000) translate(0.000000, 76.805450)"/>
                                <path fill="#161616" d="M15.6 32.2c-1.8-1.1-4.1-1.2-5.9-.1-1.5.9-2.7 2.8-2 4.6.8 2 3.7 2.2 5.4 2.5 2.7.5 5.2.5 7.6-.8.7-.4.1-1.5-.6-1.1-2.7 1.4-5.8.9-8.7.2-1.1-.3-1.2-.2-1.9-1.4-.9-.8-.9-1.6 0-2.3.3-.2.5-.4.8-.6 1.4-.9 3.2-.8 4.6.1.7.4 1.4-.7.7-1.1z" transform="translate(-799.000000, -3491.000000) translate(0.000000, 3109.000000) translate(110.000000, 100.000000) translate(688.000000, 282.000000) translate(294.500000, 28.000000) translate(0.000000, 76.805450)"/>
                                <path fill="#161616" d="M8.3 37.4c-.8 2.3.3 4.7 2.4 5.9 2.8 1.5 5.9.4 8.6-.7.8-.3.4-1.5-.3-1.2-1.8.7-3.7 1.5-5.6 1.3-2.5-.2-4.8-2.3-3.8-4.9.2-.8-1-1.2-1.3-.4z" transform="translate(-799.000000, -3491.000000) translate(0.000000, 3109.000000) translate(110.000000, 100.000000) translate(688.000000, 282.000000) translate(294.500000, 28.000000) translate(0.000000, 76.805450)"/>
                                <path fill="#161616" d="M10.3 42.7c-.8 2.4 1.1 4.3 3.3 5 3.2.9 5.7-.9 8-2.9.6-.5-.3-1.4-.9-.9-1.4 1.2-2.9 2.5-4.8 2.7-1.9.2-5.1-1-4.3-3.6.2-.7-1-1.1-1.3-.3zM17.7 34.4c1.3.4 3.2 1.6 2.2 3.1-.4.7.7 1.3 1.1.6.6-.9.5-2.2-.1-3.1-.6-1-1.8-1.6-2.9-1.9-.8-.1-1.1 1.1-.3 1.3z" transform="translate(-799.000000, -3491.000000) translate(0.000000, 3109.000000) translate(110.000000, 100.000000) translate(688.000000, 282.000000) translate(294.500000, 28.000000) translate(0.000000, 76.805450)"/>
                                <path fill="#161616" d="M19.5 38.7c.9 1 .5 2.5-.8 2.9-.8.2-.5 1.4.3 1.2 2.2-.6 2.9-3.3 1.3-5-.5-.5-1.4.3-.8.9z" transform="translate(-799.000000, -3491.000000) translate(0.000000, 3109.000000) translate(110.000000, 100.000000) translate(688.000000, 282.000000) translate(294.500000, 28.000000) translate(0.000000, 76.805450)"/>
                                <path fill="#161616" d="M20.1 41.9c.8.5 1 1.7.3 2.4-.6.5.3 1.5.9.9 1.3-1.2 1-3.5-.5-4.3-.8-.5-1.4.6-.7 1zM21.5 27.2c.9.4 1.9.9 2.8 1.3.7.3 1.4-.8.6-1.1-.9-.4-1.9-.9-2.8-1.3-.6-.4-1.3.7-.6 1.1zM27.3 29.1c.9-.8 2.2-1.1 3.4-.8.8.2 1.1-1.1.3-1.2-1.7-.4-3.3 0-4.6 1.2-.6.5.2 1.4.9.8zM28 30.6c-1.2 3.5.2 7.4 3.4 9.3.7.4 1.3-.7.6-1.1-2.7-1.6-3.8-4.9-2.8-7.8.3-.8-1-1.2-1.2-.4zM19.1 46.8c2.5 1.8 5.3 2.2 8.3 1.6 4.2-.8 8.2-1.1 12.4-.7.8.1.8-1.2 0-1.3-3.3-.4-6.6-.3-9.9.2-3.8.6-6.8 1.5-10.2-.9-.6-.5-1.3.6-.6 1.1z" transform="translate(-799.000000, -3491.000000) translate(0.000000, 3109.000000) translate(110.000000, 100.000000) translate(688.000000, 282.000000) translate(294.500000, 28.000000) translate(0.000000, 76.805450)"/>
                                <path fill="#161616" d="M38.7 47.2c6 2.9 11.6 6.7 17.8 9.1 5.7 2.2 12 2.6 18 1.1 6.2-1.5 11.1-5.1 15.5-9.7 4.5-4.6 8.6-9.9 11.4-15.7 3.4-6.8 5-14.4 4.2-22-.1-.8-1.3-.8-1.3 0 .9 8.4-1.2 16.7-5.4 23.9-3.8 6.8-9.3 13.5-15.6 18.1-6.4 4.5-14.7 6-22.3 4.3-7.8-1.8-14.5-6.8-21.7-10.2-.7-.4-1.3.7-.6 1.1z" transform="translate(-799.000000, -3491.000000) translate(0.000000, 3109.000000) translate(110.000000, 100.000000) translate(688.000000, 282.000000) translate(294.500000, 28.000000) translate(0.000000, 76.805450)"/>
                                <path fill="#666" d="M102.2 5.3c-1.6.1-1.4 7.1-3.4 14.3-2.9 10.4-11.3 24-23.5 28.2-8.7 3-17.5.5-31.4-3.4-4.4-1.2-12.2-3.8-23-4.5-8.9-.5-11.1.7-11.2 1.4 0 .4.8.7 1.2 2.1.4 1.1 0 1.5.3 2.2.7 1.3 2.7 1.5 3.4 1.6 1.8.2 3.2-.5 4-.8.8.4 2.1.9 3.6 1.2 3 .6 4.8 0 8.6-.3 4-.4 6.6-.6 9.4.2 2.7.8 4 2 6.4 3.6.7.5 7.5 5 15.8 6.4 2.6.4 8.6 1.4 15.3-1.2 3.8-1.4 6.2-3.4 8.9-5.7 1.7-1.4 9.4-8 15.1-20.3 2.5-5.4 4.5-9.9 4-15.8-.5-4.5-2.1-9.3-3.5-9.2z" opacity=".16" transform="translate(-799.000000, -3491.000000) translate(0.000000, 3109.000000) translate(110.000000, 100.000000) translate(688.000000, 282.000000) translate(294.500000, 28.000000) translate(0.000000, 76.805450)"/>
                                <path fill="#666" d="M21.5 43.1c2-1 4.4-.2 5.3.2 5.3 1.8 5.8.5 13.7 1.7 6.6 1 6.8 2.9 15.5 5.7 8.3 2.7 15 4.9 21.6 2.7 9.4-3 13.7-12.5 14.1-12.2.3.3-3.5 9.5-12.5 13.8-8.2 3.9-16.8 1.9-19.2 1.4-4-.9-7.2-2.4-10.7-4.1-4.1-1.9-7.3-4-9.6-5.5-3-.1-5.3.1-6.9.3-3.9.6-5.6 1.5-8.8 1-.8-.1-4.3-.6-4.6-2.2-.1-1.1 1-2.2 2.1-2.8z" opacity=".17" transform="translate(-799.000000, -3491.000000) translate(0.000000, 3109.000000) translate(110.000000, 100.000000) translate(688.000000, 282.000000) translate(294.500000, 28.000000) translate(0.000000, 76.805450)"/>
                            </g>
                            <g>
                                <path fill="#6E8EFF" d="M4.6 7.9C3.5 9.3 2 11.6.9 30.1.3 40.3-.3 51 .6 66.8 1 73.2 1.7 82 3.2 92.3 7.9 95 16.5 99 27.9 99.7c18.3 1.1 31.6-7.2 36-10.2C61.6 85 58.5 78 56.5 69c-2.4-11-1.3-15.8-2.6-29.3C52.2 21.9 51.4 13 46 7.6c-10.3-10.3-33-10-41.4.3z" transform="translate(-799.000000, -3491.000000) translate(0.000000, 3109.000000) translate(110.000000, 100.000000) translate(688.000000, 282.000000) translate(294.500000, 28.000000) translate(91.487200, 70.897338)"/>
                                <g>
                                    <g transform="translate(-799.000000, -3491.000000) translate(0.000000, 3109.000000) translate(110.000000, 100.000000) translate(688.000000, 282.000000) translate(294.500000, 28.000000) translate(91.487200, 70.897338) translate(13.012800, 18.102662) rotate(5.000000) translate(-13.012800, -18.102662) translate(5.012800, 12.102662) translate(0.000000, 0.003103)">
                                        <mask id="kss9rxnpub" fill="#fff">
                                            <use xlink:href="#22dcciinca"/>
                                        </mask>
                                        <path fill="#263E92" d="M7.169 5.434l.02-2.699c.005-.817.052-1.65-.22-2.435C6.908.12 6.74.067 6.573.14 5.944.41 5.426.983 4.958 1.467c-.52.538-.998 1.114-1.443 1.715-.914 1.233-1.675 2.575-2.35 3.952-.322.657-.65 1.321-.912 2.004C.06 9.64-.18 10.455.204 10.93c.386.478 1.15.185 1.595-.04.61-.308 1.106-.795 1.645-1.207.384-.293.815-.622 1.31-.362.415.22.65.65.896 1.03.292.448 1.256 1.563 1.432.812.063-.268.053-.074.05-.46l.037-5.27z" mask="url(#kss9rxnpub)"/>
                                    </g>
                                    <path fill="#6E8EFF" d="M6.736 9.596l.03-4.16.016-2.13c.004-.644.042-1.302-.176-1.921-.05-.142-.185-.185-.32-.128-.504.215-.92.667-1.296 1.049-.417.424-.801.88-1.159 1.353-.734.974-1.345 2.032-1.888 3.12-.258.518-.521 1.042-.733 1.581-.155.396-.347 1.04-.039 1.415.31.377.924.146 1.282-.032.49-.243.888-.628 1.32-.953.31-.231.656-.49 1.052-.285.334.173.523.513.72.812.235.354 1.01 1.235 1.151.641.05-.211.043-.058.04-.362" transform="translate(-799.000000, -3491.000000) translate(0.000000, 3109.000000) translate(110.000000, 100.000000) translate(688.000000, 282.000000) translate(294.500000, 28.000000) translate(91.487200, 70.897338) translate(13.012800, 18.102662) rotate(5.000000) translate(-13.012800, -18.102662) translate(5.012800, 12.102662)"/>
                                    <g transform="translate(-799.000000, -3491.000000) translate(0.000000, 3109.000000) translate(110.000000, 100.000000) translate(688.000000, 282.000000) translate(294.500000, 28.000000) translate(91.487200, 70.897338) translate(13.012800, 18.102662) rotate(5.000000) translate(-13.012800, -18.102662) translate(5.012800, 12.102662) translate(7.869570, 0.003103)">
                                        <mask id="gfng1p1oxd" fill="#fff">
                                            <use xlink:href="#mt24p051bc"/>
                                        </mask>
                                        <path fill="#263E92" d="M.192 11.163c.176.751 1.14-.364 1.432-.813.246-.378.48-.81.896-1.029.494-.26.925.069 1.31.362.539.412 1.034.9 1.644 1.208.445.224 1.209.517 1.595.04.384-.476.144-1.292-.049-1.793-.263-.683-.59-1.347-.912-2.004-.675-1.377-1.436-2.719-2.35-3.952-.445-.6-.923-1.177-1.443-1.715C1.847.983 1.33.411.701.14.535.067.366.12.304.3.032 1.084.08 1.918.085 2.735l.02 2.699.037 5.27c-.004.385-.013.19.05.459" mask="url(#gfng1p1oxd)"/>
                                    </g>
                                    <path fill="#6E8EFF" d="M8.537 9.958c.141.593.916-.287 1.15-.641.198-.299.387-.64.72-.812.397-.205.743.054 1.052.285.433.325.831.71 1.321.953.358.178.971.409 1.282.032.308-.375.116-1.02-.04-1.415-.21-.539-.474-1.063-.732-1.581-.543-1.088-1.154-2.146-1.888-3.12-.358-.474-.741-.929-1.16-1.353-.375-.382-.791-.834-1.296-1.049-.134-.057-.27-.014-.32.128-.217.619-.18 1.277-.175 1.922l.016 2.13.03 4.159c-.003.304-.01.15.04.362" transform="translate(-799.000000, -3491.000000) translate(0.000000, 3109.000000) translate(110.000000, 100.000000) translate(688.000000, 282.000000) translate(294.500000, 28.000000) translate(91.487200, 70.897338) translate(13.012800, 18.102662) rotate(5.000000) translate(-13.012800, -18.102662) translate(5.012800, 12.102662)"/>
                                    <path fill="#263E92" d="M9.392 5.481c-.136.214-.402.295-.632.358-.562.155-1.142.23-1.724.226-.273-.002-.553-.014-.823-.058-.103-.017-.23-.039-.305-.12-.065-.07-.063-.135.011-.192.092-.07.215-.116.32-.163.122-.055.247-.104.374-.147.259-.09.524-.16.792-.215.577-.12 1.165-.175 1.752-.224.02.048.06.087.126.103.202.049.202.286.11.432m.05-.795c-.015-.083-.077-.152-.186-.142-.684.057-1.37.116-2.042.264-.33.073-.656.168-.97.296-.265.108-.676.236-.763.55-.091.324.17.599.458.693.144.048.302.06.453.076.19.02.383.032.574.035.698.012 1.44-.07 2.101-.301.334-.117.662-.33.758-.692.085-.315-.073-.671-.384-.78" transform="translate(-799.000000, -3491.000000) translate(0.000000, 3109.000000) translate(110.000000, 100.000000) translate(688.000000, 282.000000) translate(294.500000, 28.000000) translate(91.487200, 70.897338) translate(13.012800, 18.102662) rotate(5.000000) translate(-13.012800, -18.102662) translate(5.012800, 12.102662)"/>
                                </g>
                                <path fill="#666" d="M27.6.3c3 4.5 6.8 11.1 9.9 19.7 1.3 3.8 7.8 23.1 3.1 47.9-2.5 13.2-7.3 23.8-12 31.7 3.2.2 7 .2 11.2-.4 11.1-1.5 19.4-6.1 24.3-9.5-1.6-2.9-3.5-6.9-5.2-12-.3-1.1-2-6-3.1-13.7-.8-5.2-.6-7-1.1-15.5-.1-2-.6-10-1.7-19.3-1.6-13.6-2.8-16.5-4.8-19.2-2.9-3.7-6.5-5.7-8.1-6.6C34.9.9 30.2.4 27.6.3z" opacity=".22" transform="translate(-799.000000, -3491.000000) translate(0.000000, 3109.000000) translate(110.000000, 100.000000) translate(688.000000, 282.000000) translate(294.500000, 28.000000) translate(91.487200, 70.897338)"/>
                                <path fill="#666" d="M53 32c-.6 6.8-1.5 13.9-2.5 21.1-2.3 16.4-5.4 31.6-8.9 45.6 2.9-.4 6.5-1.1 10.5-2.7 5.2-2 9.1-4.7 11.8-6.8-5.6-9.9-7.5-18.1-8.3-24.1-.7-6-.5-11.7-1.9-25.7-.2-3.1-.5-5.6-.7-7.4z" opacity=".22" transform="translate(-799.000000, -3491.000000) translate(0.000000, 3109.000000) translate(110.000000, 100.000000) translate(688.000000, 282.000000) translate(294.500000, 28.000000) translate(91.487200, 70.897338)"/>
                            </g>
                            <g>
                                <path fill="#FFF" d="M3.8 28.6C3 30.7 3 33.1 3 38.1c0 3.5 0 8.4 1.9 14.2 1.4 4.5 2.7 8.9 6.9 12.9 1.2 1.1 6.3 6 13.5 6 1.4 0 2.6-.2 3.3-.3.3 1.3 1.1 3 2.4 4.9.7.9 1.4 1.6 2.1 2.2 1 0 3.6-.2 6.2-1.9 2.5-1.6 3.7-3.8 4.1-4.7-.8-.8-2.7-3-2.9-6.2 0-.9.1-1.6.2-2.3 1.4-1.8 2.9-4.1 4.1-6.9.6-1.4 1.1-2.7 1.5-3.9.6.2 1.9.4 3.1-.2 1.3-.7 1.8-2 2.3-3.6.8-2.4 1.7-5 .6-7.4-1.1-2.2-2.7-1.7-4.1-3.8-2.2-3.1 0-6.2-.9-9.6-1.3-5.2-8.9-7.4-11.8-8.3-11.8-3.8-28 .2-31.7 9.4z" transform="translate(-799.000000, -3491.000000) translate(0.000000, 3109.000000) translate(110.000000, 100.000000) translate(688.000000, 282.000000) translate(294.500000, 28.000000) translate(75.044800, 0.000000)"/>
                                <path fill="#454451" d="M2.7 34.7c1.1.2 1.7-1.5 3.4-3.1s4.5-3.4 9.6-3.8c4.1-.4 8.3-.9 12.4-1.3 1.3.1 4.3.4 7.3 2.5 2.4 1.7 3.7 3.7 4.3 4.8 1.3 0 2.6.1 3.9.2.3 1.6.5 3.1.8 4.7.2-.2 2.4-2.2 4.8-1.4 1.9.6 2.7 2.6 3 3.5 1.1 2.6.3 4.6 1 4.8.8.3 2.2-2.5 2.4-2.9.4-.7 1.6-3.2 1.9-7.1.3-3.2.4-5.3-.8-7.3-.4-.7-.8-1.1-1-1.9-.2-1.6 1.1-2.5 1.8-4 .4-.8.5-1.6-.6-7.4-1.2-6.2-1.6-7.1-2.2-7.3-.8-.2-1.6 1-2.6 1.9-1.7 1.7-4.6 3.6-10 4.3 0-1.9-.3-3.4-.5-4.5-.4-1.7-.6-1.7-1.9-5.7-.8-2.2-.9-3.2-1.4-3.2-.8-.1-1.1 2.1-3.1 2.8-.9.3-1.2 0-2.4.2-1.1.1-2.5.6-4.1 2 0 0-2.5 1.7-6.7 3.9-4.7 2.4-6.2-.2-11.1 1.9C7.2 13 5 15.9 4 17.2 3 18.5.5 22.3.5 27.5c-.1 3 .8 7 2.2 7.2z" transform="translate(-799.000000, -3491.000000) translate(0.000000, 3109.000000) translate(110.000000, 100.000000) translate(688.000000, 282.000000) translate(294.500000, 28.000000) translate(75.044800, 0.000000)"/>
                                <path fill="#161616" d="M2.8 36.4c-.7 7.2.5 14.5 3.5 21 2.6 5.5 6.7 11 12.6 13.2 6 2.2 12.9.6 18-3.2 5.1-3.9 8.3-9.7 10.2-15.7.3-.8-1-1.1-1.2-.3-1.8 5.7-4.8 11.3-9.7 15-5 3.8-12.1 5.4-17.9 2.6-5.3-2.5-8.8-7.7-11.1-12.9-2.7-6.2-3.7-13-3-19.7-.1-.8-1.3-.8-1.4 0z" transform="translate(-799.000000, -3491.000000) translate(0.000000, 3109.000000) translate(110.000000, 100.000000) translate(688.000000, 282.000000) translate(294.500000, 28.000000) translate(75.044800, 0.000000)"/>
                                <path fill="#161616" d="M45.3 39.5c.6-2.6 3.6-2.5 5.1-.8C51.7 40 52 42 52 43.8c.1 3-1 8.7-5.4 7.3-.8-.3-1.1 1-.3 1.2 6.2 2 7.5-6.6 6.7-10.7-.5-2.4-2-5-4.7-5.3-2-.3-3.9 1-4.3 3-.1.7 1.1 1 1.3.2zM18.4 36.9c-1 2-1.9 4-2.9 6-.5 1.1-1 2.1-.9 3.3.2 2.5 2.4 4.1 4.7 4.7.8.2 1.1-1 .3-1.2-2.7-.7-4.4-2.9-3.2-5.7.9-2.2 2-4.3 3.1-6.5.4-.7-.7-1.3-1.1-.6zM12.3 42.4c-.3-.3-.4-.7-.5-1.1v-.5c0-.1.2-.5.2-.6h-.2v1c0 .5-.2 1.1-.4 1.6.3-.1.7-.2 1.1-.3-.4-.4-.6-.8-.5-1.4.1-.8-1.2-.8-1.3 0-.1.8.3 1.7.9 2.2.4.3.9.2 1.1-.3.4-1 .5-2.1.4-3.1-.1-.7-.7-1.4-1.5-1.1-.7.3-1 1.3-1 2.1s.3 1.6.9 2.3c.4.7 1.3-.2.8-.8zM28.4 41.8c-.1-.3-.2-.6-.2-1 0-.2 0-.3.1-.5v-.2c.1-.1 0-.1-.2 0l.1.3v.5c-.1.4-.3.7-.5 1 .3 0 .7.1 1 .1-.5-.7-.5-1.6.1-2.3-.3 0-.7.1-1 .1.4.5.1 1.3-.4 1.5.3.3.6.4 1 .5-.2-.3-.3-.5-.3-.9v-.6-.2c-.1-.2-.2-.2-.1-.1.1.3.2.6.2 1 0 .2-.1.4-.1.5v.2c.3 0 .3-.1.2-.3-.5-.7-1.6 0-1.1.6.5.7 1.5 1.3 2 .3.4-.8.4-2.2 0-3-.5-.8-1.6-1.1-2.1-.2-.5.8-.4 2.1 0 3 .2.4.5.6.9.4 1.3-.7 1.6-2.4.6-3.5-.3-.3-.8-.2-1 .1-.8 1-.8 2.5-.1 3.5.2.3.7.5 1 .1.8-1 1.6-3.2 0-4-.7-.3-1.3.1-1.5.8-.3.8-.3 1.7 0 2.4.5.9 1.7.6 1.4-.1zM14.9 34.7c-2.2-1.4-5.1-.8-6.5 1.4-.4.7.7 1.3 1.1.6 1-1.6 3.1-2 4.7-1 .7.5 1.4-.6.7-1zM26.5 35c1.9-1.6 4.9-1.1 5.8 1.4.3.8 1.5.4 1.2-.3-1.2-3.4-5.3-4.2-7.9-1.9-.6.4.3 1.3.9.8zM28.1 71.3c.7 2.5 2 4.7 3.9 6.5.6.5 1.5-.3.9-.9-1.7-1.6-3-3.6-3.5-6-.4-.8-1.6-.4-1.3.4zM39.7 63.5c.4 2.8 1.3 5.4 3 7.8.5.7 1.6 0 1.1-.6-1.5-2.2-2.5-4.5-2.8-7.1-.1-.9-1.4-.9-1.3-.1z" transform="translate(-799.000000, -3491.000000) translate(0.000000, 3109.000000) translate(110.000000, 100.000000) translate(688.000000, 282.000000) translate(294.500000, 28.000000) translate(75.044800, 0.000000)"/>
                                <path fill="#161616" d="M32 78c4.6 1.6 9.8-2.1 11.5-6.3.3-.8-.9-1.1-1.2-.3-1.4 3.5-6.1 6.7-9.9 5.4-.8-.3-1.1.9-.4 1.2zM28.8 72c3-.5 5.7-1.9 7.9-4.1.5-.6-.3-1.5-.9-.9-2 2.1-4.5 3.3-7.3 3.8-.8.1-.5 1.3.3 1.2z" transform="translate(-799.000000, -3491.000000) translate(0.000000, 3109.000000) translate(110.000000, 100.000000) translate(688.000000, 282.000000) translate(294.500000, 28.000000) translate(75.044800, 0.000000)"/>
                                <path fill="#161616" d="M29.6 72.8c3.5-1 7.5-3.8 9.1-7.2.3-.7-.8-1.4-1.1-.6-1.5 3.1-5.1 5.7-8.4 6.6-.8.2-.4 1.4.4 1.2z" transform="translate(-799.000000, -3491.000000) translate(0.000000, 3109.000000) translate(110.000000, 100.000000) translate(688.000000, 282.000000) translate(294.500000, 28.000000) translate(75.044800, 0.000000)"/>
                                <path fill="#454451" d="M3 31.6c-2.4-2.8-1.4-7.9-.3-11.1 1.4-3.9 4.3-6.9 8.3-8 3.6-1 7.4-.9 10.9-2.2 3.9-1.5 6.7-5.7 11.2-5.4.8 0 .8-1.2 0-1.3-5-.4-8.1 4.5-12.7 5.8-4.5 1.3-9.4.9-13.4 3.4-3.2 2-5.1 5.4-6 9-.9 3.4-1.3 7.8 1.1 10.6.5.7 1.4-.2.9-.8z" transform="translate(-799.000000, -3491.000000) translate(0.000000, 3109.000000) translate(110.000000, 100.000000) translate(688.000000, 282.000000) translate(294.500000, 28.000000) translate(75.044800, 0.000000)"/>
                                <path fill="#454451" d="M16.5 26.8c-.3-3.1.3-6.1 2.2-8.7 2-2.8 5.1-4.1 8.1-5.5 2.5-1.2 4.8-2.7 6.7-4.8 1.8-2 2.7-5 4.9-6.6-.4-.1-.7-.1-1-.2 2.1 5 6.4 11 2.6 16.2-.5.7.6 1.3 1.1.6 4.1-5.7-.3-12.1-2.5-17.5-.1-.3-.6-.4-.9-.2-2.4 1.6-3.3 4.6-5.2 6.8-2.5 2.9-5.7 4.2-9.1 5.8-5.5 2.7-9 7.8-8.3 14.1.2.8 1.5.8 1.4 0z" transform="translate(-799.000000, -3491.000000) translate(0.000000, 3109.000000) translate(110.000000, 100.000000) translate(688.000000, 282.000000) translate(294.500000, 28.000000) translate(75.044800, 0.000000)"/>
                                <path fill="#454451" d="M28.4 26.2c2.7-5 7.1-8.9 12.5-10.8 2.5-.9 5.2-1.4 7.6-2.6 2.3-1.1 4.3-2.7 6-4.6-.3 0-.7-.1-1-.1 1.6 3.3 3 7.1 3.3 10.8.3 4-1.9 7-4.3 9.9-.5.6.4 1.5.9.9 2.4-3 4.8-6.1 4.7-10-.1-4.2-1.8-8.4-3.5-12.2-.2-.4-.7-.4-1-.1-2.2 2.4-4.8 4.2-7.8 5.3-2.6.9-5.3 1.4-7.8 2.7-4.6 2.2-8.3 5.9-10.8 10.4-.3.5.8 1.1 1.2.4z" transform="translate(-799.000000, -3491.000000) translate(0.000000, 3109.000000) translate(110.000000, 100.000000) translate(688.000000, 282.000000) translate(294.500000, 28.000000) translate(75.044800, 0.000000)"/>
                                <path fill="#454451" d="M55 26.5c3 5.9 2.5 12.9-1.4 18.3-.5.7.6 1.3 1.1.6 4.2-5.7 4.6-13.3 1.4-19.5-.4-.8-1.5-.2-1.1.6z" transform="translate(-799.000000, -3491.000000) translate(0.000000, 3109.000000) translate(110.000000, 100.000000) translate(688.000000, 282.000000) translate(294.500000, 28.000000) translate(75.044800, 0.000000)"/>
                                <path fill="#666" d="M39.3 33.3c.1 2.1.2 5.1 0 8.7-.4 6.4-.8 11.9-3.6 17.1-3.5 6.5-9.6 9.8-13.7 11.5 1.9.1 5.1 0 8.6-1.1 3-1 5.2-2.4 6.6-3.5.8 3.2 1.6 6.3 2.4 9.5 1.3-1.5 2.5-3.1 3.8-4.6l-3.3-6.6c.9-1.4 1.7-3 2.6-4.6 1.5-2.9 2.7-5.6 3.8-8.2.5.2 2.2.8 3.6 0 1.6-.8 2-2.7 2.3-4.5.3-1.8 1.3-6.7-1.6-8.8-1.2-.9-3.2-1.5-4.9-.6-.9.5-1.3 1.3-1.6 1.7-.2-1.7-.4-3.5-.6-5.2-1.4-.2-2.9-.5-4.4-.8z" opacity=".14" transform="translate(-799.000000, -3491.000000) translate(0.000000, 3109.000000) translate(110.000000, 100.000000) translate(688.000000, 282.000000) translate(294.500000, 28.000000) translate(75.044800, 0.000000)"/>
                                <path fill="#212121" d="M29.6 26.1c2.4-2.6 5.2-6.2 7.6-11.1 1.7-3.5 2.9-6.7 3.6-9.4 1.9 3.4 1.7 6.2 1.6 7.3-.7 5.4-5.6 8.8-8.3 10.7-1.7 1.3-3.3 2-4.5 2.5z" opacity=".2" transform="translate(-799.000000, -3491.000000) translate(0.000000, 3109.000000) translate(110.000000, 100.000000) translate(688.000000, 282.000000) translate(294.500000, 28.000000) translate(75.044800, 0.000000)"/>
                                <path fill="#212121" d="M38.3 30.8c2.4-.8 5.2-2.1 8.2-3.9 5.4-3.3 9.1-7.3 11.4-10.2.3 1.8.6 5.3-1.3 8.5-3.1 5.3-10.5 7.8-18.3 5.6z" opacity=".16" transform="translate(-799.000000, -3491.000000) translate(0.000000, 3109.000000) translate(110.000000, 100.000000) translate(688.000000, 282.000000) translate(294.500000, 28.000000) translate(75.044800, 0.000000)"/>
                                <path fill="#212121" d="M10.7 28.6c-.1-1.8 0-4.3.8-7.2 1.9-6.7 6.6-11.6 7.3-11.2.6.3-.8 4.2-8.1 18.4z" opacity=".22" transform="translate(-799.000000, -3491.000000) translate(0.000000, 3109.000000) translate(110.000000, 100.000000) translate(688.000000, 282.000000) translate(294.500000, 28.000000) translate(75.044800, 0.000000)"/>
                                <path fill="#161616" d="M12.7 55.7c6.3.3 12.4-1 18-3.8.5-.3.1-1.1-.5-.8-5.5 2.7-11.5 3.9-17.5 3.6-.6.1-.6 1 0 1z" transform="translate(-799.000000, -3491.000000) translate(0.000000, 3109.000000) translate(110.000000, 100.000000) translate(688.000000, 282.000000) translate(294.500000, 28.000000) translate(75.044800, 0.000000)"/>
                                <path fill="#161616" d="M13.4 55.9c.8 1.5 1.4 3.2 1.8 4.9.1.6 1 .3.9-.3-.3-1.8-1-3.5-1.9-5.1-.3-.5-1.1 0-.8.5z" transform="translate(-799.000000, -3491.000000) translate(0.000000, 3109.000000) translate(110.000000, 100.000000) translate(688.000000, 282.000000) translate(294.500000, 28.000000) translate(75.044800, 0.000000)"/>
                                <path fill="#161616" d="M15.2 60.8c2.5 2.4 6.6 1.2 9.3-.3 3.2-1.8 5.6-4.9 6.4-8.5.1-.6-.8-.8-.9-.3-.7 3-2.4 5.5-4.9 7.3-2.4 1.6-6.7 3.5-9.2 1.1-.4-.4-1.1.3-.7.7z" transform="translate(-799.000000, -3491.000000) translate(0.000000, 3109.000000) translate(110.000000, 100.000000) translate(688.000000, 282.000000) translate(294.500000, 28.000000) translate(75.044800, 0.000000)"/>
                                <path fill="#161616" d="M14.6 57.6c2.9.8 6.2-.1 8.9-.9s5.1-2.1 7-4.2c.4-.5-.3-1.1-.7-.7-1.8 2-4 3.2-6.5 4-2.6.8-5.7 1.6-8.4.9-.6-.1-.9.8-.3.9z" transform="translate(-799.000000, -3491.000000) translate(0.000000, 3109.000000) translate(110.000000, 100.000000) translate(688.000000, 282.000000) translate(294.500000, 28.000000) translate(75.044800, 0.000000)"/>
                                <path fill="#161616" d="M15.1 58.1c.3.8.7 1.6 1 2.4.2.5 1.1.1.9-.4-.3-.8-.5-1.5-.7-2.3l-.6.6c1 .2 2 .3 3.1.3.5 0 .7-.8.1-.9-1-.2-1.7-.1-2.7.2-.3.1-.5.4-.3.7.3.4.5.8.8 1.2.3.5 1.1.1.8-.5-.1-.4-.3-.8-.4-1.1-.3.1-.6.3-.9.4.4.5.6 1.1.4 1.8l.9-.3c-.6-1-1.1.2-1.2.5-.1.4.4.8.7.5 3.5-2.6 7.5-3.9 11.6-5.2.6-.2.3-1.1-.3-.9-4.2 1.3-8.3 2.6-11.8 5.3.3.2.5.3.7.5.2-.4.7-.5.8-1.1.1-.5-.1-1.3-.7-1.4-1.5-.5-1 1.6-.6 2.2.3.4.8.2.9-.3.1-.9-.1-1.5-.5-2.2-.3-.4-1-.2-.9.4.2.7.2.7.5 1.4.3-.2.5-.3.8-.5-.3-.4-.5-.8-.8-1.2-.1.3-.2.5-.3.7.7-.3 1.4-.3 2.2-.2 0-.3.1-.6.1-.9-1 0-1.8 0-2.8-.2-.4-.1-.7.2-.6.6.2.8.4 1.5.7 2.3.3-.1.6-.3.9-.4-.3-.8-.7-1.6-1-2.4-.3-.6-1.1-.1-.8.4z" transform="translate(-799.000000, -3491.000000) translate(0.000000, 3109.000000) translate(110.000000, 100.000000) translate(688.000000, 282.000000) translate(294.500000, 28.000000) translate(75.044800, 0.000000)"/>
                                <path fill="#161616" d="M17.7 59.6c1.5-.9 3-1.6 4.6-2.2-.1-.3-.3-.6-.4-.9-1.5.7-3 1.4-4.4 2-.5.2-.1 1.1.4.9 4-1.6 7.9-3.2 11.5-5.5-.3-.2-.5-.3-.7-.5-.5 1.5-3 1.6-4.3 2.1-1.1.4-2.1.9-3.1 1.3-1.5.5-3.2.4-4.3 1.7-.4.5.3 1.1.7.7.9-1.1 2.7-1 3.9-1.4 1.3-.4 2.5-1.1 3.8-1.5 1.8-.5 3.5-.6 4.3-2.5.1-.4-.4-.8-.7-.5-3.5 2.3-7.4 3.9-11.3 5.4.1.3.3.6.4.9 1.5-.7 3-1.4 4.4-2 .5-.2.1-1.1-.4-.9-1.7.6-3.3 1.4-4.8 2.2-.6.2-.1 1.1.4.7z" transform="translate(-799.000000, -3491.000000) translate(0.000000, 3109.000000) translate(110.000000, 100.000000) translate(688.000000, 282.000000) translate(294.500000, 28.000000) translate(75.044800, 0.000000)"/>
                                <path fill="#161616" d="M29.1 55v-.1.1c-.1 0-.2.1-.2.1h-.4c-.2 0-.2-.4-.3-.2v.2c0 .2.1.3.3.4.2.2.5 0 .6-.2.1-.3 0-.5-.2-.6l.2.2c0 .1 0 .1 0 0v-.1c0-.1 0-.3-.1-.3-.1-.2-.3-.3-.5-.3-.5 0-.6.6-.5 1 .1.3.3.4.6.3.4 0 .7-.3.5-.5zM29.2 51.1c.8.3 1.5.9 1.9 1.6.3.5 1.1 0 .8-.5-.6-1-1.4-1.7-2.5-2.1-.5-.1-.8.8-.2 1zM17.7 61.5c3.3-2.4 7-4 11-4.9.6-.1.3-1.1-.3-.9-4.1.9-7.8 2.6-11.2 5-.5.3 0 1.2.5.8z" transform="translate(-799.000000, -3491.000000) translate(0.000000, 3109.000000) translate(110.000000, 100.000000) translate(688.000000, 282.000000) translate(294.500000, 28.000000) translate(75.044800, 0.000000)"/>
                                <path fill="#161616" d="M16.9 60.7c4.1-.2 8-1.5 11.4-3.8.5-.3 0-1.2-.5-.8-3.3 2.2-7 3.5-10.9 3.7-.7 0-.7 1 0 .9z" transform="translate(-799.000000, -3491.000000) translate(0.000000, 3109.000000) translate(110.000000, 100.000000) translate(688.000000, 282.000000) translate(294.500000, 28.000000) translate(75.044800, 0.000000)"/>
                                <path fill="#161616" d="M20.7 59.7c2.3-.5 4.5-1.4 6.5-2.7.5-.3 0-1.1-.5-.8-1.9 1.2-4 2.1-6.2 2.6-.6.1-.4 1 .2.9z" transform="translate(-799.000000, -3491.000000) translate(0.000000, 3109.000000) translate(110.000000, 100.000000) translate(688.000000, 282.000000) translate(294.500000, 28.000000) translate(75.044800, 0.000000)"/>
                                <path fill="#161616" d="M17.8 61.3c3.4-.1 6.5-1.1 9.3-3 .5-.3 0-1.2-.5-.8-2.7 1.8-5.6 2.7-8.8 2.8-.6.1-.6 1.1 0 1z" transform="translate(-799.000000, -3491.000000) translate(0.000000, 3109.000000) translate(110.000000, 100.000000) translate(688.000000, 282.000000) translate(294.500000, 28.000000) translate(75.044800, 0.000000)"/>
                                <path fill="#161616" d="M17.8 61.2c0 .7.6.8 1.2.7 1.3-.2 2.5-.5 3.7-.8.6-.2.3-1.1-.3-.9-.6.2-1.3.3-1.9.4-.3 0-1.7.1-1.8.5.1-.5-.9-.5-.9.1z" transform="translate(-799.000000, -3491.000000) translate(0.000000, 3109.000000) translate(110.000000, 100.000000) translate(688.000000, 282.000000) translate(294.500000, 28.000000) translate(75.044800, 0.000000)"/>
                            </g>
                            <g>
                                <path fill="#FFF" d="M1 21c.4-1.2 4.2-.9 7.5-.5 0-.6.1-1.6.5-2.6.3-.8.8-1.6 2.4-3.5 1.8-2 2.7-3 3.9-3.7.9-.5 2.4-1.3 4.4-1.6.8.3 1.7.6 2.6.8.3-.8.8-2.3 1.7-5.3.6-2 1-3 1.9-3.3.8-.3 2 0 2.6.7.8 1.1.1 2.6-.4 5.1-.3 1.5 0 1.2-.1 6.8-.1 5.7-.3 5.6-.3 8 0 2.2.3 5.3 1.3 9.1.9-.4 2.4-.9 4.2-.8 4.1 0 7 2.7 9.2 4.8 4.2 4 6 8.4 7.3 11.6 2.4 6 2.7 11.1 2.7 13.3 0 3.4.1 6.6-1.6 10.3-.5 1.2-2.1 4.3-5.5 6.8-1.4 1-4.1 2.9-7.6 2.6-2-.2-3.8-1-5.8-2.6-6.5-5.3-9.5-14.9-10.4-18.2-1.8-6.1-3.7-14.9-4-25.9-.9 0-2-.3-3.2-.7-4.3-1.8-6-6.2-6.4-7.3-.9 0-4 0-6-2.2-.5-.5-1.1-1.1-.9-1.7z" transform="translate(-799.000000, -3491.000000) translate(0.000000, 3109.000000) translate(110.000000, 100.000000) translate(688.000000, 282.000000) translate(294.500000, 28.000000) translate(99.919200, 45.154852)"/>
                                <path fill="#161616" d="M6.8 24c-2.2-.2-4.8-1-5.4-3.5-.1.3-.3.5-.4.8 3.2-.7 6.5.3 9.7-.2.8-.1.5-1.4-.3-1.2-3.2.5-6.5-.5-9.7.2-.3.1-.5.5-.4.8C1 23.8 4 25 6.9 25.2c.8.1.8-1.2-.1-1.2z" transform="translate(-799.000000, -3491.000000) translate(0.000000, 3109.000000) translate(110.000000, 100.000000) translate(688.000000, 282.000000) translate(294.500000, 28.000000) translate(99.919200, 45.154852)"/>
                                <path fill="#161616" d="M9.2 19.5c-.5-3 4.1-2.8 5.8-2.4.8.2 1.1-1 .3-1.2-2.8-.8-8.1-.2-7.4 3.9.2.8 1.5.5 1.3-.3z" transform="translate(-799.000000, -3491.000000) translate(0.000000, 3109.000000) translate(110.000000, 100.000000) translate(688.000000, 282.000000) translate(294.500000, 28.000000) translate(99.919200, 45.154852)"/>
                                <path fill="#161616" d="M11 16.5c.4-1.5 1.2-2.8 2.6-3.5 1.7-.8 3.4 0 4.9.7.7.3 1.4-.8.6-1.1-1.9-.9-4-1.7-6.1-.8-1.8.8-2.9 2.5-3.3 4.3 0 .9 1.2 1.2 1.3.4z" transform="translate(-799.000000, -3491.000000) translate(0.000000, 3109.000000) translate(110.000000, 100.000000) translate(688.000000, 282.000000) translate(294.500000, 28.000000) translate(99.919200, 45.154852)"/>
                                <path fill="#161616" d="M15.5 11.5c-.1-.1 1.3-1.3 1.6-1.4.6-.3 1.3-.5 1.9-.5 1.6 0 3.1.8 4.4 1.6.7.4 1.3-.6.6-1.1-2.1-1.4-4.7-2.4-7.2-1.4-1.1.4-3.6 2.3-2.3 3.6.6.7 1.5-.2 1-.8z" transform="translate(-799.000000, -3491.000000) translate(0.000000, 3109.000000) translate(110.000000, 100.000000) translate(688.000000, 282.000000) translate(294.500000, 28.000000) translate(99.919200, 45.154852)"/>
                                <path fill="#161616" d="M28 22.2c.5-3.6.7-7.1.4-10.8-.1-2.1.1-3.7.6-5.7.3-1.1.5-2.2.2-3.2-.5-1.4-2.1-2.6-3.6-1.9-1 .5-1.2 1.6-1.6 2.6-.6 1.8-1.2 3.7-1.8 5.5-.3.8 1 1.1 1.2.3.4-1 .7-2 1.1-3 .2-.6.5-2.7 1.1-3.1 2.1-.3 3 .3 2.4 1.9-.1.5-.3 1-.4 1.5-.2.8-.4 1.6-.5 2.4-.2 2 .2 4.1.2 6.2 0 2.4-.2 4.8-.5 7.1-.1.6 1.1 1 1.2.2zM6.2 25.3c2.2.2 2.7 2.4 3.8 4 .5.8 1.1 1.5 1.9 2.1 1.5 1.2 3.2 1.8 5.1 2 .8.1.8-1.2 0-1.3-3.2-.3-5.2-2.2-6.7-4.9-.9-1.7-2-3-4-3.2-1 0-.9 1.3-.1 1.3z" transform="translate(-799.000000, -3491.000000) translate(0.000000, 3109.000000) translate(110.000000, 100.000000) translate(688.000000, 282.000000) translate(294.500000, 28.000000) translate(99.919200, 45.154852)"/>
                                <path fill="#161616" d="M16.7 32.8c1.3 4.5 1.4 9.2 1.8 13.8.3 3.9 1 7.8 2.1 11.6 2.2 7.3 5.9 14 11.2 19.4.6.6 1.5-.3.9-.9-5.5-5.6-9.3-12.6-11.3-20.1-2.1-7.9-1.2-16.2-3.5-24.1-.2-.8-1.5-.4-1.2.3zM26.8 21.6c.6 7 2.7 13.9 6.2 20.1 3.4 6 8.6 11.2 9.7 18.2.1.8 1.3.5 1.2-.3-1.1-6.4-5.4-11.2-8.7-16.5-4-6.5-6.4-13.8-7.1-21.4-.1-.9-1.4-.9-1.3-.1z" transform="translate(-799.000000, -3491.000000) translate(0.000000, 3109.000000) translate(110.000000, 100.000000) translate(688.000000, 282.000000) translate(294.500000, 28.000000) translate(99.919200, 45.154852)"/>
                                <path fill="#161616" d="M29.7 31.4c6.3-2 12.5 3 15.8 7.9 3.5 5.1 5 11.5 5.7 17.6.7 6 .2 12.5-3.8 17.3-3.7 4.5-10.6 6.2-15.3 2.2-.6-.5-1.5.4-.9.9 4.4 3.8 11 3.3 15.3-.4 5.3-4.5 6.6-11.9 6.1-18.5-.6-7.2-2.4-14.9-6.8-20.8-3.7-4.9-10.1-9.5-16.4-7.5-.8.4-.5 1.6.3 1.3z" transform="translate(-799.000000, -3491.000000) translate(0.000000, 3109.000000) translate(110.000000, 100.000000) translate(688.000000, 282.000000) translate(294.500000, 28.000000) translate(99.919200, 45.154852)"/>
                                <path fill="#666" d="M26.9 2.9c-2.2.8-2.1 6.6-1.9 10.7.6 12.3.9 18.4 3.3 27.9 3.5 13.5 6.6 17 8.3 18.6 2.5 2.4 7.3 5.8 9.3 4.4 3.2-2.2-1.9-15-3.2-18.1-4.3-10.6-5.2-14.2-8.3-15.3-1.9-.6-3.8-.4-5.1 0-1.8-3.9-2.1-7-2.1-9.2 0-1.8.3-1.8.5-4.6.3-5-.6-5.3-.2-8.5.5-3.2 1.7-5.1.8-5.8-.2-.3-.9-.3-1.4-.1z" opacity=".15" transform="translate(-799.000000, -3491.000000) translate(0.000000, 3109.000000) translate(110.000000, 100.000000) translate(688.000000, 282.000000) translate(294.500000, 28.000000) translate(99.919200, 45.154852)"/>
                                <path fill="#666" d="M30.6 33.3c3 2.9 5.1 5.7 6.5 7.9 3.4 5.3 4.8 10 5.4 11.8.7 2.6 1.1 4.8 1.3 6.5-.7-2.2-2.1-5.5-4.4-9.2-1.9-3-3.1-4-4.7-6.6-1.5-2.2-3.2-5.6-4.1-10.4z" opacity=".15" transform="translate(-799.000000, -3491.000000) translate(0.000000, 3109.000000) translate(110.000000, 100.000000) translate(688.000000, 282.000000) translate(294.500000, 28.000000) translate(99.919200, 45.154852)"/>
                            </g>
                        </g>
                    </g>
                </g>
            </g>
        </g>
    </g>
</svg>
