<svg width="521" height="565" viewBox="0 0 521 565" xmlns="http://www.w3.org/2000/svg">
    <defs>
        <linearGradient x1="2.868%" y1="30.432%" x2="76.782%" y2="57.655%" id="a">
            <stop stop-opacity=".098" offset="0%"/>
            <stop stop-opacity="0" offset="100%"/>
        </linearGradient>
        <linearGradient x1="0%" y1="31.727%" x2="66.596%" y2="56.244%" id="b">
            <stop stop-opacity=".203" offset="0%"/>
            <stop stop-opacity="0" offset="100%"/>
        </linearGradient>
        <linearGradient x1="1.028%" y1="35.431%" x2="70.807%" y2="53.351%" id="c">
            <stop stop-opacity=".098" offset="0%"/>
            <stop stop-opacity="0" offset="100%"/>
        </linearGradient>
        <linearGradient x1="14.617%" y1="30.35%" x2="163.379%" y2="112.954%" id="d">
            <stop stop-color="#2D2977" offset="0%"/>
            <stop stop-color="#333082" offset="5%"/>
            <stop stop-color="#4444A2" offset="22%"/>
            <stop stop-color="#5153BA" offset="39%"/>
            <stop stop-color="#5B5ECB" offset="57%"/>
            <stop stop-color="#6065D6" offset="77%"/>
            <stop stop-color="#6267D9" offset="100%"/>
        </linearGradient>
        <linearGradient x1="0%" y1="50.02%" x2="100.001%" y2="50.02%" id="e">
            <stop stop-color="#FF791D" offset="0%"/>
            <stop stop-color="#FFC217" offset="100%"/>
        </linearGradient>
        <linearGradient x1="57.701%" y1="39.172%" x2="45.047%" y2="56.921%" id="f">
            <stop stop-color="#FF8D1A" offset="0%"/>
            <stop stop-color="#FF831B" offset="7%"/>
            <stop stop-color="#FF6B1E" offset="27%"/>
            <stop stop-color="#FF5A20" offset="49%"/>
            <stop stop-color="#FF4F21" offset="72%"/>
            <stop stop-color="#FF4C21" offset="100%"/>
        </linearGradient>
        <linearGradient x1="2.002%" y1="37.144%" x2="99.736%" y2="61.522%" id="g">
            <stop stop-color="#C0C0F3" offset="0%"/>
            <stop stop-color="#998FF5" offset="100%"/>
        </linearGradient>
        <linearGradient x1="5.056%" y1="26.587%" x2="99.067%" y2="52.822%" id="h">
            <stop stop-color="#2BF7FC" offset="0%"/>
            <stop stop-color="#92C1FC" offset="100%"/>
        </linearGradient>
        <linearGradient x1="0%" y1="49.817%" x2="100%" y2="49.817%" id="i">
            <stop stop-color="#2BF7FC" offset="0%"/>
            <stop stop-color="#92C1FC" offset="100%"/>
        </linearGradient>
        <linearGradient x1="0%" y1="50.183%" x2="100%" y2="50.183%" id="j">
            <stop stop-color="#2BF7FC" offset="0%"/>
            <stop stop-color="#92C1FC" offset="100%"/>
        </linearGradient>
        <linearGradient x1="0%" y1="50%" x2="100%" y2="50%" id="k">
            <stop stop-color="#2BF7FC" offset="0%"/>
            <stop stop-color="#92C1FC" offset="100%"/>
        </linearGradient>
        <linearGradient x1="0%" y1="50%" x2="100%" y2="50%" id="l">
            <stop stop-color="#2BF7FC" offset="0%"/>
            <stop stop-color="#92C1FC" offset="100%"/>
        </linearGradient>
        <linearGradient x1="0%" y1="50.183%" x2="100%" y2="50.183%" id="m">
            <stop stop-color="#2BF7FC" offset="0%"/>
            <stop stop-color="#92C1FC" offset="100%"/>
        </linearGradient>
        <linearGradient x1="87.175%" y1="55.577%" x2="45.516%" y2="48.709%" id="n">
            <stop stop-color="#BBD1F8" offset="0%"/>
            <stop stop-color="#DBECFC" offset="100%"/>
        </linearGradient>
        <linearGradient x1="49.322%" y1="-2.735%" x2="49.38%" y2="178.214%" id="o">
            <stop stop-color="#BBD1F8" offset="0%"/>
            <stop stop-color="#DBECFC" offset="100%"/>
        </linearGradient>
        <linearGradient x1="0%" y1="50%" x2="100%" y2="50%" id="p">
            <stop stop-color="#F4A60C" offset="0%"/>
            <stop stop-color="#FFC225" offset="100%"/>
        </linearGradient>
        <linearGradient x1="48.105%" y1="53.212%" x2="51.895%" y2="51.63%" id="q">
            <stop stop-color="#FFD936" offset="0%"/>
            <stop stop-color="#FFB219" offset="100%"/>
        </linearGradient>
        <linearGradient x1="0%" y1="50%" x2="100%" y2="50%" id="r">
            <stop stop-color="#F4A60C" offset="0%"/>
            <stop stop-color="#FFD533" offset="100%"/>
        </linearGradient>
        <linearGradient x1="61.278%" y1="59.669%" x2="82.765%" y2="85.175%" id="s">
            <stop stop-color="#BBD1F8" offset="0%"/>
            <stop stop-color="#DBECFC" offset="100%"/>
        </linearGradient>
        <linearGradient x1="-.444%" y1="49.958%" x2="99.943%" y2="49.958%" id="t">
            <stop stop-color="#BBD1F8" offset="0%"/>
            <stop stop-color="#DBECFC" offset="100%"/>
        </linearGradient>
        <linearGradient x1="55.467%" y1="46.105%" x2="61.505%" y2="41.849%" id="u">
            <stop stop-color="#BBD1F8" offset="0%"/>
            <stop stop-color="#DBECFC" offset="100%"/>
        </linearGradient>
        <linearGradient x1="0%" y1="50%" x2="100%" y2="50%" id="v">
            <stop stop-color="#2D2977" offset="0%"/>
            <stop stop-color="#333082" offset="5%"/>
            <stop stop-color="#4444A2" offset="22%"/>
            <stop stop-color="#5153BA" offset="39%"/>
            <stop stop-color="#5B5ECB" offset="57%"/>
            <stop stop-color="#6065D6" offset="77%"/>
            <stop stop-color="#6267D9" offset="100%"/>
        </linearGradient>
        <linearGradient x1="82.946%" y1="4.653%" x2="42.269%" y2="79.399%" id="w">
            <stop stop-color="#FF791D" offset="0%"/>
            <stop stop-color="#FFC217" offset="100%"/>
        </linearGradient>
        <linearGradient x1="59.066%" y1="4.622%" x2="44.83%" y2="88.642%" id="x">
            <stop stop-color="#FF791D" offset="0%"/>
            <stop stop-color="#FFC217" offset="100%"/>
        </linearGradient>
        <linearGradient x1="51.326%" y1="11.629%" x2="49.977%" y2="84.98%" id="y">
            <stop stop-color="#FF791D" offset="0%"/>
            <stop stop-color="#FFC217" offset="100%"/>
        </linearGradient>
        <linearGradient x1="-5.505%" y1="50%" x2="105.505%" y2="50%" id="z">
            <stop stop-color="#998FF5" offset="0%"/>
            <stop stop-color="#7D6EE3" offset="100%"/>
        </linearGradient>
        <linearGradient x1="0%" y1="50.31%" x2="100%" y2="50.31%" id="A">
            <stop stop-color="#FF791D" offset="0%"/>
            <stop stop-color="#FFC217" offset="100%"/>
        </linearGradient>
        <linearGradient x1="0%" y1="50.064%" x2="100%" y2="50.064%" id="B">
            <stop stop-color="#FF791D" offset="0%"/>
            <stop stop-color="#FFC217" offset="100%"/>
        </linearGradient>
        <linearGradient x1="-.603%" y1="50.184%" x2="99.385%" y2="50.184%" id="C">
            <stop stop-color="#FF791D" offset="0%"/>
            <stop stop-color="#FFC217" offset="100%"/>
        </linearGradient>
        <linearGradient x1="59.954%" y1="52.115%" x2="-23.534%" y2="41.359%" id="D">
            <stop stop-color="#BBD1F8" offset="0%"/>
            <stop stop-color="#DBECFC" offset="100%"/>
        </linearGradient>
        <linearGradient x1="-.187%" y1="50.046%" x2="100.024%" y2="50.046%" id="E">
            <stop stop-color="#BBD1F8" offset="0%"/>
            <stop stop-color="#DBECFC" offset="100%"/>
        </linearGradient>
        <linearGradient x1=".002%" y1="50.191%" x2="230.1%" y2="50.191%" id="G">
            <stop stop-color="#BE2A89" offset="0%"/>
            <stop stop-color="#FC2BA1" offset="100%"/>
        </linearGradient>
        <linearGradient x1=".002%" y1="50.425%" x2="229.135%" y2="50.425%" id="H">
            <stop stop-color="#BE2A89" offset="0%"/>
            <stop stop-color="#FC2BA1" offset="100%"/>
        </linearGradient>
        <linearGradient x1="-5.838%" y1="15.931%" x2="68.083%" y2="60.041%" id="I">
            <stop stop-opacity=".198" offset="0%"/>
            <stop stop-opacity="0" offset="100%"/>
        </linearGradient>
        <linearGradient x1="99.227%" y1="20.085%" x2="2.23%" y2="96.057%" id="J">
            <stop stop-color="#FF791D" offset="0%"/>
            <stop stop-color="#FFC217" offset="100%"/>
        </linearGradient>
        <linearGradient x1="1.315%" y1="47.876%" x2="286.783%" y2="59.814%" id="K">
            <stop stop-color="#FFF33B" offset="0%"/>
            <stop stop-color="#FEE72E" offset="4%"/>
            <stop stop-color="#FED51B" offset="12%"/>
            <stop stop-color="#FDCA10" offset="20%"/>
            <stop stop-color="#FDC70C" offset="28%"/>
            <stop stop-color="#F3903F" offset="67%"/>
            <stop stop-color="#ED683C" offset="89%"/>
            <stop stop-color="#E93E3A" offset="100%"/>
        </linearGradient>
        <radialGradient cx="-235%" cy="92.5%" fx="-235%" fy="92.5%" r="410%" id="F">
            <stop stop-color="#431380" offset="0%"/>
            <stop stop-color="#021539" offset="100%"/>
        </radialGradient>
    </defs>
    <g fill="none" fill-rule="evenodd">
        <path fill="url(#a)" fill-rule="nonzero" d="m349 257.967 96.75 56.854L483 285l-85.625-50"/>
        <path fill="url(#b)" fill-rule="nonzero" d="m130 333.709 81.517 44.92 91.083-58.2-85.899-50.026"/>
        <g fill="#DBDBDB" fill-rule="nonzero">
            <path d="M519.584 352.301v2.108a7.83 7.83 0 0 0 0-2.108zM1.76 355.17v-3.503a8.416 8.416 0 0 0 0 3.503z"/>
        </g>
        <path fill="url(#c)" fill-rule="nonzero" d="M104 506.25 193 565l36-25-52.92-38.375z"/>
        <g fill-rule="nonzero">
            <path d="M455.866 157.852v7.925a7.022 7.022 0 0 1-.095.808v-7.925c.063-.265.095-.536.095-.808" fill="#838383"/>
            <path d="M455.77 158.66v8.004c-.049.27-.123.536-.221.793v-8.005c.098-.256.172-.522.222-.792" fill="#878787"/>
            <path d="M455.549 159.452v8.005c-.116.264-.243.533-.38.808v-7.925c.152-.257.28-.527.38-.808" fill="#8C8C8C"/>
            <path d="M455.169 160.26v7.926a8.924 8.924 0 0 1-.571.856v-7.925c.212-.27.403-.557.57-.856" fill="#909090"/>
            <path d="M454.598 161.117v7.925c-.27.335-.567.647-.888.935v-8.004c.316-.288.607-.6.872-.936" fill="#959595"/>
            <path d="M453.726 162.052v8.004c-.546.509-1.147.955-1.79 1.332v-7.925a10.73 10.73 0 0 0 1.79-1.332" fill="#999"/>
            <path fill="#9D9D9D" d="M451.935 163.383v7.925l-.174.111v-7.925l.19-.11"/>
            <path d="M360.195 170.912v7.925c-2.79-1.585-4.185-3.725-4.17-5.833v-7.925c0 2.108 1.396 4.216 4.185 5.833" fill="#727272"/>
            <path fill="#98A4DD" d="m451.745 163.494-.016 8.005-42.05 24.425.031-8.005z"/>
            <path fill="#767676" d="m389.676 187.935-.032 8.004-29.481-17.023.032-8.004z"/>
            <g>
                <path d="M409.71 187.92v7.924a16.215 16.215 0 0 1-3.17 1.38v-7.926a15.93 15.93 0 0 0 3.17-1.379" fill="#98A4DD"/>
                <path d="M406.588 189.298v7.925c-.88.274-1.774.497-2.679.666v-8.004c.905-.17 1.8-.392 2.679-.666" fill="#999"/>
                <path d="M403.91 189.964v8.004c-.603.095-1.205.19-1.808.254v-7.925c.603 0 1.22-.143 1.807-.254" fill="#959595"/>
                <path d="M402.102 190.202v7.925c-.523 0-1.046 0-1.585.095v-8.004c.529 0 1.057-.032 1.585-.096" fill="#909090"/>
                <path fill="#8C8C8C" d="M400.533 190.313v8.004h-1.442v-7.925h1.458"/>
                <path fill="#878787" d="M399.075 190.329v7.925h-1.395v-7.925h1.395"/>
                <path d="M397.68 190.202v7.925h-1.426v-7.925c.46 0 .919.127 1.379.158" fill="#838383"/>
                <path d="M396.254 190.09v7.926c-.476 0-.936-.143-1.411-.238v-7.925c.46.095.92.174 1.395.238" fill="gray"/>
                <path d="M394.906 189.853v7.925a24.981 24.981 0 0 1-1.474-.364v-7.926c.476.143.967.254 1.474.365" fill="#7B7B7B"/>
                <path d="M393.432 189.488v7.926a19.76 19.76 0 0 1-1.712-.587v-7.925c.555.222 1.142.412 1.728.586" fill="#777"/>
                <path d="M391.705 188.902v7.925a15.105 15.105 0 0 1-2.045-.967v-8.004c.65.376 1.328.7 2.029.967" fill="#727272"/>
            </g>
            <path d="M451.73 151.892c5.547 3.17 5.578 8.385 0 11.602l-42.035 24.425a22.048 22.048 0 0 1-20.035 0l-29.481-17.023c-5.564-3.17-5.58-8.4 0-11.602l42.05-24.441a22.048 22.048 0 0 1 20.035 0l29.465 17.039z" fill="#D3E1FA"/>
        </g>
        <g fill-rule="nonzero">
            <path d="M410.297 235.866v.444l-.095.364c-.028.147-.07.29-.127.428 0 .111-.095.222-.143.349a3.465 3.465 0 0 1-.206.428 2.092 2.092 0 0 1-.19.317c-.1.176-.21.346-.333.507l-.222.285-.602.634-.238.238-.444.365-.396.3a5.738 5.738 0 0 1-.507.35l-.539.348-29.275 17.008v8.004l29.275-17.007.19-.111.365-.238c.158-.111.349-.222.507-.349l.396-.3c.143-.128.301-.239.428-.365h.095c.052-.05.1-.102.143-.159.217-.2.419-.418.602-.65.052-.043.1-.091.143-.142 0 0 0-.096.095-.143l.333-.491c.042-.073.09-.142.143-.207a.57.57 0 0 1 0-.11c.078-.144.147-.292.206-.444 0 0 .079-.159.11-.254v-.08c0-.142.08-.284.127-.427.048-.143 0-.19.08-.285v-.08a3.74 3.74 0 0 0 0-.443 1.744 1.744 0 0 1 0-.286v-8.13c.031.109.058.22.079.332zM374.951 259.182l-.555.206c-.428.158-.887.285-1.331.412-.444.127-.935.253-1.427.348-.491.096-1.125.222-1.696.302h-.443c-.79.088-1.584.135-2.378.142h-.38a23.268 23.268 0 0 1-2.346-.127h-.349a25.695 25.695 0 0 1-2.282-.38l-.38-.143a18.878 18.878 0 0 1-1.966-.586l-.349-.127c-.744-.28-1.465-.62-2.155-1.014l-74.195-42.796c-2.79-1.585-4.184-3.724-4.169-5.833v8.005c0 2.108 1.395 4.232 4.185 5.833l74.179 42.795c.659.372 1.342.7 2.044.983h.127l.349.127c.412.142.824.3 1.252.412l.713.174.396.11.365.08c.46.095.92.175 1.395.238h1.379c.46 0 .919 0 1.395.08h1.394c.529 0 1.057-.033 1.585-.096h.619l1.188-.158.523-.127c.476-.095.951-.222 1.411-.349.46-.127.507-.11.745-.19l.586-.222.555-.206a15.248 15.248 0 0 0 1.981-.951v-8.004c-.63.398-1.286.753-1.965 1.062z" fill="#98A4DD"/>
            <path d="M406.16 229.621c5.547 3.17 5.563 8.4 0 11.602l-29.275 17.008a22.048 22.048 0 0 1-20.035 0l-74.194-42.796c-5.532-3.17-5.564-8.385 0-11.602l29.275-17.007a22.048 22.048 0 0 1 20.034 0l74.195 42.795z" fill="#D3E1FA"/>
        </g>
        <g fill-rule="nonzero">
            <path d="M427.7 204.91c.008.148.008.297 0 .444a3.17 3.17 0 0 1-.095.365 3.17 3.17 0 0 1-.11.412c0 .127-.112.238-.16.349-.058.152-.127.3-.205.444a3.36 3.36 0 0 1-.19.317 4.47 4.47 0 0 1-.333.491l-.222.285c-.188.228-.39.445-.603.65l-.237.238-.444.349c-.125.114-.257.22-.396.317l-.508.348-.538.349-29.34 17.023v7.925l29.308-17.039.174-.095.365-.253.507-.333c.139-.097.271-.203.396-.317l.444-.349h.08l.158-.159c.206-.221.412-.427.586-.65l.143-.142.095-.143c.127-.158.222-.333.333-.491l.142-.206v-.111c.08-.143.143-.301.206-.444.036-.087.079-.172.127-.253a.206.206 0 0 1 0-.096c0-.126 0-.269.127-.412.127-.142 0-.19.08-.285v-8.971a3.9 3.9 0 0 1 .11.444z" fill="#98A4DD"/>
            <path d="m392.339 228.242-.54.206c-.427.159-.887.285-1.33.412-.445.127-.936.254-1.427.349-.492.095-1.126.222-1.712.285h-.428c-.785.082-1.573.125-2.362.127h-.38c-.793 0-1.585 0-2.362-.143h-.348c-.763-.09-1.52-.221-2.267-.396l-.412-.095a16.58 16.58 0 0 1-1.966-.602l-.348-.111a16.88 16.88 0 0 1-2.156-1.015l-74.194-42.795c-2.79-1.585-4.185-3.725-4.17-5.833v7.925c0 2.108 1.396 4.216 4.185 5.833l74.195 42.795a15.2 15.2 0 0 0 2.045.967h.11l.35.111c.411.159.824.301 1.251.428l.714.175.396.095.365.095c.46.095.935.174 1.41.238h1.363l1.395.079c.148-.008.296-.008.444 0h1.014c.518 0 1.046-.032 1.585-.095h.603l1.204-.159.507-.127c.476-.11.951-.222 1.411-.364.46-.143.507-.095.745-.175l.587-.221.554-.207c.674-.27 1.33-.582 1.966-.935v-7.925c-.642.402-1.31.762-1.997 1.078z" fill="#98A4DD"/>
            <path d="M423.563 198.65c5.548 3.17 5.564 8.4 0 11.618l-29.243 17.023a22.19 22.19 0 0 1-20.019 0l-74.194-42.795c-5.548-3.17-5.564-8.4 0-11.603l29.29-17.023a22.095 22.095 0 0 1 20.035 0l74.131 42.78z" fill="#D3E1FA"/>
        </g>
        <path fill="#381E5E" fill-rule="nonzero" d="m501.15 95.085-.349 124.519-164.715-95.085L336.451 0z"/>
        <path fill="url(#d)" fill-rule="nonzero" d="m497.092 100.68-.317 108.653-156.63-90.425.316-108.653z"/>
        <path d="M427.526 80.487c7.719 4.422 11.095 19.02 15.216 33.935 4.121 14.915 8.892 30.322 19.353 36.313l.444.238c.634-1.459 12.458-29.355 18.164-26.074.217.124.415.279.587.46 5.389 5.833 2.71 46.63 2.567 48.77L354.092 99.857c.238-2.393 4.755-47.757 21.445-38.23 17.008 10.175 15.47 50.72 31.479 59.929 16.436 9.082 3.059-48.977 19.59-41.575.316.153.623.322.92.507z" fill="url(#e)" fill-rule="nonzero"/>
        <path d="M96.876 46.646a20.161 20.161 0 0 1 5.104 4.406c14.408 16.468 26.945 37.375 28.197 41.21 1.252 3.836 0 22.951-.079 23.95L.333 41.922.95.11c.238 1.33 4.755 26.612 18.212 34.268.696.402 1.422.752 2.171 1.046 14.265 5.531 12.363-19.908 25.123-12.68a21.414 21.414 0 0 1 2.314 1.585c13.821 10.698 15.12 30.97 21.001 34.33a3.471 3.471 0 0 0 2.077.476c6.847-.538 13.742-18.925 25.027-12.49z" opacity=".88" transform="translate(353.458 59.646)" fill="url(#f)" fill-rule="nonzero"/>
        <path stroke="#FFA227" stroke-width=".611" d="M354.076 28.657v81.137M367.137 37.01v81.137M380.197 45.363v81.153M393.258 53.716v81.153M406.303 62.085v81.137M419.363 70.438v81.137M432.424 78.791v81.153M445.468 87.16v81.137M458.529 95.513v81.137M471.589 103.866v77.697M484.65 112.219v75.78"/>
        <path d="M377.772 54.889a3.329 3.329 0 0 1-6.34-1.76 3.329 3.329 0 0 1 6.34 1.76z" fill="url(#g)" fill-rule="nonzero"/>
        <path d="M454.9 102.06a3.313 3.313 0 1 1-2.41-3.425 2.996 2.996 0 0 1 2.41 3.424z" fill="url(#h)" fill-rule="nonzero"/>
        <path fill="url(#i)" fill-rule="nonzero" d="M355.043 112.267v2.884l-2.504-1.458v-2.869z"/>
        <path fill="url(#j)" fill-rule="nonzero" d="M368.389 119.59v2.884l-2.504-1.442v-2.885z"/>
        <path fill="url(#k)" fill-rule="nonzero" d="m381.164 127.451-.016 2.869-2.504-1.442.016-2.87zM394.51 135.281l-.016 2.869-2.504-1.443.016-2.868z"/>
        <path fill="url(#i)" fill-rule="nonzero" d="M407.555 143.428v2.885l-2.505-1.459.016-2.868zM420.615 151.844v2.885l-2.504-1.458.016-2.869z"/>
        <path fill="url(#k)" fill-rule="nonzero" d="m433.676 160.086-.016 2.87-2.504-1.443.015-2.869zM446.736 168.265l-.016 2.869-2.504-1.442.016-2.87z"/>
        <path fill="url(#i)" fill-rule="nonzero" d="M459.781 174.478v2.885l-2.504-1.458v-2.869z"/>
        <path fill="url(#l)" fill-rule="nonzero" d="m472.841 180.422-.015 2.87-2.489-1.443v-2.87z"/>
        <path fill="url(#m)" fill-rule="nonzero" d="m485.902 186.43-.016 2.868-2.504-1.442.016-2.885z"/>
        <path d="M348.83 239.892s-7.323-1.363-6.61 2.869c.413 2.377 5.88-.84 7.545-.301 1.664.539 3.947-.38 3.852-2.235l-.507-.904h-3.71l-.57.57zM331.014 231.697s-7.338-1.363-6.61 2.87c.397 2.377 5.881-.84 7.546-.302 1.664.539 4.47 0 3.851-2.235l-.523-.903h-3.693l-.57.57z" fill="#1C232A" fill-rule="nonzero"/>
        <path d="M354.219 184.829s-11.872-.143-19.733 2.44a8.337 8.337 0 0 0-5.738 7.561c-.349 7.767-.587 24.06 2.41 36.598h4.326s1.443-26.39-.475-34.553l24.298-1.585s2.837-6.372-5.088-10.461z" fill="#381E5E" fill-rule="nonzero"/>
        <path d="M371.258 198.285a9.256 9.256 0 0 0-1.585-6.086l-.888.444a11.745 11.745 0 0 0-4.216-2.346s-19.733 2.79-24.092 9.288c0 0 1.76 24.029 8.385 40.26l4.263-.65s-2.583-26.296-5.722-34.078l1.205-.27c4.597.301 13.742.523 19.02-2.092a6.895 6.895 0 0 0 3.17-2.885c.308-.47.468-1.022.46-1.585z" fill="#381E5E" fill-rule="nonzero"/>
        <path d="M350.558 166.87a7.18 7.18 0 0 1 1.854-5.5c1.157-1.22 2.6-1.854 3.725.46 1.743 3.614.507 13.821-.111 18.133a2.52 2.52 0 0 1-2.235 2.171l-15.93 1.807v-3.012a93.278 93.278 0 0 1 13.6-2.393l-.903-11.666z" fill="#E8F9F9" fill-rule="nonzero"/>
        <path d="M361.922 158.898a8.464 8.464 0 0 0-10.62 8.876v.253c.952 8.401.777 14.17-.095 17.055-.871 2.885 8.734 17.768 20.02 9.114 0 0-2.632-10.81 0-19.02.745-2.29.914-4.73.49-7.101a11.095 11.095 0 0 0-8.194-8.797l-1.6-.38z" fill="#515DC6" fill-rule="nonzero"/>
        <path d="M362.968 166.189a3.36 3.36 0 0 0 3.36-3.345v-11.57h-6.688v11.57a3.36 3.36 0 0 0 3.328 3.345z" fill="#FDB892" fill-rule="nonzero"/>
        <path d="M350.367 151.892c1.19 4.517 6.768 10.889 11.286 9.7 4.517-1.189 6.34-9.51 5.072-13.98a8.454 8.454 0 1 0-16.358 4.28z" fill="#FEC8AB" fill-rule="nonzero"/>
        <path d="M352.396 143.951s1.3 9.336 7.925 7.56c6.626-1.775 2.647 3.82 2.647 3.82s4.121 2.584 4.121-1.077c0-3.662 0-13.426-8.448-13.426-7.148-.015-6.245 3.123-6.245 3.123z" fill="#37404A" fill-rule="nonzero"/>
        <path d="M352.65 142.651s-.143 8.448-2.568 10.097a8.337 8.337 0 0 1 2.568-10.097z" fill="#37404A" fill-rule="nonzero"/>
        <g fill-rule="nonzero">
            <path d="M364.236 189.948a.999.999 0 0 1-.206.57 1.854 1.854 0 0 1-.586.508v.76c.12-.076.232-.167.333-.269a.903.903 0 0 0 .174-.174v-.555l.285-.84zM363.428 191.058v.76l-14.218 8.258v-.745z" fill="#98A4DD"/>
            <path fill="#898989" d="M349.21 199.331v.745l-20.985-12.11.016-.76z"/>
            <path d="M363.428 188.823a1.189 1.189 0 0 1 0 2.235l-14.265 8.273-20.986-12.11 14.265-8.273a4.264 4.264 0 0 1 3.868 0l17.118 9.875z" fill="#FAFCFF"/>
        </g>
        <path fill="#FEC8AB" fill-rule="nonzero" d="m351.223 187.73 3.281-.35v2.299h-3.28z"/>
        <path d="M353.22 187.951a2.79 2.79 0 0 0-1.157-1.347c-.84-.444-3.011-1.173-2.504-.603.337.349.775.582 1.252.666 0 0-3.487-.57-3.47 0 .015.57 2.884.793 2.884.793s-3.17.158-3.17.554c0 .397 3.297.333 3.297.333s-2.299.46-2.315 1.094c-.015.634 2.536-.46 2.536-.46s-1.505.967-.998 1.205c.507.238 1.664-.444 1.664-.444s1.015 0 1.252-.301c.282-.477.525-.975.73-1.49z" fill="#FEC8AB" fill-rule="nonzero"/>
        <g fill-rule="nonzero">
            <path d="M2.534.697h-.951l-.65.38a.888.888 0 0 1 .587-.11c.252.026.496.107.713.238l16.96 9.89.65-.38L2.534.697z" fill="url(#n)" transform="translate(327.735 169.597)"/>
            <path d="M21.681 13.79v-.65a.222.222 0 0 0 0-.095v-.761a.396.396 0 0 1 0-.111l-.142-.222a.967.967 0 0 0-.111-.158l-.08-.111v-.096H21.016a.159.159 0 0 0-.08 0l-.65.38c.266.153.507.346.714.571.221.244.418.51.586.793.168.279.3.577.396.888.093.292.141.596.143.903v16.563l.65-.38V14.741l-1.094-.951z" fill="url(#o)" transform="translate(327.735 169.597)"/>
            <path d="M346.928 180.692a4.058 4.058 0 0 1 1.839 3.17v16.563l-20.986-12.11v-16.563c0-1.157.824-1.585 1.839-1.062l17.308 10.002z" fill="#381E5E"/>
        </g>
        <path d="M366.138 173.163a7.164 7.164 0 0 1 1.839-5.5c1.173-1.22 2.615-1.855 3.725.46 1.743 3.613.523 13.82-.111 18.132a2.52 2.52 0 0 1-2.235 2.172l-15.898 1.775v-3.012a93.643 93.643 0 0 1 13.615-2.393l-.935-11.634z" fill="#E8F9F9" fill-rule="nonzero"/>
        <g fill-rule="nonzero">
            <path fill="#DB4535" d="m154.349 37.93-.698 244.82-7.418 16.231.698-244.821z"/>
            <path fill="#FF4C21" d="m146.93 54.16-.697 244.821-28.007 4.36.698-244.822z"/>
            <path fill="#DB4535" d="m118.924 58.519-.698 244.821-20.59-11.888.698-244.82z"/>
            <path fill="#FF7357" d="m154.349 37.93-7.418 16.23-28.007 4.359-20.59-11.888 7.418-16.23 28.007-4.36z"/>
        </g>
        <g fill-rule="nonzero">
            <path fill="url(#p)" d="m57.346 11.902-.396 141.526-7.418 16.246.396-141.542z" transform="translate(171.182 126.438)"/>
            <path fill="url(#q)" d="m49.928 28.132-.396 141.542-28.008 4.343.397-141.526z" transform="translate(171.182 126.438)"/>
            <path fill="url(#r)" d="m21.92 32.491-.396 141.526L.92 162.129l.412-141.541z" transform="translate(171.182 126.438)"/>
            <path fill="#FFC943" d="m228.527 138.34-7.417 16.23-28.008 4.36-20.589-11.904 7.418-16.23 27.991-4.344z"/>
        </g>
        <g fill-rule="nonzero">
            <path fill="#EDD91D" d="m183.1 261.702-.173 61.197-7.418 16.247.174-61.214z"/>
            <path fill="#F9ED32" d="m175.683 277.932-.174 61.214-28.008 4.342.175-61.197z"/>
            <path fill="#EDD91D" d="m147.676 282.291-.175 61.197-20.573-11.887.174-61.198z"/>
            <path fill="#F7E87F" d="m183.1 261.702-7.417 16.23-28.007 4.36-20.574-11.889 7.418-16.23 27.992-4.359z"/>
        </g>
        <g fill-rule="nonzero">
            <path fill="#BEC7D5" d="m97.605 164.334 1.902-1.11-26.676 133.427-1.902 1.11z"/>
            <path fill="#BEC7D5" d="m94.562 162.59 1.902-1.125 3.043 1.76-1.902 1.11z"/>
            <path fill="#FFF" d="M97.605 164.334 70.93 297.761 67.886 296l26.676-133.41z"/>
        </g>
        <g fill-rule="nonzero">
            <path fill="#BEC7D5" d="m96.052 295.463-20.685-11.951-1.917 1.109 22.602 13.045z"/>
            <path fill="#D8E0EC" d="M96.052 297.666 73.45 284.62l-.317 1.538 22.919 13.203z"/>
        </g>
        <g fill-rule="nonzero">
            <path fill="#BEC7D5" d="M99.063 280.706 78.38 268.771l-1.902 1.094 22.586 13.06z"/>
            <path fill="#FFF" d="m99.063 282.925-22.586-13.06-.333 1.537 22.92 13.203z"/>
        </g>
        <g fill-rule="nonzero">
            <path fill="#BEC7D5" d="M101.853 266.314 81.184 254.38l-1.917 1.11 22.586 13.028z"/>
            <path fill="#FFF" d="m101.853 268.517-22.586-13.029-.333 1.522 22.919 13.187z"/>
        </g>
        <g fill-rule="nonzero">
            <path fill="#BEC7D5" d="M104.706 252.065 84.037 240.13l-1.917 1.11 22.586 13.044z"/>
            <path fill="#FFF" d="M104.706 254.284 82.12 241.239l-.333 1.538 22.92 13.187z"/>
        </g>
        <g fill-rule="nonzero">
            <path fill="#BEC7D5" d="m107.527 238.053-20.684-11.935-1.902 1.11 22.586 13.044z"/>
            <path fill="#FFF" d="m107.527 240.272-22.586-13.044-.333 1.537 22.92 13.187z"/>
        </g>
        <g fill-rule="nonzero">
            <path fill="#BEC7D5" d="M110.365 223.9 89.68 211.963l-1.902 1.11 22.587 13.028z"/>
            <path fill="#FFF" d="m110.365 226.102-22.587-13.029-.333 1.522 22.92 13.203z"/>
        </g>
        <g fill-rule="nonzero">
            <path fill="#BEC7D5" d="m113.06 209.713-20.685-11.95-1.918 1.125 22.602 13.028z"/>
            <path fill="#FFF" d="m113.06 211.916-22.603-13.028-.333 1.521 22.935 13.188z"/>
        </g>
        <g fill-rule="nonzero">
            <path fill="#BEC7D5" d="m115.912 195.543-20.684-11.95-1.902 1.109 22.586 13.044z"/>
            <path fill="#D8E0EC" d="m115.912 197.746-22.586-13.044-.333 1.553 22.92 13.187z"/>
        </g>
        <g fill-rule="nonzero">
            <path fill="#BEC7D5" d="m121.095 177.902 1.902-1.11-26.66 133.427-1.902 1.11z"/>
            <path fill="#BEC7D5" d="m118.068 176.143 1.902-1.11 3.027 1.76-1.902 1.109z"/>
            <path fill="#FFF" d="m121.095 177.902-26.66 133.427-3.043-1.76 26.676-133.426z"/>
        </g>
        <path d="M88.65 159.643c-.19-.492-1.775-1.237-2.283-1.585-5.214-2.679-12.458 11.443-14.265 15.073 0 0-.776 5.785 2.156 7.466.58.324 1.213.544 1.87.65a3.82 3.82 0 0 0 3.836-2.346s10.08-15.645 8.686-19.258z" fill="#5E58AC" fill-rule="nonzero"/>
        <path d="M90.235 144.395c.76 1.236 2.488 1.11 3.297 1.03a19.21 19.21 0 0 0 1.585-2.457 12.427 12.427 0 0 0 1.14-4.644c.191-1.981-1.394-2.488-2.472-1.965-1.078.523-2.155 3.17-3.043 5.199-.396.76-.238 2.425-.507 2.837z" fill="#FDDECD" fill-rule="nonzero"/>
        <path d="M94.039 142.937a8.543 8.543 0 0 1 2.647-2.79c.301-.19.983-.65 1.204-.127.222.523-.713 2.283-2.646 3.471-.207.127-1.395.73-1.38.317l.175-.871z" fill="#FDDECD" fill-rule="nonzero"/>
        <path d="M90.14 140.797c-.396.555-9.288 15.85-9.89 21.191 0 .777.713-.808 2.789.254s4.295 3.535 5.262 1.331l7.196-18.053a29.164 29.164 0 0 0-4.517-4.12 7.64 7.64 0 0 0-.84-.603z" fill="#5E58AC" fill-rule="nonzero"/>
        <path d="m85.797 169.105-.65 2.948-.951 3.17a6.34 6.34 0 0 1-1.205.682l-.27-.127c-2.503-1.22-5.547-2.932-4.865-4.85l1.11-2.679.316.143 6.515.713z" fill="#FDDECD" fill-rule="nonzero"/>
        <path d="M77.27 170.104c-1.03 1.046-.84 4.628-.793 5.214.11 1.585.412-.634 1.854 0a8.036 8.036 0 0 0 4.66.35 2.821 2.821 0 0 0 1.887-.888c.618-.634.871-3.044.332-3.17-.539-.127-2.06-.254-2.853-.413-1.268-.206-4.184-2.013-5.088-1.093z" fill="#D6E1E7" fill-rule="nonzero"/>
        <path d="M71.151 267.503s-.475 4.105.92 5.294a4.58 4.58 0 0 0 3.423-.46c1.046-.444 2.108-1.347 3.17-1.696 3.075-1.014 3.662-2.6 4.755-4.676 2.172-4.422-2.694-2.377-5.8-.554a15.85 15.85 0 0 1-6.468 2.092z" fill="#0B0C0D" fill-rule="nonzero"/>
        <path d="M74.385 271.037v-.776l-3.012-.349-.713.967.158 1.664s1.585 1.458 1.934 1.41h.159l2.79-1.315-.112-.57c.54-.143 2.108-2.425 2.108-2.425l-3.312 1.394z" fill="#0B0C0D" fill-rule="nonzero"/>
        <path d="M69.55 270.102c.096.492 1.585.38 3.17 0 2.774-.586 6.34-1.854 6.34-2.393 0-4.264-.126-16.754.35-19.416.237-1.348.158-2.362.38-3.694.38-2.33.856-4.66 1.125-6.99.127-1.077.238-2.14.365-3.17l.427-3.613c0-.555.127-1.094.19-1.665.127-1.14.254-2.282.334-3.423v-2.108c.01-.871-.059-1.741-.207-2.6a7.529 7.529 0 0 0-.523-1.664 9.764 9.764 0 0 0-2.044-2.758l-.222-.222a9.51 9.51 0 0 0-3.075-2.187c-1.268-.492-2.9-3.408-3.9-2.489a4.422 4.422 0 0 0-.538.555 9.51 9.51 0 0 0-2.06 5.42v.556c0 .808.158 3.075.174 3.82.016.744 0 1.061.095 1.505.095 1.062-.111 11.206-.38 19.718v1.585c-.16 4.945-.333 9.082-.444 10.112a95.513 95.513 0 0 0 .443 15.121z" fill="#381E5E" fill-rule="nonzero"/>
        <path d="M91.582 259.467s-1.585 3.836-.444 5.357a4.454 4.454 0 0 0 3.408.523c1.125-.127 2.362-.681 3.455-.729 3.17-.11 4.2-1.474 5.706-3.17 3.17-3.645-1.997-3.043-5.452-2.171a15.85 15.85 0 0 1-6.673.19z" fill="#0B0C0D" fill-rule="nonzero"/>
        <path d="M94.403 263.92v-.76l-3.011-.349v-.079l-.713.983.158 1.585s1.585 1.474 1.934 1.41h.158l2.79-1.315-.08-.301 1.697-.46.776-.222h.127l-3.836-.491z" fill="#0B0C0D" fill-rule="nonzero"/>
        <path d="M88.76 258.88a5.516 5.516 0 0 0 .81 3.281 3.36 3.36 0 0 0 2.33 1.22 9.51 9.51 0 0 0 2.678-.158 16.056 16.056 0 0 0 4.517-1.696V238.45c0-3.17-7.307-7.387-7.925-5.754a27.659 27.659 0 0 0-1.284 4.866v.158a67.83 67.83 0 0 0-.301 2.204 3.075 3.075 0 0 0 0 .38 143.005 143.005 0 0 0-.682 8.638c-.142 3.297-.142 6.61-.142 9.938z" fill="#381E5E" fill-rule="nonzero"/>
        <path d="M72.546 217.147c.317 2.996 8.543 13.742 9.795 15.042a78.743 78.743 0 0 1 6.975 7.687l.237.349.333.491.27.412.808 1.316.127.19c.412.666 7.148-1.68 8.004-3.075a.586.586 0 0 0 0-.27 21.16 21.16 0 0 0-2.076-8.194 34.266 34.266 0 0 0-1.094-2.663c-1.03-2.25-2.457-6.086-4.01-9.954-1.03-2.567-2.124-5.135-3.17-7.259.016 0-17.42-5.532-16.199 5.928z" fill="#381E5E" fill-rule="nonzero"/>
        <path d="M92.486 198.634c-.127 3.677.237 13.885.364 17.102a1.744 1.744 0 0 1-.84 1.585 12.11 12.11 0 0 1-4.533 1.585c-.713.111-1.474.175-2.33.222-3.266.21-6.546.013-9.764-.586a13.663 13.663 0 0 1-6.34-2.806 1.775 1.775 0 0 1-.65-1.379c0-3.487 2.013-13.06 2.093-16.817.126-6.34-1.982-17.245-1.76-20.827.206-3.011 1.347-6.641 7.925-5.674l8.575 2.124c1.76 1.046 9.225 2.52 9.859 6.879 0 0-.285 1.585-.65 3.883-.57 3.392-1.347 8.321-1.728 11.872-.126 1.11-.206 2.092-.221 2.837z" fill="#5E58AC" fill-rule="nonzero"/>
        <path d="M88.999 167.853a5.865 5.865 0 0 1-3.044 2.457c-.46.148-.943.217-1.426.206h-.27a2.314 2.314 0 0 1-1.268-.444c-.697-.539-3.645-.539-3.772-1.426a2.52 2.52 0 0 1 0-.603c0-2.219 2.14-5.183 2.837-7.148a8.75 8.75 0 0 1 3.82-4.39 12.062 12.062 0 0 1 4.755-1.586l.618 1.094.507.903a25.614 25.614 0 0 0-1.03 5.596A13.076 13.076 0 0 1 89 167.853z" fill="#FDDECD" fill-rule="nonzero"/>
        <path d="M92.77 156.568c-.348 1.11-1.315.856-2.075 1.727-.761.872-1.11 1.982-1.998 2.996-.332.365-.65 1.331-1.68.444-1.585-1.3-1.79 6.34-5.214 7.434a5.785 5.785 0 0 1-2.584-.54 1.68 1.68 0 0 1-.76-.76 34.87 34.87 0 0 1-3.82-6.435 11.095 11.095 0 0 1 .094-4.755 7.465 7.465 0 0 1 2.315-3.52 8.622 8.622 0 0 1 3.47-2.266 12.902 12.902 0 0 1 7.498.302c.307.094.608.205.903.332.542.208 1.071.446 1.585.714l.634.491c2.06 1.68 1.791 2.996 1.791 3.17-.04.225-.093.447-.158.666z" fill="#242A31" fill-rule="nonzero"/>
        <path d="M87.017 161.671a1.474 1.474 0 1 1-2.504 1.316 1.474 1.474 0 1 1 2.504-1.316z" fill="#FDDECD" fill-rule="nonzero"/>
        <path d="M86.336 162.084a.793.793 0 0 1-.159 1.077c-.317.175-.76 0-.982-.475a.777.777 0 0 1 .158-1.078.793.793 0 0 1 .983.476z" fill="#FDDECD" fill-rule="nonzero"/>
        <path d="M84.465 172.275a8.955 8.955 0 0 1 1.585.492c.377.21.63.586.682 1.014-2.029.396-5.722-.476-7.75-.856a7.07 7.07 0 0 1-3.678-1.918c-.682-1.173 3.55.159 3.994.286 1.696.507 3.503.57 5.23.982h-.063z" fill="#30273A" fill-rule="nonzero"/>
        <path d="M76.08 157.281a10.207 10.207 0 0 0 1.728 8.86c.335.351.56.792.65 1.268a.46.46 0 0 1 0 .206 34.553 34.553 0 0 1-3.661-6.53 11.349 11.349 0 0 1 .206-4.755 7.624 7.624 0 0 1 2.425-3.455 8.797 8.797 0 0 1 3.55-2.14c2.488-.58 5.092-.41 7.482.491a17.673 17.673 0 0 0-5.912-.127 8.955 8.955 0 0 0-6.467 6.182z" fill="#2A0D05" fill-rule="nonzero" opacity=".3" style="mix-blend-mode:screen"/>
        <path d="M105.118 198.301a3.915 3.915 0 0 1-1.3 1.585 7.1 7.1 0 0 1-4.47 1.443l-14.36-18.292s-2.964-3.962.413-6.688a6.8 6.8 0 0 1 2.234-1.19c2.03-.68 3.9.413 5.326 2.188l10.572 15.026s2.25 4.486 1.585 5.928z" fill="#5E58AC" fill-rule="nonzero"/>
        <path d="M116.562 188.316a.872.872 0 0 1-1.22.206.872.872 0 0 1-.207-1.22l2.806-3.916a.872.872 0 0 1 1.22-.206.872.872 0 0 1 .206 1.22l-2.805 3.916z" fill="#FDDECD" fill-rule="nonzero"/>
        <path d="m114.77 188.458 2.553-3.17 2.647-1.886c.27-.158 1.585-1.046 2.314-.666.523.254 3.328 2.013 2.552 2.853-.523.57-5.373 4.55-5.373 4.55-.302.3-.825 1.473-1.126 1.584l-2.076.666-1.49-3.93z" fill="#FDDECD" fill-rule="nonzero"/>
        <path d="M120.001 190.408c-.602.46-12.68 10.54-18.48 11.27a3.408 3.408 0 0 1-2.172-.381s.285-1.347.428-2.457c.142-1.11.348-2.615.412-2.774l-1.585-2.567 16.912-7.656a41.733 41.733 0 0 1 4.485 4.565z" fill="#5E58AC" fill-rule="nonzero"/>
        <path d="m57.06 478.088.222-74.908a5.532 5.532 0 0 0 3.17 4.565l-.206 74.908a5.548 5.548 0 0 1-3.185-4.565z"/>
        <path d="M176.745 426.686V427.32l-.095.333c0 .095 0 .174-.111.27l-.174.348c-.042.083-.09.162-.143.238l-.254.38-.19.222c-.14.18-.294.35-.46.507a.999.999 0 0 1-.19.175l-.333.285-.3.238-.397.269a3.9 3.9 0 0 1-.428.27l-28.53 16.595c-.51.282-1.04.526-1.585.729a2.679 2.679 0 0 1-.428.158c-.333.127-.682.222-1.03.317-.35.095-.73.206-1.11.285-.38.08-.888.175-1.347.222h-.317c-.618 0-1.237.095-1.87.111h-.286a17.61 17.61 0 0 1-1.838-.11h-.27a15.945 15.945 0 0 1-1.918-.286l-.317-.08a14.519 14.519 0 0 1-1.585-.459l-.27-.095a10.92 10.92 0 0 1-1.68-.792L60.5 407.745a5.532 5.532 0 0 1-3.17-4.565l-.27 74.908c.182 2 1.431 3.747 3.266 4.565l68.773 39.704c.51.291 1.04.545 1.585.761l.286.095c.317.111.634.238.967.333l.554.127h.317l.286.08 1.093.19H137.484l1.236-.096h.46c.317 0 .634 0 .951-.127l.396-.095c.38-.079.745-.174 1.11-.285.364-.11.396-.08.586-.143l.444-.174.428-.158a11.444 11.444 0 0 0 1.585-.73l28.53-16.595h.127l.285-.19c.139-.08.271-.17.397-.27l.317-.237.333-.285.11-.127c.171-.157.33-.327.476-.507l.095-.111a.285.285 0 0 0 0-.111l.27-.38.11-.16a.127.127 0 0 1 0-.078l.159-.35.095-.205c.04-.109.07-.22.095-.333a1.173 1.173 0 0 0 0-.222 2.378 2.378 0 0 0 0-.349.935.935 0 0 0 0-.222v-.095l.206-74.907c.476.079.46.174.46.285z" fill="#D3E1FA" fill-rule="nonzero"/>
        <path d="M173.496 421.804c4.343 2.504 4.358 6.562 0 9.05l-28.53 16.596a17.197 17.197 0 0 1-15.629 0l-68.79-39.705c-4.327-2.504-4.342-6.562 0-9.05l28.53-16.596a17.166 17.166 0 0 1 15.613 0l68.806 39.705z" fill="#B6C2F9" fill-rule="nonzero"/>
        <g fill-rule="nonzero">
            <path d="M16.405 15.438V14.915a.143.143 0 0 1 0-.08L14.47 6.103v-.079a.222.222 0 0 0 0-.095v-.729a.491.491 0 0 0 0-.159l-.142-.237V4.517a.159.159 0 0 0 0-.079h-.08v-.08h-.079L7.418.46H6.64L4.66 1.617l.27-.111h.316c.106-.014.212-.014.317 0 .123.045.24.103.35.174l4.818 3.075c.204.122.396.265.57.428.18.176.344.367.492.57.145.222.272.456.38.698.108.24.193.49.254.745l1.917 8.718c.022.2.022.402 0 .602.028.168.028.34 0 .507a1.11 1.11 0 0 1-.158.365.856.856 0 0 1-.301.285l1.981-1.141a.983.983 0 0 0 .285-.286l.08-.126a.222.222 0 0 0 0-.111v-.191c0-.095 0 0 0 0v-.253l.174-.127z" fill="url(#s)" transform="translate(120.461 401.009)"/>
            <path d="M10.73 4.755a3.978 3.978 0 0 1 1.712 2.473l1.918 8.717c.333 1.506-.539 2.33-1.727 1.585L1.997 11.38A3.661 3.661 0 0 1 .285 7.925l1.966-6.483C2.473.697 3.17.507 3.963.967l6.768 3.788z" fill="url(#t)" transform="translate(120.461 401.009)"/>
        </g>
        <path d="M106.196 394.288v-31.985a2.314 2.314 0 0 1 3.471-1.998l46.71 27.073a2.33 2.33 0 0 1 1.158 2.012l-.096 31.986a2.314 2.314 0 0 1-3.47 1.997l-46.695-27.12a2.314 2.314 0 0 1-1.078-1.965z" fill="url(#u)" fill-rule="nonzero"/>
        <path d="m105.324 394.669.095-32.002a2.298 2.298 0 0 1 3.471-1.981l46.695 27.072a2.314 2.314 0 0 1 1.157 1.997l-.095 32.001a2.298 2.298 0 0 1-3.471 1.982l-46.695-27.025a2.282 2.282 0 0 1-1.157-2.044z" fill="#381E5E" fill-rule="nonzero"/>
        <path fill="url(#v)" fill-rule="nonzero" opacity=".85" style="mix-blend-mode:screen" d="m106.846 394.558.08-32.588 48.294 27.991-.095 32.588z"/>
        <path d="M118.353 383.78a6.039 6.039 0 0 1 1.363 2.187c-.555 1.918-.856 3.487-.872 3.566l-.285-.143-4.248-2.551c.127-.206 2.299-4.074 3.9-3.17l.142.11z" fill="url(#w)" fill-rule="nonzero"/>
        <g fill-rule="nonzero">
            <path d="M21.19 8.653c1.712.982 3.313 7.164 4.264 11.681-.951.825-2.013 2.584-4.755 1.015h-.111c-2.06-1.237-2.948-5.2-3.566-8.797 2.187-.618 2.932-4.39 4.057-3.883l.111-.016z" fill="url(#x)" transform="translate(118.291 379.818)"/>
            <path d="M133.664 385.793c.777.681 1.11 3.47 1.585 6.514.618 3.598 1.506 7.56 3.567 8.797h.11c2.727 1.585 3.789-.19 4.756-1.015.27-.31.695-.44 1.093-.333h.143c1.585.936 3.756 7.307 3.867 7.64-1.585-.95-32.096-19.02-30.273-18.132l.285.142s.317-1.585.872-3.566c.887-3.043 2.345-6.784 4.026-5.817h.11c.999.697 1.68 4.454 3.36 7.481a8.718 8.718 0 0 0 2.473 2.964l.317.206a1.331 1.331 0 0 0 1.982-.3c.339-.535.58-1.125.713-1.744.491-1.38.491-3.107 1.014-2.837z" fill="#FF7C24"/>
        </g>
        <path d="M129.115 378.454c.492.285.682 3.17 1.189 6.245.23 2.035.798 4.017 1.68 5.864a1.331 1.331 0 0 1-1.981.302l-.317-.206a8.718 8.718 0 0 1-2.473-2.964c.761-4.09.951-9.51 1.855-9.257l.047.016z" fill="url(#y)" fill-rule="nonzero"/>
        <path d="M123.488 376.996c.446.278.725.759.745 1.284 0 .475-.332.665-.745.427a1.585 1.585 0 0 1-.744-1.283c0-.476.332-.666.744-.428z" fill="#FF7C24" fill-rule="nonzero"/>
        <path stroke="#FFA227" stroke-width=".611" stroke-linecap="round" stroke-linejoin="round" d="M133.68 384.366v15.137M132.888 383.89l1.727.951"/>
        <path stroke="#FFA227" stroke-width=".611" fill="#FFA227" fill-rule="nonzero" stroke-linecap="round" stroke-linejoin="round" d="m132.888 399.027 1.727.951"/>
        <path stroke="#FFA227" stroke-width=".611" stroke-linecap="round" stroke-linejoin="round" d="M123.33 377.852v16.151"/>
        <path stroke="#FFA227" stroke-width=".611" fill="#FFA227" fill-rule="nonzero" stroke-linecap="round" stroke-linejoin="round" d="m122.537 393.527 1.712.951"/>
        <path stroke="#FFA227" stroke-width=".611" stroke-linecap="round" stroke-linejoin="round" d="m122.537 377.471 1.712.951M144.854 397.22v9.4M144.094 396.729l1.727.967"/>
        <path stroke="url(#z)" stroke-width=".611" stroke-linecap="round" stroke-linejoin="round" d="m143.999 406.144 1.727.951"/>
        <path d="M120.461 379.294a.46.46 0 0 1 .206.349c0 .126-.095.174-.206.11l-3.804-2.187a.412.412 0 0 1-.206-.364c0-.127.095-.175.206-.111l3.804 2.203z" fill="#FF7C24" fill-rule="nonzero"/>
        <path d="M118.575 379.183a.46.46 0 0 1 .206.349c0 .127-.095.174-.206.11l-2.045-1.172a.46.46 0 0 1-.206-.349c0-.143.095-.19.206-.127l2.045 1.189z" fill="#FFA227" fill-rule="nonzero"/>
        <path d="M139.973 387.029a.412.412 0 0 1 .206.349c0 .126-.095.174-.206.11l-3.804-2.203a.46.46 0 0 1-.206-.348c0-.127.095-.175.206-.111l3.804 2.203z" fill="#FF7C24" fill-rule="nonzero"/>
        <path d="M138.134 386.902c.12.083.19.22.19.365 0 .126 0 .174-.19.11l-2.045-1.172a.476.476 0 0 1-.206-.365c0-.127.095-.174.206-.11l2.045 1.172z" fill="#FFA227" fill-rule="nonzero"/>
        <path d="M150.481 399.424a.428.428 0 0 1 .19.348c0 .127 0 .19-.19.127l-3.82-2.203a.46.46 0 0 1-.206-.349c0-.142.095-.19.206-.127l3.82 2.204z" fill="#FF7C24" fill-rule="nonzero"/>
        <path d="M148.627 399.329a.46.46 0 0 1 .206.348c0 .127-.095.175-.206.111l-2.045-1.173a.46.46 0 0 1-.206-.348c0-.127.095-.19.206-.127l2.045 1.189z" fill="#FFA227" fill-rule="nonzero"/>
        <path stroke="#FFA227" stroke-width=".611" stroke-linecap="round" stroke-linejoin="round" d="M112.663 368.215v21.318M111.379 387.853l36.218 21.271"/>
        <path d="M115.896 391.831a5.643 5.643 0 0 1 2.568 4.423c0 1.585-1.157 2.298-2.584 1.474a5.659 5.659 0 0 1-2.567-4.454c0-1.601 1.173-2.267 2.583-1.443zm0 5.2c1.078.633 1.95.126 1.966-1.11a4.28 4.28 0 0 0-1.95-3.36c-1.078-.619-1.95-.127-1.95 1.109a4.311 4.311 0 0 0 1.934 3.36" fill="url(#A)" fill-rule="nonzero"/>
        <g opacity=".58" fill="#FF7C24" fill-rule="nonzero">
            <path d="M122.902 396.777a.19.19 0 0 1-.27.158l-3.17-1.87a.19.19 0 0 1 0-.143.174.174 0 0 1 .254-.158l3.17 1.87a.159.159 0 0 1 .016.143zM122.173 397.522a.174.174 0 0 1-.254.158l-2.425-1.426a.159.159 0 0 1-.095-.143.174.174 0 0 1 .27-.159l2.425 1.411a.174.174 0 0 1 .079.159zM121.016 397.981a.174.174 0 0 1-.254.159l-1.268-.73a.19.19 0 0 1 0-.158.159.159 0 0 1 .254-.142l1.268.729a.143.143 0 0 1 0 .142z"/>
        </g>
        <path d="M128.212 398.79a5.69 5.69 0 0 1 2.583 4.454c0 1.585-1.173 2.298-2.599 1.474a5.722 5.722 0 0 1-2.568-4.454c.016-1.633 1.173-2.299 2.584-1.474zm0 5.198c1.062.619 1.95.127 1.95-1.109a4.28 4.28 0 0 0-1.95-3.36c-1.062-.618-1.95-.127-1.95 1.11a4.28 4.28 0 0 0 1.95 3.36" fill="url(#B)" fill-rule="nonzero"/>
        <g opacity=".58" fill="#FF7C24" fill-rule="nonzero">
            <path d="M135.883 404.432a.174.174 0 0 1-.253.159l-3.17-1.87a.174.174 0 1 1 .174-.301l3.17 1.87a.143.143 0 0 1 .08.142zM135.17 405.177a.19.19 0 0 1-.27.159l-2.424-1.41a.174.174 0 0 1-.096-.144.19.19 0 0 1 .27-.158l2.425 1.41c.054.028.09.082.095.143zM134.013 405.637a.174.174 0 0 1-.27.158l-1.252-.729a.174.174 0 0 1-.095-.158.19.19 0 0 1 .27-.159l1.252.745c.057.025.094.08.095.143z"/>
        </g>
        <path d="M141.066 405.669a5.659 5.659 0 0 1 2.568 4.438c0 1.585-1.157 2.298-2.584 1.474a5.627 5.627 0 0 1-2.567-4.438c-.032-1.633 1.125-2.299 2.583-1.474zm0 5.198c1.078.619 1.95.111 1.95-1.11a4.216 4.216 0 0 0-1.95-3.36c-1.078-.633-1.95-.126-1.95 1.11a4.216 4.216 0 0 0 1.95 3.36" fill="url(#C)" fill-rule="nonzero"/>
        <g opacity=".58" fill="#FF7C24" fill-rule="nonzero">
            <path d="M148.167 411.169a.174.174 0 0 1-.253.142l-3.17-1.854a.174.174 0 1 1 .174-.301l3.17 1.854a.19.19 0 0 1 .08.159zM147.406 411.914a.174.174 0 0 1-.27.142l-2.424-1.395a.159.159 0 0 1 0-.158.174.174 0 0 1 .253-.143l2.425 1.395c.031.047.037.106.016.159zM146.297 412.373a.174.174 0 0 1-.27.143l-1.252-.73a.159.159 0 0 1-.095-.142.174.174 0 0 1 .27-.158l1.252.729c.06.03.096.092.095.158z"/>
        </g>
        <g fill-rule="nonzero">
            <path d="M41.337 17.212a.539.539 0 0 1-.095.19l-.174.174a.491.491 0 0 1-.143.111l-.127.095L31.7 23.33l-.412.174h-2.14l-.317-.142L.888 7.638a1.014 1.014 0 0 1-.634-.856v.872c.04.383.282.715.634.872L28.83 24.233l.317.143h2.06l.413-.19 9.146-5.468h.095l.158-.127.127-.143v-1.204a.935.935 0 0 1 .19-.032z" fill="url(#D)" transform="translate(95.1 409.934)"/>
            <path d="M40.735 16.134c.824.476.84 1.252 0 1.728L31.7 23.33a3.344 3.344 0 0 1-2.98 0L.777 7.607c-.84-.46-.856-1.237 0-1.712L9.922.427a3.297 3.297 0 0 1 2.98 0l27.833 15.707z" fill="url(#E)" transform="translate(95.1 409.934)"/>
        </g>
        <path d="M108.89 412.104v.127l-1.363.808a.222.222 0 0 1-.222 0l-1.41-.793 1.363-.824a.317.317 0 0 1 .238 0l1.394.682zM110.618 413.086l-1.363.809a.254.254 0 0 1-.238 0l-1.395-.793 1.364-.824a.301.301 0 0 1 .237 0l1.395.808zM112.33 414.117l-1.379.808a.222.222 0 0 1-.222 0l-1.395-.792 1.363-.825a.301.301 0 0 1 .238 0l1.395.809zM114.121 415.147v.143l-1.363.808a.301.301 0 0 1-.238 0l-1.395-.777v-.142l1.363-.809a.254.254 0 0 1 .238 0l1.395.777zM115.865 416.193v.143l-1.364.808a.222.222 0 0 1-.237 0l-1.395-.777v-.142l1.363-.809a.301.301 0 0 1 .238 0l1.395.777zM117.592 417.223v.143l-1.363.808a.222.222 0 0 1-.222 0l-1.395-.776v-.143l1.364-.808a.222.222 0 0 1 .221 0l1.395.776zM119.304 418.254l-1.363.808a.254.254 0 0 1-.238 0l-1.395-.793 1.363-.824a.301.301 0 0 1 .238 0l1.395.809zM121.08 419.252l-1.364.824a.317.317 0 0 1-.238 0l-1.394-.792 1.363-.824a.301.301 0 0 1 .237 0l1.395.792zM122.854 420.282v.127l-1.363.824a.27.27 0 0 1-.222 0l-1.394-.776v-.143l1.363-.808a.222.222 0 0 1 .238 0l1.378.776zM124.582 421.281v.143l-1.363.808a.19.19 0 0 1-.222 0l-1.395-.777v-.142l1.363-.809a.301.301 0 0 1 .238 0l1.38.777zM126.357 422.295l-1.363.809a.254.254 0 0 1-.238 0l-1.394-.793 1.363-.824a.301.301 0 0 1 .238 0l1.394.808zM128.133 423.341l-1.38.825a.27.27 0 0 1-.221 0l-1.316-.65v-.143l1.363-.808a.222.222 0 0 1 .238 0l1.316.776zM129.971 424.324v.143l-1.363.808a.27.27 0 0 1-.222 0l-1.395-.776v-.143l1.363-.808a.222.222 0 0 1 .222 0l1.395.776zM131.667 425.291v.143l-1.363.808a.222.222 0 0 1-.238 0l-1.395-.777v-.142l1.364-.809a.317.317 0 0 1 .237 0l1.395.777zM133.458 426.369l-1.363.808a.254.254 0 0 1-.238 0l-1.394-.792 1.363-.824a.317.317 0 0 1 .237 0l1.395.808zM107.258 413.102v.143l-1.363.808a.222.222 0 0 1-.238 0l-1.395-.776 1.363-.825a.301.301 0 0 1 .238 0l1.395.65zM108.986 414.164l-1.364.809a.254.254 0 0 1-.237 0l-1.395-.793 1.363-.824a.301.301 0 0 1 .238 0l1.395.808zM110.682 415.274l-1.364.808a.222.222 0 0 1-.221 0l-1.395-.792 1.363-.825a.27.27 0 0 1 .222 0l1.395.809zM112.536 416.225v.142l-1.363.809a.27.27 0 0 1-.222 0l-1.395-.777v-.143l1.363-.808a.19.19 0 0 1 .222 0l1.395.777zM114.232 417.27v.144l-1.363.808a.222.222 0 0 1-.222 0l-1.395-.777v-.142l1.363-.809a.222.222 0 0 1 .222 0l1.395.777zM115.944 418.301v.143l-1.363.808a.27.27 0 0 1-.222 0l-1.395-.776v-.143l1.363-.809a.19.19 0 0 1 .222 0l1.395.777zM117.671 419.331v.127l-1.363.809a.254.254 0 0 1-.237 0l-1.395-.793 1.363-.824a.301.301 0 0 1 .238 0l1.394.681zM119.447 420.33l-1.38.808a.222.222 0 0 1-.221 0l-1.395-.792 1.363-.824a.301.301 0 0 1 .238 0l1.395.808zM121.206 421.36l-1.363.824a.27.27 0 0 1-.222 0l-1.395-.776v-.143l1.363-.808a.19.19 0 0 1 .222 0l1.395.903zM122.95 422.359v.142l-1.364.809a.254.254 0 0 1-.237 0l-1.395-.777v-.143l1.363-.808a.254.254 0 0 1 .238 0l1.395.777zM124.725 423.373v.127l-1.363.808a.254.254 0 0 1-.238 0l-1.395-.792 1.363-.824a.317.317 0 0 1 .238 0l1.395.681zM126.484 424.42l-1.363.824a.27.27 0 0 1-.222 0l-1.395-.777v-.143l1.363-.808a.19.19 0 0 1 .222 0l1.395.903zM126.801 424.625l4.961 2.742v.127l-1.442.856h-.08l-5.024-2.742v-.127l1.585-.856zM105.514 414.148v.143l-1.363.808a.301.301 0 0 1-.237 0l-1.395-.776v-.143l1.363-.808a.222.222 0 0 1 .238 0l1.394.776zM107.242 415.274v.142l-1.363.809a.254.254 0 0 1-.238 0l-1.395-.777v-.143l1.364-.808a.301.301 0 0 1 .237 0l1.395.777zM108.938 416.225v.142l-1.363.809a.19.19 0 0 1-.222 0l-1.395-.777v-.143l1.363-.808a.27.27 0 0 1 .222 0l1.395.777zM110.73 417.27l-1.364.825a.27.27 0 0 1-.222 0l-1.395-.792 1.363-.809a.222.222 0 0 1 .222 0l1.395.777zM112.536 418.317v.127l-1.363.824a.27.27 0 0 1-.222 0l-1.395-.777v-.142l1.363-.809a.19.19 0 0 1 .222 0l1.395.777zM114.2 419.347l-1.363.824a.27.27 0 0 1-.222 0l-1.395-.776v-.143l1.364-.808a.222.222 0 0 1 .221 0l1.395.903zM115.928 420.362v.142l-1.363.809a.317.317 0 0 1-.238 0l-1.395-.777v-.143l1.363-.808a.254.254 0 0 1 .238 0l1.395.777zM117.703 421.36v.143l-1.379.808a.222.222 0 0 1-.222 0l-1.395-.792 1.364-.824a.301.301 0 0 1 .237 0l1.395.665zM119.463 422.406l-1.364.825a.27.27 0 0 1-.221 0l-1.395-.793 1.363-.824a.27.27 0 0 1 .222 0l1.395.792zM121.206 423.405l-1.363.824a.317.317 0 0 1-.238 0l-1.395-.777v-.142l1.363-.809a.222.222 0 0 1 .238 0l1.395.904zM122.981 424.403v.143l-1.363.808a.301.301 0 0 1-.238 0l-1.394-.776v-.143l1.363-.808a.254.254 0 0 1 .237 0l1.395.776zM124.74 425.465l-1.362.825a.27.27 0 0 1-.222 0l-1.395-.793 1.363-.824a.27.27 0 0 1 .222 0l1.395.792z" fill="#262833" fill-rule="nonzero"/>
        <path d="m126.516 426.448-1.363.824a.27.27 0 0 1-.222 0l-1.395-.792v-.127l1.363-.808a.254.254 0 0 1 .238 0l1.379.903zM128.291 427.415l-1.363.824a.301.301 0 0 1-.238 0l-1.395-.776v-.143l1.364-.808a.222.222 0 0 1 .237 0l1.395.903zM130.082 428.398v.142l-1.363.809a.301.301 0 0 1-.238 0l-1.395-.777v-.143l1.364-.808a.254.254 0 0 1 .237 0l1.395.777zM102.408 414.465l4.866 2.87a.095.095 0 0 1 0 .158l-1.41.856h-.096l-4.866-2.885a.095.095 0 0 1 0-.159l1.41-.84h.096zM109.097 418.444v.142l-1.364.809a.301.301 0 0 1-.237 0l-1.395-.777v-.142l1.363-.809a.222.222 0 0 1 .238 0l1.395.777zM110.84 419.442v.143l-1.363.808a.254.254 0 0 1-.238 0l-1.395-.776v-.143l1.363-.808a.254.254 0 0 1 .238 0l1.395.776zM112.536 420.473v.142l-1.363.809a.27.27 0 0 1-.222 0l-1.395-.777v-.143l1.363-.808a.222.222 0 0 1 .238 0l1.379.777zM114.28 421.503v.127l-1.364.808a.222.222 0 0 1-.221 0l-1.411-.792 1.363-.825a.301.301 0 0 1 .238 0l1.395.682zM116.055 422.501l-1.363.809a.254.254 0 0 1-.238 0l-1.395-.793 1.363-.824a.301.301 0 0 1 .238 0l1.395.808zM117.83 423.532v.127l-1.363.824a.27.27 0 0 1-.222 0l-1.395-.777v-.143l1.363-.808a.222.222 0 0 1 .238 0l1.379.777zM119.558 424.53v.143l-1.363.808a.27.27 0 0 1-.222 0l-1.395-.776v-.143l1.379-.808a.222.222 0 0 1 .222 0l1.379.776zM121.333 425.529v.142l-1.363.809a.222.222 0 0 1-.238 0l-1.395-.777 1.363-.824a.317.317 0 0 1 .238 0l1.395.65zM123.108 426.59l-1.379.825a.27.27 0 0 1-.222 0l-1.395-.777v-.142l1.364-.809a.222.222 0 0 1 .237 0l1.395.904zM124.867 427.573v.143l-1.363.808a.27.27 0 0 1-.222 0l-1.394-.776v-.143l1.363-.808a.19.19 0 0 1 .222 0l1.394.776zM126.643 428.54v.143l-1.427.856a.254.254 0 0 1-.238 0l-1.394-.777v-.142l1.363-.809a.301.301 0 0 1 .237 0l1.459.73zM128.386 429.539v.143l-1.363.808a.254.254 0 0 1-.238 0l-1.395-.793 1.364-.824a.301.301 0 0 1 .237 0l1.395.666zM102.122 416.304v.143l-1.363.808a.19.19 0 0 1-.222 0l-1.41-.777v-.142l1.363-.809a.301.301 0 0 1 .238 0l1.394.777zM103.85 417.35v.143l-1.363.808a.222.222 0 0 1-.238 0l-1.395-.777v-.142l1.364-.809a.301.301 0 0 1 .237 0l1.395.777zM105.562 418.444l-1.379.808a.222.222 0 0 1-.222 0l-1.395-.792 1.363-.825a.301.301 0 0 1 .238 0l1.395.809z" fill="#262833" fill-rule="nonzero"/>
        <path d="m107.353 419.427-1.363.824a.301.301 0 0 1-.238 0l-1.395-.777v-.143l1.363-.808a.222.222 0 0 1 .238 0l1.395.904zM107.781 419.664l11.792 6.88a.127.127 0 0 1 0 .221l-1.347.808h-.127l-11.792-6.878a.127.127 0 0 1 0-.222l1.347-.809h.127zM121.365 427.621l-1.364.824a.301.301 0 0 1-.237 0l-1.395-.792 1.363-.809a.254.254 0 0 1 .238 0l1.395.777zM123.124 428.604l-1.363.824a.27.27 0 0 1-.222 0l-1.395-.777v-.142l1.363-.809a.19.19 0 0 1 .222 0l1.395.904zM124.9 429.539v.143l-1.364.808a.301.301 0 0 1-.238 0l-1.395-.777v-.142l1.364-.809a.254.254 0 0 1 .237 0l1.395.777zM126.69 430.553v.143l-1.363.808a.222.222 0 0 1-.238 0l-1.394-.776v-.143l1.363-.808a.301.301 0 0 1 .237 0l1.395.776z" fill="#262833" fill-rule="nonzero"/>
        <path d="m88.76 518.553-.142.317a2.6 2.6 0 0 0-.998-.745c-3.472-1.807-9.51 2.299-9.51 2.299-.369.66-.681 1.349-.936 2.06l-.824-.27c-.102.707.28 1.395.935 1.68.228.088.47.136.714.143h.206c1.585.08 2.82-.903 4.501-1.68 2.267-1.046 5.373-1.822 5.928-2.79a.92.92 0 0 0 .143-.427 1.125 1.125 0 0 0-.016-.587z" fill="#1C232A" fill-rule="nonzero"/>
        <path fill="url(#F)" fill-rule="nonzero" d="M81.105 517.476v.015z"/>
        <path d="M81.105 517.491s1.046 1.791-.539 2.71a4.834 4.834 0 0 1-3.407.35c-.254 1.236-.428 2.63.142 2.805a3.63 3.63 0 0 0 1.966 0l.348-.095c2.631-.92 3.186-4.58 1.49-5.77z" fill="url(#G)" fill-rule="nonzero"/>
        <path d="M87.604 517.57a9.795 9.795 0 0 0-6.499-.079s1.046 1.791-.539 2.71a4.834 4.834 0 0 1-3.407.35 2.045 2.045 0 0 1-.84-.35v2.267s.618 1.585 2.932.951l.348-.095h.08a32.841 32.841 0 0 0 3.059-1.474c3.28-1.537 8.353-2.472 4.866-4.28z" fill="#1C232A" fill-rule="nonzero"/>
        <path d="M76.857 515.605c-.19 1.585-.364 3.012-.539 4.597.374.562.936.972 1.585 1.157.597.113 1.215.03 1.76-.238 0 0 2.425-.666 2.377-1.585a4.47 4.47 0 0 0-.967-2.045l.54-2.583a3.709 3.709 0 0 1-4.756.697z" fill="#FEC8AB" fill-rule="nonzero"/>
        <path d="m74.575 518.3-.143.317a2.964 2.964 0 0 0-.998-.745c-3.471-1.807-9.51 2.314-9.51 2.314a13.14 13.14 0 0 0-.936 2.045l-.824-.254c-.058.674.317 1.31.935 1.585.233.072.472.12.714.143h.206c1.585.079 2.821-.904 4.501-1.68 2.267-1.062 5.373-1.823 5.928-2.806.07-.133.113-.278.127-.428.034-.162.034-.33 0-.491z" fill="#1C232A" fill-rule="nonzero"/>
        <path d="M66.935 517.285s1.046 1.807-.539 2.727a4.755 4.755 0 0 1-3.408.332c-.253 1.237-.427 2.647.143 2.822.645.164 1.32.164 1.966 0l.348-.095c2.71-.936 3.186-4.597 1.49-5.786z" fill="url(#H)" fill-rule="nonzero"/>
        <path d="M73.434 517.38a9.89 9.89 0 0 0-6.499-.095s1.046 1.807-.539 2.727a4.755 4.755 0 0 1-3.408.332 2.076 2.076 0 0 1-.84-.332v2.25s.619 1.665 2.933.967l.348-.095h.08a28.927 28.927 0 0 0 3.059-1.458c3.28-1.57 8.353-2.489 4.866-4.296z" fill="#1C232A" fill-rule="nonzero"/>
        <path d="M62.339 515.494c-.19 1.585 0 2.933-.19 4.518.37.56.935.966 1.584 1.14.595.119 1.213.041 1.76-.221 0 0 2.425-.65 2.377-1.585a4.549 4.549 0 0 0-.967-2.06l-.19-2.6c-2.155 2.029-3.534 1.347-4.374.808z" fill="#FEC8AB" fill-rule="nonzero"/>
        <path d="M69.233 416.859a3.614 3.614 0 0 1-3.63-3.63v-12.537h7.308v12.505a3.614 3.614 0 0 1-3.678 3.662z" fill="#FFA88D" fill-rule="nonzero"/>
        <path d="M83.562 397.205c0 5.04-4.105 13.234-9.146 13.234-5.04 0-9.145-8.194-9.145-13.234a9.146 9.146 0 1 1 18.291 0z" fill="#FFCCB1" fill-rule="nonzero"/>
        <path d="M81.898 391.958s2.821 1.284 1.585 2.378c-1.237 1.093-8.987-.064-8.987 3.503 0 3.566 3.17 5.737 1.046 6.086-2.124.349-1.76-5.849-3.17-5.151-1.41.697-1.585 4.755 0 5.627 1.585.871-.38 5.42-.38 5.42s-6.785-1.79-8.655-6.831c-1.87-5.04-1.046-12.189 2.822-13.71 3.867-1.522 7.148-10.905 11.95-7.038 4.803 3.868-2.694 4.755-2.345 4.93.348.174 9.351-.84 8.353 2.345-.999 3.186-2.22 2.441-2.22 2.441z" fill="#37404A" fill-rule="nonzero"/>
        <path d="M88.46 480.022c-1.585-7.925-7.704-28.768-7.704-28.768l-22.713 2.742c-1.585 19.194 3.963 61.815 3.963 61.815.55.526 1.236.888 1.981 1.046a3.36 3.36 0 0 0 3.471-2.013c-.19-39.435 1.284-52.67 3.281-51.814 1.997.856 2.457 10.208 8.37 20.605a7.576 7.576 0 0 1 .95 4.755c-1.062 9.067-2.679 18.07-3.74 27.136a5.024 5.024 0 0 0 5.753-.523l6.34-33c.146-.65.163-1.324.048-1.981z" fill="#381E5E" fill-rule="nonzero"/>
        <path d="M59.644 411.454c-5.754 2.362-9.843 8.924-13.124 17.435a4.517 4.517 0 0 0 .888 4.755c2.092 2.267 5.579 7.545 9.78 11.872 0 0 .205-7.735.205-6.8l-6.213-6.99a.095.095 0 0 1 0-.095c.396-.872 5.738-12.347 9.161-13.885l1.586-.697c3.487-1.6 1.283-7.07-2.283-5.595z" fill="#E8F9F9" fill-rule="nonzero"/>
        <path d="M73.735 413.102s11.095 1.395 9.684 10.144c-1.41 8.75-4.834 19.353.111 29.498 4.946 10.144-27.753 10.587-26.834-3.694.92-14.28-.903-29.164 0-32.381.903-3.218.444-9.098 14.725-3.567h2.314z" fill="#515DC6" fill-rule="nonzero"/>
        <path d="m110.507 429.935 4.438-1.41s.333-2.6 1.41-3.25c1.079-.65 3.742-2.219 4.312-1.585.57.634-2.44 1.886-2.44 1.886s2.234 1.87 1.584 3.17a11.713 11.713 0 0 1-1.268 2.03 1.427 1.427 0 0 1-1.046.538 3.281 3.281 0 0 1-1.284-.222l-3.17.872-2.536-2.029z" fill="#FFCCB1" fill-rule="nonzero"/>
        <path d="M78.791 415.892c1.585-1.316 4.676 1.823 4.961 3.836.698 5.024 1.585 14.059 7.291 15.041 6.927 1.173 17.974-4.342 20.97-5.928a1.189 1.189 0 0 1 1.395.222l1.458 1.459a1.189 1.189 0 0 1-.206 1.854c-4.375 2.663-18.75 11.095-24.663 10.319-7.006-.951-10.524-13.124-10.524-13.124s-4.977-9.954-.682-13.68z" fill="#E8F9F9" fill-rule="nonzero"/>
        <path d="M65.604 410.82a3.17 3.17 0 0 0 2.536 4.216 3.788 3.788 0 0 0 4.755-2.108s-4.39-4.47-7.291-2.108z" fill="#FFCCB1" fill-rule="nonzero"/>
        <path fill="url(#I)" fill-rule="nonzero" d="M297.174 440.523 399 502l108-104-96.085-64.497"/>
        <g fill-rule="nonzero">
            <path fill="#DD4B2F" d="m411.612 308.602-.222 74.306-54.302 26.723.206-74.305z"/>
            <path fill="#FF4C21" d="m357.294 335.326-.206 74.305-71.31-1.823.206-74.305z"/>
            <path d="M407.634 306.114c1.395.792 2.71 1.585 3.978 2.488l-54.318 26.724-71.326-1.823c.682-9.637 7.133-19.179 19.496-26.723 27.135-16.516 72.308-17.134 100.918-1.364.444.222.856.492 1.252.698z" fill="#FF7357"/>
        </g>
        <g fill-rule="nonzero">
            <path d="M77.666 27.991c0 .365 0 .73-.08 1.11-.079.38-.079.586-.11.872a22.05 22.05 0 0 1-.175 1.11c-.063.364-.11.586-.174.887-.064.3-.175.713-.27 1.062-.095.348-.158.602-.253.887-.095.286-.222.714-.349 1.078-.127.365-.206.57-.317.856-.11.285-.317.76-.475 1.125-.159.365-.238.555-.38.84-.144.286-.381.761-.587 1.142l-.412.776c-.333.57-.682 1.126-1.047 1.68-.059.112-.128.218-.206.317a32.44 32.44 0 0 1-1.426 1.966l-.349.428a23.175 23.175 0 0 1-1.585 1.775l-.586.634a47.396 47.396 0 0 1-1.791 1.775l-.365.365c-.349.317-.729.634-1.11.95-.38.318-.538.492-.824.714-.285.222-.824.666-1.236.983l-.84.665-1.585 1.062-.745.523c-.777.524-1.585 1.03-2.41 1.586l-.554.317a64.055 64.055 0 0 1-3.075 1.727l-1.141.587c-.888.443-1.791.887-2.71 1.315l-1.126.507a76.5 76.5 0 0 1-3.883 1.585h-.174a93.08 93.08 0 0 1-3.884 1.348l-.967.317c-1.902.602-3.835 1.157-5.8 1.585l-.666.142c-2.061.508-4.153.967-6.34 1.348h-.428c-1.253.222-2.505.428-3.757.602l-1.395.19c-.967.111-1.918.238-2.884.333l-1.728.174-2.045.175-1.854.11-2.045.112H.903l-.206 48.723c.761 0 1.585 0 2.299.08h8.257c.698 0 1.38 0 2.061-.096l1.855-.127 2.044-.174.999-.08h.713l2.885-.348 1.41-.174c1.253-.19 2.505-.38 3.741-.603h.396c2.124-.38 4.2-.824 6.34-1.331l.65-.159c1.982-.491 3.9-1.046 5.801-1.585a5.04 5.04 0 0 0 .523-.142l.46-.159a74.724 74.724 0 0 0 3.883-1.363h.175a76.5 76.5 0 0 0 3.883-1.585l1.11-.507c.919-.428 1.838-.856 2.726-1.316l1.141-.57a81.429 81.429 0 0 0 3.075-1.728l.38-.222.175-.11c.824-.492 1.585-1.015 2.409-1.586l.745-.523a35.648 35.648 0 0 0 1.49-1.062c.475-.364.57-.444.84-.65.27-.206.856-.65 1.252-.982l.824-.714 1.11-.967.095-.079c.095-.079.174-.19.27-.27a47.71 47.71 0 0 0 1.79-1.79l.57-.618c.54-.587 1.047-1.19 1.586-1.776.095-.11.19-.206.27-.317v-.11c.507-.65.998-1.3 1.442-1.966.06-.111.128-.218.206-.317.364-.555.713-1.125 1.03-1.68l.111-.19c.111-.19.206-.397.317-.603.111-.206.396-.76.586-1.14l.38-.825.476-1.125a3.17 3.17 0 0 1 .143-.35c0-.173.111-.348.174-.522.064-.175.238-.713.35-1.062.11-.349.173-.587.253-.888.079-.3.174-.713.253-1.078.052-.15.094-.304.127-.46a3.978 3.978 0 0 1 0-.427c0-.365.111-.73.174-1.094a6.54 6.54 0 0 0 .096-.887c.015-.302 0-.73.079-1.11.08-.38 0-.38 0-.57v-.635l.539-48.897v1.204z" fill="url(#J)" transform="translate(350.288 332.853)"/>
            <path d="M410.915 333.503c23.442 15.93 22.872 39.815-2.52 55.27-15.296 9.335-36.456 13.583-56.966 12.68l5.168-41.21 54.318-26.74z" fill="#FFC217"/>
        </g>
        <g fill-rule="nonzero">
            <path fill="#E5BC10" d="m346.5 385.872-.222 24.742-5.167 41.226.206-24.742z"/>
            <path d="M61.816 43.35c-1.934-.158-3.852-.38-5.754-.634l-.73-.08h-.237c-1.68-.237-3.344-.522-4.993-.84l-.967-.19a98.842 98.842 0 0 1-4.976-1.109l-.967-.253a75.54 75.54 0 0 1-3.82-1.094l-1.744-.523a94.282 94.282 0 0 1-3.55-1.252c-.428-.159-.888-.302-1.316-.476-1.125-.444-2.219-.92-3.312-1.395l-1.585-.697c-1.585-.745-3.17-1.585-4.66-2.362l-1.237-.681C9.7 24.679 2.79 15.628 1.268 6.404a26.09 26.09 0 0 1-.317-3.995L.745 26.961c0 10.651 7.006 21.319 21.001 29.402l1.237.698c1.505.84 3.075 1.585 4.66 2.361l1.585.698c.967.428 1.918.856 2.9 1.252l.396.142 1.332.476c1.173.444 2.346.856 3.55 1.236l1.728.54c.539.158 1.046.348 1.585.49l2.25.603.952.253c1.41.35 2.821.682 4.248.967l.745.143.966.19a90.97 90.97 0 0 0 4.993.84H55.206l.634.08c1.902.253 3.82.475 5.738.633h.523c1.585.127 3.17.238 4.755.302l.206-24.552a121.69 121.69 0 0 1-5.246-.365z" fill="url(#K)" transform="translate(274.207 383.573)"/>
            <path d="m346.5 386.141-5.183 41.21c-15.85-.681-31.478-4.437-43.92-11.316-.429-.222-.84-.46-1.237-.698-14.725-8.496-21.746-19.828-20.954-31.019l71.294 1.823z" fill="#F9ED32"/>
        </g>
        <path d="M392.545 317.43c-.365-.887-1.744-2.488-3.075-2.33-.365 0-.745.302-.603.635.238.586.666 1.41.492 1.981-.222.808-.888 1.49-.967 2.33-.143 1.696 2.916 2.457 3.677.999.698-1.07.873-2.4.476-3.614z" fill="#60351F" fill-rule="nonzero"/>
        <path d="M411.232 407.84s-5.912-1.426-4.311 5.199c0 .254.634 1.743 2.964 1.395a4.914 4.914 0 0 1 3.423 1.458 10.477 10.477 0 0 0 8.02 1.585c1.126-.159 1.696-.539 1.855-1.03a4.232 4.232 0 0 0 0-1.348c-.507-1.585-3.661-3.312-5.849-4.343l-6.102-2.916z" fill="#444246" fill-rule="nonzero"/>
        <path d="M406.033 413.039s-5.912-1.427-4.311 5.199c0 .253.634 1.743 2.964 1.395a4.993 4.993 0 0 1 3.44 1.458 10.43 10.43 0 0 0 8.004 1.585c1.125-.159 1.696-.54 1.854-1.03.072-.441.072-.891 0-1.332-.507-1.585-3.661-3.328-5.849-4.359-3.423-1.6-6.102-2.916-6.102-2.916z" fill="#444246" fill-rule="nonzero"/>
        <path d="M416.684 373.81a22.428 22.428 0 0 0-10.698 8.955c.142 1.015.713.206.729 1.902 0 5.215 1.125 16.595 0 25.519 2.013 3.17 9.51-.349 9.51-1.585.079-2.837 2.298-31.368.46-34.791z" fill="#1B1823" fill-rule="nonzero"/>
        <path d="M404.622 385.159c0-.413-.11-.809-.142-1.173.116.326.211.66.285.998 3.17-3.328 5.928-7.117 9.843-9.716-3.059-4.105-14.614-9.193-19.131-10.192-.396-.475-.38-.824-.555-.697-6.07 4.264-20.446 1.68-20.51 2.187-.586 4.454-1.76 9.431 1.997 13.822 1.664 1.95 14.487 6.245 17.435 7.64.206.094 7.72 27.182 7.751 27.785.111 2.377 10.208 3.075 10.208-2.188.015-.237-7.022-27.246-7.18-28.466z" fill="#30273A" fill-rule="nonzero"/>
        <path d="M397.839 354.124a3.36 3.36 0 0 0 4.644 1.11 3.36 3.36 0 0 0 1.11-4.629l-10.779-17.562a3.376 3.376 0 0 0-4.644-1.11 3.36 3.36 0 0 0-1.11 4.629l10.779 17.562z" fill="#FEC8AB" fill-rule="nonzero"/>
        <path d="M371.29 339.193c0-3.17 9.209-7.925 12.3-7.925 1.362 0 6.656 0 7.813.586 1.49.793-1.505 1.094-1.505 2.822 0 3.09-.444 17.213-3.535 17.213-3.09 0-15.073-9.669-15.073-12.696z" fill="#E3BC9A" fill-rule="nonzero"/>
        <path d="M389.121 332.932a4.961 4.961 0 0 0-.666-1.22 3.836 3.836 0 0 1 4.755 1.585l5.817 9.51-1.077.808a48.2 48.2 0 0 0-3.741 3.17l-1.11 1.062-2.932-4.755a25.947 25.947 0 0 0-1.046-10.16z" fill="#E8F9F9" fill-rule="nonzero"/>
        <path d="M373.683 373.524c-.856-1.03-3.043-26.263-3.043-26.263.206-1.585 0-8.543 1.03-10.224 1.03-1.68 4.644-3.28 6.594-4.12 0 0 5.008 3.455 6.847 2.79 1.585-.572 2.52-4.47 2.52-4.47 1.744 0 2.41 0 2.806.364 2.504 1.997 2.82 7.925 2.932 10.001.38 6.467 1.712 12.395 3.772 22.745 1.554 7.878-19.495 13.98-23.458 9.177z" fill="#515DC6" fill-rule="nonzero"/>
        <path d="M384.524 334.93a4.327 4.327 0 0 1-4.755-2.172v-4.042l5.976-.618.206 4.977a2.156 2.156 0 0 1-1.427 1.854z" fill="#FEC8AB" fill-rule="nonzero"/>
        <path d="m385.523 381.148 11.983 6.974.238.111H399.233l.206-.11 6.34-3.694-1.727-1.014v-.46l-.951.555-.222-.143v.206l-2.584 1.506-.206-.127v.238l-3.503 2.029-1.585-.92v-.411l-.364.206-1.585-.92v-.412l-.365.206-1.585-.919v-.412l-.364.206-1.585-.935v-.412l-.349.206-1.585-.92v-1.188l1.585-.951 1.585.919v.412l.396-.222-.935-.539v-1.189l1.585-.966.301.19v-.365l1.665-.95.3.174v-.365l1.586-.95.3.173v-.317l1.586-.95.301.174v-.365l1.664-.95.317.174v-.365l1.585-.951.317.174v-.364l1.585-.951.317.174v-.364l1.585-.951.317.174v-.365l1.585-.95 1.585.919v.412l.365-.206 1.585.919v.539l.46-.27 1.838 1.062 1.062.619.54.3v.429l.364-.206 1.585.919v1.22l-3.408 1.982-.174-.111v.206l-2.505 1.442 1.744 1.015v.475l7.925-4.549v.904l-.46.19c-.642.4-1.184.942-1.585 1.585l-19.242 11.095-.206.095h-1.173.793-.143l-.206-.095-11.999-6.974a.73.73 0 0 1-.412-.587v-1.188c.143.053.298.059.444.015z" fill="#D0DBE5" fill-rule="nonzero"/>
        <path d="m420.41 374.903-11.983-6.974a2.25 2.25 0 0 0-2.061 0l-20.827 12.03c-.57.334-.57.872 0 1.19l11.983 6.973a2.298 2.298 0 0 0 2.06 0l20.843-12.03a.618.618 0 0 0-.016-1.189z" fill="#FAFCFF" fill-rule="nonzero"/>
        <path fill="#0E304A" fill-rule="nonzero" d="m409.187 373.255 1.601.92-1.648.95-1.601-.919zM411.723 374.032l1.601.919-1.648.967-1.601-.92z"/>
        <path fill="#0E304A" fill-rule="nonzero" d="m414.022 372.827 1.854 1.062 1.062.618.539.301-2.79 1.617-1.6-.92.855-.49-1.838-1.078zM409.869 375.11l1.6.919-1.648.967-1.6-.92zM417.841 375.014l1.586.936-3.392 1.965-1.601-.92zM414.275 377.09l1.585.92-2.567 1.506-1.601-.92zM409.187 377.772l1.585.92-1.648.967-1.585-.92zM410.027 370.497l1.585.935-1.648.951-1.6-.919zM408.062 371.638l1.585.935-1.648.951-1.585-.919zM411.977 371.638l1.585.92-2.552 1.474-1.6-.92zM406.097 372.78l1.585.935-1.649.95-1.6-.919zM404.131 373.92l1.585.936-1.648.95-1.601-.918zM407.317 374.333l1.585.935-1.648.951-1.601-.92zM402.15 375.062l1.6.935-1.648.951-1.585-.92zM405.43 375.427l1.602.935-1.665.95-1.585-.919zM412.88 375.633l1.585.919-1.648.967-1.585-.935zM400.2 376.203l1.585.935-1.648.951-1.601-.919zM408.014 376.187l1.601.92-1.664.966-1.585-.935zM403.545 376.52l1.6.92-1.648.966-1.6-.935zM411.026 376.71l1.585.92-1.648.95-1.601-.919zM406.16 377.281l1.585.903-1.648.967-1.585-.919zM398.219 377.344l1.6.936-1.648.95-1.6-.919zM401.674 377.614l1.585.92-1.648.966-1.585-.935zM404.305 378.343l1.585.92-1.648.966-1.6-.92zM396.254 378.486l1.6.935-1.648.95-1.6-.919zM399.788 378.707l1.601.92-1.664.95-1.585-.918zM407.27 378.882l1.584.935-1.648.951-1.585-.92zM402.435 379.42l1.601.92-1.648.967-1.601-.92zM394.304 379.627l1.585.92-1.648.966-1.601-.92zM397.918 379.801l1.585.92-1.649.95-1.6-.919zM405.415 379.96l1.6.919-1.648.951-1.585-.92zM400.58 380.499l1.602.935-1.649.95-1.6-.919zM403.576 381.037l1.585.92-1.648.95-1.6-.919zM391.594 381.212l1.585.92-1.649.95-1.6-.92zM398.726 381.576l1.585.92-1.648.967-1.585-.92zM411.517 378.692l1.601.919-7.26 4.216-1.584-.92zM401.722 382.1l1.6.919-1.648.967-1.6-.92zM395.952 380.927l1.585.935-4.057 2.361-1.601-.935zM396.856 382.67l1.6.92-3.027 1.759-1.6-.92zM404.036 383.035l1.585.919-2.584 1.506-1.585-.92zM399.852 383.193l1.6.92-4.073 2.361-1.6-.92zM401.246 384.651l1.601.92-3.503 2.028-1.6-.919zM400.977 372.225l2.346 1.363-5.944 3.44-2.346-1.364z"/>
        <path d="M370.006 362.635a3.55 3.55 0 0 0 3.455 3.646 3.55 3.55 0 0 0 3.63-3.471l.555-21.794a3.566 3.566 0 0 0-3.456-3.662 3.55 3.55 0 0 0-3.63 3.472l-.554 21.81z" fill="#E3BC9A" fill-rule="nonzero"/>
        <path d="M370.006 362.635a3.55 3.55 0 0 0 3.455 3.646 3.55 3.55 0 0 0 3.63-3.471l.555-21.794a3.566 3.566 0 0 0-3.456-3.662 3.55 3.55 0 0 0-3.63 3.472l-.554 21.81z" fill="#E3BC9A" fill-rule="nonzero"/>
        <path d="M370.735 360.622a3.471 3.471 0 0 1 4.898-.618l14.407 12.886c.858.292 1.695.641 2.505 1.047 1.711 1.014 3.249 2.092 3.614 3.518.776 3.028-.524 3.9-1.887 4.026-2.044.206-6.768-5.008-6.768-5.008l-16.167-10.937a3.503 3.503 0 0 1-.602-4.914zM400.058 349.4a3.471 3.471 0 0 1 4.216 2.568l2.124 17.34a7.481 7.481 0 0 1-.206 4.993c-1.585 2.552-2.758 2.029-3.741 1.173-1.347-1.173-.856-5.912-1.379-8.369l-3.614-13.393a3.519 3.519 0 0 1 2.6-4.311z" fill="#FEC8AB" fill-rule="nonzero"/>
        <path d="M377.376 351.873v1.11l-.254 9.858a3.535 3.535 0 0 1-3.55 3.472 3.55 3.55 0 0 1-3.455-3.662l.253-9.81v-1.174c1.148-.3 2.334-.423 3.519-.364 1.185.004 2.362.197 3.487.57z" fill="#FEC8AB" fill-rule="nonzero"/>
        <path d="m420.79 360.75-.302-.175-.3-.174a.73.73 0 0 0-.746 0l-21.223 12.252a2.282 2.282 0 0 0-1.046 1.807v14.122a.697.697 0 0 0 .317.666l.745.444a.793.793 0 0 1-.317-.682v-14.107a2.314 2.314 0 0 1 1.046-1.822l21.223-12.252a.682.682 0 0 1 .745 0l-.142-.08z" fill="#D0DBE5" fill-rule="nonzero"/>
        <path d="m398.932 373.144 21.224-12.252c.586-.333 1.062 0 1.062.602v14.123a2.33 2.33 0 0 1-1.047 1.807l-21.223 12.252c-.57.348-1.046 0-1.062-.603v-14.106a2.314 2.314 0 0 1 1.046-1.823z" fill="#381E5E" fill-rule="nonzero"/>
        <path d="M376.726 324.056a19.369 19.369 0 0 0 3.503 6.8c2.076 1.854 6.213 2.805 8.417 1.157 2.948-2.203 2.9-7.513 2.647-12.902-.254-5.39-4.423-6.213-7.815-3.757-3.392 2.457-7.83 3.408-6.752 8.702z" fill="#FEC8AB" fill-rule="nonzero"/>
        <path d="M388.122 310.758a10.715 10.715 0 0 0-8.02 0 8.575 8.575 0 0 0-2.076 1.094 8.876 8.876 0 0 0-3.646 6.086 12.87 12.87 0 0 0 1.585 7.782 8.67 8.67 0 0 0 1.173 1.585l.301.492a9.7 9.7 0 0 0 2.949 3.17c.396.349 3.423 3.17 6.53 3.17 2.219 0 3.756-1.252 3.582-3.17.231-.997.39-2.008.476-3.028 0 .08-.238.08-.35 0a2.219 2.219 0 0 0-1.584-.475 1.078 1.078 0 0 0-.38.158c-.761-.285-1.665.65-2.125 1.126a2.964 2.964 0 0 0-1.03 1.823 11.174 11.174 0 0 1-3.566-1.411 6.514 6.514 0 0 0-1.458-1.189c-2.885-1.585-2.727-4.01-2.22-4.755 1.205-1.87 2.426 1.585 3.615 1.87 1.188.286-.175-4.152 1.79-5.896a3.012 3.012 0 0 1 1.95-1.014c1.009.125 2.002.353 2.964.681 1.458.397 3.804.35 4.042-1.585a6.34 6.34 0 0 0-4.502-6.514zm-1.109 19.955c.037-.103.09-.2.158-.285a6.34 6.34 0 0 1 .666-.824c.349-.313.667-.658.951-1.03.441.225.897.42 1.363.586a4.073 4.073 0 0 1-1.76 1.585 5.246 5.246 0 0 1-1.41 0s.016 0 .032-.032z" fill="#37404A" fill-rule="nonzero"/>
        <path d="m369.514 352.127.856-13.203a3.964 3.964 0 0 1 7.925.206l-.27 13.171-8.51-.174z" fill="#E8F9F9" fill-rule="nonzero"/>
    </g>
</svg>
