<svg width="548" height="484" viewBox="0 0 548 484" xmlns="http://www.w3.org/2000/svg">
    <defs>
        <linearGradient x1=".735%" y1="49.938%" x2="100%" y2="49.938%" id="a">
            <stop stop-color="#FF8D1A" offset="0%"/>
            <stop stop-color="#FF8D1A" stop-opacity=".88" offset="5%"/>
            <stop stop-color="#FF8D1A" stop-opacity=".68" offset="16%"/>
            <stop stop-color="#FF8D1A" stop-opacity=".49" offset="26%"/>
            <stop stop-color="#FF8D1A" stop-opacity=".34" offset="37%"/>
            <stop stop-color="#FF8D1A" stop-opacity=".22" offset="48%"/>
            <stop stop-color="#FF8D1A" stop-opacity=".12" offset="60%"/>
            <stop stop-color="#FF8D1A" stop-opacity=".05" offset="72%"/>
            <stop stop-color="#FF8D1A" stop-opacity=".01" offset="85%"/>
            <stop stop-color="#FF8D1A" stop-opacity="0" offset="100%"/>
        </linearGradient>
        <linearGradient x1="50%" y1="0%" x2="50%" y2="100%" id="b">
            <stop stop-color="#FF8D1A" offset="0%"/>
            <stop stop-color="#FF831B" offset="7%"/>
            <stop stop-color="#FF6B1E" offset="27%"/>
            <stop stop-color="#FF5A20" offset="49%"/>
            <stop stop-color="#FF4F21" offset="72%"/>
            <stop stop-color="#FF4C21" offset="100%"/>
        </linearGradient>
        <linearGradient x1="49.959%" y1="0%" x2="49.959%" y2="100%" id="c">
            <stop stop-color="#FF8D1A" offset="0%"/>
            <stop stop-color="#FF831B" offset="7%"/>
            <stop stop-color="#FF6B1E" offset="27%"/>
            <stop stop-color="#FF5A20" offset="49%"/>
            <stop stop-color="#FF4F21" offset="72%"/>
            <stop stop-color="#FF4C21" offset="100%"/>
        </linearGradient>
        <linearGradient x1="50%" y1="0%" x2="50%" y2="100%" id="d">
            <stop stop-color="#FF8D1A" offset="0%"/>
            <stop stop-color="#FF831B" offset="7%"/>
            <stop stop-color="#FF6B1E" offset="27%"/>
            <stop stop-color="#FF5A20" offset="49%"/>
            <stop stop-color="#FF4F21" offset="72%"/>
            <stop stop-color="#FF4C21" offset="100%"/>
        </linearGradient>
        <linearGradient x1="50%" y1="0%" x2="50%" y2="100%" id="e">
            <stop stop-color="#FF8D1A" offset="0%"/>
            <stop stop-color="#FF831B" offset="7%"/>
            <stop stop-color="#FF6B1E" offset="27%"/>
            <stop stop-color="#FF5A20" offset="49%"/>
            <stop stop-color="#FF4F21" offset="72%"/>
            <stop stop-color="#FF4C21" offset="100%"/>
        </linearGradient>
        <linearGradient x1="50%" y1="0%" x2="50%" y2="100%" id="f">
            <stop stop-color="#FF8D1A" offset="0%"/>
            <stop stop-color="#FF831B" offset="7%"/>
            <stop stop-color="#FF6B1E" offset="27%"/>
            <stop stop-color="#FF5A20" offset="49%"/>
            <stop stop-color="#FF4F21" offset="72%"/>
            <stop stop-color="#FF4C21" offset="100%"/>
        </linearGradient>
        <linearGradient x1="56.069%" y1="80.718%" x2="46.396%" y2="31.766%" id="g">
            <stop stop-color="#FF8D1A" offset="0%"/>
            <stop stop-color="#FF8D1A" stop-opacity=".88" offset="5%"/>
            <stop stop-color="#FF8D1A" stop-opacity=".68" offset="16%"/>
            <stop stop-color="#FF8D1A" stop-opacity=".49" offset="26%"/>
            <stop stop-color="#FF8D1A" stop-opacity=".34" offset="37%"/>
            <stop stop-color="#FF8D1A" stop-opacity=".22" offset="48%"/>
            <stop stop-color="#FF8D1A" stop-opacity=".12" offset="60%"/>
            <stop stop-color="#FF8D1A" stop-opacity=".05" offset="72%"/>
            <stop stop-color="#FF8D1A" stop-opacity=".01" offset="85%"/>
            <stop stop-color="#FF8D1A" stop-opacity="0" offset="100%"/>
        </linearGradient>
        <linearGradient x1="43.958%" y1="80.931%" x2="51.711%" y2="41.292%" id="h">
            <stop stop-color="#FF8D1A" offset="0%"/>
            <stop stop-color="#FF8D1A" stop-opacity=".88" offset="5%"/>
            <stop stop-color="#FF8D1A" stop-opacity=".68" offset="16%"/>
            <stop stop-color="#FF8D1A" stop-opacity=".49" offset="26%"/>
            <stop stop-color="#FF8D1A" stop-opacity=".34" offset="37%"/>
            <stop stop-color="#FF8D1A" stop-opacity=".22" offset="48%"/>
            <stop stop-color="#FF8D1A" stop-opacity=".12" offset="60%"/>
            <stop stop-color="#FF8D1A" stop-opacity=".05" offset="72%"/>
            <stop stop-color="#FF8D1A" stop-opacity=".01" offset="85%"/>
            <stop stop-color="#FF8D1A" stop-opacity="0" offset="100%"/>
        </linearGradient>
        <linearGradient x1="0%" y1="50.009%" x2="100%" y2="50.009%" id="i">
            <stop stop-color="#2D2977" offset="0%"/>
            <stop stop-color="#333082" offset="5%"/>
            <stop stop-color="#4444A2" offset="22%"/>
            <stop stop-color="#5153BA" offset="39%"/>
            <stop stop-color="#5B5ECB" offset="57%"/>
            <stop stop-color="#6065D6" offset="77%"/>
            <stop stop-color="#6267D9" offset="100%"/>
        </linearGradient>
        <linearGradient x1="-.016%" y1="49.939%" x2="99.984%" y2="49.939%" id="j">
            <stop stop-color="#FF8D1A" offset="0%"/>
            <stop stop-color="#FF4C21" offset="100%"/>
        </linearGradient>
        <linearGradient x1="0%" y1="50%" x2="100%" y2="50%" id="k">
            <stop stop-color="#FF8D1A" offset="0%"/>
            <stop stop-color="#FF831B" offset="7%"/>
            <stop stop-color="#FF6B1E" offset="27%"/>
            <stop stop-color="#FF5A20" offset="49%"/>
            <stop stop-color="#FF4F21" offset="72%"/>
            <stop stop-color="#FF4C21" offset="100%"/>
        </linearGradient>
        <linearGradient x1="0%" y1="49.732%" x2="100%" y2="49.732%" id="l">
            <stop stop-color="#FF8D1A" offset="0%"/>
            <stop stop-color="#FF831B" offset="7%"/>
            <stop stop-color="#FF6B1E" offset="27%"/>
            <stop stop-color="#FF5A20" offset="49%"/>
            <stop stop-color="#FF4F21" offset="72%"/>
            <stop stop-color="#FF4C21" offset="100%"/>
        </linearGradient>
        <linearGradient x1="-16.644%" y1="23.04%" x2="94.193%" y2="66.534%" id="m">
            <stop stop-opacity=".2" offset="0%"/>
            <stop stop-color="#231F20" stop-opacity=".2" offset="22%"/>
            <stop stop-color="#211D1E" stop-opacity=".19" offset="24%"/>
            <stop stop-opacity="0" offset="75%"/>
        </linearGradient>
        <linearGradient x1="-24.367%" y1="16.71%" x2="98.881%" y2="70.068%" id="n">
            <stop stop-opacity=".2" offset="0%"/>
            <stop stop-color="#231F20" stop-opacity=".2" offset="22%"/>
            <stop stop-color="#211D1E" stop-opacity=".19" offset="24%"/>
            <stop stop-opacity="0" offset="75%"/>
        </linearGradient>
        <linearGradient x1="-24.367%" y1="16.704%" x2="98.881%" y2="70.072%" id="o">
            <stop stop-opacity=".2" offset="0%"/>
            <stop stop-color="#231F20" stop-opacity=".2" offset="22%"/>
            <stop stop-color="#211D1E" stop-opacity=".19" offset="24%"/>
            <stop stop-opacity="0" offset="75%"/>
        </linearGradient>
        <linearGradient x1=".12%" y1="49.986%" x2="100%" y2="49.986%" id="p">
            <stop stop-color="#FF791D" offset="0%"/>
            <stop stop-color="#FFC217" offset="100%"/>
        </linearGradient>
        <linearGradient x1="-.001%" y1="49.97%" x2="100%" y2="49.97%" id="q">
            <stop stop-color="#FF791D" offset="0%"/>
            <stop stop-color="#FFC217" offset="100%"/>
        </linearGradient>
        <linearGradient x1="-.021%" y1="50.003%" x2="100%" y2="50.003%" id="r">
            <stop stop-color="#FF791D" offset="0%"/>
            <stop stop-color="#FFC217" offset="100%"/>
        </linearGradient>
        <linearGradient x1="0%" y1="49.994%" x2="100.021%" y2="49.994%" id="s">
            <stop stop-color="#FF791D" offset="0%"/>
            <stop stop-color="#FFC217" offset="100%"/>
        </linearGradient>
        <linearGradient x1="0%" y1="50.006%" x2="100%" y2="50.006%" id="t">
            <stop stop-color="#FF791D" offset="0%"/>
            <stop stop-color="#FFC217" offset="100%"/>
        </linearGradient>
        <linearGradient x1="-.041%" y1="50.018%" x2="99.775%" y2="50.018%" id="u">
            <stop stop-color="#2D2977" offset="0%"/>
            <stop stop-color="#333082" offset="5%"/>
            <stop stop-color="#4444A2" offset="22%"/>
            <stop stop-color="#5153BA" offset="39%"/>
            <stop stop-color="#5B5ECB" offset="57%"/>
            <stop stop-color="#6065D6" offset="77%"/>
            <stop stop-color="#6267D9" offset="100%"/>
        </linearGradient>
        <linearGradient x1="-22.057%" y1="24.462%" x2="97.799%" y2="63.801%" id="v">
            <stop stop-opacity=".2" offset="0%"/>
            <stop stop-color="#231F20" stop-opacity=".2" offset="22%"/>
            <stop stop-color="#211D1E" stop-opacity=".19" offset="24%"/>
            <stop stop-opacity="0" offset="75%"/>
        </linearGradient>
        <linearGradient x1="-27.122%" y1="19.501%" x2="98.461%" y2="63.018%" id="w">
            <stop stop-opacity=".2" offset="0%"/>
            <stop stop-color="#231F20" stop-opacity=".2" offset="22%"/>
            <stop stop-color="#211D1E" stop-opacity=".19" offset="24%"/>
            <stop stop-opacity="0" offset="75%"/>
        </linearGradient>
        <linearGradient x1="10%" y1="27.531%" x2="92.031%" y2="73.79%" id="x">
            <stop stop-color="#FF891B" offset="0%"/>
            <stop stop-color="#FFA118" offset="100%"/>
        </linearGradient>
        <linearGradient x1="5103.625%" y1="-6351.894%" x2="5170.07%" y2="-6285.276%" id="y">
            <stop stop-color="#FF891B" offset="0%"/>
            <stop stop-color="#FFA118" offset="100%"/>
        </linearGradient>
        <linearGradient x1="5080.024%" y1="-6291.195%" x2="5146.625%" y2="-6224.775%" id="z">
            <stop stop-color="#FF891B" offset="0%"/>
            <stop stop-color="#FFA118" offset="100%"/>
        </linearGradient>
        <linearGradient x1="4054.187%" y1="-5116.494%" x2="4121.671%" y2="-5049.019%" id="A">
            <stop stop-color="#FF891B" offset="0%"/>
            <stop stop-color="#FFA118" offset="100%"/>
        </linearGradient>
        <linearGradient x1="50%" y1="99.832%" x2="50%" y2="-.607%" id="B">
            <stop stop-color="#FF8D1A" offset="0%"/>
            <stop stop-color="#FF8D1A" stop-opacity=".97" offset="9%"/>
            <stop stop-color="#FF8D1A" stop-opacity=".88" offset="22%"/>
            <stop stop-color="#FF8D1A" stop-opacity=".75" offset="38%"/>
            <stop stop-color="#FF8D1A" stop-opacity=".55" offset="57%"/>
            <stop stop-color="#FF8D1A" stop-opacity=".31" offset="77%"/>
            <stop stop-color="#FF8D1A" stop-opacity=".01" offset="99%"/>
            <stop stop-color="#FF8D1A" stop-opacity="0" offset="100%"/>
        </linearGradient>
    </defs>
    <g fill="none" fill-rule="evenodd">
        <path d="M502.515 263.527a23.738 23.738 0 0 1 3.124 0c1 .193 2.024.233 3.036.121 1.1-.143 4.092-2.431 6.523-4.576a26.488 26.488 0 0 0 6.193-8.382c1.276-3.388 3.234-10.384 4.147-12.727.913-2.343 2.123-2.783 3.586-2.992 1.716-.242 2.816.44 1.914 3.949-.902 3.509-2.871 10.23-5.28 14.553a33.957 33.957 0 0 1-6.996 8.547 38.896 38.896 0 0 1-7.931 5.28c-.814.451-1.309.99-2.772 2.035a11.242 11.242 0 0 1-4.895 2.046c-1.496.132-2.057-.055-2.2-.341-.143-.286.055-.671.726-.803a9.163 9.163 0 0 0 3.113-1.001s-1.463.385-2.354.528a8.8 8.8 0 0 1-2.42.088c-.77-.088-1.32-1.1-.638-1.265.682-.165 1.243-.099 2.563-.341a9.35 9.35 0 0 0 2.046-.627 17.6 17.6 0 0 1-2.695.121 3.773 3.773 0 0 1-2.057-.572c-.319-.198-.44-.88.418-.968a13.948 13.948 0 0 0 3.3-.22c1.1-.275 1.771-.616 1.595-.737-.176-.121-.803.077-1.727-.132-.924-.209-1.65-.935-1.496-1.43.154-.495.22-.22 1.177-.154z" fill="#FFCCB1" fill-rule="nonzero"/>
        <path d="M524.834 239.162c.583-1.936 1.034-2.849 2.2-3.663a3.685 3.685 0 0 1 2.2-.748l2.497 11-2.497 5.665c-3.927 1.001-7.194-3.168-7.194-3.168s2.255-7.348 2.794-9.086z" fill="#E8F9F9" fill-rule="nonzero"/>
        <path d="M537.99 321.838c.157.577.352 1.143.583 1.694a7.7 7.7 0 0 1 .627 2.662c0 .66-1.397 1.782-2.387 2.057a6.292 6.292 0 0 0-2.827 2.398 5.808 5.808 0 0 1-4.136 2.288c-1.43 0-3.047 0-3.476-.561-.429-.561 0-1.221 2.574-3.74s4.4-4.092 5.038-6.171l4.004-.627zM545.074 329.604c.616.983.876 2.148.737 3.3-.12 1.55-.042 3.11.231 4.642a8.569 8.569 0 0 1-1.485 5.17 2.2 2.2 0 0 1-3.784-.616 8.8 8.8 0 0 1-.374-5.5c.495-1.958-.165-3.454.165-4.763.183-.76.448-1.498.792-2.2l3.718-.033z" fill="#381E5E" fill-rule="nonzero"/>
        <path d="M545.074 275.517c-.066 2.2-.748 11.759-1.1 16.819-.352 5.06-.759 10.945-.759 10.945a55.198 55.198 0 0 1 1.815 8.327c.572 4.323 0 17.996 0 17.996a3.443 3.443 0 0 1-3.718 0s-2.574-12.045-3.652-16.973c-1.078-4.928-2.2-7.26-2.409-10.362-.209-3.102-1.309-20.295-1.309-20.295h-.583l-1.43 15.719a25.531 25.531 0 0 1 2.706 6.138c.792 3.091 3.3 17.974 3.3 17.974a3.19 3.19 0 0 1-3.982.627s-8.8-19.998-9.548-22c-.748-2.002.363-30.162.363-30.162l20.306 5.247z" fill="#4B32B7" fill-rule="nonzero"/>
        <path d="M533.986 281.974a29.557 29.557 0 0 1-5.786-2.838 9.746 9.746 0 0 0 3.465 2.849c.209 2.068.264 15.741.264 15.741l1.43-15.719.627-.033z" fill="#343F56" fill-rule="nonzero"/>
        <path d="M539.805 233.002s-.253 4.796-.143 5.225c.11.429 2.2 1.826 2.816 2.332.616.506-3.3 4.4-5.225 5.258-1.925.858-7.964-1.441-8.063-4.4-.099-2.959 1.034-5.5 1.958-5.599.924-.099 8.657-2.816 8.657-2.816z" fill="#FFCCB1" fill-rule="nonzero"/>
        <path d="m539.805 232.98-.143 3.3s-3.058 2.893-5.5 2.464c-1.353-.242-1.21-1.1-1.21-1.1v-2.783l6.853-1.881z" fill="#FFA88D" fill-rule="nonzero"/>
        <path d="M540.3 238.942s-3.476 5.181-8.338 5.676c-1.529-1.507-1.672-6.886.451-8.602 0 0-1.947-1.573-3.3-1.265a6.897 6.897 0 0 0-3.003 3.828 31.35 31.35 0 0 0-1.639 11.121c.077 5.093 0 20.636 0 20.636s.682 3.3 5.082 5.742c4.4 2.442 7.7 2.684 10.626 1.991 2.464-.583 4.488-1.441 5.335-3.223-.22-3.575-1.804-12.881-1.21-17.369.594-4.488 1.496-7.854 1.771-11.473.275-3.619-.473-3.553-2.299-4.851a28.017 28.017 0 0 0-3.476-2.211z" fill="#515DC6" fill-rule="nonzero"/>
        <path d="M532.006 244.618a29.7 29.7 0 0 1-.418-3.553c.22-1.346.679-2.642 1.353-3.828v-1.342c-.705.17-1.33.579-1.771 1.155a7.502 7.502 0 0 0-1.76 5.28 6.138 6.138 0 0 0 2.596 2.288z" fill="#E8F9F9" fill-rule="nonzero"/>
        <path d="M532.006 244.618c-.352-.693-1.023-2.992-1.353-3.3-.638-.22-1.243 1.1-1.243 1.1a3.3 3.3 0 0 0 .825 2.101c.508.41 1.22.45 1.771.099z" fill="#F4FAFA" fill-rule="nonzero"/>
        <path d="M530.653 241.285c.33.341 1.001 2.64 1.353 3.3a10.23 10.23 0 0 0-.726-1.1c-.363-.462-.803-1.353-1.87-1.177 0 .022.605-1.243 1.243-1.023z" fill="#C8DAD9" fill-rule="nonzero"/>
        <path d="M528.948 225.852c.572-3.718 3.3-6.545 7.095-6.325a7.403 7.403 0 0 1 6.985 7.799 7.315 7.315 0 0 1-3.223 5.676 7.59 7.59 0 0 1-.605 1.628c-1.364 1.595-5.5 2.574-6.6 2.398a3.509 3.509 0 0 1-3.058-2.497c-1.342-2.926-.913-6.831-.594-8.679z" fill="#FFCCB1" fill-rule="nonzero"/>
        <path d="M529.509 222.849a7.315 7.315 0 0 1 7.7-3.179 7.436 7.436 0 0 1 4.653 3.201c1.606.572 1.771 1.771 1.573 3.729a14.432 14.432 0 0 1-1.617 5.808c-.341.583-1.397.187-1.98.594.077-.253 2.013-3.146 0-3.784-.302.446-.45.98-.418 1.518 0 0-.979-.088-.759-1.254.055-.319.121-.616.165-.88a3.454 3.454 0 0 0-.561-2.574 2.981 2.981 0 0 1-.528-2.42 9.9 9.9 0 0 1-5.621.44 5.049 5.049 0 0 1-2.607-1.199z" fill="#533453" fill-rule="nonzero"/>
        <path d="M541.829 222.871s.462-1.463-1.43-2.893c-2.2-1.705-5.401-1.32-8.723 0-2.123.847-5.423-.198-4.785 2.2.935 3.575 7.832 3.883 10.835 1.386a7.843 7.843 0 0 1 4.103-.693z" fill="#533453" fill-rule="nonzero"/>
        <path d="M539.805 232.98s.176.396.891.429c1.342.066 2.904-2.409 1.804-4.136a1.749 1.749 0 0 0-2.706-.055l.011 3.762z" fill="#FFCCB1" fill-rule="nonzero"/>
        <path d="M539.64 237.27c-.088.737-3.993 3.641-4.928 4.015-.935.374-2.706 3.3-2.706 3.3a3.839 3.839 0 0 1 3.553 1.386s5.5-2.332 6.446-6.061c0 0-1.034-2.002-1.188-2.519-.154-.517-.572-1.1-1.1-1.1l-.077.979z" fill="#E8F9F9" fill-rule="nonzero"/>
        <path d="M535.559 246.004s-.407-2.86-1.001-3.124c-.594-.264-2.552 1.738-2.552 1.738a5.368 5.368 0 0 0 3.553 1.386z" fill="#F4FAFA" fill-rule="nonzero"/>
        <path d="M534.558 242.88c.594.264 1.001 3.124 1.001 3.124a11.869 11.869 0 0 0-2.035-1.573 3.718 3.718 0 0 0-1.518.187s1.947-2.002 2.552-1.738z" fill="#C8DAD9" fill-rule="nonzero"/>
        <path d="m114.4 351.835-51.821 29.92a6.292 6.292 0 0 1-5.654 0l-51.821-29.92a1.98 1.98 0 0 1-1.177-1.639c.024-.479.248-.925.616-1.232.17-.154.358-.287.561-.396l51.821-29.909a6.182 6.182 0 0 1 5.654 0l51.821 29.909c1.562.902 1.562 2.332 0 3.267z" fill="#E09B75" fill-rule="nonzero" opacity=".15" style="mix-blend-mode:multiply" transform="matrix(-1 0 0 1 548 0)"/>
        <path d="m433.6 317.163 51.821 29.909c.87.46 1.843.692 2.827.671.98.02 1.947-.208 2.816-.66l51.832-29.92a2.013 2.013 0 0 0 1.177-1.639 1.969 1.969 0 0 0-1.177-1.628l-8.228-4.796-43.593-25.168a6.248 6.248 0 0 0-5.654 0L433.6 313.896c-1.562.891-1.562 2.365 0 3.267z" fill="#DCEDFD" fill-rule="nonzero"/>
        <path d="M488.248 335.951v11.792c.98.02 1.947-.208 2.816-.66l51.832-29.92a2.013 2.013 0 0 0 1.177-1.639v-10.219a1.716 1.716 0 0 0-.616-1.232l-8.8 5.071-46.409 26.807zM488.248 335.951v11.792a5.852 5.852 0 0 1-2.816-.66l-51.832-29.92a1.991 1.991 0 0 1-1.177-1.639v-10.219c.024-.479.248-.925.616-1.232l8.8 5.071 46.409 26.807z" fill="#FFDAA4" fill-rule="nonzero"/>
        <path d="m433.6 306.9 51.821 29.92a6.292 6.292 0 0 0 5.654 0l51.821-29.92a1.98 1.98 0 0 0 1.177-1.639 1.716 1.716 0 0 0-.616-1.232 2.805 2.805 0 0 0-.561-.396l-51.821-29.909a6.182 6.182 0 0 0-5.654 0L433.6 303.677c-1.562.902-1.562 2.365 0 3.223z" fill="#FFE8D2" fill-rule="nonzero"/>
        <path d="M488.248 274.175a4.818 4.818 0 0 0-2.288.528l-51.821 29.909c-.462.275-.627.55-.627.704 0 .154.165.418.627.682l51.821 29.92a5.225 5.225 0 0 0 4.576 0l51.821-29.92c.385-.22.627-.484.627-.693a.671.671 0 0 0-.275-.429 1.727 1.727 0 0 0-.352-.264l-51.832-29.909a4.62 4.62 0 0 0-2.277-.528m0-1.1a5.665 5.665 0 0 1 2.827.682l51.821 29.92c.203.109.39.242.561.396.368.307.592.753.616 1.232a1.98 1.98 0 0 1-1.177 1.595l-51.821 29.92a6.292 6.292 0 0 1-5.654 0L433.6 306.9c-1.562-.902-1.562-2.365 0-3.3l51.821-29.832a5.665 5.665 0 0 1 2.827-.682v-.011z" fill="#FFF" fill-rule="nonzero"/>
        <path d="m490.129 280.874 40.447 23.353a1.1 1.1 0 0 1 0 2.2l-40.447 23.342a4.125 4.125 0 0 1-3.762 0l-40.447-23.364a1.1 1.1 0 0 1 0-2.2l40.48-23.331a4.125 4.125 0 0 1 3.729 0z" fill="#CC2206" fill-rule="nonzero"/>
        <path d="m445.92 304.227 40.48-23.353a3.872 3.872 0 0 1 1.881-.451v1.914l-42.031 24.255-.33-.187a1.1 1.1 0 0 1 0-2.178z" fill="#9E6B2D" fill-rule="nonzero"/>
        <path d="M59.752 280.423a3.872 3.872 0 0 0-1.881.451l-40.447 23.353a1.1 1.1 0 0 0 0 2.2l.33.187 41.998-24.255v-1.936z" fill="url(#a)" fill-rule="nonzero" opacity=".3" transform="matrix(-1 0 0 1 548 0)"/>
        <path fill="url(#b)" fill-rule="nonzero" d="m46.486 292.545 13.255 7.667.011-40.854-13.266-7.656z" transform="matrix(-1 0 0 1 548 0)"/>
        <path fill="url(#c)" fill-rule="nonzero" d="m59.741 300.212 13.277-7.667-.011-40.843-13.255 7.656z" transform="matrix(-1 0 0 1 548 0)"/>
        <path fill="#FFBE92" fill-rule="nonzero" d="m474.993 251.702 13.266-7.656 13.255 7.656-13.266 7.656z"/>
        <path d="M488.259 300.212a1.54 1.54 0 0 0 .407-1.276v-8.943l-.055-10.208-.11-10.208-.209-10.208-.198 10.208-.121 10.208v19.151c-.109.447-.003.919.286 1.276zM474.993 251.702c-.066.44.066.528.209.594l.418.242.825.473 1.661.946c1.1.616 2.2 1.254 3.3 1.859 2.2 1.21 4.488 2.42 6.787 3.553-2.123-1.43-4.29-2.772-6.468-4.114-1.1-.671-2.2-1.309-3.3-1.969l-1.65-.968-.825-.484-.418-.242c-.055-.099-.198-.165-.539.11z" fill="#FFF" fill-rule="nonzero"/>
        <path fill="url(#d)" fill-rule="nonzero" d="m68.596 305.305 13.266 7.667v-35.739l-13.266-7.656z" transform="matrix(-1 0 0 1 548 0)"/>
        <path fill="url(#d)" fill-rule="nonzero" d="m81.862 312.972 13.266-7.667-.011-35.728-13.255 7.656z" transform="matrix(-1 0 0 1 548 0)"/>
        <path fill="#FFBE92" fill-rule="nonzero" d="m452.883 269.577 13.255-7.667 13.266 7.667-13.266 7.656z"/>
        <path d="M466.149 312.972c.311-.276.464-.688.407-1.1v-16.709c-.066-5.951-.143-11.913-.319-17.864-.176 5.951-.253 11.913-.319 17.864l-.055 8.932v7.821c-.082.378.025.771.286 1.056zM452.883 269.577c-.066.429 0 .528.209.594l.418.231.825.473 1.661.946c1.1.616 2.2 1.254 3.3 1.859 2.2 1.221 4.488 2.431 6.787 3.553-2.123-1.43-4.29-2.772-6.468-4.103-1.1-.682-2.2-1.32-3.3-1.98l-1.65-.968-.836-.484-.407-.242c-.022-.088-.198-.154-.539.121z" fill="#FFF" fill-rule="nonzero"/>
        <path fill="url(#e)" fill-rule="nonzero" d="m24.376 305.305 13.255 7.667.011-40.843-13.266-7.656z" transform="matrix(-1 0 0 1 548 0)"/>
        <path fill="url(#e)" fill-rule="nonzero" d="m37.631 312.972 13.266-7.656v-40.843l-13.255 7.656z" transform="matrix(-1 0 0 1 548 0)"/>
        <path fill="#FFBE92" fill-rule="nonzero" d="m497.103 264.473 13.266-7.667 13.255 7.667-13.266 7.656z"/>
        <path d="M510.369 312.972c.328-.338.478-.81.407-1.276v-8.932l-.066-10.219-.11-10.208-.209-10.208-.198 10.208-.11 10.208v19.151c-.109.447-.003.919.286 1.276zM497.103 264.473c-.066.429.066.528.209.583l.418.242.825.473 1.672.946c1.1.616 2.2 1.254 3.3 1.859 2.2 1.21 4.499 2.42 6.787 3.553-2.123-1.43-4.29-2.772-6.468-4.103-1.1-.682-2.2-1.32-3.3-1.98l-1.65-.968-.825-.484-.418-.242c-.066-.088-.253-.165-.55.121z" fill="#FFF" fill-rule="nonzero"/>
        <path fill="url(#f)" fill-rule="nonzero" d="m46.486 318.076 13.266 7.656v-30.635l-13.266-7.656zM59.752 325.732l13.266-7.656v-30.635l-13.266 7.656z" transform="matrix(-1 0 0 1 548 0)"/>
        <path fill="#FFBE92" fill-rule="nonzero" d="m474.982 287.441 13.266-7.656 13.266 7.656-13.266 7.656z"/>
        <path d="M488.248 325.732a.957.957 0 0 0 .407-.957v-6.699c0-2.552 0-5.104-.055-7.7-.066-5.104-.143-10.219-.319-15.323-.176 5.104-.253 10.219-.319 15.323V324.775a.957.957 0 0 0 .286.957zM474.982 287.441c-.066.44.066.528.22.594l.407.231.836.484 1.661.946c1.1.616 2.2 1.254 3.3 1.848 2.2 1.221 4.488 2.431 6.787 3.553-2.123-1.419-4.301-2.772-6.468-4.103-1.1-.671-2.2-1.32-3.3-1.98l-1.661-.957-.825-.484-.407-.242c-.055-.099-.198-.165-.55.11z" fill="#FFF" fill-rule="nonzero"/>
        <path d="M62.579 229.647c-.85.51-1.838.744-2.827.671v99.88a4.4 4.4 0 0 0 1.892-.451l40.106-23.166c.748-.407 1.1-.77 1.1-1.276v-98.901l-40.271 23.243z" fill="url(#g)" fill-rule="nonzero" opacity=".3" transform="matrix(-1 0 0 1 548 0)"/>
        <path d="M59.697 230.318h-.704a6.787 6.787 0 0 1-.682-.11l-.429-.132-.253-.077a5.126 5.126 0 0 1-.66-.308l-40.337-23.298v98.912c.044.48.342.9.781 1.1l40.447 23.342c.57.285 1.2.436 1.837.44v-99.88.011z" fill="url(#h)" fill-rule="nonzero" opacity=".5" transform="matrix(-1 0 0 1 548 0)"/>
        <path d="M520.126 273.031a24.2 24.2 0 0 1 3.135-.198 5.731 5.731 0 0 0 2.717-.231c1.1-.374 3.784-2.585 6.05-4.906a31.9 31.9 0 0 0 5.797-9.086c1.529-4.059 2.816-10.175 3.564-12.584.748-2.409 1.903-2.926 3.311-3.245 1.694-.363 3.157.891 2.519 4.466a67.1 67.1 0 0 1-4.499 14.223 33.572 33.572 0 0 1-6.347 9.042 39.358 39.358 0 0 1-7.535 5.841c-.781.506-1.232 1.1-2.618 2.2a11.088 11.088 0 0 1-4.73 2.387c-1.485.242-2.057.099-2.2-.176-.143-.275 0-.671.671-.858a9.218 9.218 0 0 0 3.036-1.221s-1.441.484-2.321.704a9.57 9.57 0 0 1-2.398.264c-.781 0-1.397-1.023-.737-1.232.66-.209 1.232-.187 2.541-.517a9.108 9.108 0 0 0 1.991-.77 17.71 17.71 0 0 1-2.684.308 3.674 3.674 0 0 1-2.09-.418c-.33-.176-.506-.847.352-1.001a13.497 13.497 0 0 0 3.234-.451c1.045-.352 1.727-.737 1.54-.847-.187-.11-.792.132-1.738 0s-1.705-.814-1.584-1.309.066-.385 1.023-.385z" fill="#FFCCB1" fill-rule="nonzero"/>
        <path d="M545.8 242.594c1.782.748 2.64 2.684 1.936 6.193-.704 3.509-2.2 8.8-2.2 8.8a11 11 0 0 1-6.787-2.75s1.65-7.546 2.299-9.493 2.398-3.751 4.752-2.75z" fill="#E8F9F9" fill-rule="nonzero"/>
        <path d="m59.6 365.2 85.162 49.159 2.915 1.683 3.476-2.002c.445-.298.726-.786.759-1.32v-70.95c-.01-.304-.102-.6-.264-.858a1.793 1.793 0 0 0-.616-.66L64.66 290.4a1.683 1.683 0 0 0-1.518 0l-3.465 2.002L59.6 365.2z" fill="#372172" fill-rule="nonzero"/>
        <path d="M144.817 344.894v69.41l2.915 1.683 3.476-2.002c.445-.298.726-.786.759-1.32V341.77c-.01-.304-.102-.6-.264-.858l-6.886 3.982z" fill="#05215E" fill-rule="nonzero"/>
        <path d="m401.896 341.506 84.832-48.972c1.265-.737 2.288-.143 2.288 1.32v69.047a5.071 5.071 0 0 1-2.288 3.96L401.896 415.8c-1.265.737-2.288.143-2.288-1.32v-69.014a5.049 5.049 0 0 1 2.288-3.96z" fill="url(#i)" fill-rule="nonzero" transform="matrix(-1 0 0 1 548 0)"/>
        <path d="m131.76 341.506-84.832-48.972c-1.265-.737-2.288-.143-2.288 1.32v69.047a5.071 5.071 0 0 0 2.288 3.96L131.76 415.8c1.265.737 2.288.143 2.288-1.32v-69.014a5.049 5.049 0 0 0-2.288-3.96z" fill="#FFDCD2" fill-rule="nonzero" opacity=".2"/>
        <path d="m131.76 341.506-84.832-48.972c-1.265-.737-2.288-.143-2.288 1.32v69.047a5.071 5.071 0 0 0 2.288 3.96L131.76 415.8c1.265.737 2.288.143 2.288-1.32v-69.014a5.049 5.049 0 0 0-2.288-3.96z" stroke="#FFF1EE" stroke-width=".88"/>
        <path d="m114.446 352.132-.671-.385a5.181 5.181 0 0 0-5.566 0c-.836.561-2.937 1.694-2.937 1.694l-1.1 6.325a5.126 5.126 0 0 1-7.579 2.662h-.055a12.947 12.947 0 0 1-5.775-9.229l-2.717-22.363a12.694 12.694 0 0 0-5.5-9.097 4.785 4.785 0 0 0-4.697-.176c-1.1.572-3.542 2.046-3.542 2.046l-2.387 13.442c-1.177 3.19-4.246 4.565-6.853 3.058a3.839 3.839 0 0 0-4.147 0c-.99.627-2.948 1.727-2.948 1.727l-2.486 13.376 64.372 41.294 3.542-2.068-3.014-33.088a13.288 13.288 0 0 0-5.94-9.218z" fill="#FFF" fill-rule="nonzero" opacity=".5"/>
        <path d="m437.129 354.2.671-.374a5.038 5.038 0 0 1 7.491 2.475l2.145 5.566a5.137 5.137 0 0 0 7.579 2.662h.055a12.969 12.969 0 0 0 5.83-9.229l2.717-22.363a12.1 12.1 0 0 1 5.5-9.097 4.917 4.917 0 0 1 7.249 2.827l3.377 12.485c1.177 3.19 4.246 4.554 6.853 3.047 2.607-1.507 5.445-.055 6.336 3.223l3.245 11.891-67.947 39.237 2.97-33.143a13.409 13.409 0 0 1 5.929-9.207z" fill="url(#j)" fill-rule="nonzero" transform="matrix(-1 0 0 1 548 0)"/>
        <path d="M428.758 343.717c0 .704.638.913 1.419.462l12.639-7.293a2.849 2.849 0 0 0 1.419-2.101c0-.704-.638-.913-1.419-.462l-12.639 7.304a2.838 2.838 0 0 0-1.419 2.09z" fill="url(#k)" fill-rule="nonzero" transform="matrix(-1 0 0 1 548 0)"/>
        <path d="M428.758 348.887c0 .704.638.913 1.419.462l12.639-7.249a2.838 2.838 0 0 0 1.419-2.09c0-.704-.638-.913-1.419-.462l-12.639 7.304a2.838 2.838 0 0 0-1.419 2.035z" fill="url(#l)" fill-rule="nonzero" transform="matrix(-1 0 0 1 548 0)"/>
        <path d="m37.996 442.013 30.162 16.61a1.529 1.529 0 0 0 1.474 0l30.019-16.5a1.518 1.518 0 0 0 0-2.673l-31.9-16.907a1.518 1.518 0 0 0-1.485 0l-28.248 16.819a1.518 1.518 0 0 0-.022 2.651z" fill="#5E58AC" fill-rule="nonzero"/>
        <path fill="#726FD5" fill-rule="nonzero" d="M37.215 431.013v4.939l7.535-2.079zM100.421 431.013v4.939l-7.546-2.079z"/>
        <path fill="#5E58AC" fill-rule="nonzero" d="M37.215 435.798v4.95l7.535-2.079zM100.421 435.798v4.95l-7.546-2.079z"/>
        <path d="m38.018 437.25 30.129 16.599a1.551 1.551 0 0 0 1.485 0l29.986-16.5a1.529 1.529 0 0 0 0-2.706l-31.9-16.874a1.562 1.562 0 0 0-1.507 0l-28.215 16.808a1.54 1.54 0 0 0 .022 2.673z" fill="#726FD5" fill-rule="nonzero"/>
        <path d="m38.007 432.3 30.151 16.61a1.529 1.529 0 0 0 1.474 0l30.008-16.5a1.518 1.518 0 0 0 0-2.684l-31.9-16.896a1.54 1.54 0 0 0-1.496 0l-28.237 16.819a1.529 1.529 0 0 0 0 2.651z" fill="#6F6DF2" fill-rule="nonzero"/>
        <path d="M56.058 356.62c-.198 1.65-2.2 8.8-1.738 11.231.462 2.431 7.161 6.523 7.161 6.523l.935-4.18-3.74-3.652 1.012-6.93-3.63-2.992z" fill="#FFCCB1" fill-rule="nonzero"/>
        <path d="M61.272 348.601a2.937 2.937 0 0 0-3.751 1.1c-1.001 1.639-2.024 7.271-2.123 8.239a3.96 3.96 0 0 0 3.476 1.595l2.398-10.934z" fill="#E3F1F1" fill-rule="nonzero"/>
        <path d="M60.326 424.413a14.113 14.113 0 0 1-.297 1.65c-.176.715-.209 1.65.594 1.914a1.958 1.958 0 0 0 2.2-.528 14.883 14.883 0 0 1 1.914-2.794 6.6 6.6 0 0 0 2.321-3.014c.297-1.166.11-1.903-.693-2.013a5.863 5.863 0 0 0-3.41 1.298 30.184 30.184 0 0 0-2.629 3.487zM69.5 427.79s-.055.924-.11 1.661a7.282 7.282 0 0 0-.088 2.464c.242.539 1.452.946 2.882.935a6.952 6.952 0 0 1 3.3 1.254 5.269 5.269 0 0 0 4.224.726c1.221-.385 2.585-.957 2.794-1.518.209-.561-.44-.847-3.432-2.2-2.992-1.353-5.203-2.321-6.369-3.905l-3.201.583z" fill="#381E5E" fill-rule="nonzero"/>
        <path d="M59.6 408.496c.25-2.118.692-4.21 1.32-6.248 0 0-.396-5.39-.594-10.505-.22-5.797-2.2-10.901-.649-15.532l17.897 3.982s-1.1 23.1-1.32 25.927a51.403 51.403 0 0 1-.803 6.49c-.814 4.488-2.2 15.169-2.2 15.169a3.96 3.96 0 0 1-3.762 0s-.473-13.024-.352-16.258c.143-3.949.264-3.652.264-3.652l-.583-9.834-.396-4.895s-.495 3.586-.814 6.798c-.275 2.794-.957 5.324-1.705 10.538-.66 4.51-2.365 13.816-2.365 13.816a3.047 3.047 0 0 1-3.3.11s-1.144-11.99-.638-15.906z" fill="#4B32B7" fill-rule="nonzero"/>
        <path d="M68.477 393.151s-.495 3.586-.814 6.798c-.132 1.353-.363 2.64-.649 4.191 0 0 .253-5.973.165-8.8-.088-2.827-.385-5.885-.385-5.885-3.762-1.595-4.543-3.883-4.543-3.883a15.587 15.587 0 0 0 5.742 3.113l.484 4.466z" fill="#4B32B7" fill-rule="nonzero"/>
        <path d="M62.218 348.7c1.364.066 2.376.418 2.541 0a15.74 15.74 0 0 0 .319-2.134c-.165-.385-.297-.814-.297-.814a6.688 6.688 0 0 1 2.816-12.353c3.454-.352 6.006 2.079 6.688 5.412.631 2.59.586 5.298-.132 7.865-.55 1.518-1.023 2.2-1.738 2.42-.681.049-1.365.049-2.046 0 0 0-.176 1.023-.308 1.672s-.077 1.012 1.232 1.815c1.309.803-1.98 2.453-4.125 2.299-2.145-.154-4.554-1.463-5.214-2.849-.66-1.386-.671-3.333.264-3.333z" fill="#FFCCB1" fill-rule="nonzero"/>
        <path d="M71.293 352.572a.429.429 0 0 1 .11.088l-1.87.638-5.5-.847-1.287-3.3.121-.396c1.045.11 1.782.308 1.925 0 .144-.607.24-1.225.286-1.848.99.176 2.2.385 2.453.396.506 0 2.277-2.585 2.277-2.585a20.9 20.9 0 0 0 .484 2.783 4.059 4.059 0 0 0 2.442 1.529l-.286.121c-.681.049-1.365.049-2.046 0 0 0-.176 1.023-.308 1.672s-.11.946 1.199 1.749z" fill="#FFA88D" fill-rule="nonzero"/>
        <path d="M61.58 336.6c.165-.803.726-1.837 5.038-3.047 4.125-1.155 7.348-1.639 8.129-1.1.781.539.99 4.609-2.893 6.534-.177.34-.268.717-.264 1.1.033.605.033 1.21 0 1.815a1.21 1.21 0 0 1-1.1 1.045v-1.727a1.265 1.265 0 0 0-2.277.11 2.926 2.926 0 0 0 .132 2.739c.451.858 1.21.924 1.474.616a5.401 5.401 0 0 1-1.276 3.663 3.993 3.993 0 0 1-3.531-.77 19.58 19.58 0 0 0-1.309-2.266 10.835 10.835 0 0 1-2.079-4.147 9.977 9.977 0 0 1-.044-4.565z" fill="#533453" fill-rule="nonzero"/>
        <path d="M64.187 348.898c-.374.946.583 2.09 3.146 2.904 2.563.814 2.783-.231 2.783-.231a49.214 49.214 0 0 1 4.983 2.563c1.529 1.1 2.2 4.18 2.42 9.427.242 6.072.264 15.081 0 16.632a9.306 9.306 0 0 1-6.545 2.563c-3.674-.308-9.9-3.553-11.352-6.072 0-5.324.66-6.182-.198-9.251-1.969-7.029-3.014-9.9-2.057-14.564.792-3.85 1.903-4.323 3.421-4.29a33.22 33.22 0 0 1 3.399.319z" fill="#F4FAFA" fill-rule="nonzero"/>
        <path d="M64.847 348.381a7.271 7.271 0 0 0 5.247 2.2c.55-.088.858.979 1.177 1.507 0 0-1.298 1.1-4.158.33-2.86-.77-3.883-2.838-3.63-3.63 0 .011.913-.979 1.364-.407z" fill="#E3F1F1" fill-rule="nonzero"/>
        <path d="M83.294 369.6c-3.014.759-3.718-1.1-4.114-2.717-.968-3.817-1.485-7.26-2.2-9.416-.836-2.552-1.716-2.959-2.959-3.465-1.452-.583-2.706.649-2.2 3.905a64.46 64.46 0 0 0 2.761 11.077 9.9 9.9 0 0 0 2.475 4.323c1.562 1.254 3.905 1.199 7.447.319a39.908 39.908 0 0 0 6.028-2.618c.77-.352 1.364-.594 2.838-1.276a10.186 10.186 0 0 0 3.784-2.959c.77-1.1.869-1.639.715-1.892-.154-.253-.55-.253-.957.22a8.272 8.272 0 0 1-2.2 2.002s.957-.979 1.474-1.617c.448-.572.818-1.2 1.1-1.87.264-.649-.297-1.529-.715-1.1-.418.429-.638.935-1.419 1.87-.407.502-.876.95-1.397 1.331.483-.654.914-1.345 1.287-2.068a3.421 3.421 0 0 0 .473-1.87c0-.341-.506-.748-.957-.099a12.452 12.452 0 0 1-1.617 2.475c-.693.715-1.276 1.1-1.287.924-.011-.176.418-.594.66-1.419.242-.825 0-1.716-.462-1.815-.462-.099-.374-.066-.737.715a20.9 20.9 0 0 0-1.375 2.486 4.983 4.983 0 0 1-1.243 2.134c-.693.792-2.332 1.661-5.203 2.42z" fill="#FFCCB1" fill-rule="nonzero"/>
        <path d="M72.899 353.452c2.024-.297 3.443.616 4.334 3.663.891 3.047 1.507 5.555 1.507 5.555a5.5 5.5 0 0 1-3.377 2.2c-2.409.583-3.3-.572-3.3-.572s-.671-3.201-1.1-5.379c-.429-2.178-.55-5.093 1.936-5.467z" fill="#E3F1F1" fill-rule="nonzero"/>
        <path fill="url(#m)" fill-rule="nonzero" d="m478.973 461.076 37.411 22.627 26.235-16.951-35.013-20.878" transform="matrix(-1 0 0 1 548 0)"/>
        <path fill="url(#n)" fill-rule="nonzero" d="m397.584 269.951 103.708 72.919 46.706-32.505-96.107-66.132" transform="matrix(-1 0 0 1 548 0)"/>
        <path fill="url(#o)" fill-rule="nonzero" d="m232.694 352.847 103.708 72.93 46.706-32.516-96.107-66.132" transform="matrix(-1 0 0 1 548 0)"/>
        <path d="M255.554 293.953s1.177 2.442 3.421 6.391a183.528 183.528 0 0 0 5.313 8.712c11.77 18.15 34.771 46.398 64.713 48.323 19.58 1.265 36.465-4.73 48.609-17.6 15.4-16.236 23.1-43.395 19.107-80.674-7.106-66.286-75.79-127.875-123.453-105.875l-1.012.473-.242 11.814-.242 12.1 22 25.3s50.061-12.023 63.426 50.248c5.951 40.909 0 58.795-10.406 63.8-19.019 9.108-53.02-24.728-57.31-40.139l-10.681 15.499-23.243 1.628z" fill="#FF5B22" fill-rule="nonzero"/>
        <path d="M110.2 122.1c.209-2.2.374-3.52.374-3.52l-6.677 5.907-6.017 5.335-3.399 3.003-4.037-3.597-10.384-9.284-24.057 5.214a.473.473 0 0 1 0 .187 25.3 25.3 0 0 0-.891 5.995l10.802-2.563 4.235-1.001L94.503 151.8l15.598-7.271c0-.418-.066-.803-.077-1.199-.011-.396 0-.825-.077-1.21-.367-6.671-.283-13.36.253-20.02z" fill="#FF4620" fill-rule="nonzero"/>
        <path d="m65.76 136.51-10.186 3.179c.33 24.728 18.051 77.935 75.526 113.443 23.1 12.914 53.68 6.534 81.29-5.137a272.51 272.51 0 0 0 15.015-6.974l3.905 7.579 18.7 36.564h19.382l2.2-1.98 10.659-15.499s-9.13-16.5-20.966-38.335c-1.1-1.958 3.553-7.227 10.307-7.7-6.16-.253-7.183-2.541-4.4-4.4 3.685-2.552 6.798-4.785 9.229-6.6 3.773-2.783 5.874-4.477 5.874-4.477l-19.547-19.547-1.364-5.632-1.155-4.697-5.28-13.673a94.369 94.369 0 0 1-6.93 11.088c-2.42 3.432-5.555 7.546-9.449 12.1-.429-.836-.869-1.672-1.298-2.519-12.287-23.672-26.18-50.853-28.16-58.223l-10.659 15.477-11.396 2.761-9.163.594 2.2 4.29 5.126 10.01 20.031 39.237a145.981 145.981 0 0 1-15.026 6.985c-20.13 7.942-41.03 9.977-57.2-3.058-13.981-13.31-19.8-32.197-22-48.576l-14.872 6.369-26.708-23.848-3.685 1.199z" fill="#FF5B22" fill-rule="nonzero"/>
        <path d="m57.829 117.205 20.757-4.928 20.02 18.139s3.3-.979 5.071-5.401c3.3-8.085 10.373-19.8 24.255-21.329 21.461-2.376 43.868 29.095 43.868 29.095h20.977l8.591-15.73s-30.998-62.469-81.554-63.426C94.8 53.141 77.629 68.86 69.819 84.359a170.984 170.984 0 0 0-11.99 32.846z" fill="#FF5B22" fill-rule="nonzero"/>
        <path d="M261.593 169.246s5.049-12.397 10.659-15.499c7.986-4.059 4.928 14.784 4.928 14.784l-15.587.715z" fill="#FF4620" fill-rule="nonzero"/>
        <path d="M261.593 169.246s1.419-10.648 10.659-15.499c7.986-4.059 4.928 14.784 4.928 14.784M244.895 309.441l11.561-15.84 10.604 15.84-5.896 3.113zM167.158 159.478l12.584-14.949 10.252 16.687z" fill="#FF5B22" fill-rule="nonzero"/>
        <path fill="#FF4620" fill-rule="nonzero" d="m271.603 221.705 8.349-14.795-16.687-3.014-3.014 13.992z"/>
        <path d="m460.625 111.859-1.782 10.01-1.309 7.315-4.037 22.616-15.598-7.271c0-.418.066-.803.077-1.199.011-.396 0-.825.077-1.21a33.781 33.781 0 0 0-7.491-22.627 30.041 30.041 0 0 0-6.6-6.204l12.947-.517 23.716-.913z" fill="url(#p)" fill-rule="nonzero" transform="matrix(-1 0 0 1 548 0)"/>
        <path d="M303.105 309.441s-29.084 60.566-73.425 63.459c-26.257 1.694-47.674-9.658-59.29-33-7.997-16.115-11.352-37.961-8.426-65.197 6.6-62.029 67.221-119.9 114.026-109.065 3.604.818 7.1 2.055 10.417 3.685l.143 6.446v.055l.341 17.336-15.279 17.6-6.6 7.7s-50.083-12.012-63.426 50.27c-3.3 22.506-2.959 38.038-.275 48.29 11.088 42.394 62.645-5.5 67.991-24.64l14.41 16.72.33.385 19.063-.044z" fill="url(#q)" fill-rule="nonzero" transform="matrix(-1 0 0 1 548 0)"/>
        <path d="m380.842 159.5-23.001 45.023-4.345 8.492-17.886 34.98-4.4 8.503-22.583 44.209H289.3l-.253-.363-4.719-6.391-7.909-10.725s.099-.209.33-.583a5119.56 5119.56 0 0 0 23.914-43.802c7.59-14.08 15.994-29.832 23.683-44.66 11.627-22.407 21.626-42.636 24.684-51.59.231-.737.44-1.386.594-1.969l1.1 2.09 8.393 15.323 3.707.242 18.018 1.221z" fill="url(#r)" fill-rule="nonzero" transform="matrix(-1 0 0 1 548 0)"/>
        <path d="M427.57 268.631c-27.368 15.312-65.285 3.487-96.305-12.1-5.071-2.563-9.9-5.214-14.575-7.854-5.808-3.3-11.209-6.666-16.038-9.801a356.726 356.726 0 0 1-13.948-9.449c-6.512-4.642-10.307-7.7-10.307-7.7l19.569-19.558 3.3-29.084s.242.242.715.682c1.496 1.452 5.291 5.005 10.747 9.603a293.565 293.565 0 0 0 13.552 10.813 229.471 229.471 0 0 0 29.161 18.81c24.288 12.969 51.964 20.273 72.16 3.927 30.063-28.6 26.235-57.684 26.235-57.684l26.708-23.848 3.641 1.1 10.186 3.179s10.538 82.423-64.801 128.964z" fill="url(#s)" fill-rule="nonzero" transform="matrix(-1 0 0 1 548 0)"/>
        <path d="m492.921 131.329-10.802-2.563-4.235-1.001-24.387 24.035s.55-9.647-3.058-16.28a40.975 40.975 0 0 0-3.3-5.104 30.8 30.8 0 0 0-5.071-5.401 26.081 26.081 0 0 0-4.268-2.915 25.047 25.047 0 0 0-7.216-2.563 17.6 17.6 0 0 0-2.024-.308c-21.461-2.398-43.857 29.084-43.857 29.084h-21.032l-2.673-4.884-5.775-10.604-.132-.253s31.009-62.513 81.543-63.47c16.269-.308 27.896 6.05 36.19 14.784 9.504 10.01 14.63 23.188 17.303 33.11l.055.209c.803 3.025 1.397 5.72 1.815 7.942a.473.473 0 0 0 0 .187c.715 3.707.924 5.995.924 5.995z" fill="url(#t)" fill-rule="nonzero" transform="matrix(-1 0 0 1 548 0)"/>
        <path d="m96.109 159.236 14.872-6.369"/>
        <path d="M127.184 112.981s1.584 3.3-.803 4.323c-2.387 1.023-2.387-.572-6.809 3.058-4.422 3.63-8.338 2.002-9.064 1.364-1.221-1.1-.506-4.18 9.328-9.163l7.348.418z" fill="#5FB1FB" fill-rule="nonzero"/>
        <path d="M126.381 117.304c-2.387 1.012-2.387-.572-6.809 3.058-4.422 3.63-8.426 2.101-9.064 1.364-.077-.088-.33-.253-.33-.462 4.125 1.452 6.6-.572 8.371-1.98a13.695 13.695 0 0 1 6.281-2.607c2.838-.616 1.815-2.805 1.815-2.805.218-.176.49-.273.77-.275.319 1.001.704 3.003-1.034 3.707zM113.28 103.158s1.595 3.3-.792 4.312c-2.387 1.012-2.387-.561-6.809 3.069-4.422 3.63-8.437 2.112-9.064 1.364-.484-.539-.528-4.169 9.317-9.163l7.348.418z" fill="#381E5E" fill-rule="nonzero"/>
        <path d="M112.477 107.47c-2.376 1.023-2.376-.561-6.798 3.069-4.422 3.63-8.437 2.112-9.064 1.364a.605.605 0 0 1-.154-.44c4.147 1.463 6.38-.594 8.195-1.98a13.585 13.585 0 0 1 6.292-2.629c2.838-.616 1.793-2.805 1.793-2.805.22-.181.496-.282.781-.286.341 1.012.704 2.937-1.045 3.707z" fill="#4395FB" fill-rule="nonzero"/>
        <path d="M134.213 59.873s-4.708-.693-7.282-3.443c0 0-17.941 12.441-19.426 16.5-1.408 3.806-3.487 22.462-3.355 30.481 0 2.563 9.647 4.4 10.23.759 1.023-6.6 1.837-25.179 1.837-25.179s21.362-7.678 17.996-19.118z" fill="#4B32B7" fill-rule="nonzero"/>
        <path d="M149.943 58.663s2.585 8.998-3.982 14.036S127.8 84.7 127.8 84.7c.442 5.514.578 11.048.407 16.577-.209 9.515 0 9.251-.407 12.584-.297 2.387-9.603 3.19-10.065-1.1-.924-8.635-.693-30.569 1.1-34.54 1.793-3.971 14.553-12.804 14.553-12.804l-2.035-6.182s12.034 3.069 18.59-.572z" fill="#282528" fill-rule="nonzero"/>
        <path d="M149.943 58.663s2.585 8.998-3.982 14.036S127.8 84.7 127.8 84.7c.442 5.514.578 11.048.407 16.577-.209 9.515 0 9.251-.407 12.584-.297 2.387-9.603 3.19-10.065-1.1-.924-8.635-.693-30.569 1.1-34.54 1.793-3.971 14.553-12.804 14.553-12.804l-2.035-6.182s12.034 3.069 18.59-.572z" fill="#4B32B7" fill-rule="nonzero"/>
        <path d="M108.517 40.304a6.831 6.831 0 0 0-3.146-.968 6.226 6.226 0 0 0-4.037.77c-1.276.484-2.2.979-1.936 1.617.264.638 3.146 1.694 4.884 1.276 1.1-.275 3.784 1.221 4.4 1.221.616 0 .506-3.52-.165-3.916z" fill="#FCA986" fill-rule="nonzero"/>
        <path d="M108.682 44.22c-.616 0-3.3-1.496-4.4-1.221a6.996 6.996 0 0 1-4.125-.682v-.077c.275-.363 1.199-.11 1.793-.264.594-.154 2.409 0 3.575-.231 1.166-.231 3.3 1.1 3.3 1.1l.198.143c.077.682-.099 1.232-.341 1.232z" fill="#EF9B7C" fill-rule="nonzero"/>
        <path d="M135.302 21.516s-3.509-4.521-7.007.495c-2.266 3.3-6.061 16.214-7.513 17.325-.715.539-12.738.088-12.738.088s1.815 1.771-.539 5.214c0 0 15.653 4.972 18.216 1.76 4.411-5.511 11.792-19.415 9.581-24.882z" fill="#E3F1F1" fill-rule="nonzero"/>
        <path d="M128.9 47.894c0-.407.088-.935.11-1.551v-.066c.066-1.892.231-3.751-1.87-8.36a16.071 16.071 0 0 1-.55-10.516 13.2 13.2 0 0 1 4.092-8.8c1.914-1.43 18.7 5.577 19.195 5.896 6.215 4.477-2.2 13.068 0 28.039 1.188 7.876.66 8.327.66 8.327-11.616 5.687-24.2-4.136-24.2-4.136a11 11 0 0 0 .682-1.177 54.12 54.12 0 0 0 1.881-7.656z" fill="#FFE8FC" fill-rule="nonzero"/>
        <path d="M128.9 47.894c0-.407.088-.935.11-1.551v-.066c.066-1.892.231-3.751-1.87-8.36a16.071 16.071 0 0 1-.55-10.516 13.2 13.2 0 0 1 4.092-8.8c1.914-1.43 18.7 5.577 19.195 5.896 6.215 4.477-2.2 13.068 0 28.039 1.188 7.876.66 8.327.66 8.327-11.616 5.687-24.2-4.136-24.2-4.136a11 11 0 0 0 .682-1.177 54.12 54.12 0 0 0 1.881-7.656z" fill="#F4FAFA" fill-rule="nonzero"/>
        <path d="M134.4 16.742s.902 4.081 0 6.248 2.376 2.849 3.927 2.299c1.551-.55 4.037-1.606 3.707-3.003-.33-1.397-1.727-5.918-.825-7.546.902-1.628-6.809 2.002-6.809 2.002z" fill="#F49E7F" fill-rule="nonzero"/>
        <path d="M142.287 4.125s4.697 4.653 3.421 9.559c-.704 2.717-3.806 4.488-5.588 5.863s-6.248 4.554-8.074 1.309c-1.826-3.245-4.015-12.573 0-16.731 4.015-4.158 10.241 0 10.241 0z" fill="#FFCCB1" fill-rule="nonzero"/>
        <path d="M132.024 6.149s.55 3.234 6.71 4.169c1.749.264 1.43 5.61 2.805 4.257.517-.517 1.892-1.529 2.057-.748.77 3.663-4.51 4.763-3.652 7.183 1.309 3.74 11.913 8.888 8.239-12.804-.88-5.104-4.026-8.734-11.374-8.14-5.753.462-8.206 5.5-6.149 6.16.33.099.132-.22 1.364-.077z" fill="#3A2528" fill-rule="nonzero"/>
        <path d="M137.326 55.682a6.853 6.853 0 0 0-3.3.825 6.6 6.6 0 0 0-3.201 2.893c-.847 1.1-1.397 2.046-.825 2.486.572.44 3.707-.176 5.005-1.507.825-.814 4.004-.946 4.565-1.265.561-.319-1.463-3.465-2.244-3.432z" fill="#FCA986" fill-rule="nonzero"/>
        <path d="M139.57 59.092c-.561.319-3.74.451-4.565 1.265a7.029 7.029 0 0 1-4.004 1.617.132.132 0 0 1 0-.099c0-.462 1.001-.726 1.452-1.166.451-.44 2.09-1.309 3.047-2.145.957-.836 3.542-.814 3.542-.814h.264c.308.638.484 1.199.264 1.342z" fill="#FFCCB1" fill-rule="nonzero"/>
        <path d="M149.525 24.387c-1.1-.649-3.586-1.188-4.125 2.915-.539 4.103 3.795 19.184 3.091 20.966-.341.858-12.1 6.875-12.1 6.875s2.552.605 2.31 4.95c0 0 16.5-3.982 17.072-8.261 1.001-7.304-.869-24.486-6.248-27.445z" fill="#E3F1F1" fill-rule="nonzero"/>
        <path d="M127.8 113.905c.374-3.3.198-3.069.407-12.584.172-5.544.036-11.092-.407-16.621 0 0 11.583-7.018 18.15-12.1a11.726 11.726 0 0 0 4.466-8.8c-2.398 5.918-16.984 16.038-21.604 17.479-5.885 1.848-2.75 9.053-2.882 10.637-.088 1.287.352 17.16.528 23.276.77-.319 1.276-.792 1.342-1.287z" fill="#332787" fill-rule="nonzero"/>
        <g opacity=".8" fill-rule="nonzero">
            <path fill="#FFE0B3" d="m105.195 35.629-.088 26.829 14.201 8.195.077-26.829zM78.52 29.018l-.022 9.68 22.44 12.947.044-9.658z"/>
            <path d="m122.234 42.328-45.683-26.4-.077 32.472 45.672 26.4.088-32.472zm-17.116 20.13.077-26.829 14.19 8.195-.077 26.829-14.19-8.195zm-26.62-23.76v-9.68l22.484 12.969v9.658l-22.44-12.947h-.044zm0-12.21v-6.237l22.44 12.958v6.248L78.487 26.488h.011zm0 20.592v-6.039l22.44 12.969v6.028L78.498 47.08z" fill="#FFF"/>
            <path fill="#FFE0B3" d="M78.487 41.041v6.039l22.44 12.958.011-6.028zM78.553 20.251l-.022 6.237 22.451 12.969.011-6.248z"/>
            <path fill="#729DD7" d="m76.562 12.738-.011 3.223 45.683 26.367v-3.223z"/>
        </g>
        <path d="M119.902 39.105c-.473-.286-.858-.066-.858.484.04.599.357 1.144.858 1.474.473.264.858 0 .858-.484a1.859 1.859 0 0 0-.858-1.474z" fill="#56FF08" fill-rule="nonzero"/>
        <path d="M117.746 37.851c-.462-.275-.847 0-.858.484.032.598.346 1.146.847 1.474.484.286.869.066.869-.484a1.87 1.87 0 0 0-.858-1.474z" fill="#FFE812" fill-rule="nonzero"/>
        <path d="M115.579 36.608c-.462-.275-.847-.066-.847.484.03.602.344 1.153.847 1.485.473.275.858 0 .858-.495a1.826 1.826 0 0 0-.858-1.474z" fill="#FF1800" fill-rule="nonzero"/>
        <path fill="#EF7D00" fill-rule="nonzero" d="M78.113 16.676v.517l2.794 1.606v-.506zM78.113 15.697v.517l2.794 1.606v-.506zM78.113 14.718v.506l2.805 1.617v-.517z"/>
        <path d="m122.212 39.127-45.705-26.4v4.686l45.705 26.4v-4.686zm-4.477.682a1.881 1.881 0 0 1-.847-1.474c0-.539.396-.759.858-.484.506.325.826.873.858 1.474 0 .55-.385.77-.869.484zm2.2 1.254A1.914 1.914 0 0 1 119 39.6c0-.55.385-.77.858-.484.508.323.828.873.858 1.474 0 .528-.385.748-.858.484l.077-.011zm-4.323-2.486a1.892 1.892 0 0 1-.847-1.485c0-.55.385-.759.847-.484.512.32.833.871.858 1.474 0 .55-.385.77-.858.495zM78.146 15.224v-.506l2.805 1.606v.517l-2.805-1.617zm0 1.969v-.517l2.794 1.617v.506l-2.794-1.606zm0-.979v-.517l2.794 1.617v.506l-2.794-1.606z" fill="#FFA71A" fill-rule="nonzero"/>
        <g fill-rule="nonzero">
            <path d="m333.379 311.3 1.001.077a2.816 2.816 0 0 1-1.012-1.1l-.99-.077a2.64 2.64 0 0 0 1.001 1.1z" fill="#848D93"/>
            <path d="m332.4 310.2.99.077a3.806 3.806 0 0 1-.352-1.1l-.99-.055c.067.363.186.715.352 1.045v.033z" fill="#80888E"/>
            <path d="m332.026 309.177.99.055a3.641 3.641 0 0 1-.055-.979l-.979-.055a4.18 4.18 0 0 0 0 .979h.044z" fill="#7C8389"/>
            <path d="m331.982 308.198.979.055a4.4 4.4 0 0 1 .242-1.1l-.979-.066c-.14.35-.222.723-.242 1.1v.011z" fill="#787F84"/>
        </g>
        <path fill="#7B8287" fill-rule="nonzero" d="m332.224 307.065.979.066 2.09-5.489-.99-.077z"/>
        <path d="m334.303 301.565.99.077a2.607 2.607 0 0 1 2.486-1.892l-.979-.066a2.618 2.618 0 0 0-2.497 1.881z" fill="#787F84" fill-rule="nonzero"/>
        <g fill-rule="nonzero">
            <path d="m337.02 297.88.979.066a1.562 1.562 0 0 0-.275-.132l-.979-.077c.077.055.176.088.275.143z" fill="#848D93"/>
            <path d="m336.745 297.737.979.077a2.101 2.101 0 0 0-.605-.143l-.99-.066c.21.018.417.062.616.132z" fill="#80888E"/>
        </g>
        <g fill-rule="nonzero">
            <path d="m337.691 299.959.99.066a1.232 1.232 0 0 0-.275-.121l-.99-.077.275.132z" fill="#38727F"/>
            <path d="m337.416 299.827.99.077a1.749 1.749 0 0 0-.627-.154l-.979-.066c.212.014.42.062.616.143z" fill="#366E7B"/>
        </g>
        <path fill="#889197" fill-rule="nonzero" d="m342.784 316.734.99.066-9.394-5.423-.99-.077z"/>
        <g fill-rule="nonzero">
            <path d="m343.686 317.009.99.066a1.738 1.738 0 0 1-.616-.143l-1.001-.066c.2.083.411.131.627.143z" fill="#80888E"/>
            <path d="m343.059 316.866 1.001.066a1.353 1.353 0 0 1-.286-.132l-.99-.066.275.132z" fill="#848D93"/>
        </g>
        <path d="m343.686 317.009.99.066a2.64 2.64 0 0 0 2.497-1.881l-1.001-.066a2.585 2.585 0 0 1-2.486 1.881z" fill="#316672" fill-rule="nonzero"/>
        <path fill="#397582" fill-rule="nonzero" d="m347.107 305.393.979.066-9.405-5.434-.99-.066z"/>
        <path fill="#336975" fill-rule="nonzero" d="m346.172 315.128 1.001.066 2.079-5.5-.99-.066z"/>
        <path d="M210.309 299.959c1.254-.715 2.772 0 3.388 1.606l2.079 5.5a3.52 3.52 0 0 1-1.1 4.235l-9.405 5.434c-1.276.726-2.772 0-3.388-1.606l-2.09-5.5a3.52 3.52 0 0 1 1.1-4.235l9.416-5.434z" fill="url(#u)" fill-rule="nonzero" transform="matrix(-1 0 0 1 548 0)"/>
        <g fill-rule="nonzero">
            <path d="m348.262 309.628.99.066c.136-.352.217-.723.242-1.1l-.979-.055a4.114 4.114 0 0 1-.253 1.1v-.011z" fill="#316672"/>
            <path d="m348.515 308.495.979.055a3.553 3.553 0 0 0 0-.968l-.99-.066c.063.322.082.652.055.979h-.044z" fill="#346A76"/>
            <path d="m348.46 307.516.99.066a3.663 3.663 0 0 0-.352-1.045l-.99-.055a3.3 3.3 0 0 1 .352 1.034z" fill="#366E7B"/>
            <path d="m348.108 306.482.99.055a2.662 2.662 0 0 0-1.012-1.1l-.979-.066c.431.265.778.646 1.001 1.1v.011z" fill="#38727F"/>
        </g>
        <path d="M337.02 297.88c-1.265-.715-2.783 0-3.399 1.628l-3.135 8.228a3.542 3.542 0 0 0 1.166 4.235l11.748 6.787c1.254.726 2.761 0 3.377-1.606l3.135-8.239a3.542 3.542 0 0 0-1.155-4.246l-11.737-6.787zm-4.796 9.185 2.079-5.5c.616-1.617 2.134-2.321 3.388-1.606l9.416 5.434a3.52 3.52 0 0 1 1.1 4.235l-2.09 5.5c-.616 1.606-2.112 2.332-3.388 1.606l-9.405-5.434a3.52 3.52 0 0 1-1.1-4.235z" fill="#372172" fill-rule="nonzero"/>
        <path d="m346.788 317.152 3.135-8.239c.13-.354.212-.724.242-1.1v-.099a3.674 3.674 0 0 0 0-.858.847.847 0 0 1 0-.165 3.212 3.212 0 0 0-.319-.913 1.199 1.199 0 0 0-.088-.165 3.817 3.817 0 0 0-.418-.561 2.937 2.937 0 0 0-.506-.407l-11.748-6.787.979.066 11.682 6.776c.187.116.36.253.517.407l.132.154c.108.127.203.263.286.407a.946.946 0 0 0 .077.11.121.121 0 0 0 0 .055c.15.286.254.594.308.913V306.911c.028.282.028.565 0 .847v.066a3.652 3.652 0 0 1-.242 1.1l-3.113 8.239a2.64 2.64 0 0 1-2.497 1.892l-.979-.066a2.607 2.607 0 0 0 2.552-1.837z" fill="#221551" fill-rule="nonzero"/>
        <path d="M314.525 340.681s2.563 4.059 5.148 3.564c2.585-.495 2.948-1.1 1.848-1.76-1.1-.66-3.982-2.684-3.432-2.86.55-.176 1.76.077 1.628-.44-.132-.517-3.773-1.232-3.773-1.232l-2.552 1.232 1.133 1.496z" fill="#FCA986" fill-rule="nonzero"/>
        <path d="M312.919 393.437c.154 0 8.25-.231 6.446 2.794a4.521 4.521 0 0 1-4.004 2.343c-1.21 0-3.421-.671-3.971-.319-.55.352-3.3 2.2-4.862.33a2.992 2.992 0 0 1-.319-2.2c.198-.726 5.819-3.124 6.71-2.948z" fill="#381E5E" fill-rule="nonzero"/>
        <path d="M319.365 396.231a4.521 4.521 0 0 1-4.004 2.343c-1.21 0-3.421-.671-3.971-.319-.55.352-3.3 2.2-4.862.33a2.101 2.101 0 0 1-.363-1.1c1.1 1.628 3.773 1.188 4.521.638a4.257 4.257 0 0 1 3.135-.693c1.6.25 3.232-.172 4.51-1.166a1.903 1.903 0 0 0 .539-1.947 1.21 1.21 0 0 1 .495 1.914z" fill="#1F0F3A" fill-rule="nonzero"/>
        <path d="M311.907 326.062s-9.779 12.496-4.84 27.038c1.1 3.168 3.223 9.9 2.519 13.2-.869 3.971-2.112 2.849-3.014 16.016-.803 11.638-.66 9.108-.924 13.827-.077 1.342 4.862 2.75 5.61.66 3.3-9.108 7.777-28.204 6.864-38.731-.913-10.527-1.518-20.372-1.518-20.372s-1.485-8.646-4.697-11.638z" fill="#4B32B7" fill-rule="nonzero"/>
        <path d="M328.209 398.871c.165 0 8.525-1.859 7.161 1.639a4.862 4.862 0 0 1-3.762 3.201c-1.243.275-3.663 0-4.169.451-.506.451-3.047 2.981-4.983 1.309a3.146 3.146 0 0 1-.715-2.2c.099-.814 5.511-4.4 6.468-4.4z" fill="#381E5E" fill-rule="nonzero"/>
        <path d="M335.37 400.51a4.862 4.862 0 0 1-3.762 3.201c-1.243.275-3.663 0-4.169.451-.506.451-3.047 2.981-4.983 1.309a2.2 2.2 0 0 1-.572-1.1c1.397 1.452 4.136.484 4.807-.231a4.587 4.587 0 0 1 3.146-1.32 6.347 6.347 0 0 0 4.477-2.09 1.991 1.991 0 0 0 .209-2.123 1.243 1.243 0 0 1 .847 1.903z" fill="#1F0F3A" fill-rule="nonzero"/>
        <path d="M311.214 338.107s-5.5 5.907 4.4 20.845c0 0 4.84 10.626 4.653 14.025-.187 4.07-1.837 4.4-.22 17.765 1.386 11.55.803 11.792 1.705 12.76s5.654 0 5.819-2.024c.88-11.297 2.651-27.929 1.628-38.5-1.177-12.1-2.035-22-2.035-22s-12.364-.517-15.95-2.871z" fill="#4B32B7" fill-rule="nonzero"/>
        <path d="M329.177 363c1.023 10.516-.748 27.148-1.628 38.5-.066.803-.825 1.441-1.782 1.87.11-3.916.704-26.961.737-32.34.055-5.885.682-16.863-3.234-20.075-3.916-3.212-5.665-8.998-5.665-8.998l.66-1.804c4.4.682 8.877.891 8.877.891s.858 9.911 2.035 21.956z" fill="#342CA3" fill-rule="nonzero"/>
        <path d="M312.831 311.85s.495-4.576-3.916-4.664c-4.686-.088-3.63 9.68-3.63 9.68s.231 8.437 1.1 11.055c1.1 3.476 7.315 12.496 7.315 12.496s2.75-.649 3.553-2.607c0 0-4.884-8.514-5.313-11.748-.506-3.52 1.001-13.442.891-14.212z" fill="#E1B1E3" fill-rule="nonzero"/>
        <path d="M313.7 340.417s-6.204-9.02-7.315-12.496c-.836-2.618-1.1-11.055-1.1-11.055s-1.672-9.416 3.608-9.845a2.662 2.662 0 0 1 3.014 1.43c-3.41.198-3.74 2.475-3.421 7.535.341 5.5-.374 7.051-.066 11.748.308 4.697 5.269 9.262 6.028 10.362.495.726 1.694-.165 2.475-.847l.297.561c-.803 1.958-3.52 2.607-3.52 2.607z" fill="#E3F1F1" fill-rule="nonzero"/>
        <path d="M320.124 303.446s-1.199 3.575.528 5.94c.935 1.287-8.294 3.3-7.381-.484.726-3.091-.517-5.907-2.805-8.272l9.658 2.816z" fill="#FCA986" fill-rule="nonzero"/>
        <path d="M319.717 306.042a15.576 15.576 0 0 1-3.586-1.298l-.154.088-.858.209-.33.132s.473 3.85 5.401 3.41a8.228 8.228 0 0 1-.473-2.541z" fill="#F49E7F" fill-rule="nonzero"/>
        <path d="M320.212 288.717s1.496 2.442 3.52 6.6c1.782 3.63 2.09 7.832-.231 9.746-1.1.891-8.8 2.695-12.243-6.237-2.211-5.731 1.65-13.211 8.954-10.109z" fill="#FFCCB1" fill-rule="nonzero"/>
        <path d="M324.238 290.103c.935.814.242 2.057-2.123 3.091-3.388 1.474-.781 5.962-1.925 6.842-.638.495-1.023.858-2.695-.352-.671-.484-1.738-.935-1.903.979-.165 1.914 1.1 1.485 1.628 4.081.231 1.034-2.827 1.397-3.949.649-3.399-2.2-7.931-8.8-3.355-15.334 3.476-4.917 12.727-1.342 14.322.044z" fill="#3A2528" fill-rule="nonzero"/>
        <path d="M305.329 340.846c.069-.975.22-1.943.451-2.893a.462.462 0 0 1 0-.132c.296-1.644.734-3.26 1.309-4.829 1.221-3.366 2.299-4.719 1.76-8.998-.275-2.2-2.2-8.712-1.991-13.53.209-4.818 5.5-4.763 13.849-1.364s7.15 8.514 7.15 8.514c-1.034 5.17-3.058 6.006-1.397 18.942.41 1.959.715 3.938.913 5.929 1.298 8.987-20.823 4.62-22.121-1.65l.077.011z" fill="#5558C8" fill-rule="nonzero"/>
        <path d="M346.964 318.065a5.17 5.17 0 0 0 2.2-1.375c1.254-1.21 1.1-1.1 1.452-2.2a3.146 3.146 0 0 0-.396-2.794c-.517-.451-1.1-.055-2.024 1.991-.924 2.046-3.135 1.991-3.454 2.365-.319.374 1.683 2.233 2.222 2.013z" fill="#FFCCB1" fill-rule="nonzero"/>
        <path d="M347.041 316.03c.264-.099-.121-1.1 1.001-3.146.869-1.595-1.012 0-1.254.385s-2.09 2.86-2.09 2.86a5.401 5.401 0 0 0 2.343-.099z" fill="#FFCCB1" fill-rule="nonzero"/>
        <path d="M320.828 316.129c-.088-1.012.561-4.158 3.564-4.4 1.958-.176 11.187 10.164 12.573 10.197.671 0 7.898-6.732 7.898-6.732s-.352 2.013 2.607 3.157c0 0-7.568 10.692-10.571 9.79-5.148-1.573-15.697-7.26-16.071-12.012z" fill="#E3F1F1" fill-rule="nonzero"/>
        <path fill="url(#v)" fill-rule="nonzero" d="m212.63 400.51 45.485 26.147 20.493-11.66-44.792-21.142" transform="matrix(-1 0 0 1 548 0)"/>
        <path d="m137.159 161.117 67.287 40.535-41.492 28.875L79.2 175.604s-8.8-5.588-6.666-14.487" fill="url(#w)" fill-rule="nonzero" transform="matrix(-1 0 0 1 548 0)"/>
        <path d="M81.785 150.425c-12.749 7.359-12.749 19.305 0 26.675 12.749 7.37 33.429 7.359 46.2 0s12.76-19.316 0-26.675c-12.76-7.359-33.385-7.37-46.2 0z" fill="#E09B75" fill-rule="nonzero" style="mix-blend-mode:multiply" transform="matrix(-1 0 0 1 548 0)"/>
        <path d="M414.636 148.951a24.376 24.376 0 0 1 5.379-4.125c12.76-7.37 33.44-7.37 46.2 0a24.64 24.64 0 0 1 5.379 4.125h4.18v9.207c0 4.829-3.19 9.658-9.57 13.332-12.749 7.37-33.429 7.37-46.2 0-6.38-3.674-9.57-8.503-9.57-13.332v-9.207h4.202z" fill="#5E58AC" fill-rule="nonzero"/>
        <path d="M466.215 136.763c12.749 7.359 12.749 19.305 0 26.664-12.749 7.359-33.429 7.37-46.2 0s-12.76-19.305 0-26.664c12.76-7.359 33.385-7.37 46.2 0z" fill="#726FD5" fill-rule="nonzero"/>
        <path d="M443.115 132.099c-8.58 0-16.632 1.925-22.671 5.412-6.039 3.487-9.13 7.865-9.13 12.584 0 4.719 3.3 9.185 9.13 12.595 5.83 3.41 14.091 5.401 22.671 5.401s16.621-1.914 22.66-5.401c6.039-3.487 9.141-7.876 9.141-12.595s-3.3-9.185-9.141-12.584c-5.841-3.399-14.091-5.412-22.66-5.412m0-.858c8.36 0 16.72 1.837 23.1 5.5 12.749 7.359 12.749 19.305 0 26.664-6.369 3.685-14.729 5.5-23.1 5.5-8.371 0-16.72-1.848-23.1-5.5-12.76-7.359-12.76-19.305 0-26.664 6.38-3.685 14.74-5.5 23.1-5.5z" fill="#FFF" fill-rule="nonzero"/>
        <path d="M419.531 140.514a20.108 20.108 0 0 1 4.455-3.41c10.56-6.105 27.687-6.105 38.258 0a20.372 20.372 0 0 1 4.4 3.41h3.52v7.623c0 4.004-2.64 7.997-7.92 11-10.571 6.105-27.698 6.105-38.258 0-5.28-3.047-7.92-7.04-7.92-11v-7.623h3.465z" fill="#644497" fill-rule="nonzero"/>
        <path d="M462.2 130.427c10.56 6.094 10.56 15.983 0 22.088s-27.698 6.094-38.258 0c-10.56-6.094-10.56-15.994 0-22.088 10.56-6.094 27.731-6.127 38.258 0z" fill="#DCEDFD" fill-rule="nonzero"/>
        <path d="M443.115 126.709a37.95 37.95 0 0 0-18.7 4.466c-4.829 2.783-7.491 6.446-7.491 10.296 0 3.85 2.662 7.502 7.491 10.296a38.071 38.071 0 0 0 18.7 4.455 38.027 38.027 0 0 0 18.7-4.455c4.84-2.794 7.491-6.446 7.491-10.296 0-3.85-2.651-7.513-7.491-10.296-4.84-2.783-11.616-4.466-18.7-4.466m0-.858c6.919 0 13.838 1.529 19.129 4.576 10.56 6.094 10.56 15.983 0 22.088-5.291 3.047-12.21 4.565-19.129 4.565-6.919 0-13.849-1.518-19.129-4.565-10.56-6.105-10.56-15.994 0-22.088 5.28-3.047 12.199-4.576 19.129-4.576z" fill="#FFF" fill-rule="nonzero"/>
        <path stroke="#354790" stroke-width=".858" d="m431.796 91.817-2.981-16.885 12.573-2.277M455.127 94.545l-13.739-21.89-9.592 19.162"/>
        <path d="M88.099 95.876a4.95 4.95 0 1 1 9.54-2.647 4.95 4.95 0 0 1-9.54 2.647z" fill="url(#x)" fill-rule="nonzero" transform="matrix(-1 0 0 1 548 0)"/>
        <path d="M104.038 73.37a2.673 2.673 0 1 1 3.3 1.859 2.684 2.684 0 0 1-3.3-1.859z" fill="url(#y)" fill-rule="nonzero" transform="matrix(-1 0 0 1 548 0)"/>
        <path d="M116.6 75.647a2.673 2.673 0 1 1 3.3 1.859 2.662 2.662 0 0 1-3.3-1.859z" fill="url(#z)" fill-rule="nonzero" transform="matrix(-1 0 0 1 548 0)"/>
        <path d="M112.981 92.719a3.3 3.3 0 1 1 6.38-1.688 3.3 3.3 0 0 1-6.38 1.688z" fill="url(#A)" fill-rule="nonzero" transform="matrix(-1 0 0 1 548 0)"/>
        <path d="M77.836 141.46c0 3.993 2.651 7.997 7.92 11 10.571 6.094 27.698 6.094 38.258 0 5.28-3.047 7.92-7.051 7.92-11V2.915H77.836V141.46z" fill="url(#B)" fill-rule="nonzero" opacity=".5" transform="matrix(-1 0 0 1 548 0)"/>
    </g>
</svg>
