<svg xmlns="http://www.w3.org/2000/svg" width="40" height="40" viewBox="0 0 40 40">
    <defs>
        <linearGradient id="kr75fmhxea" x1="0%" x2="100%" y1="0%" y2="100%">
            <stop offset="0%" stop-color="#F98C41"/>
            <stop offset="100%" stop-color="#E52E58"/>
        </linearGradient>
    </defs>
    <g fill="none" fill-rule="evenodd">
        <g fill="url(#kr75fmhxea)" transform="translate(-456 -3473)">
            <g>
                <g>
                    <g>
                        <g>
                            <g>
                                <path d="M25.986 4.435c.448.276.635.83.447 1.32-.189.49-.7.777-1.217.682-5.942-2.294-12.688-.457-16.643 4.533-3.954 4.99-4.196 11.969-.596 17.219 3.6 5.25 10.202 7.549 16.29 5.67 6.087-1.878 10.24-7.495 10.248-13.859.005-2.24-.515-4.452-1.518-6.457-.152-.51.086-1.056.565-1.29.478-.236 1.057-.091 1.368.341 1.15 2.302 1.744 4.84 1.737 7.412-.016 9.197-7.478 16.649-16.687 16.66-6.69-.016-12.723-4.02-15.328-10.174C2.046 20.34 3.372 13.226 8.019 8.42c4.648-4.805 11.72-6.373 17.967-3.985zm-6.033 17.66c3.86-.006 6.7 1.952 8.632 5.224.262.442.18.682-.202.998-2.516 2.031-5.67 3.107-8.905 3.038-2.898-.1-5.678-1.168-7.896-3.032-.18-.089-.309-.255-.35-.452-.04-.196.012-.4.143-.552 1.922-3.272 4.717-5.22 8.578-5.225zm.005-11.54c2.473-.013 4.487 1.98 4.5 4.45.011 2.47-1.983 4.481-4.456 4.493-2.473.012-4.487-1.98-4.5-4.45-.01-1.187.455-2.33 1.292-3.173.836-.844 1.975-1.32 3.164-1.32zm10.653-4.156c.917 0 1.66.742 1.66 1.658 0 .915-.743 1.658-1.66 1.658-.917 0-1.66-.743-1.66-1.658 0-.916.743-1.658 1.66-1.658z" transform="translate(0 3109) translate(110 100) translate(46 264) translate(300)"/>
                            </g>
                        </g>
                    </g>
                </g>
            </g>
        </g>
    </g>
</svg>
