<svg xmlns="http://www.w3.org/2000/svg" width="40" height="40" viewBox="0 0 40 40">
    <defs>
        <linearGradient id="mam7q2om7a" x1="0%" x2="100%" y1="0%" y2="100%">
            <stop offset="0%" stop-color="#B8F066"/>
            <stop offset="100%" stop-color="#20B479"/>
        </linearGradient>
    </defs>
    <g fill="none" fill-rule="evenodd">
        <g fill="url(#mam7q2om7a)" transform="translate(-157 -1018)">
            <g>
                <g>
                    <g>
                        <g>
                            <path d="M17.068 21.326c.887 0 1.606.719 1.606 1.606V35.06c0 .887-.719 1.607-1.606 1.607H4.941c-.888 0-1.608-.72-1.608-1.607V22.932c0-.887.72-1.606 1.608-1.606h12.127zm17.992 0c.887 0 1.607.719 1.607 1.606V35.06c0 .887-.72 1.607-1.607 1.607H22.933c-.888 0-1.607-.72-1.607-1.607V22.932c0-.887.719-1.606 1.607-1.606H35.06zM17.068 3.333c.887 0 1.606.72 1.606 1.607v12.128c0 .887-.719 1.606-1.606 1.606H4.941c-.888 0-1.608-.719-1.608-1.606V4.94c0-.887.72-1.607 1.608-1.607h12.127zm17.992 0c.887 0 1.607.72 1.607 1.607v12.128c0 .887-.72 1.606-1.607 1.606H22.933c-.888 0-1.607-.719-1.607-1.606V4.94c0-.887.719-1.607 1.607-1.607H35.06z" transform="translate(110 578) translate(46 240) translate(1 200)"/>
                        </g>
                    </g>
                </g>
            </g>
        </g>
    </g>
</svg>
