<svg xmlns="http://www.w3.org/2000/svg" width="40" height="40" viewBox="0 0 40 40">
    <defs>
        <linearGradient id="88xb9r4ywa" x1="0%" x2="100%" y1="0%" y2="100%">
            <stop offset="0%" stop-color="#0DA0E0"/>
            <stop offset="100%" stop-color="#22D1EE"/>
        </linearGradient>
    </defs>
    <g fill="none" fill-rule="evenodd">
        <g fill="url(#88xb9r4ywa)" transform="translate(-156 -3473)">
            <g>
                <g>
                    <g>
                        <g>
                            <g>
                                <path d="M20 3.333c9.19 0 16.667 7.372 16.667 16.432V33.85l-.008.208c-.052.687-.358 1.335-.864 1.817l-.15.133c-.513.425-1.163.659-1.836.659h-.048l-.05-.002-13.763-.468-.323-.004c-9.017-.197-16.292-7.49-16.292-16.428l.003-.315C3.507 10.534 10.916 3.333 20 3.333zm0 5.633l-.291.004c-5.905.153-10.66 4.936-10.66 10.795l.003.287C9.207 25.875 14.059 30.563 20 30.563l.098.002 10.854.369V19.765l-.004-.287C30.793 13.655 25.941 8.966 20 8.966zm.23 2.723l.257.004c4.537.134 8.172 3.802 8.172 8.307l-.004.254c-.136 4.472-3.856 8.056-8.425 8.056l-.258-.004c-4.535-.134-8.17-3.802-8.17-8.306 0-4.59 3.773-8.31 8.428-8.31z" transform="translate(0 3109) translate(110 100) translate(46 264)"/>
                            </g>
                        </g>
                    </g>
                </g>
            </g>
        </g>
    </g>
</svg>
