<svg xmlns="http://www.w3.org/2000/svg" width="40" height="40" viewBox="0 0 40 40">
    <defs>
        <linearGradient id="8ha63s1cpa" x1="0%" x2="100%" y1="0%" y2="100%">
            <stop offset="0%" stop-color="#F98C41"/>
            <stop offset="100%" stop-color="#E52E58"/>
        </linearGradient>
    </defs>
    <g fill="none" fill-rule="evenodd">
        <g fill="url(#8ha63s1cpa)" transform="translate(-768 -1906)">
            <g>
                <g>
                    <g>
                        <g>
                            <path d="M35.6 29.371v2.733h1.294c.795 0 1.44.645 1.44 1.44v3.35c0 .795-.645 1.44-1.44 1.44h-3.35c-.795 0-1.44-.645-1.44-1.44V35.6h-2.732v-.76h2.732v-1.296c0-.794.645-1.439 1.44-1.439h1.294v-2.733h.761zm-30.438.001v2.732h1.295c.794 0 1.439.645 1.439 1.439v1.295h2.732v.761H7.896v1.295c0 .795-.645 1.439-1.44 1.439h-3.35c-.795 0-1.44-.644-1.44-1.439v-3.351c0-.794.645-1.439 1.44-1.439H4.4v-2.732h.76zm22.768 5.466v.761h-2.884v-.76h2.884zm-8.651 0v.761h-2.884v-.76h2.884zm-4.325 0v.761H12.07v-.76h2.884zm8.65 0v.761h-2.883v-.76h2.884zm1.914-10.633l.061.012 3.165 1.013 2.267.728c.207.066.233.346.043.45l-1.336.73c-.15.083-.173.29-.044.402l2.346 2.045c.1.088.113.24.027.343l-1.168 1.401c-.092.111-.259.119-.362.018l-2.244-2.205c-.119-.117-.316-.085-.391.063l-.7 1.368c-.105.202-.405.168-.459-.054l-.912-3.769-.546-2.24c-.046-.187.13-.352.314-.293zm-15.435-9.61l8.75 4.398v10.185l-8.75-4.352V14.595zm19.617.046v9.707l-5.156-1.652c-.385-.12-.763.225-.664.623l.956 3.942-3.61 1.872V18.9l8.474-4.26zM5.162 25.047v2.883h-.76v-2.883h.76zm30.437 0v2.883h-.76v-2.883h.76zM5.162 20.72v2.884h-.76V20.72h.76zm30.437 0v2.884h-.76V20.72h.76zM5.162 16.396v2.883h-.76v-2.883h.76zm30.437 0v2.883h-.76v-2.883h.76zM18.834 8.91l8.515 4.282-8.515 4.282-8.52-4.26 8.52-4.304zM5.162 12.07v2.883h-.76V12.07h.76zm30.437 0v2.883h-.76V12.07h.76zM6.457 1.666c.794 0 1.439.644 1.439 1.44V4.4h2.732v.76H7.896v1.296c0 .794-.645 1.439-1.44 1.439H5.163v2.733H4.4V7.896H3.106c-.795 0-1.44-.645-1.44-1.44v-3.35c0-.795.645-1.44 1.44-1.44zm30.437 0c.795 0 1.44.644 1.44 1.44v3.35c0 .794-.645 1.439-1.44 1.439H35.6v2.732h-.76V7.896h-1.296c-.794 0-1.439-.645-1.439-1.44V5.163h-2.732V4.4h2.732V3.106c0-.795.645-1.44 1.44-1.44zM27.93 4.4v.76h-2.884v-.76h2.884zm-8.651 0v.76h-2.884v-.76h2.884zm4.326 0v.76H20.72v-.76h2.884zm-8.65 0v.76H12.07v-.76h2.884z" transform="translate(0 1367) translate(768 339) translate(0 200)"/>
                        </g>
                    </g>
                </g>
            </g>
        </g>
    </g>
</svg>
