<svg xmlns="http://www.w3.org/2000/svg" width="40" height="40" viewBox="0 0 40 40">
    <defs>
        <linearGradient id="syizxubgja" x1="0%" x2="100%" y1="0%" y2="100%">
            <stop offset="0%" stop-color="#0DA0E0"/>
            <stop offset="100%" stop-color="#22D1EE"/>
        </linearGradient>
    </defs>
    <g fill="none" fill-rule="evenodd">
        <g fill="url(#syizxubgja)" transform="translate(-768 -1706)">
            <g>
                <g>
                    <g>
                        <g>
                            <path d="M17.654 26.245c-3.614 0-6.676-.585-6.676-2.86 0-2.274 3.085-2.837 6.676-2.837 3.625 0 6.676.586 6.676 2.86s-3.073 2.837-6.676 2.837zm-4.413-12.272c0-2.443 1.981-4.425 4.413-4.425 2.443 0 4.425 1.982 4.425 4.414 0 2.443-1.982 4.424-4.414 4.424h-.01c-2.421.012-4.403-1.959-4.414-4.39v-.023zm15.266-7.645C27.044 4.842 25.31 3.67 23.42 2.883c-1.892-.8-3.94-1.216-6.035-1.216-8.725.045-15.773 7.16-15.717 15.897-.056 8.726 6.992 15.853 15.717 15.898 8.737-.056 15.773-7.172 15.728-15.898 0-4.21-1.655-8.241-4.605-11.236zm9.109 27.821h-.08l-4.683-3.783c-.71-.698-1.846-.698-2.555 0-.766.777-.766 2.027 0 2.792l3.895 4.459c0 .011.011.011.023.022.945.935 2.465.924 3.4-.022.957-.957.957-2.51 0-3.468z" transform="translate(0 1367) translate(768 339)"/>
                        </g>
                    </g>
                </g>
            </g>
        </g>
    </g>
</svg>
