<svg xmlns="http://www.w3.org/2000/svg" width="40" height="40" viewBox="0 0 40 40">
    <defs>
        <linearGradient id="g2mph56jba" x1="0%" x2="100%" y1="0%" y2="100%">
            <stop offset="0%" stop-color="#0FADC1"/>
            <stop offset="100%" stop-color="#49DE82"/>
        </linearGradient>
    </defs>
    <g fill="none" fill-rule="evenodd">
        <g fill="url(#g2mph56jba)" transform="translate(-1056 -1706)">
            <g>
                <g>
                    <g>
                        <g>
                            <path d="M33.542 3.333c1.77 0 3.125 1.354 3.125 3.125v27.083c0 1.772-1.355 3.126-3.125 3.126H6.458c-1.771 0-3.125-1.355-3.125-3.126V6.458c0-1.77 1.354-3.125 3.125-3.125zM30.937 6.98h-8.854C20.938 6.98 20 7.71 20 9.063c0 1.042-.104 1.042-2.083 1.042H9.062c-1.145 0-2.082.937-2.082 2.082v18.75c0 1.146.937 2.083 2.082 2.083h21.876c1.145 0 2.083-.936 2.083-2.083V9.063c0-1.145-.937-2.083-2.084-2.083zm-11.45 7.808l5.723 5.71-.021.021-1.541 4.525c-.253.743-.88 1.289-1.647 1.434l-9.926 1.855 5.147-5.143c.755.545 1.814.48 2.495-.2.744-.743.744-1.968 0-2.713-.755-.753-1.97-.753-2.725 0-.682.682-.745 1.739-.2 2.483l-5.125 5.111 1.845-9.876c.146-.777.691-1.404 1.425-1.657l4.539-1.538.01-.012zm2.809-2.807c.43-.42 1.11-.42 1.53 0l4.193 4.18c.42.42.42 1.11 0 1.53l-2.38 2.378-5.712-5.71zM15 5.52c-.73 0-1.25.52-1.25 1.25 0 .729.625 1.25 1.25 1.25.73 0 1.25-.521 1.25-1.25 0-.73-.625-1.25-1.25-1.25zm-3.542 0c-.625 0-1.25.52-1.25 1.25 0 .729.52 1.25 1.25 1.25s1.25-.521 1.25-1.25c0-.73-.625-1.25-1.25-1.25zm-3.437 0c-.625 0-1.25.52-1.25 1.25 0 .729.52 1.25 1.25 1.25.729 0 1.25-.521 1.25-1.25 0-.73-.625-1.25-1.25-1.25z" transform="translate(0 1367) translate(768 339) translate(288)"/>
                        </g>
                    </g>
                </g>
            </g>
        </g>
    </g>
</svg>
