<svg xmlns="http://www.w3.org/2000/svg" width="553" height="447" viewBox="0 0 553 447">
    <g fill="none" fill-rule="evenodd">
        <g>
            <g>
                <g>
                    <g>
                        <g transform="translate(-808 -799) translate(110 578) translate(698 221) translate(25.366)">
                            <circle cx="35.8" cy="77.5" r="5.7" fill="#6E8EFF"/>
                            <path fill="#EC615B" d="M47.8 87.5L48.8 87.5 48.8 88.5 47.8 88.5z"/>
                            <circle cx="127.1" cy="299.6" r="4.2" fill="#6E8EFF"/>
                            <circle cx="411.7" cy="52.4" r="5.9" fill="#6E8EFF"/>
                            <circle cx="195.6" cy="49" r="2.5" fill="#6E8EFF"/>
                            <circle cx="42.1" cy="56.5" r="4" fill="#454451"/>
                            <circle cx="137.4" cy="292.6" r="2.2" fill="#46454F"/>
                            <circle cx="196.9" cy="36.2" r="2.6" fill="#454451"/>
                            <circle cx="397.7" cy="39" r="1.5" fill="#454451"/>
                            <path fill="#6E8EFF" d="M389.7 216.4c1.2-2.3 3.9.7 4.7 1.6.8.9 1.8 1.9 3 2.1 2.3.4 3.5-1.7 5.3-2.5 2.6-1.2 3.2 3.2 5.1 4.1.9.4 1.6.2 2.5 0 1-.3 1.8-.9 2.9-.6 1.3.4 2.3 1.5 2.4 2.8.1.8 1.4.8 1.3 0-.3-2.7-2.8-4.9-5.6-4.2-1.2.3-2.3 1.2-3.4.4-.6-.5-1-1.5-1.4-2.1-.6-.9-1.3-1.8-2.5-2-1.3-.2-2.3.5-3.4 1.3s-1.7 1.5-3.1 1.3c-1.4-.3-2-1.3-3-2.3-1.5-1.6-4.8-3.2-6.1-.6-.2.8.9 1.5 1.3.7zm10.2 9.4c2-.3 4.2.3 5.7 1.6 1.1.9 1.5 2.1 2.2 3.2 1.5 2.4 3.5.3 5.5.1 3.1-.4 4.8 3.3 7.8 3.8 1.8.3 3.4-.5 4-2.2.3-.8-1-1.2-1.3-.4-1.5 3.8-6.3-1.4-8.1-2.3-.8-.4-1.7-.6-2.5-.5-1.2.1-3.2 1.8-4.3.8-.6-.6-.9-1.9-1.5-2.6-.6-.7-1.3-1.3-2.1-1.8-1.8-1.1-3.8-1.4-5.9-1.1-.7.3-.3 1.6.5 1.4zM1.6 151.6c-.5-2.7-.6-5.4 2.5-6.4 1.2-.4 2.6-.7 3.6-1.6 1.9-1.6 1.7-4.1 1.6-6.4-.1-1.6-.5-4.2 2-3.5.8.2 1.6.5 2.4.1.6-.3.9-.8 1.1-1.5.4-1.3 0-2.4 1.2-3.5.9-.9 2.1-1.2 3.4-1 .8.1.8-1.2 0-1.3-1.4-.2-2.7.1-3.9 1-1.4 1.1-1.5 2.3-1.9 3.9-.7 2.3-2.3.4-3.9.7-1 .2-1.5.9-1.7 1.8-.4 1.8.2 3.7.1 5.5-.1 3.3-2.3 3.6-4.9 4.7-3.5 1.4-3.4 4.7-2.8 7.8 0 .9 1.3.5 1.2-.3zm14.8-8.8c-2.7-3.4.4-6.8 4.1-6.5 1.1.1 2 0 2.6-1 .8-1.3.5-3.1 1.2-4.6 1-2.4 3-4.2 5.5-5 .8-.3.4-1.6-.4-1.3-2.2.7-4.1 2-5.4 4-.8 1.1-1.3 2.4-1.5 3.7-.1.4-.1 1.3-.2 1.7-.4 1.2-1.5 1-2.5 1.1-4.7.3-7.3 4.9-4.3 8.9.4.7 1.4-.3.9-1z"/>
                            <path fill="#454451" d="M141.8 32.1c-.8-2.5 1.7-5.1 4.2-3.7 2.7 1.4 1.8 5.4-1.2 5.7-.8.1-.8 1.4 0 1.3 4-.4 5.8-5.6 2.2-7.9-3.5-2.3-7.6 1.2-6.4 5.1.2.7 1.5.3 1.2-.5z"/>
                            <path fill="#46454F" d="M288.7 284c-1.8 2.2.7 4 2.6 4.8 1.5.6 2.4 1.3 2.7 3 .1.8.1 1.5.3 2.2.2.6.4 1.1.8 1.5.6.7 3 1.3 2.7 2.5-.2.8 1.1 1.2 1.3.4.3-1.1 0-1.9-1-2.7-.6-.5-1.5-.6-2-1.2-.8-.9-.6-2.3-.8-3.4-.2-1-.5-1.9-1.3-2.6-.8-.7-5.7-1.9-4.3-3.6.5-.7-.5-1.6-1-.9zm5.8-4.5c-.4 1 0 1.9.8 2.6.8.6 2 .7 2.6 1.4.7.8.6 1.8.8 2.8.2 1.2.7 2.2 1.8 2.8.8.4 1.8.6 2.6 1.1 1.5.9 2.3 2.5 2.5 4.2.1.8 1.4.8 1.3 0-.4-3.1-2.2-5.1-5-6.2-2.3-.8-1.6-2.8-2.3-4.5-.2-.6-.5-1-1-1.3-.8-.5-3.3-1-2.7-2.4.2-.9-1.1-1.3-1.4-.5z"/>
                            <path fill="#454451" d="M310 12.7c-1.4-1.8 1.4-3.1 2.7-3.3 1-.1 2.1 0 3.1-.2 1.4-.3 2.7-.9 3.7-2 .9-1 1-2 1.4-3.3.2-.8.8-2 1.6-2.3.3-.1 1.1.1 1.5.1.8 0 1.4 0 2.2-.1.8-.2.5-1.5-.4-1.3-1.8.4-4.2-.8-5.5.9-.5.6-.5 1.4-.6 2.1-.3 2-1.2 3.8-3.3 4.4-2.3.7-5-.2-6.9 1.7-1.1 1.1-1.5 2.7-.6 3.9.5.7 1.6 0 1.1-.6zm13.4-.6c0-2.2 1.2-4.3 3.1-5.4 1.5-.9 3.1-.8 4.8-.8 2.3 0 4.4 0 5.9-2 .5-.7-.7-1.4-1.2-.7-2 2.6-6.9.7-9.7 2-2.6 1.2-4.2 3.9-4.3 6.8.1 1 1.4 1 1.4.1zm-181.2 150l1.2-.3c.2.4.4.8.5 1.2.1.6-.1 1.2-.2 1.8-.1.7-.2 1.2-.2 1.9.1 1 .5 2 1.4 2.5 1.3.7 2.8-.3 4.2.4 1.8.9 2.8 3.1 3.6 4.8.4.8 1.5.1 1.2-.7-.8-1.9-1.9-4-3.8-5.1-.9-.5-1.6-.5-2.7-.6-1.1-.1-1.4 1.2-2.5-1-.3-.7.1-1.8.2-2.5.2-1.6.3-3.4-1.4-4.1-1.2-.4-2.6 0-2.8 1.3-.1.9 1.2 1.3 1.3.4zm9.1-1.6c-1.3.9-.8 2.3.1 3.4 1 1.2 2.1 2.1 3 3.4 1 1.5 1.7 3.1 2.3 4.8.3.8 1.6.5 1.3-.4-.6-1.8-1.3-3.6-2.4-5.2-.5-.7-4.1-4.5-3.5-4.9.6-.4-.1-1.6-.8-1.1z"/>
                        </g>
                        <g>
                            <path fill="#E8E8E8" d="M1.7 44.1C3.1 60.5 4.4 77.3 1 93.6c-.2.8 1.1 1.2 1.3.4 3.4-16.4 2.1-33.3.8-49.8-.2-.9-1.5-.9-1.4-.1z" transform="translate(-808 -799) translate(110 578) translate(698 221) translate(111 15)"/>
                            <path fill="#E8E8E8" d="M2.4 44.6c8.2.4 16.3.4 24.5 0 7-.4 14.7-.4 21.3-3.2.8-.4.1-1.5-.7-1.2-6.8 3-15 2.8-22.3 3.1-7.6.3-15.2.3-22.8 0-.8-.1-.8 1.2 0 1.3z" transform="translate(-808 -799) translate(110 578) translate(698 221) translate(111 15)"/>
                            <path fill="#E8E8E8" d="M47.1 41.2C51.4 57.4 52.4 74.4 50 91c-.1.8 1.2 1.2 1.3.4 2.3-16.9 1.4-34-2.9-50.5-.2-.9-1.5-.6-1.3.3z" transform="translate(-808 -799) translate(110 578) translate(698 221) translate(111 15)"/>
                            <path fill="#E8E8E8" d="M1.3 94.3c8.8 1.9 17.8 2.1 26.8 1.5 4.5-.3 9.1-.8 13.6-1.4 3.2-.4 6.6-.6 9.3-2.7.7-.5-.3-1.5-.9-.9-3 2.3-7.7 2.2-11.3 2.6-4.1.5-8.2.9-12.3 1.2-8.3.5-16.6.3-24.7-1.6-1-.2-1.3 1.1-.5 1.3zm3.6-3.9C6 90.4 7 90.1 8 90c1.3-.1 2.5 0 3.7.4.8.2 1.2-1.1.4-1.3-1.2-.3-2.3-.5-3.5-.4-1.2 0-2.4.5-3.7.4-.9-.1-.9 1.3 0 1.3zm.8-3.1c2.2 0 4.4 0 6.6.1.8 0 .8-1.3 0-1.3-2.2 0-4.4 0-6.6-.1-.9-.1-.9 1.2 0 1.3zm.4-3.3l5.8.3c.8 0 .8-1.3 0-1.3l-5.8-.3c-.8-.1-.8 1.2 0 1.3zm.6-8.5c2.2-.3 4.3-.4 6.6-.4.8 0 .8-1.3 0-1.3-2.2 0-4.4.1-6.6.4-.8.1-.8 1.5 0 1.3zm.5-3.5l6.2.1c.8 0 .8-1.3 0-1.3l-6.2-.1c-.9 0-.9 1.3 0 1.3zm-.5-3c1.9.1 3.8.1 5.6-.1.8-.1.8-1.4 0-1.3-1.9.2-3.8.2-5.6.1-.8-.1-.8 1.2 0 1.3zm.3-8.5c2.3-.4 4.6-.7 7-.6.8 0 .8-1.3 0-1.3-2.5 0-4.9.2-7.4.7-.7.1-.4 1.4.4 1.2zm-.1-3.2c2.5 0 5 0 7.5-.1.8 0 .8-1.4 0-1.3-2.5.1-5 .2-7.5.1-.9-.1-.9 1.2 0 1.3zM6 53.8c2.7.1 5.5 0 8.2-.3.8-.1.8-1.4 0-1.3-2.7.3-5.5.4-8.2.3-.9 0-.9 1.3 0 1.3zm14.8-1.2c6.9-1 13.8-1.5 20.7-1.4.8 0 .8-1.3 0-1.3-7-.1-14.1.4-21 1.5-.9 0-.6 1.3.3 1.2zm1.4 2.5c6.8-.6 13.7-.9 20.6-1.2.8 0 .8-1.4 0-1.3-6.9.2-13.7.6-20.6 1.2-.9 0-.9 1.3 0 1.3zm-.6 2.9c7.1-.4 14.2.5 21.3-.3.8-.1.8-1.4 0-1.3-7.1.8-14.2-.1-21.3.3-.8 0-.8 1.4 0 1.3zm-4.2 11h9.3c.8 0 .8-1.3 0-1.3h-9.3c-.9 0-.9 1.3 0 1.3zm.3 3.4c3.3-.1 6.7-.2 10-.2.9 0 9.8-.5 9.8-.4.3.8 1.6.5 1.3-.4-.3-.9-1.1-.8-1.9-.8-2 0-4.1.1-6.1.1-4.3.1-8.7.2-13.1.3-.9.1-.9 1.4 0 1.4zm0 3.3c2.7.1 5.3.1 7.9.1.8 0 .8-1.4 0-1.3-2.7.1-5.3 0-7.9-.1-.9-.1-.9 1.3 0 1.3zm-1.5 7.6c8.9-.6 17.8-.8 26.7-.7.8 0 .8-1.3 0-1.3-8.9-.1-17.8.1-26.7.7-.9.1-.9 1.4 0 1.3zm1.3 3l6.7-.1c.8 0 .8-1.3 0-1.3l-6.7.1c-.8-.1-.8 1.3 0 1.3zm12.1-.1c3.6-.4 7.2-.7 10.8-.9.8 0 .8-1.4 0-1.3-3.6.2-7.2.5-10.8.9-.8.1-.9 1.4 0 1.3zm-12.7 4.3c7.3-.1 14.5-.3 21.8-.6.8 0 .8-1.4 0-1.3-7.3.3-14.5.5-21.8.6-.8 0-.8 1.3 0 1.3zm35.6-26c11.5-2.1 23.1-3.1 34.8-3.1-.2-.2-.4-.3-.6-.5 6.8 21.8 10.1 44.6 9.7 67.4 0 .8 1.3.8 1.3 0 .4-22.9-2.9-45.8-9.7-67.8-.1-.3-.4-.5-.6-.5-11.8-.1-23.6.9-35.2 3.1-.9.2-.5 1.5.3 1.4z" transform="translate(-808 -799) translate(110 578) translate(698 221) translate(111 15)"/>
                            <path fill="#E8E8E8" d="M28.8 95.3c.8 12.5-.9 24.9-5.1 36.6-.3.8 1 1.2 1.3.4 4.2-11.8 6-24.4 5.2-36.9-.1-1-1.4-1-1.4-.1z" transform="translate(-808 -799) translate(110 578) translate(698 221) translate(111 15)"/>
                            <path fill="#E8E8E8" d="M23.9 132.8c11.2 4.7 23.4 4.3 35.2 3.1 12.9-1.2 25.6-3.3 38-7 .8-.2.5-1.5-.4-1.3-12.1 3.5-24.3 5.7-36.9 6.9-11.8 1.2-24.1 1.9-35.3-2.9-.7-.3-1.3.9-.6 1.2z" transform="translate(-808 -799) translate(110 578) translate(698 221) translate(111 15)"/>
                            <path fill="#46454F" d="M39.5 99c-2.4 1.3-4.7 2.8-7 4.3-.4.3-.4 1.1.2 1.2 2 .4 4.1.8 6.1 1.3.8.2 1.2-1.1.4-1.3-2-.4-4.1-.8-6.1-1.3 0 .4.1.8.2 1.2 2.2-1.6 4.6-3 7-4.3.6-.4 0-1.5-.8-1.1zm10.3-4.1c-2.9 4.7-5.8 9.5-8.8 14.2-.4.7.7 1.4 1.2.7 2.9-4.7 5.8-9.5 8.8-14.2.4-.8-.7-1.4-1.2-.7zm2.1 10c2.6-.4 5.3-.8 7.9-1.2.8-.1.5-1.4-.4-1.3-2.6.4-5.3.8-7.9 1.2-.8.2-.5 1.5.4 1.3z" transform="translate(-808 -799) translate(110 578) translate(698 221) translate(111 15)"/>
                            <path fill="#454451" d="M65.1 97.8H65c-.3 0-.6 0-.8.3 0 0 0 .1-.1.1-.1.2-.1.5 0 .7 1 1.5 3.4 1.9 5.1 2.2.3.1.6.1.9.2 0 0-.1.1-.2.1 0 .3-1.4 1.4-1.7 1.6l-2.9 2.8c-.6.6.3 1.6.9.9 1.2-1.1 2.3-2.3 3.5-3.4.6-.6 1.9-1.4 1.6-2.4-.2-.8-1.2-.9-1.9-1.2-1.2-.3-3.5-.5-4.3-1.6v.7s0-.1.1-.1c-.3.1-.5.2-.8.3h.1c1.1.2 1.4-1.1.6-1.2z" transform="translate(-808 -799) translate(110 578) translate(698 221) translate(111 15)"/>
                            <path fill="#E8E8E8" d="M56 69c2.3-.4 4.6-.5 7-.4.8 0 .8-1.3 0-1.3-2.5-.1-4.9.1-7.3.5-.9.1-.5 1.3.3 1.2zm-.4 3.3c3.1-.3 6.3-.6 9.4-.8.8 0 .8-1.4 0-1.3-3.1.2-6.3.5-9.4.8-.8.1-.8 1.4 0 1.3zm1.5 5.1c.2-.1.4-.3.6-.4h-.1l.6.3v-.1c0 .3-.1.5-.1.8-.3.1-.3.1.2.1h2.1c.9-.1 1.8-.2 2.7-.4.8-.1.5-1.4-.4-1.3-1.2.2-2.3.3-3.5.4-.7 0-1.6-.2-2.1.3-.2.2-.2.6-.1.8.2.3.4.4.7.4.3 0 .6-.2.6-.5.2-.9-1.1-1.3-1.2-.4zm-1 6.4c3.7-.5 7.4-1.2 11.2-1.1.8 0 .8-1.3 0-1.3-3.9-.1-7.8.6-11.6 1.2-.8.1-.4 1.4.4 1.2zm14.5-16.2c4.3-.6 8.5-.9 12.8-1 .8 0 .8-1.4 0-1.3-4.3.1-8.6.4-12.8 1-.9 0-.9 1.3 0 1.3zm3 5.5c2.7-.4 5.3-.8 7.9-1.3.8-.1.5-1.4-.4-1.3-2.7.4-5.3.8-7.9 1.3-.8.2-.4 1.5.4 1.3zm.9 7.8c2.3-.2 4.6-.3 6.9-.3.8 0 .8-1.3 0-1.3-2.3 0-4.6.1-6.9.3-.8.1-.8 1.4 0 1.3zm4 2.5c2.8-.4 5.5-.7 8.4-.8.8 0 .8-1.4 0-1.3-2.9.2-5.8.5-8.7.9-.9.1-.5 1.3.3 1.2zm-43.9 33.9c.8 0 .8-1.3 0-1.3-.8-.1-.8 1.3 0 1.3z" transform="translate(-808 -799) translate(110 578) translate(698 221) translate(111 15)"/>
                            <path fill="#E8E8E8" d="M33.2 116.1c1.1.4 2.2.2 3.3.2 1.5 0 3 0 4.5.2.8.1.8-1.2 0-1.3-1.3-.1-2.6-.2-3.9-.2-1.2 0-2.4.3-3.5-.1-.9-.4-1.2.9-.4 1.2zm1.6 4c2.4-.2 4.9-.2 7.3.2.8.1.8-1.2 0-1.3-2.4-.3-4.9-.4-7.3-.2-.9 0-.9 1.3 0 1.3zm-3.9 5.6c2.1.8 4.3.7 6.5.7h7.7c4.5 0 9.4.5 13.8-.8.8-.3.5-1.6-.4-1.3-4.3 1.3-9 .8-13.4.8h-6.9c-2.3 0-4.7.2-7-.6-.8-.4-1.1.9-.3 1.2zm22.9-6.3c1.4-.1 2.8-.1 4.3-.2 1.4-.1 2.9-.3 4.2.3.8.3 1.2-1 .4-1.3-1.3-.5-2.6-.4-3.9-.3l-4.9.3c-1-.1-1 1.2-.1 1.2zm-5.5 12.1c7.1-.3 14.2-.7 21.4-1.2.8-.1.8-1.4 0-1.3-7.1.6-14.2 1-21.4 1.2-.9 0-.9 1.3 0 1.3zM127.7 4.8c2 21 1.6 42.1 1.1 63.2 0 .8 1.3.8 1.3 0 .5-21.1.9-42.2-1.1-63.2-.1-.8-1.4-.8-1.3 0z" transform="translate(-808 -799) translate(110 578) translate(698 221) translate(111 15)"/>
                            <path fill="#E8E8E8" d="M128.4 5.3c9 .4 17.8-2.1 26.7-3.1 9-1 18.2-1 27.2 0 .8.1.8-1.2 0-1.3-9-.9-18.2-.9-27.2 0-8.9 1-17.7 3.5-26.7 3.1-.9 0-.9 1.3 0 1.3z" transform="translate(-808 -799) translate(110 578) translate(698 221) translate(111 15)"/>
                            <path fill="#E8E8E8" d="M181.7 1.8c1.2 4.7 1.4 9.4 1.5 14.2.1 5.1.3 10.2.5 15.3.4 10.1.8 20.2 1.3 30.2 0 .8 1.4.8 1.3 0-.5-10.4-1-20.7-1.4-31.1-.2-5.1-.3-10.2-.4-15.3-.1-4.6-.4-9.3-1.5-13.7-.2-.8-1.5-.4-1.3.4z" transform="translate(-808 -799) translate(110 578) translate(698 221) translate(111 15)"/>
                            <path fill="#E8E8E8" d="M129.4 69c9.5 2.7 19.8 1.7 29.5.8 9.3-.9 18.6-2.7 27.2-6.8.8-.4.1-1.5-.7-1.2-8.6 4.1-17.9 5.8-27.2 6.7-9.3.9-19.2 1.9-28.3-.8-1-.3-1.3 1-.5 1.3zM184 13.7c5.4-.8 10.9-1.1 16.4-.8 2.8.2 5.7.5 8.5 1 1.2.2 2.5.3 3.7.7 1.6.6 1.6 1.8 1.8 3.3 2 10.9 3.4 21.9 4 32.9 0 .8 1.4.8 1.3 0-.4-6.3-1-12.5-1.8-18.7-.4-2.9-.8-5.8-1.3-8.6l-.8-4.7c-.2-1.3-.3-3-.8-4.2-.8-1.7-3.8-1.7-5.4-2-2.8-.5-5.6-.8-8.4-1-5.9-.4-11.7-.1-17.6.8-.8.2-.4 1.5.4 1.3z" transform="translate(-808 -799) translate(110 578) translate(698 221) translate(111 15)"/>
                            <path fill="#E8E8E8" d="M167.4 68.4c.8 2.2 1.3 4.4 1.4 6.8 0 1.2-.1 2.5.7 3.5.8.9 2.3.9 3.5 1.1 1.9.3 3.8.5 5.6.6 8.6.5 17.3-.6 25.8-1.8.8-.1.8-1.5 0-1.3-7.3 1-14.6 1.9-22 1.9-1.7 0-3.4-.1-5.1-.2-1.1-.1-2.2-.2-3.3-.4-.8-.1-2.3 0-2.9-.5-1.5-1.1-1-3.6-1.3-5.3-.2-1.6-.7-3.2-1.2-4.7-.3-.8-1.5-.5-1.2.3z" transform="translate(-808 -799) translate(110 578) translate(698 221) translate(111 15)"/>
                            <path fill="#E8E8E8" d="M202.2 51.6c1 4.3 1.2 8.6 1.4 13 .2 4.2.4 8.4.6 12.5.4 8.5.6 17 .7 25.6 0 .8 1.3.8 1.3 0-.1-8.8-.4-17.6-.7-26.4-.4-8.2-.1-17-2-25.1-.2-.8-1.4-.5-1.3.4z" transform="translate(-808 -799) translate(110 578) translate(698 221) translate(111 15)"/>
                            <path fill="#E8E8E8" d="M203.1 52.4c9.3-.5 18.5-.4 27.7.4.8.1.8-1.2 0-1.3-9.2-.8-18.5-.9-27.7-.4-.8 0-.8 1.3 0 1.3zm1.7 50.6c1.1 1.9 2.9 2.6 5.1 2.9 3.2.4 6.4.5 9.6.8 6.8.4 13.6.8 20.5.8 3.3 0 6.7 0 10-.2l4.8-.3c.8 0 2.3.1 3.1-.5.5-.4.5-1 .6-1.6.2-1.7.1-3.5.2-5.2.1-3.5.2-7 .4-10.5 0-.8-1.3-.8-1.3 0l-.3 8.3c0 1.3-.1 2.6-.1 3.9 0 .7 0 1.5-.1 2.2 0 1.2-.2 1.7-1.5 2-1.2.3-2.7.2-3.9.3-1.5.1-2.9.1-4.3.2-2.7.1-5.5.1-8.3.1-5.4 0-10.8-.3-16.1-.6-2.7-.2-5.5-.4-8.3-.6-2.8-.2-7.1.2-8.7-2.6-.7-.8-1.9-.1-1.4.6z" transform="translate(-808 -799) translate(110 578) translate(698 221) translate(111 15)"/>
                            <path fill="#E8E8E8" d="M227.8 32.7c2.4 8.4 3 16.8 3.4 25.5.4 8.9.8 17.7 1.3 26.6 0 .8 1.4.8 1.3 0l-1.3-27.4c-.4-8.5-1-16.7-3.4-25-.2-.8-1.5-.5-1.3.3z" transform="translate(-808 -799) translate(110 578) translate(698 221) translate(111 15)"/>
                            <path fill="#E8E8E8" d="M232.8 85.8c5.2 1.8 10.7 2.1 16.1 2.6 5.6.5 11 1.1 16.6.2 5.6-.9 11.2-2 16.8-3.3 5.1-1.2 9.8-2.9 13.9-6.3.7-.5-.3-1.5-.9-.9-4.2 3.4-9.3 5-14.5 6.2-5.2 1.2-10.4 2.2-15.6 3.1-5.5.9-10.8.3-16.3-.3-5.3-.5-10.7-.8-15.7-2.6-.8-.3-1.2 1-.4 1.3zm-4.4-53c9.5-2.7 19.5-2.9 29.3-3.4 10-.5 19.8-.8 29.8-.1.8 0 .8-1.3 0-1.3-10.2-.8-20.3-.4-30.6.1-9.7.5-19.5.8-28.9 3.4-.8.2-.4 1.5.4 1.3z" transform="translate(-808 -799) translate(110 578) translate(698 221) translate(111 15)"/>
                            <path fill="#E8E8E8" d="M286.9 28.6c.1 8.4 1.2 16.8 2.7 25.1.8 4.2 1.6 8.4 2.6 12.5.9 4.1 1.6 8.3 3.1 12.2.3.8 1.5.4 1.3-.4-2.7-7.6-4-16-5.5-23.9-1.6-8.5-2.7-17-2.9-25.6-.1-.8-1.4-.8-1.3.1z" transform="translate(-808 -799) translate(110 578) translate(698 221) translate(111 15)"/>
                            <path fill="#454451" d="M137.9 10.6c0-.9 1.3-.9 1.3 0v3.9c0 1.2-.2 2.6.2 3.8.3.8-1 1.2-1.3.4-.3-.9-.3-1.9-.2-2.9-1.2.2-2.4.4-3.7.8l.5-.1c.1.9.2 1.9.2 2.8.1.8-1.2.8-1.3 0l-.6-7.2c0-.8 1.3-.8 1.3 0l.3 3c1.2-.3 2.4-.5 3.6-.6h-.3v-3.9zm19.9-2.4c.2-.5 1.1-.4 1.2.2.6 3.5 1.3 7 1.9 10.6.1.8-1.1 1.2-1.3.4-.6-3.5-1.3-7.1-2-10.6l.4 1.9-.2.5-1.1 2.3-1.1 2.3c-.2.5-1 .3-1.2-.2-.5-1.6-1.6-2.8-2.6-4-.1 2.4-.1 4.8 0 7.3 0 .8-1.3.8-1.3 0 0-3.1 0-6.2.1-9.3-.3-.8.8-1.5 1.2-.7.8 1.8 2.3 3.1 3.3 4.7l.1.2.5-1.1c.4-.8.7-1.5 1.1-2.3l1-2.2zm6.1-.6c-.2-.8 1.1-1.2 1.2-.4.7 3.8.9 7.6.7 11.5V18h.3c1.7-.1 3.3-.4 4.9-1l.5-.2c.8-.3 1.2 1 .4 1.3-2.2.8-4.4 1.2-6.8 1.2-.4 0-.7-.3-.7-.7.3-3.6.1-7.3-.5-11zm2 10.5h-.7l.7.7c-.1-.1 0-.7 0-.7zm-23.6-8.2c1.7.3 3.3-.8 5.1-.3.8.3.4 1.6-.4 1.3-.5-.2-1-.2-1.4-.1.5 2.4.7 4.8.7 7.3 0 .8-1.3.8-1.3 0 0-2.4-.2-4.7-.7-7-.8.2-1.6.3-2.3.2-.9-.2-.5-1.5.3-1.4zm12.9 3.9l-.6 1.2c.4 0 .8.1 1.2.2-.1-.5-.3-.9-.5-1.3l-.1-.1zm2.6-5.1l.4 1.9.8-1.8c-.4.1-.8 0-1.2-.1z" transform="translate(-808 -799) translate(110 578) translate(698 221) translate(111 15)"/>
                            <path fill="#E8E8E8" d="M133.7 28c8.4-.6 16.9-.9 25.3-.8.8 0 .8-1.3 0-1.3-8.5 0-16.9.2-25.3.8-.9 0-.9 1.4 0 1.3zm.2 5.7c1.9 0 3.9.1 5.8 0 1.8-.1 3.5-.4 5.3-.2.8.1.8-1.2 0-1.3-1.8-.2-3.5.1-5.3.2-1.9.1-3.9 0-5.8 0-.9 0-.9 1.3 0 1.3zm-.1 3.8c3.2.2 6.3-.5 9.5 0 .8.1 1.2-1.2.4-1.3-3.3-.5-6.6.1-9.8 0-1-.1-1 1.3-.1 1.3zm.8 8.5h8.7c.8 0 .8-1.3 0-1.3h-8.7c-.9-.1-.9 1.3 0 1.3zm.6 3.1h6.3c.8 0 .8-1.3 0-1.3h-6.3c-.9-.1-.9 1.3 0 1.3zm-1.3 4.9h8.9c.8 0 .8-1.3 0-1.3h-8.9c-.9 0-.9 1.3 0 1.3zm22.8-21.5h18.7c.8 0 .8-1.3 0-1.3h-18.7c-.8 0-.8 1.3 0 1.3zm.5 5.2h12.2c.8 0 .8-1.3 0-1.3h-12.2c-.9 0-.9 1.3 0 1.3zm16.7-.2h3.6c.8 0 .8-1.3 0-1.3h-3.6c-.9 0-.9 1.3 0 1.3zm-15.4 8.6h14.7c.8 0 .8-1.3 0-1.3h-14.7c-.9-.1-.9 1.3 0 1.3zm-5.3 6H166c.8 0 .8-1.3 0-1.3h-12.8c-.8 0-.8 1.3 0 1.3zm5.3 3.3h9.7c.8 0 .8-1.3 0-1.3h-9.7c-.9-.1-.9 1.3 0 1.3zm12.3-3.5h9.3c.8 0 .8-1.3 0-1.3h-9.3c-.9-.1-.9 1.3 0 1.3zm15.4-31.7h8.6c.8 0 .8-1.3 0-1.3h-8.6c-.9 0-.9 1.3 0 1.3zm11.1-2.5c2.2.9 4.7.9 6.8 2v-1.2c-1.5 1.1-3.1 2.2-4.6 3.3-.7.5 0 1.6.7 1.2 1.6-1.1 3.1-2.2 4.6-3.3.4-.3.5-.9 0-1.2-2.3-1.2-4.8-1.2-7.1-2.1-.8-.3-1.2 1-.4 1.3zm-9.8 8.4c1 .3 2 .5 3.1.7.3 0 2.7.2 2.8.4-.1-.3-3.5 2.7-3.9 3.1-.6.6.4 1.6.9.9 1.1-1.1 2.2-2 3.5-2.8.7-.4 1.4-1 1-1.9-.4-.8-1.6-.7-2.3-.8-1.6-.2-3.2-.6-4.8-1-.8-.1-1.2 1.2-.3 1.4zm-.3 11.3h13.7c.8 0 .8-1.3 0-1.3h-13.7c-.8 0-.8 1.3 0 1.3zm13.9-4.3c.9.5 1.9.8 2.9 1.1 1.1.3 2.9.6 3.5 1.6v-.7c-.4.8-1.3 1.4-2 2l-1.9 1.9c-.5.5.1 1.4.8 1.1.1 0 .2-.1.3-.2.8-.4.1-1.6-.7-1.2-.1 0-.2.1-.3.2l.8 1.1c.8-.8 1.6-1.5 2.3-2.3.6-.6 1.4-1.2 1.8-1.9.1-.2.1-.5 0-.7-1.4-2.1-4.9-2.1-7-3.1-.6-.4-1.3.7-.5 1.1zm-14 11.9h9.6c.8 0 .8-1.3 0-1.3h-9.6c-.8 0-.8 1.3 0 1.3zm15.1-.3h10.3c.8 0 .8-1.3 0-1.3h-10.3c-.8 0-.8 1.3 0 1.3zm-13.9 9.1h10.5c.8 0 .8-1.3 0-1.3h-10.5c-.9-.1-.9 1.3 0 1.3zm-14.4 16.5h16.3c.8 0 .8-1.3 0-1.3h-16.3c-.9-.1-.9 1.3 0 1.3zM180 75h14.7c.8 0 .8-1.3 0-1.3H180c-.9-.1-.9 1.3 0 1.3zm42.3-15.7c-2.3-2.5-5.4 3.3-5.7 5-.4 2.3.2 4.7.8 6.9.5 1.8 1 3.4.3 5.2-.6 1.6-1.9 3-3.4 3.6-.6.3-.3 1.3.4 1.2 5.4-.5 3.9 9.7 5.2 13 1.3 3.1 4.4 4.6 7.6 4 .8-.1.5-1.4-.4-1.3-6.9 1.1-6.6-6.6-7.2-11.1-.4-2.8-1.9-6.3-5.4-6 .1.4.2.8.4 1.2 2.8-1.2 4.9-4.7 4.3-7.8-.4-2.4-1.4-4.7-1.5-7.2 0-1 .1-2.1.4-3.1.1-.3 2.2-3.9 3.1-2.9.8.9 1.7-.1 1.1-.7zm21.1 28c-1.1 1.2-.8 2.6-.1 4 .5 1.2 1.8 2.6 1.8 3.9 0 2.4-2.8 3.5-4.7 4.3-.8.3-.4 1.6.4 1.3 2.2-.8 4.7-1.9 5.4-4.4.3-.9.2-1.9-.1-2.7-.5-1.4-3.1-4-1.7-5.5.6-.6-.4-1.5-1-.9z" transform="translate(-808 -799) translate(110 578) translate(698 221) translate(111 15)"/>
                            <path fill="#6E8EFF" d="M250.8 50.3c-6.9-2.8-13.5 3-12.5 10.2 1 7.1 9.3 8.6 13.3 2.9.5-.7-.7-1.4-1.2-.7-1.6 2.3-4.4 3.6-7.2 2.6-2.7-1-3.9-3.7-3.9-6.5 0-5.8 5.6-9.4 10.9-7.2 1 .3 1.4-1 .6-1.3zm9 6.2c2.4-.2 4.9-.6 7.3-.5.8 0 .8-1.3 0-1.3-2.4-.1-4.9.3-7.3.5-.8 0-.8 1.4 0 1.3z" transform="translate(-808 -799) translate(110 578) translate(698 221) translate(111 15)"/>
                            <path fill="#6E8EFF" d="M262.8 51.2c.3 3.1.4 6.1.4 9.2 0 .8 1.3.8 1.3 0 0-3.1-.1-6.1-.4-9.2-.1-.8-1.4-.8-1.3 0zm9.1 2.8c2.2.3 4.5.2 6.7.1.8 0 .8-1.4 0-1.3-2.1.1-4.3.2-6.3-.1-.9-.1-1.3 1.2-.4 1.3z" transform="translate(-808 -799) translate(110 578) translate(698 221) translate(111 15)"/>
                            <path fill="#6E8EFF" d="M274.9 48.8c.1 3.5.2 6.9.4 10.4 0 .8 1.4.8 1.3 0-.1-3.5-.2-6.9-.4-10.4 0-.8-1.3-.8-1.3 0z" transform="translate(-808 -799) translate(110 578) translate(698 221) translate(111 15)"/>
                            <path fill="#E8E8E8" d="M328.1 100.2c-2.1 19.1-.6 38.4 4.4 57 .2.8 1.5.5 1.3-.4-5-18.4-6.5-37.6-4.3-56.6.1-.8-1.3-.8-1.4 0z" transform="translate(-808 -799) translate(110 578) translate(698 221) translate(111 15)"/>
                            <path fill="#E8E8E8" d="M329.4 100.4c11.7.8 23.9 2.6 35.4-.4.8-.2.5-1.5-.4-1.3-11.3 3-23.5 1.1-35.1.3-.8 0-.8 1.4.1 1.4z" transform="translate(-808 -799) translate(110 578) translate(698 221) translate(111 15)"/>
                            <path fill="#E8E8E8" d="M363.9 99.5c-1.5 16.9 2.7 34 11.9 48.3.4.7 1.6 0 1.2-.7-9-14.1-13.1-30.9-11.7-47.7.1-.7-1.3-.7-1.4.1z" transform="translate(-808 -799) translate(110 578) translate(698 221) translate(111 15)"/>
                            <path fill="#E8E8E8" d="M333.5 157.6c6.8 2.5 15.2 1.2 22-.3 7.4-1.7 14.4-4.7 20.7-8.8.7-.4 0-1.6-.7-1.2-6 3.9-12.6 6.8-19.6 8.5-6.8 1.6-15.3 3-22.1.5-.7-.3-1.1 1-.3 1.3zm3.8-49.8c-2.4 1.7-4.7 3.5-6.7 5.6-.4.4-.1 1.2.5 1.2 3.3-.1 6.6-.2 9.9-.2.8 0 .8-1.3 0-1.3-3.3.1-6.6.2-9.9.2.2.4.3.8.5 1.2 2-2 4.1-3.8 6.5-5.4.5-.6-.1-1.8-.8-1.3zm6.1 1.8c3.5-.3 6.9-.2 10.3.1.8.1.8-1.2 0-1.3-3.4-.4-6.9-.4-10.3-.1-.8 0-.8 1.3 0 1.3z" transform="translate(-808 -799) translate(110 578) translate(698 221) translate(111 15)"/>
                            <path fill="#E8E8E8" d="M354.1 107.5c2.1.5 4.2 1.1 6.3 1.9-.1-.4-.2-.8-.3-1.1-1.4 1.1-2.8 2.3-4.1 3.5-.6.6.3 1.5.9.9 1.3-1.2 2.7-2.4 4.1-3.5.4-.4.1-1-.3-1.1-2-.8-4.1-1.4-6.3-1.9-.7-.2-1.1 1-.3 1.3zm-22.9 15.3c2 .1 3.9.2 5.8.4.8 0 .8-1.3 0-1.3-2-.1-3.9-.2-5.8-.4-.8-.1-.8 1.2 0 1.3zm9.9 0c5.5-.8 10.9-1.7 16.3-2.5.8-.1.5-1.4-.4-1.3-5.5.8-10.9 1.7-16.3 2.5-.8.1-.5 1.4.4 1.3zm-8.9 4.3h4.2c.8 0 .8-1.3 0-1.3h-4.2c-.8 0-.8 1.3 0 1.3zm.3 3.2c1.6.1 3.1 0 4.7-.4.8-.2.5-1.5-.4-1.3-1.4.3-2.8.4-4.3.3-.8 0-.8 1.4 0 1.4zm-.5 5.8c5.9-.6 12.4-.6 18-2.6.8-.3.4-1.6-.4-1.3-5.5 1.9-11.9 1.9-17.6 2.5-.8.2-.8 1.5 0 1.4zm10.8-7.4c6.1-.7 12.2-1.7 18.2-3.2.8-.2.5-1.5-.4-1.3-5.8 1.5-11.8 2.5-17.8 3.1-.8.2-.8 1.5 0 1.4zm-9.3 12.9c1.4.1 2.7 0 4-.3.8-.2.5-1.5-.4-1.3-1.2.3-2.4.4-3.7.3-.7-.2-.7 1.2.1 1.3zm9.9-1.5c2 .2 3.9-.4 5.8-.8 2.4-.5 4.8-1.1 7.1-1.6.8-.2.5-1.5-.4-1.3-2.1.5-4.2.9-6.3 1.4-2.1.4-4.2 1.2-6.3.9-.8 0-.8 1.3.1 1.4zm-2.7 2.4c-1.1.3-2 1.1-2.3 2.2-.1.4 0 1 .1 1.4.1.4 2 2.7 1 3-.4.1-.7.6-.4 1 1.1 1.5.9 3.6 2.5 4.7 1 .7 2.1.8 3.1-.1.6-.6-.3-1.5-.9-.9-1.6 1.5-2.9-3.5-3.5-4.3-.1.3-.3.7-.4 1 .8-.2 1.2-.7 1.3-1.5.2-1.4-3-4.3-.2-5.1.9-.3.5-1.6-.3-1.4zm3.4 5.8c4-.2 7.9-.5 11.9-.9.8-.1.8-1.4 0-1.3-3.9.4-7.9.8-11.9.9-.8 0-.8 1.3 0 1.3zm14.4-7c.4 0 .9-.1 1.3 0 1.9.5 1.1 1 1.2 2 .1.8 0 1.4.2 2.2.2.8.7 1.6.9 2.4.4 1.2.4 1.4-.4 2.4-.8.9-.8.9-1.9 1.1-.8.1-.5 1.4.4 1.3 1.3-.2 2.7-.7 3.3-2 .7-1.5 0-3-.6-4.4-.4-1.1-.6-2-.6-3.2 0-.6.1-1.3-.2-1.9-.8-1.6-2.3-1-3.7-1.2-.7-.2-.7 1.2.1 1.3z" transform="translate(-808 -799) translate(110 578) translate(698 221) translate(111 15)"/>
                        </g>
                        <g fill="#E8E8E8">
                            <path d="M4.5 77.6c2.4 17.3 4.4 34.6 6.1 52 .1.8 1.4.8 1.3 0-1.6-17.5-3.7-34.9-6.1-52.4-.1-.8-1.3-.5-1.3.4z" transform="translate(-808 -799) translate(110 578) translate(698 221) translate(0 251)"/>
                            <path d="M10.7 130.3c14.3 7.1 31.2 7.2 45.6.5.8-.4.1-1.5-.7-1.2-14 6.6-30.5 6.3-44.3-.5-.7-.4-1.4.8-.6 1.2z" transform="translate(-808 -799) translate(110 578) translate(698 221) translate(0 251)"/>
                            <path d="M57.3 78.5c0 17.2-.4 34.5-1.1 51.7 0 .8 1.3.8 1.3 0 .7-17.2 1.1-34.5 1.1-51.7 0-.8-1.3-.8-1.3 0z" transform="translate(-808 -799) translate(110 578) translate(698 221) translate(0 251)"/>
                            <path d="M4.9 77.8C22.2 83 40.4 81.2 58 79.2c.8-.1.8-1.4 0-1.3-17.5 2-35.6 3.9-52.8-1.3-.7-.4-1.1.9-.3 1.2zm6.6 45.9c1.5-3 4.9 1.2 6.1 2.3 1.1 1 2.4 1.6 3.9 1.5 3.7-.2 6.9-3.9 10.7-2.9 3.7.9 5.7 4.7 9.9 4.3 4.8-.4 9.7-6.1 14.5-3.3.8.4 1.4-.7.7-1.2-4.7-2.7-8.9 1.2-13.3 2.7-3.3 1.1-5.5-.2-8.1-2-1.6-1.1-3.2-2.1-5.3-2-4.7.3-8.5 5.5-12.8 1.3-1.2-1.2-2.3-2.6-4.1-2.9-1.4-.2-2.7.2-3.4 1.5-.4.8.8 1.4 1.2.7zm-1.3-7.7c15.3 4.2 31.5 3.9 46.6-.9.8-.3.5-1.6-.4-1.3-14.9 4.7-30.8 5-45.9.9-.8-.2-1.1 1-.3 1.3zM8 100.6c16.3 4 33.4 3.6 49.4-1.1.8-.2.5-1.5-.4-1.3-15.9 4.7-32.7 5.1-48.7 1.1-.7-.2-1.1 1-.3 1.3zM7.3 89c2.7-2 5.3.9 7.3 2.4 1.6 1.2 3.3 1.7 5.3 1.5 4-.5 7.9-4.7 12.1-3.6 2.3.6 3.8 2.8 6.1 3.2 1.8.3 3.4-.5 4.8-1.5 2.4-1.5 4.3-2.7 7.3-2.5 2.7.2 5.2.8 8 .4.8-.1.5-1.4-.4-1.3-3.1.4-6-.6-9.1-.5-2.2.1-3.9 1-5.8 2.2-1 .7-2 1.5-3.2 1.7-1.8.4-3.2-.6-4.6-1.6-1.6-1.1-3.2-1.9-5.2-1.7-4.1.4-7.9 4.6-12.1 3.7-3.7-.8-7-6.9-11.3-3.7-.5.7.1 1.9.8 1.3z" transform="translate(-808 -799) translate(110 578) translate(698 221) translate(0 251)"/>
                            <path d="M16.8 78.7c-2-2.1-8.4-8.9-4.9-11.8.2-.2.3-.6.1-.8-2.7-3.9-5.8-8.2-6.1-13.1-.1-2.2.8-3.9 1-5.9.2-2-.8-4.1-1.3-6-2.4-9.7-4.1-20.2-3.1-30.2.2-2.4.7-5 1.6-7.2C6-.7 9.7 3.3 11.3 5.6c2.7 3.7 4.5 7.9 6 12.2 3.3 9.3 6 18.8 8.2 28.4 2.5 11.2 4.3 22.5 5.2 34 .1.8 1.4.8 1.3 0-1-11.3-2.7-22.4-5.1-33.5-2.4-11-5.4-22-9.5-32.4-1.7-4.2-3.8-8.8-7.1-12C7.8-.1 4.5-.5 2.9 3 1 7.4.8 12.5 1 17.3c.2 5.7.8 11.5 1.8 17.1.6 3.1 1.2 6.2 2 9.2.5 1.8.8 3.1.3 4.9-.4 1.2-.6 2.5-.6 3.9 0 5.5 3.2 10.2 6.2 14.5 0-.3.1-.5.1-.8-4.3 3.7 2.3 11.1 4.9 13.7.8.4 1.7-.5 1.1-1.1z" transform="translate(-808 -799) translate(110 578) translate(698 221) translate(0 251)"/>
                            <path d="M27.2 44.1c.4-3.9.8-7.8 2.2-11.5.8-2.2 2-3.9 3.5-5.7 1-1.2 1.7-2.5 2.7-3.8 2.7-3.8 5.3.4 5.8 3.1.4 2.4.6 4.9.7 7.4.2 4.8-.1 9.6-.8 14.4-.1.7.8 1.2 1.2.5 1-1.6 4.2-5.1 5.7-1.4.5 1.2.2 2.8.1 4-.2 3.4-.5 6.8-1 10.2-.9 6.2-2.3 12.3-4.3 18.2-.3.8 1 1.2 1.3.4 2.8-8.6 4.6-17.6 5.2-26.6.2-2.5 1.2-7.3-1.9-8.7-2.7-1.3-5 1.2-6.4 3.3l1.2.5c.9-6 1.2-12.1.6-18.1-.3-3.3-.6-10.5-5.7-10-1.9.2-2.8 1.8-3.7 3.2-1.4 2.3-3.4 4.1-4.6 6.5-2.3 4.4-2.8 9.4-3.3 14.2.1.7 1.4.7 1.5-.1zM5 2.7c9.5 25 14.7 51.3 19.7 77.5.2.8 1.5.5 1.3-.4C20.9 53.6 15.8 27.3 6.3 2.3c-.3-.7-1.6-.4-1.3.4z" transform="translate(-808 -799) translate(110 578) translate(698 221) translate(0 251)"/>
                            <path d="M4.4 40.2C10.9 44 16.1 49.4 19.6 56c.4.8 1.6.1 1.2-.7-3.6-6.8-9-12.4-15.6-16.3-.9-.4-1.5.7-.8 1.2zm12.1-25.6c-.8 7.4-1.5 14.9-.6 22.3.1.8 1.4.8 1.3 0-.9-7.4-.2-14.9.6-22.3.1-.9-1.2-.9-1.3 0zm21.2 7.1c-1 18.6-2 37.3-3 55.9 0 .8 1.3.8 1.3 0 1-18.6 2-37.3 3-55.9.1-.9-1.2-.9-1.3 0z" transform="translate(-808 -799) translate(110 578) translate(698 221) translate(0 251)"/>
                            <path d="M26 43.3c2.3 7.5 5.2 14.8 8.7 21.8.4.8 1.5.1 1.2-.7-3.5-6.9-6.3-14.1-8.5-21.5-.4-.7-1.6-.4-1.4.4zm10.2 28.3c5-2.8 9.1-6.9 12-11.8.4-.8-.7-1.4-1.2-.7-2.8 4.8-6.7 8.6-11.5 11.4-.7.4-.1 1.5.7 1.1zM5.4 78c2.7-.2 6.8-1.1 8.8 1.3l.8-1.1c-1.7-.9-3.5-1.6-5.5-1.9-.1.4-.2.8-.4 1.3 2.1.4 4.2.8 6.3 1.5.8.3 1.2-1 .4-1.3-2.1-.6-4.2-1.1-6.3-1.5-.8-.1-1.2 1.1-.4 1.3 1.9.4 3.5.9 5.2 1.8.7.4 1.3-.5.8-1.1-2.3-2.8-6.6-1.9-9.7-1.7-.9.2-.9 1.5 0 1.4zm39.6.5c-.1-.4 5.4-.2 5.7-.1 1.9.1 3.8.2 5.6.2v-1.3c-3.5.2-7 .4-10.5.5-.8 0-.8 1.3 0 1.3 2 .1 3.9.1 5.8.1.8 0 .8-1.3 0-1.3-2 0-3.9 0-5.8-.1v1.3c3.5-.2 7-.4 10.5-.5.8 0 .8-1.3 0-1.3-3.4-.1-7-.6-10.4-.4-1.3 0-2.5.5-2.2 2 .2.8 1.5.5 1.3-.4zm53.6 112.6c6.6-8.3 13.2-16.6 19.9-25 6.1-7.6 12.1-15.2 19.2-21.9.6-.6-.3-1.5-.9-.9-7.1 6.7-13.2 14.3-19.2 21.9-6.6 8.3-13.2 16.6-19.9 25-.6.6.3 1.5.9.9z" transform="translate(-808 -799) translate(110 578) translate(698 221) translate(0 251)"/>
                            <path d="M136.7 144h216.6c.8 0 .8-1.3 0-1.3H136.7c-.8-.1-.8 1.3 0 1.3z" transform="translate(-808 -799) translate(110 578) translate(698 221) translate(0 251)"/>
                            <path d="M353.2 144.1c15.8 16.3 30.7 33.4 44.5 51.3.5.7 1.7 0 1.2-.7-13.9-18-28.8-35.3-44.7-51.6-.7-.5-1.7.4-1 1zM25.9 149h61.8c.8 0 .8-1.3 0-1.3H25.9c-.8 0-.8 1.3 0 1.3zm115.4-26.8H429c.8 0 .8-1.3 0-1.3H141.3c-.9 0-.9 1.3 0 1.3zm316.8.6h93.8c.8 0 .8-1.3 0-1.3h-93.8c-.8 0-.8 1.3 0 1.3zM378.9 142h51.3c.8 0 .8-1.3 0-1.3h-51.3c-.8 0-.8 1.3 0 1.3zm76.3 5.3h39c.8 0 .8-1.3 0-1.3h-39c-.8-.1-.8 1.3 0 1.3z" transform="translate(-808 -799) translate(110 578) translate(698 221) translate(0 251)"/>
                        </g>
                        <path fill="#161616" d="M95.1 372.3h48.2c.8 0 .8-1.3 0-1.3H95.1c-.8 0-.8 1.3 0 1.3zm45.4 5.8h120.6c.8 0 .8-1.3 0-1.3H140.5c-.8 0-.8 1.3 0 1.3zm93.7-5.8h163.2c.8 0 .8-1.3 0-1.3H234.2c-.9 0-.9 1.3 0 1.3zm163.1 8.7h114.9c.8 0 .8-1.3 0-1.3H397.3c-.8-.1-.8 1.3 0 1.3zm-378 45.4h36.2c.8 0 .8-1.3 0-1.3H19.3c-.9-.1-.9 1.3 0 1.3zm307.9-8.1h52.3c.8 0 .8-1.3 0-1.3h-52.3c-.8 0-.8 1.3 0 1.3zm137.9 1.7h47.1c.8 0 .8-1.3 0-1.3h-47.1c-.8 0-.8 1.3 0 1.3z" transform="translate(-808 -799) translate(110 578) translate(698 221)"/>
                    </g>
                    <g>
                        <g>
                            <path fill="#FFF" d="M20.2 42.3V211c3.9-.4 7.7-.8 11.6-1.2V41.1c-3.8.4-7.7.8-11.6 1.2zm336.6 1.8l-.3 165.6h11.3V42.6c-3.6.5-7.3 1-11 1.5z" transform="translate(-808 -799) translate(110 578) translate(698 221) translate(39 104) translate(10 112)"/>
                            <path fill="#000" fill-rule="nonzero" d="M77.6 154.8c-.4-23.8-.6-48.1-.3-73 .2-16 .5-31.7.9-47.2l-14.1-.3-.3 119.9 13.8.6zM311.7 37.1l.3 117.2 12.6-.3.9-119c-4.6.6-9.2 1.4-13.8 2.1z" transform="translate(-808 -799) translate(110 578) translate(698 221) translate(39 104) translate(10 112)"/>
                            <path fill="#000" fill-rule="nonzero" d="M1.2 38.9c-.1 3.3-.2 6.6-.3 9.8l380.7.6c-.3-3.5-.6-7-.9-10.4-41.1-1.8-83.1-3.1-126-3.7-87.9-1.3-172.5.2-253.5 3.7z" transform="translate(-808 -799) translate(110 578) translate(698 221) translate(39 104) translate(10 112)"/>
                            <path fill="#FFF" d="M1.2 38.6l379.5.3c-13.5-12.8-27-25.5-40.4-38.3L34.1.9C23.1 13.4 12.2 26 1.2 38.6z" transform="translate(-808 -799) translate(110 578) translate(698 221) translate(39 104) translate(10 112)"/>
                            <path fill="#161616" d="M1.3 39.5C12.2 26.4 23.5 13.6 35.1 1.2c.6-.6-.4-1.6-.9-.9C22.6 12.8 11.4 25.5.4 38.6c-.6.6.4 1.5.9.9z" transform="translate(-808 -799) translate(110 578) translate(698 221) translate(39 104) translate(10 112)"/>
                            <path fill="#161616" d="M.1 39.5v8.3c0 .8 1.3.8 1.3 0v-8.3c0-.9-1.3-.9-1.3 0zm1.8 10h379.3c.8 0 .8-1.3 0-1.3H1.9c-.9 0-.9 1.3 0 1.3z" transform="translate(-808 -799) translate(110 578) translate(698 221) translate(39 104) translate(10 112)"/>
                            <path fill="#161616" d="M382.3 48.3v-9.9c0-.8-1.3-.8-1.3 0v9.9c0 .9 1.3.9 1.3 0zM.8 49.5c.8 0 .8-1.3 0-1.3-.9 0-.9 1.3 0 1.3z" transform="translate(-808 -799) translate(110 578) translate(698 221) translate(39 104) translate(10 112)"/>
                            <path fill="#161616" d="M1.3 39.6h379.3c.8 0 .8-1.3 0-1.3H1.3c-.9 0-.9 1.3 0 1.3zm34.1-38h304.9c.8 0 .8-1.3 0-1.3H35.4c-.8 0-.8 1.3 0 1.3z" transform="translate(-808 -799) translate(110 578) translate(698 221) translate(39 104) translate(10 112)"/>
                            <path fill="#161616" d="M339.6 1.7c13.4 12.4 26.9 24.9 40.3 37.4.6.6 1.5-.4.9-.9-13.4-12.4-26.9-24.9-40.3-37.4-.5-.6-1.5.3-.9.9zM19.9 48.9v161.4c0 .8 1.3.8 1.3 0V48.9c0-.9-1.3-.9-1.3 0zm11.6.5v160.3c0 .8 1.3.8 1.3 0V49.4c0-.8-1.3-.8-1.3 0z" transform="translate(-808 -799) translate(110 578) translate(698 221) translate(39 104) translate(10 112)"/>
                            <path fill="#161616" d="M20.6 211.5c3.5-.2 6.9-.4 10.4-.6.8 0 .8-1.4 0-1.3-3.5.2-6.9.4-10.4.6-.9.1-.9 1.4 0 1.3zM355.7 48.9v161.4c0 .8 1.3.8 1.3 0V48.9c0-.9-1.3-.9-1.3 0zm11.5.5v160.3c0 .8 1.3.8 1.3 0V49.4c0-.8-1.3-.8-1.3 0z" transform="translate(-808 -799) translate(110 578) translate(698 221) translate(39 104) translate(10 112)"/>
                            <path fill="#161616" d="M356.9 210.7c3.5-.2 6.9-.4 10.4-.6.8 0 .8-1.4 0-1.3-3.5.2-6.9.4-10.4.6-.9 0-.9 1.3 0 1.3zM63.6 49.5v104.3c0 .8 1.3.8 1.3 0V49.5c0-.9-1.3-.9-1.3 0zm13.2.6v103.7c0 .8 1.3.8 1.3 0V50.1c0-.8-1.3-.8-1.3 0z" transform="translate(-808 -799) translate(110 578) translate(698 221) translate(39 104) translate(10 112)"/>
                            <path fill="#161616" d="M64.8 155h12.7c.8 0 .8-1.3 0-1.3H64.8c-.9 0-.9 1.3 0 1.3zM311.7 48.9v104.9c0 .8 1.3.8 1.3 0V48.9c.1-.8-1.3-.9-1.3 0zm12.6 1.2v103.7c0 .8 1.3.8 1.3 0V50.1c.1-.8-1.3-.8-1.3 0z" transform="translate(-808 -799) translate(110 578) translate(698 221) translate(39 104) translate(10 112)"/>
                            <path fill="#161616" d="M313 155h12c.8 0 .8-1.3 0-1.3h-12c-.9 0-.9 1.3 0 1.3z" transform="translate(-808 -799) translate(110 578) translate(698 221) translate(39 104) translate(10 112)"/>
                        </g>
                        <g>
                            <path fill="#FFF" d="M2.7 3.3c-.8 1-.9 2-1 2.9-1 7.1-.6 12.4-.6 12.4.2 2.7.4 6.6.5 11.6 1.9 2 3.7 2.8 4.9 3.2 3.3 1.1 6.5.4 12.6-1.2 2.5-.6 4.4-1.2 5.8-1.7 1-1.8 1.3-3.4 1.4-4.4.2-2.2-.5-3.2.3-4.3.8-1.1 1.9-.9 2.5-2.1.3-.7.3-1.8-.2-2.2-.8-.6-2.3.9-3.1.3-.2-.2-.2-.4-.3-2-.1-2.2-.2-2.5.1-2.7.2-.3 1-.3 2.4-.2 1.1 0 1.5 0 1.8.2.8.7.5 2.8-.3 4.4-1 1.9-2.6 2.6-2.4 3 .2.4 2.2 0 3.8-1 .9-.6 2.3-1.4 2.6-2.9.5-2.2-1.6-4.2-1.9-4.5-2.6-2.4-6.4-1.6-6.9-1.5 0-2.1.1-4.2.2-6.4C19.2 1.7 14.4 1.1 11.4 1 4.9 1 3.3 2.6 2.7 3.3z" transform="translate(-808 -799) translate(110 578) translate(698 221) translate(39 104) translate(275 102)"/>
                            <path fill="#161616" d="M.8 5.3C.1 13.4 0 21.5.5 29.7c0 .8 1.4.8 1.3 0-.5-8.1-.4-16.3.3-24.4.1-.8-1.2-.8-1.3 0z" transform="translate(-808 -799) translate(110 578) translate(698 221) translate(39 104) translate(275 102)"/>
                            <path fill="#161616" d="M.6 30.1c5.9 6.6 15.2 4.5 22.4 1.7.8-.3.4-1.6-.4-1.3-6.8 2.6-15.5 4.8-21.1-1.4-.5-.6-1.5.4-.9 1zM2.1 5.3c1.7-3.1 7.6-3.5 10.8-3.4 3.8.1 7.4 1.1 10.8 2.9.8.4 1.4-.8.7-1.2C20.5 1.4 16 .3 11.5.5c-3.4.1-8.6.7-10.4 4-.6.9.6 1.5 1 .8z" transform="translate(-808 -799) translate(110 578) translate(698 221) translate(39 104) translate(275 102)"/>
                            <path fill="#161616" d="M23.8 5v6c0 .4.4.7.8.6 2.2-.5 5.7 0 7 2.2 2.5 4.2-2.4 5-4.9 6.7-1.1.7-1.3 1.5-1.3 2.7 0 2.9 0 6.2-3 7.7-.8.4-.1 1.5.7 1.2 2.6-1.3 3.5-4 3.6-6.7 0-1.2-.4-2.7.6-3.7.5-.5 1.5-.7 2.1-1 1.3-.6 2.6-1.3 3.5-2.5 1.7-2.3.8-4.6-1.2-6.2-2.1-1.7-4.8-2.2-7.3-1.6.3.2.6.4.8.6V5c-.2-.9-1.5-.9-1.4 0z" transform="translate(-808 -799) translate(110 578) translate(698 221) translate(39 104) translate(275 102)"/>
                            <path fill="#161616" d="M24.8 13.3c-.2 1.6-.1 3.3.3 4.9.2.8 1.5.5 1.3-.4-.3-1.5-.4-3-.2-4.5 0-.8-1.3-.8-1.4 0z" transform="translate(-808 -799) translate(110 578) translate(698 221) translate(39 104) translate(275 102)"/>
                            <path fill="#161616" d="M25.8 14.7c.7-.6 1.6-1 2.5-.7.8.3 1.5 1.2 1.1 2.1-.6 1.2-2.5 1.2-3.7 1.2-.8 0-.8 1.3 0 1.3 2.1 0 5.4-.6 5.1-3.4-.1-1.2-1.1-2.2-2.2-2.5-1.4-.4-2.8.1-3.9 1.1-.5.5.4 1.4 1.1.9zM5.9 3.2c-.9.7-2.3.4-2.5 1.9-.1 1.2.9 2 1.9 2.3 2.3.5 5.1-.1 7.5 0 2.8 0 5.7.3 8.5.6.4 0 .7-.4.7-.7 0-.8 0-.8-.4-1.5s-1.6 0-1.1.7c.1.3.1.5.2.8l.7-.7C18 6.2 14.6 6 11.2 6H8.6c-.6 0-1.9.4-2.4.1-.3-.4-.6-.8-.8-1.2.2 0 .5-.1.7-.2.2-.2.6-.4.8-.5.6-.6-.4-1.5-1-1z" transform="translate(-808 -799) translate(110 578) translate(698 221) translate(39 104) translate(275 102)"/>
                            <path fill="#4C4C4C" d="M13.8 1.4c-.2-.6-3.9-.4-7.3.7C4.6 2.7 3 3.5 1.9 4c-.4 4.9-.6 9.9-.7 15.2-.1 3.8-.1 7.4 0 11 1.2.9 4.2 3 8.6 3.3 2.9.2 5.3-.4 6.6-.9L14.1 6.7c-3.5 0-6.3-.4-6.5-1.2-.2-1.3 6.5-3.3 6.2-4.1z" opacity=".09" transform="translate(-808 -799) translate(110 578) translate(698 221) translate(39 104) translate(275 102)"/>
                            <path fill="#4C4C4C" d="M2.1 6.8C4 12.7 5.9 18.7 7.9 24.6c1 3 2 6 3 8.9-1.2 0-3.2-.3-5.4-1.2-1.9-.8-3.2-1.9-4-2.6-.3-3.9-.4-8.2-.2-12.9.1-3.6.4-7 .8-10z" opacity=".11" transform="translate(-808 -799) translate(110 578) translate(698 221) translate(39 104) translate(275 102)"/>
                        </g>
                        <path fill="#FFF" d="M291 32.1c-.4 2-.9 5-1.4 8.7-1.6 12.1-1.6 21.5-1.5 28.8 0 5.4.3 12.3.9 20.5 2.1.8 5.6 1.9 10 3 7.6 1.9 12 2 24.6 3.7 7.7 1.1 5.9 1 12.7 1.9 10 1.3 16.4 2.2 24.4 2.3 3.7.1 8.8 0 15.1-.5 1.1-4.8 2.3-10.9 3.1-18 .2-1.8 1.1-9.8.9-20.8-.1-7-.6-15.9-2.2-26.1-1.7-.4-4-1-6.8-1.6-3.3-.7-14.9-3.1-30.8-4-16.8-1.1-29.6 0-33.9.3-6.1.5-11.3 1.2-15.1 1.8zM1.3 65.8c7.7 19.5 15.3 39.1 22.9 58.6l67.2-40.8C84.9 67.7 78.5 51.9 72.1 36c-11.4 3.9-23.4 8.4-35.9 13.6C23.6 54.9 12 60.4 1.3 65.8zm22.5 59.4c8.3 5 17.6 10.1 27.8 15 6.4 3.1 12.6 5.7 18.5 8.1 10.2-6.9 20.4-13.8 30.6-20.8 10-6.9 20.1-13.8 30.1-20.8-12.7-7.6-25.5-15.1-38.3-22.7-22.8 13.8-45.8 27.5-68.7 41.2z" transform="translate(-808 -799) translate(110 578) translate(698 221) translate(39 104)"/>
                        <path fill="#161616" d="M36.3 126.2c19.3-11.7 39-23.1 57.4-36.2.7-.5 0-1.6-.7-1.2C74.6 102 55 113.4 35.6 125c-.7.5 0 1.6.7 1.2zm7.3 4.6c19.3-11.7 39-23.1 57.4-36.2.7-.5 0-1.6-.7-1.2-18.4 13.2-38.1 24.5-57.4 36.2-.6.4 0 1.6.7 1.2zm9 4.2c19.3-11.7 39-23.1 57.4-36.2.7-.5 0-1.6-.7-1.1-18.4 13.1-38.1 24.5-57.4 36.2-.7.4 0 1.6.7 1.1zm7.4 4.6c19.3-11.7 39-23.1 57.4-36.2.7-.5 0-1.6-.7-1.1-18.4 13.1-38.1 24.5-57.4 36.2-.8.4-.1 1.5.7 1.1z" transform="translate(-808 -799) translate(110 578) translate(698 221) translate(39 104)"/>
                        <path fill="#161616" d="M42.3 122c4.9 3.1 9.8 6.2 14.6 9.3.7.4 1.4-.7.7-1.2-4.9-3.1-9.8-6.2-14.6-9.3-.7-.4-1.4.8-.7 1.2zm7.6-4.4c4.6 3.2 9.1 6.4 13.7 9.7.7.5 1.4-.7.7-1.2-4.6-3.2-9.1-6.4-13.7-9.7-.7-.4-1.3.7-.7 1.2zm7.3-4.5c4.4 3.2 8.7 6.5 12.9 9.9.7.5 1.6-.4.9-.9-4.3-3.5-8.7-6.9-13.2-10.1-.6-.6-1.3.6-.6 1.1zm7.6-4.3c4.3 3.1 8.4 6.4 12.3 9.9.6.6 1.6-.4.9-.9-4-3.6-8.1-7-12.5-10.1-.7-.5-1.4.6-.7 1.1zm7-3.8c4 3.3 7.7 6.8 11.2 10.5.6.6 1.5-.3.9-.9-3.5-3.8-7.3-7.3-11.2-10.5-.6-.6-1.5.4-.9.9zm5.6-4.4c4.3 3.4 8.3 7.2 11.9 11.3.6.7 1.5-.3.9-.9-3.6-4.1-7.6-7.9-11.9-11.3-.6-.5-1.6.4-.9.9zm6.9-4.7c4.2 3.4 8.4 7 12.3 10.7.6.6 1.6-.4.9-.9-4-3.7-8.1-7.3-12.3-10.7-.7-.6-1.6.4-.9.9zm5.8-3.3c2.3 1.3 4.2 3.5 6.2 5.3l5.7 5.4c.6.6 1.5-.4.9-.9-2.1-2-4.2-4-6.2-6-1.8-1.8-3.6-3.7-5.8-5-.9-.3-1.6.8-.8 1.2zm-54.7 33.7c5.2 3.4 10.6 6.4 16.2 9 .8.4 1.5-.8.7-1.2-5.6-2.7-10.9-5.7-16.2-9-.7-.4-1.4.7-.7 1.2zm58.2-36l.5.1c.4.1.8-.1.8-.4.1-.4-.1-.7-.4-.8l-.5-.1c-.4-.1-.8.1-.8.4-.2.3 0 .7.4.8z" transform="translate(-808 -799) translate(110 578) translate(698 221) translate(39 104)"/>
                        <path fill="#161616" d="M93.5 90.2c5.6 2.5 10.4 6.3 15.8 9.1.8.4 1.4-.8.7-1.1-5.4-2.8-10.2-6.6-15.8-9.1-.8-.4-1.5.8-.7 1.1zM51 135.3c2.7 1.4 5.4 2.9 7.9 4.6.7.5 1.4-.7.7-1.2-2.6-1.7-5.2-3.3-7.9-4.6-.8-.4-1.5.8-.7 1.2zm6.4-3.8c2 1.5 4 3.1 5.8 4.9.6.6 1.5-.4.9-.9-1.9-1.9-3.9-3.5-6.1-5.1-.6-.5-1.3.6-.6 1.1zm6.3-4c2.2 1.6 4.2 3.5 6.1 5.4.6.6 1.5-.3.9-.9-1.9-2.1-4.1-4-6.4-5.7-.6-.4-1.2.7-.6 1.2zm6.7-4.2c1.9 1.8 3.6 3.6 5.4 5.5.6.6 1.5-.3.9-.9-1.7-1.9-3.5-3.7-5.4-5.5-.6-.7-1.5.2-.9.9zm18.5-11.7c1.8 2.1 3.5 4.2 5.4 6.3.5.7 1.5-.3.9-.9-1.8-2.1-3.5-4.2-5.4-6.3-.6-.7-1.5.3-.9.9zm7.8-4.7c1.8 1.9 3.5 3.8 5.1 5.8.6.7 1.5-.3.9-.9-1.7-1.9-3.4-3.9-5.1-5.8-.6-.7-1.5.3-.9.9zm5.2-3.5c2.8 1.3 5.6 2.6 8.5 3.9.8.4 1.5-.8.7-1.2-2.8-1.3-5.6-2.6-8.5-3.9-.8-.3-1.5.9-.7 1.2z" transform="translate(-808 -799) translate(110 578) translate(698 221) translate(39 104)"/>
                        <path fill="#161616" d="M109.1 99c2.5 1.6 5 3 7.6 4.3.8.4 1.4-.8.7-1.2-2.6-1.3-5.1-2.8-7.6-4.3-.7-.5-1.4.7-.7 1.2z" transform="translate(-808 -799) translate(110 578) translate(698 221) translate(39 104)"/>
                        <path fill="#FFF" d="M148.8 8.8c-.5 4.9-1 10-1.2 15.2-1.1 21.5.7 41 3.7 57.7 9.3 0 16.9-.2 21.6-.3 32.5-.8 46.6-2.7 75.5-2.8 7.3 0 13.2.1 16.6.2 1.1-4.6 2.2-9.5 3-14.6 3.6-23.4 1.3-44-2.2-60-6-1.2-14.9-2.5-25.8-3.1-7.1-.4-9.1-.1-37.7 1.2-20.4.9-25.8 1.1-35.3 2.7-7.7 1.2-14 2.7-18.2 3.8z" transform="translate(-808 -799) translate(110 578) translate(698 221) translate(39 104)"/>
                        <path fill="#161616" d="M323.3 97.1c.3 6 .2 12-.3 18 0 .8 1.3.8 1.3 0 .5-6 .6-12 .3-18 0-.9-1.3-.9-1.3 0zm7.8 1.3v16.7c0 .8 1.3.8 1.3 0V98.4c0-.9-1.3-.9-1.3 0z" transform="translate(-808 -799) translate(110 578) translate(698 221) translate(39 104)"/>
                        <path fill="#161616" d="M323.2 114.5c-1.4-.1-6.9.9-5.8 3.4.5 1.2 2.4 1.2 3.4 1.4 2.3.4 4.6.4 6.8.4s4.4 0 6.6-.3c1-.1 3.1-.4 3.7-1.4 1.4-2.3-4.7-3.5-5.9-3.6-.8-.1-1.2 1.1-.4 1.3 1 .2 1.9.4 2.9.7 1.3.4 2.5.7.9 1.5-1.8.8-4.6.5-6.5.5-2.2 0-4.5 0-6.7-.2-.8-.1-4.2 0-2.6-1.6.8-.8 2.5-.8 3.5-.8 1 .1 1-1.3.1-1.3zm-34-23.4c11.1 3.3 22.5 5.5 34 6.5.8.1.8-1.2 0-1.3-11.4-1-22.7-3.1-33.7-6.4-.8-.3-1.1 1-.3 1.2zm42 7.4c14.8 2.6 29.8 3.6 44.7 2.1.8-.1.8-1.4 0-1.3-14.8 1.5-29.7.6-44.4-2-.7-.2-1.1 1.1-.3 1.2z" transform="translate(-808 -799) translate(110 578) translate(698 221) translate(39 104)"/>
                        <path fill="#161616" d="M289.6 90.1c-1.1-19.2-2-38.7 2.2-57.6.2-.8-1.1-1.2-1.3-.4-4.2 19-3.3 38.6-2.3 58 .1.8 1.4.8 1.4 0z" transform="translate(-808 -799) translate(110 578) translate(698 221) translate(39 104)"/>
                        <path fill="#161616" d="M291.2 32.9c14.2-3 29.2-2.6 43.6-2.3 14.2.3 28.5 1.6 42.1 5.8.8.3 1.1-1 .4-1.3-13.8-4.3-28.1-5.6-42.5-5.8-14.5-.3-29.6-.7-43.9 2.4-.9.1-.5 1.4.3 1.2z" transform="translate(-808 -799) translate(110 578) translate(698 221) translate(39 104)"/>
                        <path fill="#161616" d="M377 36c3.2 21.1 2.6 42.7-1.6 63.6-.2.8 1.1 1.2 1.3.4 4.3-21.2 4.9-43 1.6-64.3-.2-.9-1.4-.5-1.3.3zM.6 66.6c7.7 19.8 15.4 39.6 23.1 59.5.3.8 1.6.4 1.3-.4-7.7-19.8-15.4-39.6-23.1-59.5-.3-.7-1.6-.4-1.3.4z" transform="translate(-808 -799) translate(110 578) translate(698 221) translate(39 104)"/>
                        <path fill="#161616" d="M23.5 126.5c15 8.2 30.4 15.7 46.1 22.6.8.4 1.5-.8.7-1.2-15.7-6.9-31.1-14.5-46.1-22.6-.8-.3-1.5.8-.7 1.2z" transform="translate(-808 -799) translate(110 578) translate(698 221) translate(39 104)"/>
                        <path fill="#161616" d="M70.5 149.3c20.2-13.9 40.4-27.9 60.6-41.8.7-.5 0-1.6-.7-1.2-20.2 13.9-40.4 27.9-60.6 41.8-.7.5-.1 1.6.7 1.2zM1.2 66.5c23-11.5 46.7-21.5 71-30 .8-.3.4-1.5-.4-1.3C47.4 43.7 23.6 53.8.5 65.3c-.8.5-.1 1.6.7 1.2zm23.4 59.1c22.3-13.7 44.7-27.4 67.1-41 .7-.4 0-1.6-.7-1.2-22.3 13.7-44.7 27.4-67.1 41-.7.5 0 1.7.7 1.2z" transform="translate(-808 -799) translate(110 578) translate(698 221) translate(39 104)"/>
                        <path fill="#161616" d="M71.3 36.4l19.5 47.1c.3.8 1.6.4 1.3-.4L72.6 36c-.3-.8-1.6-.4-1.3.4z" transform="translate(-808 -799) translate(110 578) translate(698 221) translate(39 104)"/>
                        <path fill="#161616" d="M91.7 84.3c13 7.4 26 14.9 39 22.4.8.4 1.4-.7.7-1.2-13-7.4-26-14.9-39-22.4-.8-.4-1.4.8-.7 1.2zm55.9-75.2c-1.8 24.1.5 48.3 2.8 72.3.1.8 1.4.8 1.3 0-2.3-24-4.6-48.2-2.8-72.3.1-.8-1.2-.8-1.3 0z" transform="translate(-808 -799) translate(110 578) translate(698 221) translate(39 104)"/>
                        <path fill="#161616" d="M148.6 9.7c14.1-5.1 29.3-5.5 44-6.4 15.4-.9 30.8-2.1 46.1-1.7 9 .3 18 1.1 26.9 2.9.8.2 1.2-1.1.4-1.3C250.7.1 235.1-.2 219.5.4c-15.7.6-31.5 1.4-47 2.9-8.2.8-16.4 2.2-24.3 5-.7.4-.3 1.7.4 1.4z" transform="translate(-808 -799) translate(110 578) translate(698 221) translate(39 104)"/>
                        <path fill="#161616" d="M265.7 4c4.5 24.5 4.2 49.8-1 74.3.2-.2.4-.3.6-.5-29.6 1-59.1 1.9-88.6 2.9l-25.1.8c-.8 0-.8 1.4 0 1.3 29.6-1 59.1-1.9 88.6-2.9l25.1-.8c.3 0 .6-.2.6-.5 5.2-24.7 5.5-50.2 1-75-.1-.8-1.4-.5-1.2.4z" transform="translate(-808 -799) translate(110 578) translate(698 221) translate(39 104)"/>
                        <path fill="#000" fill-rule="nonzero" d="M324.1 96.9c0 2.5 0 5-.1 7.5-.1 3.5-.2 7.1-.3 10.5-.6-.1-1.8-.2-3.2.4-.1 0-2.6 1.1-2.5 2 .2 1.6 8.1 1.8 12.5 1.6 2.5-.1 7-.3 7.2-1.2.1-.8-2.2-1.7-5.5-2.7l-.4-17.6c-2.6-.1-5.2-.3-7.7-.5z" transform="translate(-808 -799) translate(110 578) translate(698 221) translate(39 104)"/>
                        <path fill="#E8E8E8" d="M295.1 37.3c-1.7 14.6-2.3 29.2-1.5 43.9 0 .8 1.4.8 1.3 0-.7-14.7-.1-29.3 1.5-43.9.1-.8-1.2-.8-1.3 0z" transform="translate(-808 -799) translate(110 578) translate(698 221) translate(39 104)"/>
                        <path fill="#E8E8E8" d="M296.2 37.9c6.1-2.3 12.6-2.8 19-2.9 6.4 0 12.7.2 19.1.6 13.2.8 26.3 2.7 39.2 5.3.8.2 1.2-1.1.4-1.3-13.1-2.7-26.2-4.5-39.6-5.4-6.6-.4-13.3-.7-19.9-.6-6.3.1-12.6.8-18.5 3-.9.2-.5 1.5.3 1.3z" transform="translate(-808 -799) translate(110 578) translate(698 221) translate(39 104)"/>
                        <path fill="#E8E8E8" d="M373.4 40.3c.7 17.3-.9 34.5-2.7 51.7-.1.8 1.2.8 1.3 0 1.7-17.2 3.3-34.4 2.7-51.7 0-.8-1.3-.8-1.3 0z" transform="translate(-808 -799) translate(110 578) translate(698 221) translate(39 104)"/>
                        <path fill="#E8E8E8" d="M293.8 82.2c5.2 3.1 11.9 4.1 17.7 5.4 6.8 1.5 13.6 2.7 20.5 3.7 6.5.9 13.1 1.6 19.6 2 6.5.4 13.3 1.2 19.7-.1.8-.2.5-1.5-.4-1.3-6.4 1.3-13.3.5-19.8.1-6.6-.4-13.2-1.2-19.7-2.1-6.3-.9-12.6-2-18.9-3.4-6-1.3-12.9-2.3-18.2-5.4-.6-.5-1.3.6-.5 1.1zm1.6-38.4c26.2-1.6 52.5 1.3 78.4 5 .8.1 1.2-1.2.4-1.3-26.1-3.7-52.4-6.6-78.8-5-.8.1-.8 1.4 0 1.3zm9-4.3c-.3-.1-.3-.5 0-.6.4-.2.7.3.7.6-.1.6-.8.2-.7 0l.2-.2h-.1c0-.1.3-.3.3 0 0-.8-1.3-.8-1.3 0 0 .7.5 1.1 1.2 1.1s1.2-.6 1.1-1.3c-.1-.7-.8-1.2-1.5-1.1-.8.1-1.3.8-1.2 1.6.1 1.6 2.5 2.2 3.1.6.5-1.3-.6-2.9-2.1-2.6-.7.1-1.3.8-1.3 1.5 0 .8.5 1.5 1.2 1.7.8.2 1.2-1.1.4-1.3zm7.1-.9c-.2 0 0-.2.1-.2.3 0 .2.4 0 .4-.1-.1-.1-.1-.1-.2v-.1.1c-.1-.1 0-.1 0 0 .3-.2 0 0 0 0l.1-.2s.2 0 0 0c-.4-.1-.7.1-.8.4-.1.4.1.7.4.8.6.2 1.2-.1 1.5-.7.3-.5.1-1.2-.4-1.5-.9-.7-2.3 0-2.2 1.2.1 1.3 1.6 1.8 2.5.8.9-1 .1-2.5-1.2-2.5-.7 0-1.4.5-1.5 1.2-.2.7.3 1.5 1 1.6 1 .4 1.4-.9.6-1.1zm13.2 17.5c-6 2.5-11.9 5.1-17.7 7.8-.6.3-.3 1.1.2 1.2 5 1.8 9.8 4 14.4 6.6.8.4 1.4-.7.7-1.2-4.7-2.7-9.6-4.9-14.7-6.7 0 .4.1.8.2 1.2 5.8-2.7 11.5-5.2 17.4-7.7.6-.3.3-1.6-.5-1.2zm16.7-2l-15 18.9c-.5.7.4 1.6.9.9l15-18.9c.5-.6-.4-1.6-.9-.9zm6.7 7.3c4.2 2.7 8.5 5 13 7v-1.2c-4.8 2.7-9.6 5.4-14.3 8.1-.8.4-.1 1.6.7 1.2 4.8-2.7 9.6-5.4 14.3-8.1.4-.2.4-.9 0-1.2-4.5-2-8.8-4.4-13-7-.8-.4-1.5.7-.7 1.2z" transform="translate(-808 -799) translate(110 578) translate(698 221) translate(39 104)"/>
                        <path fill="#E8E8E8" d="M348.9 89.8c5.5.1 10.9.3 16.4.4.8 0 .8-1.3 0-1.3-5.5-.1-10.9-.3-16.4-.4-.8-.1-.8 1.3 0 1.3zM5 67.8C11.8 84 18.2 100.5 24.2 117c.3.8 1.6.4 1.3-.4-6-16.6-12.4-33-19.2-49.2-.4-.7-1.7-.4-1.3.4z" transform="translate(-808 -799) translate(110 578) translate(698 221) translate(39 104)"/>
                        <path fill="#E8E8E8" d="M5.8 67.5c21.1-8.6 42.1-17.3 63.1-26.3.8-.4.1-1.5-.7-1.2-20.8 8.9-41.8 17.5-62.8 26.1-.8.4-.4 1.7.4 1.4z" transform="translate(-808 -799) translate(110 578) translate(698 221) translate(39 104)"/>
                        <path fill="#E8E8E8" d="M68.7 40.9C74.9 54.1 80.6 67.6 86 81.1c.3.8 1.6.4 1.3-.4C81.9 67 76.1 53.5 69.9 40.1c-.4-.6-1.6 0-1.2.8z" transform="translate(-808 -799) translate(110 578) translate(698 221) translate(39 104)"/>
                        <path fill="#E8E8E8" d="M25.8 118c10.4-5.8 20.6-11.7 30.7-17.8 5-3 10-6.1 15-9.2 4.9-3.1 9.7-6.2 15-8.5.8-.4.1-1.5-.7-1.2-5.3 2.4-10.1 5.5-15 8.5-5 3.1-10 6.2-15 9.2-10.1 6.1-20.4 12-30.7 17.8-.8.5-.1 1.6.7 1.2z" transform="translate(-808 -799) translate(110 578) translate(698 221) translate(39 104)"/>
                        <path fill="#454451" d="M30.9 77.8c-2.9-1.8-5.8 1.3-7.5 3.5-2 2.6-2.6 5.8-1.3 8.9 1.1 2.7 3.6 5.4 6.7 5.2 3.7-.2 5.9-3.5 7.6-6.4.4-.8-.7-1.4-1.2-.7-1.2 2.1-2.5 4.4-4.9 5.3-2.8 1.2-5.3-.5-6.6-3-1.1-1.9-1.4-4.2-.7-6.2s4.5-7 7.2-5.4c.7.3 1.4-.8.7-1.2zm15.7-7.3c0-2-2.1-1.5-3.2-.6-1.8 1.3-3.9 4.3-4.2 6.6-.4 2.8 2.7 2.3 4.6 2.1 2.4-.2 5.8.7 3.9 3.9-1.2 2-3.6 3-5.8 3.1-.8 0-.8 1.4 0 1.3 3.4-.2 9.6-3.4 7.3-7.7-1-1.8-3.1-2.1-5-1.9-.5 0-1.9.4-2.3.2-1.8-.7-.8-2.1-.4-2.9.3-.6.6-1.2 1-1.7.1-.2 2.7-2.7 2.7-2.2.1.7 1.4.7 1.4-.2zm16.9-10c-2.2-.8-4.1 1-5.4 2.6-1.1 1.2-3 3.8-2.3 5.6.7 1.9 3.7 1.1 5.1.9.8-.1 1.6-.2 2.3-.1 2 .3 2.7 2.3 1.8 3.9-1.1 1.9-3.3 2.6-5.3 2.8-.8.1-.5 1.4.4 1.3 3.3-.5 9-3.8 6.2-7.9-1.4-2-4.1-1.5-6.1-1.3-.4 0-2.1.5-2.3.2-.7-.7-.3-2.2.1-2.9.9-1.5 3.1-4.6 5.2-3.8.8.3 1.1-1 .3-1.3z" transform="translate(-808 -799) translate(110 578) translate(698 221) translate(39 104)"/>
                        <path fill="#E8E8E8" d="M64.6 90.1c3.3-2.1 6.7-4.3 10-6.4.7-.4 0-1.6-.7-1.2-3.3 2.1-6.7 4.3-10 6.4-.7.5 0 1.6.7 1.2zm12.8-7.9c.8-.4 1.7-.8 2.6-1.2.8-.4.1-1.5-.7-1.2-.8.4-1.7.8-2.6 1.2-.7.4 0 1.5.7 1.2zM57 49c0-.1 0-.2.1-.3v-.1c.1 0 .2-.1.3-.2h.3c.1 0 .1.1.2.2 0 .1 0-.1 0 0s0-.1 0 0h-.1c-.1 0 0 0 0 0v-.1.1c0-.1 0 0 0 0h.2s0 .1 0 0v.2c0 .1-.2.2-.3.2.1 0 0 0 0 0 .1 0 0 0 0 0v-.2c0-.1 0-.2.1-.3h.1.1c.1 0 .2.2.2.3 0-.4-.3-.7-.7-.7-.4 0-.7.3-.7.7 0 1.2 2 1.2 2 0s-1.9-1.4-2.1-.3c-.1.6.3 1.2.8 1.4.5.1 1.1-.1 1.3-.6.3-.5.2-1.1-.2-1.5-.4-.4-1.1-.5-1.6-.2s-.7 1.1-.4 1.6c.2.3.5.5.8.5.4 0 .8-.4.8-.8s-.3-.7-.7-.7c-.1.1-.5.4-.5.8zm6.1-2.7c.4-.1.5.5.1.5h-.1s-.1-.1 0 0c-.1-.1 0 0 0 0v-.1s0-.1.1-.2c0 0 .1 0 .2-.1-.2 0 .1 0 0 0h.1c0-.1 0 .1 0 0v.1l-.4.4c.1 0 .2-.1.3-.1-.1 0 .1 0 0 0 0 0-.1 0-.1-.1v-.1c0 .1 0-.1 0 0 0-.2.2-.3.4-.3-.4 0-.7.3-.7.7 0 .4.3.7.7.7 1 0 1.2-1.4.4-1.9-.4-.2-.9-.2-1.3 0-.5.2-.6.8-.4 1.3.4.8 1.7.9 2-.1.3-.8-.5-1.7-1.3-1.6-.6.1-1 .8-.8 1.3.1.6.8.9 1.3.8.4-.1.6-.5.4-.8-.2-.3-.6-.5-.9-.4zm88.4-34.8c.4 22.2 1.5 44.3 3.5 66.4.1.8 1.4.8 1.3 0-2-22.1-3.2-44.2-3.5-66.4.1-.9-1.3-.9-1.3 0z" transform="translate(-808 -799) translate(110 578) translate(698 221) translate(39 104)"/>
                        <path fill="#E8E8E8" d="M153.1 12.2c9.1-1.6 18.3-1.9 27.4-2.3 8.9-.4 17.8-.7 26.7-1 18-.7 35.9-1.2 53.9-1.7.8 0 .8-1.3 0-1.3-18.3.5-36.5 1-54.8 1.7-9.1.3-18.1.7-27.2 1.1-8.9.4-17.7.8-26.5 2.3-.7 0-.3 1.3.5 1.2z" transform="translate(-808 -799) translate(110 578) translate(698 221) translate(39 104)"/>
                        <path fill="#E8E8E8" d="M260.9 6.9c2.5 4.7 2.3 10.2 2.5 15.4.1 5.4.2 10.8.1 16.2-.1 10.8-.5 21.6-1.2 32.4 0 .8 1.3.8 1.3 0 .8-11.3 1.2-22.7 1.2-34.1 0-5.5 0-11.1-.2-16.6-.1-4.8-.3-9.6-2.6-13.9-.3-.9-1.5-.2-1.1.6z" transform="translate(-808 -799) translate(110 578) translate(698 221) translate(39 104)"/>
                        <path fill="#E8E8E8" d="M156 78.1c34.9-6.5 70.7-5.6 106-6.2.8 0 .8-1.3 0-1.3-35.4.6-71.4-.2-106.3 6.2-.9.2-.5 1.4.3 1.3zm8.8-62.9c-1.8 1.2-3.5 2.5-5 4-.3.3-.2.8.1 1.1 1.6 1 3.9.8 5.2 2.2.5.7 1.5-.3.9-.9-1.4-1.7-3.7-1.4-5.4-2.4l.1 1.1c1.5-1.4 3.1-2.6 4.8-3.8.7-.6.1-1.8-.7-1.3zm7.3-.6c-1.8 2.7-3.3 5.5-4.6 8.5-.4.8.8 1.5 1.1.7 1.3-3 2.8-5.8 4.6-8.5.5-.8-.6-1.4-1.1-.7zm2.7 5.1c2-.3 4.1-.3 6.2-.1.8.1.8-1.2 0-1.3-2.1-.2-4.1-.1-6.2.1-.9.1-.9 1.4 0 1.3zm7.6-4.7c1.6 2.2 4.5 2.4 6.3 4.3l.1-1.1c-1.9 1.1-3.7 2.4-5.3 3.9-.6.6.3 1.5.9.9 1.5-1.4 3.2-2.7 5-3.7.4-.2.4-.8.1-1.1-1.7-1.8-4.7-2-6.2-4-.3-.6-1.4.1-.9.8zm-26.7 16.3l5.4-.4c.8 0 .8-1.4 0-1.3l-5.4.4c-.8 0-.8 1.3 0 1.3zm9.7-.7c12.3-.7 24.5-1.5 36.8-2.2.8 0 .8-1.4 0-1.3-12.3.7-24.5 1.5-36.8 2.2-.8 0-.9 1.3 0 1.3zm-9 6h3c.8 0 .8-1.3 0-1.3h-3c-.8-.1-.8 1.3 0 1.3zm6.7-.6c1.2.1 2.4 0 3.5-.4.8-.2.5-1.5-.4-1.3-1.1.3-2.1.4-3.2.3-.7.1-.7 1.4.1 1.4zm10.9-.9c11.6-1.1 23.3-1.4 35.1-.9.8 0 .8-1.3 0-1.3-11.7-.5-23.4-.2-35.1.9-.8 0-.8 1.4 0 1.3zm-15.9 8.1c-.8.9-1.6 1.9-2.4 2.7-.4.4-.2 1 .3 1.1 1.4.4 2.8.6 4.2.6.8 0 .8-1.3 0-1.3-1.3 0-2.6-.2-3.9-.6.1.4.2.8.3 1.1.9-.8 1.7-1.7 2.4-2.7.5-.6-.4-1.6-.9-.9zm4.5 2.6c6-1.2 12.1-1.7 18.3-1.6.8 0 .8-1.3 0-1.3-6.3-.1-12.5.4-18.6 1.6-.9.2-.5 1.5.3 1.3zm20.1-3.3c2.2 1.1 4.8.4 6.9 1.6 0-.4.1-.8.2-1.2-1.2.4-2.3 1-3.4 1.7-.7.5 0 1.6.7 1.2 1-.7 1.9-1.2 3.1-1.6.5-.2.7-.9.2-1.2-2.1-1.3-4.7-.4-6.9-1.6-.9-.4-1.6.7-.8 1.1zm58.6-31.1c-1.1.2-1.7.9-1.9 1.9-.1.7.1 1.4.2 2.1.4 2 .2 2.9-1.6 4-.5.4-.4 1.2.4 1.2 1.9 0 1.2 8.5 5.1 5.7.7-.5 0-1.6-.7-1.2-1.8 1.3-1.7-2.9-1.8-3.4-.1-.5-.2-.9-.4-1.3-.5-.8-1.2-1.2-2.3-1.2.1.4.2.8.4 1.2 1-.6 2.1-1.3 2.5-2.5.4-1.1-1.1-5 .5-5.4.8.1.4-1.2-.4-1.1zm8.6.6c1.5-.2 2.1.7 1.8 2.7-.1.3-.3.5-.4.8-.1.4-.3.8-.3 1.2 0 .9.6 1.1.9 1.8.3.7 0 .6-.1 1.4-.3 1.8 2.2 3.2-.1 4.8-.7.5 0 1.6.7 1.2 1-.7 1.7-1.6 1.7-2.9 0-.5-.2-.9-.4-1.4-.3-1.1-.1-1.9.2-3 0-.2 0-.5-.2-.7-.1-.1-.5-.4-.6-.5-1.1-1.1-.4-1.6.1-2.8.3-.7.5-1.3.3-2-.4-1.6-2.1-2.1-3.5-2.1-.9.1-.9 1.5-.1 1.5zm-48.4 7c7-.6 13.9-1.1 20.9-1.7.8-.1.8-1.4 0-1.3-7 .6-13.9 1.1-20.9 1.7-.9.1-.9 1.4 0 1.3zm30.1-2.1c1.6.2 3.2.2 4.7-.1.8-.1.5-1.4-.4-1.3-1.5.2-2.9.2-4.4 0-.8 0-.8 1.3.1 1.4zm-71 38.1c11.7-.8 23.5-1.6 35.2-2.3.8 0 .8-1.4 0-1.3-11.7.8-23.5 1.5-35.2 2.3-.8.1-.8 1.4 0 1.3zm42.8-3.2c4.5-.4 8.9-.8 13.4-1.2.8-.1.8-1.4 0-1.3-4.5.4-8.9.8-13.4 1.2-.8.1-.8 1.4 0 1.3zm23.4-1.7c8.7-.9 17.5-1.6 26.2-1.9.8 0 .8-1.4 0-1.3-8.8.4-17.5 1.1-26.2 1.9-.8 0-.8 1.4 0 1.3zm-60.9 9.3c-1.6 1.2-3.3 2.3-5 3.5-.4.3-.4 1.1.2 1.2 1.7.4 3.5.8 5.2 1.1.8.1 1.2-1.1.4-1.3-1.8-.3-3.5-.6-5.2-1.1 0 .4.1.8.2 1.2 1.6-1.2 3.3-2.3 5-3.5.5-.5-.1-1.6-.8-1.1zm6.7-.7c-1.9 2.2-3.7 4.5-5.3 7-.5.7.7 1.4 1.1.7 1.5-2.3 3.2-4.6 5-6.7.7-.7-.2-1.7-.8-1zm4 1.9c.6.4 1.2.7 1.8.9.4.1.8.2 1.2.4.2.1.5.2.7.4 0-.3-.2-.4-.4-.3-.6 0-1.7.7-2.2.9-.8.4-1.6.9-2.3 1.5-.7.5 0 1.6.7 1.2 1-.8 2-1.4 3.2-1.9.7-.3 2.2-.4 2.4-1.4.2-.8-.7-1.2-1.3-1.5-1-.4-2.2-.6-3.1-1.2-.7-.7-1.4.5-.7 1zm14.7 1.8c5.4-.4 10.9-1 16.3-.7.8 0 .8-1.3 0-1.3-5.5-.3-10.9.3-16.3.7-.9 0-.9 1.4 0 1.3zm28.2-2c10.2-1.2 20.5-1.6 30.8-1.4.8 0 .8-1.3 0-1.3-10.3-.2-20.6.3-30.8 1.4-.9.1-.9 1.4 0 1.3z" transform="translate(-808 -799) translate(110 578) translate(698 221) translate(39 104)"/>
                        <path fill="#454451" d="M295.4 36.8c-.2 2.2-.4 4.5-.6 6.7 12.8-.4 26.8-.3 41.9.7 13.3.9 25.8 2.3 37.1 4.1.3-2.8.5-5.6.8-8.4-5.1-1-11.9-2.2-19.9-3.3-10.2-1.4-18-2-22.3-2.3-10.8-.8-16.2-1.1-23.5-.2-5.8.7-10.4 1.8-13.5 2.7z" opacity=".16" transform="translate(-808 -799) translate(110 578) translate(698 221) translate(39 104)"/>
                        <path fill="#4C4C4C" d="M27.3 53.6c-1.5 4-3.2 9.8-4.1 16.9-1 8.8-3.6 31.3 8.1 38.2 8.1 4.7 20.9 1 31.7-7.9 1.9 1.5 3.8 3 5.6 4.5l-33.1 20.1c7.8 4.6 15.6 9.3 23.3 13.9l25.2-15c4.2 2.1 8.5 4.2 12.7 6.3l-26.4 18.6c-15.4-7.7-30.7-15.3-46-23C16.5 106 8.7 85.7 1 65.5c8.9-3.9 17.6-7.9 26.3-11.9z" opacity=".12" transform="translate(-808 -799) translate(110 578) translate(698 221) translate(39 104)"/>
                        <path fill="#4C4C4C" d="M348.7 30.8c1.1 2.5 2.3 6.2 3.1 10.7.3 1.9 2.7 16.6-3.8 29.6-6.9 13.9-22.7 22.8-40.4 23.9 13.5 2.9 29.3 5.2 47 5.7 7.4.2 14.5.1 21.2-.3 1.9-7.6 3.5-16.7 4.1-27.1.9-15-.5-27.9-2.4-37.9-9.6-1.4-19.2-3-28.8-4.6z" opacity=".08" transform="translate(-808 -799) translate(110 578) translate(698 221) translate(39 104)"/>
                        <path fill="#4C4C4C" d="M239 1.2c1.6 2.9 3.5 7.2 4.3 12.8 2 13.4-4 24-8.1 31.2-12.4 21.5-33.1 31.8-42.3 35.7 19.2-.1 38.9-.7 59.1-1.9 4.5-.3 9-.5 13.5-.8 1.9-8.6 3.5-18.7 4.2-30.2.9-17.5-.9-32.7-3.3-44.3-9.2-.9-18.3-1.7-27.4-2.5z" opacity=".09" transform="translate(-808 -799) translate(110 578) translate(698 221) translate(39 104)"/>
                    </g>
                    <g>
                        <g>
                            <path fill="#000" fill-rule="nonzero" d="M14.2 93c.4 3 .8 6.2 1.2 9.4.4 3.8.6 7.4.8 10.8.4.7 1 1.5 2 2.3 1.6 1.1 3.3 1.1 5.2 1.1 5.4-.1 8.1-.2 9.3-.4 4.2-.8 8.2-1.6 9.1-4.3.6-1.8-.6-3.7-.7-3.9-.7-1.1-1.6-1.6-3.1-2.4-1-.6-2.8-1.5-5.2-1.7-2.1-.2-3.8.1-4.9.4-.6-4.7-1.2-9.4-1.7-14l-12 2.7z" transform="translate(-808 -799) translate(110 578) translate(698 221) translate(137 115) translate(115 179)"/>
                            <path fill="#FFF" d="M6.2 5.3c-3.6 3.9-2.5 8.1-4 33.2-.6 10.1-.8 9.6-1 15.7-.5 13.9.3 23.4.7 28.1.3 3.5.7 6.4 1 8.5 2.6 1.3 7.1 3.1 12.6 2.5 3.2-.3 5.7-1.4 7.5-2.1 4-1.7 6.9-3.9 8.8-5.5L29.5 1.9C13.9-1.2 8.3 3.1 6.2 5.3z" transform="translate(-808 -799) translate(110 578) translate(698 221) translate(137 115) translate(115 179)"/>
                            <path fill="#161616" d="M3.1 9C.6 35.9.3 62.9 2.2 89.9c0 .8 1.4.8 1.3 0C1.6 63 1.9 35.9 4.4 9c.1-.8-1.2-.8-1.3 0z" transform="translate(-808 -799) translate(110 578) translate(698 221) translate(137 115) translate(115 179)"/>
                            <path fill="#161616" d="M2.9 91.2c9.9 5.1 21.2 2.2 29.1-5 .6-.6-.3-1.5-.9-.9-7.5 6.8-18.2 9.7-27.5 4.9-.8-.6-1.5.6-.7 1z" transform="translate(-808 -799) translate(110 578) translate(698 221) translate(137 115) translate(115 179)"/>
                            <path fill="#161616" d="M28.6 2.9L30.7 85c0 .8 1.4.8 1.3 0L29.9 2.9c0-.8-1.3-.8-1.3 0zm-15 90.6c1.1 5.4 1.7 10.8 2 16.2 0 .8 1.4.8 1.3 0-.3-5.6-.9-11.1-2-16.6-.1-.8-1.4-.4-1.3.4zm11.9-3.3c.3 5.8.8 11.6 1.6 17.3.1.8 1.4.5 1.3-.4-.8-5.6-1.3-11.3-1.6-17 0-.7-1.3-.7-1.3.1z" transform="translate(-808 -799) translate(110 578) translate(698 221) translate(137 115) translate(115 179)"/>
                            <path fill="#161616" d="M27.8 104.6c4.8-.6 9.5.8 13.1 4 .6.6 1.6-.4.9-.9-3.9-3.5-8.9-5.1-14-4.4-.8.1-.8 1.4 0 1.3z" transform="translate(-808 -799) translate(110 578) translate(698 221) translate(137 115) translate(115 179)"/>
                            <path fill="#161616" d="M15.6 109.3c-.2 2.8-.1 6.2 2.9 7.4 1.2.5 2.6.5 3.9.6 2.1.2 4.3.3 6.4.2 5.1-.3 15-2.3 13.5-9.4-.2-.8-1.5-.5-1.3.4 1.3 6.3-8.8 7.7-13.1 7.8-2.3.1-4.5 0-6.8-.3-4-.5-4.5-3.1-4.2-6.6.1-1-1.2-1-1.3-.1z" transform="translate(-808 -799) translate(110 578) translate(698 221) translate(137 115) translate(115 179)"/>
                            <path fill="#4C4C4C" d="M4 8.7c4.4-1.5 8.7-3.1 13.1-4.6-.8 14.4-.9 30.1-.2 46.9.6 14.3 1.9 27.8 3.4 40.2-.9.4-1.9.8-2.9 1-6.1 1.6-11.6-.4-14.3-1.7-1.2-14.7-1.9-31-1.4-48.7C2.1 30.2 2.9 19.2 4 8.7z" opacity=".11" transform="translate(-808 -799) translate(110 578) translate(698 221) translate(137 115) translate(115 179)"/>
                            <path fill="#4C4C4C" d="M3.7 9.6c.2 7.7.7 17.8 1.7 29.4.8 9.3 1.8 16.2 2 18.3 1.3 9.3 3.2 21.5 6.5 35.6-3.7-.8-7.5-1.7-11.1-2.6-.7-14.2-1-29.3-.7-45.1C2.3 33 2.9 21 3.7 9.6z" opacity=".1" transform="translate(-808 -799) translate(110 578) translate(698 221) translate(137 115) translate(115 179)"/>
                        </g>
                        <g>
                            <path fill="#000" fill-rule="nonzero" d="M35.2 39.8c.3 1.4.6 3.4 1.1 5.8 2.6 15.8 2.6 27.1 2.8 36.7.2 8.1.8 19.8 2.3 34.3-.9.4-2.4 1.1-4 1.9-4.2 2.2-9.8 5.1-15 10.5-1.6 1.6-3.7 4.1-5.9 7.5 7.1.7 15.4 1 24.8.3 11.5-.8 21.4-2.9 29.4-5.1-2.4-2-5.1-4.1-7.9-6.2-5.5-3.9-10.8-6.9-15.6-9.3-1.1-10.3-1.9-21.2-2.4-32.5-.8-17.4-.7-33.9 0-49.1-3.3 1.8-6.4 3.5-9.6 5.2z" transform="translate(-808 -799) translate(110 578) translate(698 221) translate(137 115) translate(74 181)"/>
                            <path fill="#FFF" d="M2.3 18.3c0-2 2.4-3.8 7.1-7.2C11.6 9.5 17.8 5.3 28 3c9-2 15.9-1.5 24.3-.8 11.9 1 17.5 3.4 18.9 4 4.4 1.9 7.6 4.2 9.8 6-.8 2.7-2.3 6.5-5.4 10-2.2 2.5-8.1 8.1-24.6 9.4-22.9 1.9-48.7-5.9-48.7-13.3z" transform="translate(-808 -799) translate(110 578) translate(698 221) translate(137 115) translate(74 181)"/>
                            <path fill="#000" fill-rule="nonzero" d="M3.7 15.7c-.6 1.2-1.1 2.6-1.5 4.2-1.5 5.7-.7 10.7.1 13.8 2.4 1.1 5.8 2.5 10 3.7 13 3.9 23.5 3.3 32.1 2.8 11.3-.6 18.6-1.2 27-5.5 4.7-2.4 8.1-5.3 10.3-7.4-.1-4.8-.3-9.7-.4-14.5-3.7 2.4-7.9 4.7-12.6 6.6-27.5 11-54.8.8-65-3.7z" transform="translate(-808 -799) translate(110 578) translate(698 221) translate(137 115) translate(74 181)"/>
                            <path fill="#161616" d="M1.6 18.7c-.9 5-.9 10.1 0 15.1.2.8 1.4.5 1.3-.4-.9-4.8-.9-9.6 0-14.3.1-.9-1.1-1.2-1.3-.4z" transform="translate(-808 -799) translate(110 578) translate(698 221) translate(137 115) translate(74 181)"/>
                            <path fill="#161616" d="M2 33.8c6 3.9 13.2 4.8 20.2 5.8 7.5 1.1 15 1.7 22.5 1.1 12.9-1.1 28.9-2.3 37.7-13.1.5-.7-.4-1.6-.9-.9-4.2 5.1-10.2 8-16.5 9.7-6.8 1.8-14.1 2.6-21.1 3.1-7.4.5-14.8-.1-22.2-1.2-6.5-1-13.4-1.9-19-5.6-.7-.5-1.4.6-.7 1.1z" transform="translate(-808 -799) translate(110 578) translate(698 221) translate(137 115) translate(74 181)"/>
                            <path fill="#161616" d="M80.5 13c.8 4.6 1.1 9.2.8 13.9 0 .8 1.3.8 1.3 0 .4-4.8 0-9.5-.8-14.2-.1-.9-1.4-.5-1.3.3z" transform="translate(-808 -799) translate(110 578) translate(698 221) translate(137 115) translate(74 181)"/>
                            <path fill="#161616" d="M2.8 18.8C9.9 6.7 25.7 3.1 38.7 2.4c7.7-.4 15.5.2 23 1.9 3.6.8 7.2 1.9 10.7 3.2 3.3 1.3 6.5 3 8.1 6.3.4.8 1.6.1 1.2-.7-3.2-6.2-11.8-8.2-18-9.7-8.1-2-16.6-2.8-25-2.3-13.5.8-29.7 4.5-37 17.1-.5.7.7 1.3 1.1.6zm32.3 21.5c2.8 25.2 4.7 50.5 5.6 75.8 0 .8 1.4.8 1.3 0-.9-25.3-2.8-50.6-5.6-75.8-.1-.9-1.4-.9-1.3 0zm8.4 0c.1 25.5.9 50.9 2.6 76.3 0 .8 1.4.8 1.3 0-1.6-25.4-2.5-50.8-2.6-76.3 0-.9-1.3-.9-1.3 0z" transform="translate(-808 -799) translate(110 578) translate(698 221) translate(137 115) translate(74 181)"/>
                            <path fill="#161616" d="M40.6 115.7c-9.9 4.6-18.5 11.6-25 20.4-.2.3 0 .9.4 1 9.2 1.5 18.5.8 27.7-.3 9-1 18-1.9 26.7-4.5.4-.1.7-.8.3-1.1-7.2-6-15.1-11.1-23.5-15.1-.8-.4-1.5.8-.7 1.2 8.3 4 16.1 9 23.2 14.9.1-.4.2-.8.3-1.1-8.6 2.6-17.5 3.5-26.3 4.5-9.1 1-18.3 1.8-27.3.3.1.3.3.7.4 1 6.3-8.6 14.7-15.5 24.5-19.9.7-.5.1-1.7-.7-1.3z" transform="translate(-808 -799) translate(110 578) translate(698 221) translate(137 115) translate(74 181)"/>
                        </g>
                        <g>
                            <path fill="#000" fill-rule="nonzero" d="M26.1 112.4c1 4 2.1 8.1 3.1 12.1-5.5-1.8-10.3-2.7-13.7-3.2-2.5-.4-13-1.9-13.7.3-.3.8 1 2.1 1.1 2.3 1 1 2.3 1.1 3.4 1.4 2.3.5 3 1.3 5.4 2.5 3.6 1.8 11.2 4.6 19.8 6.1 2.9.5 6.8 1.1 11.4 1.2-1.8-7.9-3.7-15.9-5.5-23.8-3.8.2-7.6.6-11.3 1.1z" transform="translate(-808 -799) translate(110 578) translate(698 221) translate(137 115) translate(43 67)"/>
                            <path fill="#FFF" d="M24.4 1.5c-2 .8-3.6 2.4-6 7.2-4 7.7-5.2 13.2-5.2 13.2C9.5 38.4 7.6 46.7 7 53.1 5 73.5 8.3 74.4 8.2 95.7c0 1.6 0 5 2 8.4 3.2 5.3 9.5 6.8 11.2 7.2 5.1 1.2 9.9.4 14.1-.4 1.2-.2 2.1-.4 2.8-.6 3.2 2.5 6.1 4.2 8.2 5.4 4 2.2 7.5 4.1 12.4 4.6 3 .4 6 .1 7.2 0 2.2-.2 4-.5 5.4-.8 2.1.7 5.3 1.5 9.2 1.6 2.5 0 10.7.1 17.9-5.2 6.4-4.7 8.7-11.1 10.3-15.8 1.5-4.5 7.3-21.7-1.4-30.8-7.5-8-21.9-5.7-33.3-3.8-5.5.9-10 2.3-13.2 3.4-5.3-13.6-9.2-24.4-11.9-31.8-2.5-7-6.2-13.7-8.4-20.8-2-6.4-3.1-11.5-7.6-14-.5-.3-4.7-2.5-8.7-.8z" transform="translate(-808 -799) translate(110 578) translate(698 221) translate(137 115) translate(43 67)"/>
                            <path fill="#161616" d="M70.6 120.6c11.8 2.7 25.3.9 33.4-8.9 4-4.9 5.3-11 6.4-17.1 1.1-6.3 1.7-12.8-.3-19-.3-.8-1.6-.4-1.3.4 2 6 1.4 12.2.3 18.3-1 5.8-2.2 11.8-6.1 16.6-7.7 9.5-20.7 11.1-32.1 8.5-.8-.3-1.2 1-.3 1.2zM44.1 24.7c-.6-5.9-2.2-12-5.2-17.3C36.7 3.5 33.1-.1 28.3.1c-5.1.2-8.8 4.3-10.9 8.5-2.8 5.6-4.6 11.9-6.3 17.9-3.4 12.3-5.3 25-5.7 37.7-.2 6.7 0 13.5.5 20.2.5 6.1 1 12.7 2.7 18.5 1.5 5 8.2 8 12.8 9.2 5.6 1.4 11.4.9 16.7-1.4.8-.4.1-1.5-.7-1.2-4.7 2.1-10 2.5-15 1.4-4.4-1-11.1-3.7-12.5-8.4-.8-2.5-1-5.3-1.4-7.9-.5-3.1-.8-6.3-1.2-9.5-.5-5.4-.8-10.8-.7-16.2 0-11.3 1.2-22.5 3.6-33.6 1.2-5.3 2.5-10.5 4.2-15.6 1.7-5.1 3.3-11.2 7.1-15.2 2.2-2.2 5.3-3.8 8.4-3.2 3 .6 5.3 2.9 6.9 5.4 3.4 5.1 5 11.6 5.7 17.7.3 1.1 1.7 1.1 1.6.3z" transform="translate(-808 -799) translate(110 578) translate(698 221) translate(137 115) translate(43 67)"/>
                            <path fill="#161616" d="M20.9 37.9c-1.5 16.2.2 32.6 5 48.1 2.3 7.4 5 15.7 9.7 22 4.2 5.6 10.7 9.3 17.3 11.4 7.6 2.4 16 2.6 23.3-1.1.8-.4.1-1.6-.7-1.2-6.6 3.4-14.2 3.4-21.2 1.3-7.1-2.1-14.3-6.2-18.5-12.4-4.1-6.2-6.7-13.7-8.8-20.8-2.2-7.2-3.8-14.7-4.6-22.2-.9-8.4-1-16.8-.2-25.2.1-.8-1.2-.8-1.3.1z" transform="translate(-808 -799) translate(110 578) translate(698 221) translate(137 115) translate(43 67)"/>
                            <path fill="#161616" d="M18 33.2c.3 5.8 1.1 11.5 2.6 17.1.2.8 1.5.5 1.3-.4-1.5-5.5-2.3-11.1-2.5-16.8-.1-.8-1.4-.8-1.4.1zm25.1-8.5c8.4 20 15.8 40.4 22.2 61.1.3.8 1.6.5 1.3-.4-6.4-20.7-13.8-41.1-22.2-61.1-.3-.7-1.6-.3-1.3.4zM25.3 113c1.2 4 2.3 8 3.5 12 .2.8 1.5.5 1.3-.4-1.2-4-2.3-8-3.5-12-.3-.8-1.6-.4-1.3.4z" transform="translate(-808 -799) translate(110 578) translate(698 221) translate(137 115) translate(43 67)"/>
                            <path fill="#161616" d="M29.3 124.2c-8.9-3.5-18.4-4.7-27.9-3.5-.4 0-.8.4-.6.8 1.2 2.8 4.4 3.7 7 4.8 3.7 1.6 7.4 3.1 11.1 4.5 7.6 2.7 15.4 4.6 23.4 4.3.8 0 .8-1.3 0-1.3-7.1.2-14.1-1.2-20.8-3.5-3.2-1.1-6.4-2.3-9.5-3.6-1.7-.7-3.4-1.4-5.1-2.2-1.7-.8-4.1-1.5-4.9-3.4-.2.3-.4.6-.6.8 9.4-1.2 18.8 0 27.6 3.4.7.5 1.1-.8.3-1.1z" transform="translate(-808 -799) translate(110 578) translate(698 221) translate(137 115) translate(43 67)"/>
                            <path fill="#161616" d="M36.5 110.6c.9 8.2 4.8 15.7 5.4 24 0 .8 1.4.8 1.3 0-.6-8.2-4.5-15.8-5.4-24-.1-.8-1.4-.8-1.3 0z" transform="translate(-808 -799) translate(110 578) translate(698 221) translate(137 115) translate(43 67)"/>
                            <path fill="#4C4C4C" d="M23.4 111c-1.5-3.9-3.6-9.6-5.6-16.7-.8-3.1-6.3-23-5.1-48.9.3-6.8 1.1-14.3 6.5-19.7 2.1-2.1 4.4-4.4 6.5-3.9 8.5 2-6.8 47.2 14.7 71.6 11 12.5 26.9 14.1 29.5 14.3 22.8 2 38.2-14.3 40.2-16.4.1 2.7 0 6.9-1.9 11.6-3.3 8.5-9.7 12.9-12.1 14.3-11.1 6.7-22.6 3.6-24.6 3-3.2.5-7.5.8-12.3 0-10.9-1.7-18.3-7.4-21.6-10.4-1.4.8-4 1.9-7.4 2.1-3 .2-5.3-.4-6.8-.9z" opacity=".1" transform="translate(-808 -799) translate(110 578) translate(698 221) translate(137 115) translate(43 67)"/>
                            <path fill="#4C4C4C" d="M19.7 32.7c.6 0 .8 5.2 3.7 22.2 3.4 20.1 5.2 30.2 7.7 35.9 3.2 7.3 11.5 20.3 36.2 29.9-3.6.1-9.5 0-16.3-2.6-6.4-2.3-10.9-5.8-13.5-8.1-2.8.6-5.6 1.2-8.3 1.9-1.7-5-3.8-11.9-5.6-20.1-6.8-31.1-5.2-59-3.9-59.1z" opacity=".13" transform="translate(-808 -799) translate(110 578) translate(698 221) translate(137 115) translate(43 67)"/>
                        </g>
                        <g>
                            <path fill="#FFF" d="M4 20.7c-.2.9 1.2 2.2 2.3 2.7 1.8.9 3.6.1 3.8 0 0 0 4.1-.4 7.9 1.8 1.2.7 2.2 2.1 4.3 4.9 3.8 5.1 4.3 6.9 6.8 8.5 1.7 1.1 3.4 1.6 4.5 1.8 1.1 1.2 2.7 3.1 4.7 5.4 7.1 8.3 7.6 9.8 11 12.8 3.6 3.2 8 7.1 13.2 6.5 2.8-.3 5-1.8 8.5-5.4 7.4-7.4 12.5-15.5 17.1-24.8 4.9-10 6-14.9 6.5-17.2.3-1.5 2.9-14.7-.9-16.3-1.5-.7-3.4.6-6.3 2.9C77 12.6 70.8 21.3 70.3 22c-3.3 4.7-7.4 11.3-11.5 19.7l-19.1-9.8c-.4-.8-.9-2.2-.9-3.8 0-2.7 1.4-3.7 2.3-6.7.9-3.1 1.1-7.4-.4-8.1-1.1-.5-3.1.7-4 2.3-1 1.6-.4 3-1.3 3.6-1.2.8-3.4-.8-3.6-.9-2.4-1.7-2.2-3.8-4-7.2-2-3.7-4.7-5.7-6.3-7-2.2-1.7-4.7-3.6-7.2-2.9-.4.1-2 .6-2.6 2-.3.7-.2 1.4-.1 1.8-.2-.1-1.8-1.1-3.6-.4-1.2.4-2.3 1.6-2.5 2.9-.1.6 0 1.1.1 1.4-.2-.1-2.1-.6-3.5.6-.2.2-1 .8-1 1.8 0 .8.5 1.4 1.5 2.1 2 1.6 3.5 2 5.4 3.1.9.5 2.2 1.3 3.6 2.6-2.4-.2-7.2 0-7.6 1.6z" transform="translate(-808 -799) translate(110 578) translate(698 221) translate(137 115) translate(0 61)"/>
                            <path fill="#161616" d="M59.4 41.8c7.8-15.1 16.3-31.3 32.3-39.2.8-.4.1-1.5-.7-1.2-16.1 8-24.9 24.4-32.7 39.6-.4.9.7 1.5 1.1.8z" transform="translate(-808 -799) translate(110 578) translate(698 221) translate(137 115) translate(0 61)"/>
                            <path fill="#161616" d="M39.8 32.6C46.6 37.2 55.2 39.1 61 45c.6.6 1.6-.3.9-.9-6-6.1-14.6-8-21.5-12.7-.6-.5-1.3.7-.6 1.2z" transform="translate(-808 -799) translate(110 578) translate(698 221) translate(137 115) translate(0 61)"/>
                            <path fill="#161616" d="M34.3 41.3c3.2 5.6 7.3 10.7 11.9 15.1 4.2 3.9 9.6 9 15.8 9.1 5.6.1 9.4-4.5 12.4-8.6 4.4-6.2 8.5-12.5 12.3-19.1 3.9-6.7 8-13.8 8.2-21.7 0-.8-1.3-.8-1.3 0-.2 8.5-5.1 16.1-9.3 23.2-4.1 6.9-8.3 14.2-13.6 20.1-2.4 2.8-5.6 5.1-9.5 4.7-4.3-.4-8.1-3.5-11.3-6.2-5.8-4.9-10.7-10.8-14.5-17.3-.4-.7-1.6 0-1.1.7z" transform="translate(-808 -799) translate(110 578) translate(698 221) translate(137 115) translate(0 61)"/>
                            <path fill="#161616" d="M35.5 40.5c-1.8-.8-3.8-1.1-5.6-2.1-1.8-1-3-2.7-4.2-4.4-2-3-3.9-6.2-6.8-8.5-1.3-1.1-2.9-1.9-4.6-2.4-1.9-.5-3.6-.2-5.5-.1-1.2 0-3.7.1-3.8-1.7-.1-1.8 2.4-1.5 3.4-1.6 2.3-.1 4.4 0 6.5.9.8.3 1.2-1 .4-1.3-2.5-1-5-1.1-7.7-.9-1.3.1-3 .1-3.7 1.4-.6 1.1-.1 2.5.7 3.4 1.4 1.5 3.6 1.2 5.4 1 6.7-.7 10.6 4.6 13.9 9.7 1.2 1.8 2.4 3.5 4 4.9 2 1.6 4.5 1.8 6.7 2.9 1 .3 1.7-.9.9-1.2zm5.3-8.6c-2.4-2.8-.2-7.1.7-10.1.6-2.2 1.5-5.2.4-7.4-.7-1.3-2.1-2.1-3.6-1.6-.8.3-1.4.9-1.9 1.6-.6 1-.8 3.8-2 4.1-.8.2-.5 1.5.4 1.3 1.5-.4 1.8-1.9 2.3-3.1.2-.7.7-2.4 1.5-2.5l2.4 1.3c0 .4.1.8.2 1.2.1 1.6-.4 3.2-.8 4.7-1.1 3.6-3.2 8.1-.4 11.4.4.7 1.3-.2.8-.9zm-36-18.1c-.7-.4-1.4-.8-1.9-1.2-.8-.4-.9-1-.4-1.7 0-1 .5-1.4 1.6-1.2 2-.1 3.7.8 5.5 1.6 3 1.4 5.8 2.9 8.3 5.1.6.6 1.6-.4.9-.9-2.2-1.9-4.6-3.4-7.2-4.6-2.4-1.2-5.1-2.8-7.9-2.5-1.5.2-3.2.7-3.2 2.4 0 2 2.1 3.2 3.6 4.1.7.5 1.4-.7.7-1.1z" transform="translate(-808 -799) translate(110 578) translate(698 221) translate(137 115) translate(0 61)"/>
                            <path fill="#161616" d="M6.5 8.5c-2.4-1.8.7-3 1.6-3.1.9-.1 1.8.1 2.6.4 1.4.5 2.7 1.3 4 2.2 2.4 1.6 4.6 3.5 6.6 5.6.6.6 1.6-.3.9-.9-3.3-3.4-8.1-8.1-13.1-8.6-3.2-.3-6.6 3.1-3.3 5.6.7.5 1.3-.7.7-1.2z" transform="translate(-808 -799) translate(110 578) translate(698 221) translate(137 115) translate(0 61)"/>
                            <path fill="#161616" d="M12.3 4.5c-1.6-2 2-2.7 3.1-2.5.4.1.8.2 1.3.4 1.4.5 2.7 1.3 3.9 2.2 2.1 1.6 3.8 3.7 5.4 5.8.5.7 1.7 0 1.2-.7C24.4 6 21.1 2.2 16.5.8c-1.6-.4-3.6-.6-4.8.7-1.1 1.2-1.1 2.7-.1 3.9.3.7 1.2-.2.7-.9z" transform="translate(-808 -799) translate(110 578) translate(698 221) translate(137 115) translate(0 61)"/>
                            <path fill="#161616" d="M25.4 9.4c1.6 2.8 3.1 5.8 5 8.4 1.2 1.6 2.8 2.8 4.9 2 .8-.3.4-1.6-.4-1.3-2.7 1.1-4.1-2.7-5.2-4.5-1.1-1.8-2.1-3.6-3.2-5.4-.3-.6-1.5.1-1.1.8zM3.6 14.5c2.5 1.6 5 3.2 7.5 4.9.7.5 1.4-.7.7-1.1-2.5-1.6-5-3.2-7.5-4.9-.7-.5-1.4.6-.7 1.1z" transform="translate(-808 -799) translate(110 578) translate(698 221) translate(137 115) translate(0 61)"/>
                            <path fill="#4C4C4C" d="M2.3 10.1c1.8-.8 4.5 1.5 6.2 2.9 8.2 6.7 8.6 4.3 13.3 9.2 4.8 4.9 4.7 7.5 9.5 10.4 2.3 1.4 4.4 2.1 5.9 2.4.8 1.2 2.1 3 3.7 5 5.9 7.4 9 11.2 13.8 13 .4.1 8.1 2.9 14.5-.8 5.1-3 5.1-7.7 11.1-23.2C87.8 9.5 90.8 7.1 92.8 7.3c1.2.1 2.2 1.2 2.7 2 1 1.7.2 3.6-.8 7.9-1 4.1-.8 4.2-1.4 6.7-1.7 6.6-4.8 10.2-13.6 25-1.4 2.3-3.3 5.6-6.6 9.4-2.8 3.3-4.6 5.2-7.3 6.2-4.6 1.6-9.1-.8-11.3-2-2.9-1.6-5-3.5-8.3-7.3-3.1-3.5-7-8.5-11.1-15-.9 0-2.4-.2-4-.8-1.4-.6-3.2-1.7-7.5-7.9-3.1-4.4-3-5-4.6-6-2.4-1.6-5.5-1.9-7-2-3.6-.4-5.5.4-6.4-.8-.6-.8-.6-2.1 0-2.9 1.5-1.9 6.7.4 6.9-.1.1-.4-1.9-1.5-5.5-3.6-4.2-2.5-5.6-3.5-5.5-4.6-.2-.7.3-1.2.8-1.4z" opacity=".12" transform="translate(-808 -799) translate(110 578) translate(698 221) translate(137 115) translate(0 61)"/>
                        </g>
                        <g>
                            <path fill="#FFF" d="M7.1 1.2c-2.4.5-3.3 5-4.3 9.2-1.2 5.4-1.2 10-1.1 13.4.3 9.5 2.4 18.6 4.9 24 1.4 2.9 2.2 3.2 3.8 7 .5 1.2.9 2.3 2 3.1 2 1.6 4.7 1 4.9.9 2.8-.7 4.2-3.1 4.9-4.3 2-3.4 2-6.9 1.6-13-.7-9.2-1.1-13.7-2.5-18.6-1.2-4.3-3.3-9.7-7.2-15.2-2.2-3.4-4.7-6.9-7-6.5z" transform="translate(-808 -799) translate(110 578) translate(698 221) translate(137 115) translate(141 53)"/>
                            <path fill="#161616" d="M7.1 2.4c2.4-.3 4.1 2.7 5.4 4.4 1.1 1.5 2.1 3.2 3.1 4.8 1.9 3.4 3.5 7 4.6 10.7 2.3 7.3 3.3 15.1 3.2 22.8 0 4 0 9.2-3.4 12-1.6 1.3-3.9 2.1-5.8 1.1-2-1-3.2-3.6-4.2-5.4-4.1-7.3-6.7-15.5-7.5-23.9-1-9.1-.3-19 4.7-26.9.4-.7-.7-1.4-1.2-.7C.8 9.4.1 19.6 1.1 28.8c1 9.6 4.1 19.1 9.3 27.2 1.9 3 4.6 4.7 8.1 3.4 3.7-1.4 5.3-5.1 5.8-8.8 1.2-8.7 0-18.3-2.3-26.7-1.4-4.9-3.3-9.7-5.9-14.1-1.2-2.1-2.7-4.2-4.2-6.1C10.6 2.1 9.2.6 7 .8c-.7.4-.7 1.7.1 1.6z" transform="translate(-808 -799) translate(110 578) translate(698 221) translate(137 115) translate(141 53)"/>
                            <path fill="#4C4C4C" d="M8.5 2.3c-1.2 5.6-1.7 12.1-1 19.3.7 6.9 2.4 11.9 4.6 18.5 1.7 5.2 4.1 11.3 7.5 18-.9.6-2.4 1.2-4 1-3.2-.5-5.2-4.3-6.4-7.2-4.7-10.4-7.1-15.7-7.5-24.6C1.1 15 4.4 1.4 7.3 1.4c.5.1.9.6 1.2.9z" opacity=".11" transform="translate(-808 -799) translate(110 578) translate(698 221) translate(137 115) translate(141 53)"/>
                        </g>
                        <g>
                            <path fill="#6E8EFF" d="M3.1 14.9c-.2 1.9-.4 4.6-.7 7.8-.2 2.4-.6 9.6-.4 16.3.4 13.4 3.3 24 5.1 30.4 1.6 5.8 3.4 10.5 4.7 13.9.1 1.3.4 3.1 1.1 5.1 3.2 9.6 11.5 14.3 13.5 15.5 10 5.6 19.9 3.5 22.9 2.9 2.9-.7 12.4-2.8 18.6-11.2 2-2.7 3.9-6.2 5.6-15.7.8-4.4 2.7-15.9 1.3-35.6-1.4-20-4.6-27.5-6.5-31.3-1.7-3.4-3.5-6.1-4.7-7.8-10.3-4.2-19-4.3-23.8-4-8.1.5-14.3 3-20.4 5.4-6.9 2.8-12.5 5.9-16.3 8.3z" transform="translate(-808 -799) translate(110 578) translate(698 221) translate(137 115) translate(84 48)"/>
                            <path fill="#161616" d="M2.1 16.1c-3.3 23.4.2 47.3 10 68.8.4.8 1.5.1 1.2-.7C3.6 63.1.2 39.4 3.4 16.4c.1-.8-1.2-1.1-1.3-.3z" transform="translate(-808 -799) translate(110 578) translate(698 221) translate(137 115) translate(84 48)"/>
                            <path fill="#161616" d="M10.4 81.7c1.6 11.1 9.6 20.7 20.2 24.6 11.3 4.1 24.8 1.7 33.8-6.2 4.7-4.1 7.9-9.6 8.6-15.8.1-.8-1.2-.8-1.3 0-1.5 14.9-18 23.4-31.7 22.5-14.1-.8-26.3-11.4-28.3-25.5-.2-.8-1.5-.5-1.3.4zM2.9 16.1C20.5 5 42.6-2.8 62.9 5.9c.8.4 1.5-.8.7-1.2C42.8-4.2 20.3 3.5 2.2 14.9c-.6.6 0 1.7.7 1.2z" transform="translate(-808 -799) translate(110 578) translate(698 221) translate(137 115) translate(84 48)"/>
                            <path fill="#161616" d="M62.9 5.8c4.8 4.4 6.7 11.7 8 17.9 1.5 6.7 2.4 13.6 3 20.5 1.2 13.7.8 27.5-2 41-.2.8 1.1 1.2 1.3.4 2.9-14.2 3.3-28.7 1.9-43-.7-7-1.6-14-3.2-20.8-1.5-5.8-3.4-12.7-8-16.9-.6-.6-1.6.3-1 .9zM18.2 89.1c5.6 5.1 12.5 8.3 20 9.2.8.1.8-1.2 0-1.3-7.1-.9-13.8-4-19-8.9-.7-.5-1.6.4-1 1z" transform="translate(-808 -799) translate(110 578) translate(698 221) translate(137 115) translate(84 48)"/>
                            <path fill="#6886F0" d="M38.3 1.8c1.6 2.6 3.3 5.2 5 7.7 3.4 8.3 7.6 20.4 10.3 35.5 1.3 7.6 2.5 14.7 2.1 23.5-.4 8-2.4 22.4-12.7 39.1 2.3 0 5.6-.3 9.3-1.5 1.6-.5 13-4.3 18.6-15.2 2.3-4.5 2.7-8.5 3.1-13.4 1.9-26.1.1-43-.8-48.8-.8-4.8-2-10.3-5.1-16.6-1.6-3.2-3.4-5.7-4.6-7.3-3.1-1.3-7.6-2.9-13.3-3.5-4.9-.3-8.9 0-11.9.5z" transform="translate(-808 -799) translate(110 578) translate(698 221) translate(137 115) translate(84 48)"/>
                            <path fill="#4C4C4C" d="M68.7 15.8c-1.6.1-2.4 9.7-2.9 16.2-1.2 14.8-.3 25.5-.1 29.3.5 10.4-2 25.3-15.1 45 2.1-.5 5.2-1.6 8.6-3.5 2.9-1.6 7.1-4 10.1-8.9 1-1.7 2.6-4.7 3.2-9.1 1.4-8.1 2.8-19.8 2.4-33.9-.7-16.5-4-35.2-6.2-35.1z" opacity=".11" transform="translate(-808 -799) translate(110 578) translate(698 221) translate(137 115) translate(84 48)"/>
                            <g>
                                <g>
                                    <path fill="#263E92" d="M8.3 6.3V3.2c0-1 .1-1.9-.3-2.8 0-.3-.2-.3-.4-.2-.7.3-1.3 1-1.9 1.5-.5.6-1.1 1.3-1.6 2-1.1 1.4-2 3-2.7 4.6C1 9.1.6 9.8.3 10.6c-.2.6-.5 1.5-.1 2.1.5.6 1.3.2 1.9 0 .7-.4 1.3-.9 1.9-1.4.4-.3.9-.7 1.5-.4.5.3.8.8 1 1.2.4.5 1.5 1.8 1.7.9.1-.3.1-.1.1-.5V6.3z" transform="translate(-808 -799) translate(110 578) translate(698 221) translate(137 115) translate(84 48) translate(9 11) translate(21) rotate(-7 25.74 -5.596)"/>
                                    <path fill="#6E8EFF" d="M10 13.2l-.6-4.8-.3-2.5C9 5.2 9 4.4 8.6 3.7c-.1-.2-.2-.2-.4-.1-.6.3-1 .9-1.3 1.4-.4.5-.8 1.1-1.1 1.7-.7 1.2-1.3 2.5-1.7 3.9-.2.6-.5 1.3-.6 1.9-.1.5-.3 1.2.2 1.6.4.4 1.1 0 1.5-.2.5-.4.9-.9 1.4-1.3.3-.3.7-.7 1.2-.5.4.2.7.5.9.8.3.4 1.3 1.3 1.4.6-.1-.1 0 .1-.1-.3" transform="translate(-808 -799) translate(110 578) translate(698 221) translate(137 115) translate(84 48) translate(9 11) translate(21)"/>
                                    <path fill="#263E92" d="M.2 13c.2.9 1.3-.4 1.7-.9.3-.4.6-.9 1-1.2.6-.3 1.1.1 1.5.4.6.5 1.2 1 1.9 1.4.5.3 1.4.6 1.9 0 .4-.6.2-1.5-.1-2.1-.2-.8-.6-1.5-1-2.3-.8-1.6-1.7-3.2-2.7-4.6-.5-.7-1.1-1.4-1.7-2C2.1 1.1 1.5.5.8.2.6.1.4.2.3.4 0 1.3.1 2.2.1 3.2v9.2c.1.5.1.3.1.6" transform="translate(-808 -799) translate(110 578) translate(698 221) translate(137 115) translate(84 48) translate(9 11) translate(21) rotate(-7 21.167 -80.38)"/>
                                    <path fill="#6E8EFF" d="M12.1 13.4c.2.7 1-.5 1.2-.9.2-.4.4-.8.7-1 .4-.3.9 0 1.3.2.5.3 1.1.7 1.7.9.4.2 1.2.3 1.5-.1.3-.5 0-1.2-.2-1.6-.3-.6-.7-1.2-1.1-1.7-.8-1.2-1.6-2.3-2.6-3.3-.5-.5-1-1-1.5-1.4-.5-.4-1-.9-1.6-1-.2 0-.3 0-.4.2-.2.7 0 1.5.1 2.2l.3 2.5.6 4.8c0 .1-.1-.1 0 .2" transform="translate(-808 -799) translate(110 578) translate(698 221) translate(137 115) translate(84 48) translate(9 11) translate(21)"/>
                                    <path fill="#263E92" d="M12.5 8.1c-.1.3-.4.4-.7.5-.6.3-1.3.4-2 .5-.3 0-.6.1-1 0-.1 0-.3 0-.4-.1-.1-.1-.1-.1 0-.2s.2-.2.3-.2c.1-.1.3-.2.4-.2.3-.1.6-.3.9-.4.6-.2 1.3-.4 2-.5 0 .1.1.1.2.1.3 0 .4.3.3.5m-.1-.9c0-.1-.1-.2-.2-.1-.8.2-1.6.3-2.3.6-.4.1-.7.3-1.1.5-.3.2-.7.4-.8.7-.1.4.3.7.6.7h1.2c.8-.1 1.7-.3 2.4-.6.4-.2.7-.5.8-.9 0-.5-.2-.9-.6-.9" transform="translate(-808 -799) translate(110 578) translate(698 221) translate(137 115) translate(84 48) translate(9 11) translate(21)"/>
                                </g>
                                <g fill="#142A77" fill-rule="nonzero">
                                    <path d="M6.6 4.8v.1c0 .1-.1.2-.2.2h-.2L6.1 5H5.8c-.2 0-.3.1-.4.1h-.2c-.1 0-.1 0-.2.1-.1 0-.2 0-.2.1 0 0-.1 0-.2.1-.1 0-.1 0-.2.1-.1 0-.2 0-.3.1-.1 0-.2.1-.2.1-.1 0-.1.1-.2.1s-.2.1-.2.1c-.3.1-.6.2-.8.3l-.4.2c-.2.1-.4.2-.7.4-.1.1-.2.2-.3.2-.2.2-.3.3-.4.5-.1.1-.2.3-.3.5v.4H.5v-.1-.1c0-.1 0-.1-.1-.2v-.2c0-.1 0-.1.1-.2.1-.2.2-.3.2-.4.1-.1.1-.1.1-.2s.1-.1.2-.2c0 0 .1-.1.2-.1l.3-.3.2-.2c.1-.1.2-.1.2-.2 0 0 .1 0 .1-.1 0 0 .1 0 .1-.1 0 0 .1-.1.3-.2 0 0 .1-.1.2-.1s.2-.1.2-.1c.1 0 .2-.1.3-.1.1-.1.2-.1.4-.2.1-.1.3-.1.4-.1.2-.1.3-.1.6-.2l.5-.1h.1s.1 0 .4-.1h.6c.1 0 .2.1.4.2l.1.1c0 .1.1.1.1.2l-.1-.3zM1.5 6.3c.2-.1.4-.3.8-.6h0c-.4.2-.6.4-.9.6-.2.1-.4.3-.5.5-.1.1-.1.2-.1.2v-.1-.1-.1c.2 0 .5-.2.7-.4zm1.3-.7s0 .1 0 0c-.1 0-.1 0-.1.1h-.1-.1-.1-.1c-.1 0-.1.1-.2.1s-.1.1-.1.1c-.1 0-.1 0-.2.1l-.5.3-.3.3v.1s-.1 0-.1.1l-.1.1s.1 0 .1-.1c0 0 .1 0 .1-.1 0 0 .1 0 .1-.1 0 0 .1-.1.2-.1l.2-.2c.1 0 .2-.1.2-.1.1-.1.1-.1.2-.1 0 0 .1 0 .1-.1.1-.1.2-.2.3-.2h.5c-.1-.1 0-.1 0-.2zm1.4 3c0 .1.1.1.1.2v.1s0 .1-.1.1H3.9c-.1 0-.1 0-.2.1h-.1l-.3.2c-.1 0-.1.1-.3.1-.1.1-.2.1-.3.2-.1 0-.1.1-.1.1v.1c0 .2 0 .4-.1.7 0 .1 0 .2-.1.2 0 .3-.1.7-.1 1.3V12.9s0 .1.1.1.1.1.1.1v.1s0 .1-.1.1h-.1-.1c-.1 0-.2-.1-.3-.1-.1 0-.1-.1-.2-.2 0-.1 0-.1-.1-.2v-.7-.1-.1-.4-.3V10H1.3v-.1h0c0-.1.1-.2.3-.3h.1c.1 0 .1-.1.1-.1l.1-.8v-.3-.2l.1-.6c0-.1 0-.2.1-.4s0-.2.1-.3l.1-.3v-.1c.1 0 .2 0 .2.1l.1.1V7.8c0 .1 0 .2-.1.4 0 .1 0 .3-.1.3l-.1.4V9h.1s.1 0 .1-.1c.1 0 .1-.1.1-.1.2-.1.4-.2.6-.2.1 0 .1-.1.2-.1s.2 0 .2.1c.5-.1.5-.1.6 0zM2 9.6c-.1 0-.1.1-.2.1 0 0 .1-.1.2-.1zm-.1 2.2v-.1-.1.2zm.3-2.1c-.1.3-.1.5-.1.5 0 .3-.1.6-.1 1v.8-.7c0-.3.1-.6.1-1l.1-.6zm-.2.8s0 .1 0 0c.1-.1.1-.2.1-.3v-.1.2c-.1.1-.1.2-.1.2zM2.5 8c-.1.3-.1.5-.1.6 0 .1-.1.2-.1.4.1-.2.1-.6.2-1zm-.1-2.4c.1.1.1 0 0 0 .1 0 .1 0 .1-.1v-.1h0s-.1 0-.1.1c.1.1.1.1 0 .1.1 0 0 0 0 0zm1.3 3.2h-.1c-.1.1-.2.1-.3.1l-.6.3c-.1 0-.1.1-.1.1h.1s.1 0 .1-.1c0 0 .1-.1.2-.1.1-.1.2-.1.3-.2.2 0 .3-.1.4-.1-.1 0-.1 0 0 0zm-1 .3c.3-.2.5-.3.7-.4h.1v.1h-.1c-.2 0-.4.1-.7.3zM9.5 9.1v.2c-.3.5-.5.9-.6 1.2l-.1.2s0 .1-.1.1c0 0-.1.1-.1.2l-.3.3c-.1.1-.3.2-.4.2h-.3c-.2-.1-.4-.2-.5-.3-.1-.1-.1-.2-.2-.4v-.2-.1c0-.4 0-.8.1-1.2v-.1-.1s-.1 0-.1.1v.1l-.4.8c-.1.3-.2.5-.3.7 0 .1-.1.2-.3.4 0 .1-.1.1-.2.2h-.1-.1c-.1 0-.1-.1-.2-.1-.1-.1-.1-.1-.2-.1l-.2-.2V10.7c0-.2 0-.4.1-.7 0-.1.1-.3.1-.6.1-.2.2-.5.3-.7l.1-.1c0-.1.1-.1.1-.2.1 0 .1-.1.1-.1h.5c.1 0 .2.1.3.1 0 0 .1.1.1.2v.2h-.1l-.2-.1h-.1c-.1 0 0 0 0 0l-.1.1-.2.4c-.1.3-.2.6-.3 1 0 .1 0 .2-.1.4v.1c.2-.2.4-.5.5-.7.3-.5.5-.9.6-1.2.1-.2.2-.3.3-.6 0-.1.1-.1.1-.1s0-.1.1-.1l.2-.3c0-.1 0-.1.1-.1H7.7l.1.1v.1l-.1.4c-.1.6-.2 1-.2 1.4v1.3c0 .1 0 .1.1.2 0 .1.1.1.2.1H8l.1-.1.1-.1s.1-.1.2-.3c.1-.2.2-.4.3-.5.1-.1.2-.4.4-.8 0 0 0-.1.1-.2l.1-.1c.1-.1.1-.1.2 0-.1-.1-.1 0 0 0zm-3.9.1s0-.1 0 0V9l.1-.1v-.1.1c-.1 0-.1.1-.1.1-.1.3-.3.6-.3 1v0c.1-.2.2-.5.3-.8zm.2-.1s-.1.1 0 .1l-.1.1v.1s-.1 0-.1.1v.1l.1-.1v-.1s.1-.1.1-.2v-.1c0-.1 0-.1 0 0zM13.6 8.2c0 .1 0 .1-.1.1s-.1.1-.2.1c0 0-.1 0-.2.1s-.2.1-.2.1h-.1-.1s-.1 0-.1.1v.4c0 .1 0 .1-.1.3 0 .1-.1.2-.1.3-.2.3-.3.5-.4.7l-.3.3-.2.1H11.2l-.2-.2c0-.1-.1-.1-.1-.2v-.1s0-.1.1-.2c0-.1.1-.1.1-.2.1-.3.4-.7.7-1l.3-.3c.1-.1.1-.1.1-.2v-.8H12c-.1 0-.2 0-.2.1l-.4.4c-.2.3-.4.5-.5.7-.2.3-.3.6-.4.8l-.1.3c0 .1-.1.3-.1.5v1.1c0 .2.1.3.1.4v.2h-.1-.1-.1c-.1 0-.1 0-.2-.1s-.1-.2-.1-.4v-.2V10.8 10v-.2V9.5v-.1-.2V9v-.7-.5-.5-.4c0-.3.1-.5.1-.8 0-.2.1-.4.1-.5l.1-.5.1-.3.1-.4c0-.2.1-.3.2-.5s.2-.4.3-.5c0-.1.1-.1.1-.1h.1v.2c.1-.1.1-.2.1-.2h.1v.1l-.1.3c0 .1-.1.2-.1.4 0 .1-.1.3-.1.6 0 0-.1.2-.1.5 0 .2-.1.3-.1.4 0 .1 0 .2-.1.3 0 .1 0 .2-.1.3l-.1.8v.5c0 .1-.1.3-.1.5s-.1.3 0 .5v.1c0-.1.1-.1.1-.2.1-.3.3-.5.5-.7.2-.2.4-.3.5-.4.1-.1.2-.1.2-.1h.2c.2 0 .3.1.4.2.1.1.2.2.3.4 0 .1.1.2.1.3v.2h.1c.2 0 .3-.1.3-.1h.2s.1 0 .1-.1c.2.1.3 0 .3.1 0-.1 0-.1 0 0zm-2.8.5c.2-.4.4-.7.7-.9h-.1l-.2.2-.2.2c-.1 0-.1.1-.1.1-.1 0-.1.1-.1.1-.1 0-.1.1-.1.1l.1.2h-.1s-.1.1 0 .1V9s0 .1-.1.2V9.4l.1-.1c-.1-.3-.1-.4.1-.6zm.8-.9s-.1 0 0 0c-.1 0-.1 0 0 0-.1.1-.1.1 0 0-.2.2-.3.2-.3.3-.1.1-.1.2-.1.2s-.1.1-.1.2l.1-.1c.1-.2.2-.3.3-.4l.1-.2c-.1.1 0 0 0 0zm-.2 2.3c.2-.5.4-.7.6-.9 0 0 0-.1.1-.1l-.2.2-.2.2s0 .1-.1.1v.1s0 .1-.1.1c-.1.2-.1.2-.1.3 0-.1-.1-.1 0 0-.1-.1-.1-.1 0 0-.1-.1-.1-.1 0 0-.1-.1-.1-.1 0 0-.1 0-.1 0 0 0-.1.1-.1 0 0 0-.1 0 0 0 0 0zm.7-.7v-.1.1c-.1 0-.3.2-.4.4-.1.1-.2.3-.2.5v.1l.1-.1c.2-.2.3-.5.5-.9zm-.3 1c.2-.2.3-.3.4-.5v-.1s-.1 0-.1.1c-.1.1-.2.3-.3.5zm.3-1.2s-.1 0 0 0l-.3.3v-.1c.1 0 .2-.1.3-.2 0-.1 0-.1 0 0zm.1.9s-.1 0 0 0c-.2.2-.3.3-.3.4.1-.1.2-.2.3-.4zm-.2-.2c0 .1 0 .1 0 0 0 .1-.1.1-.1.2.1-.1.1-.1.1-.2 0 .1 0 .1 0 0zM18.5 8.1v.2c-.2.5-.5.9-.6 1.2l-.1.2s0 .1-.1.1c0 0-.1.1-.1.2l-.3.3c-.1.1-.3.2-.4.2h-.3c-.2-.1-.4-.2-.5-.3-.1-.1-.1-.2-.2-.4v-.2-.1c0-.4 0-.8.1-1.2v-.1-.1s-.1 0-.1.1v.1l-.4.8c-.1.3-.2.5-.3.7 0 .1-.1.2-.3.4 0 .1-.1.1-.2.2h-.1-.1c-.1 0-.1-.1-.2-.1-.1-.1-.1-.1-.2-.1l-.2-.2V9.7 9c0-.1.1-.3.1-.6.1-.2.2-.5.3-.7l.1-.1c0-.1.1-.1.1-.2.1 0 .1-.1.1-.1h.5c.1 0 .2.1.3.1 0 0 .1.1.1.2v.2h-.1l-.2-.1-.1.1-.2.4c-.1.3-.2.6-.3 1 0 .1 0 .2-.1.4v.1c.2-.2.4-.5.5-.7.3-.5.5-.9.6-1.2.1-.2.2-.3.3-.6 0-.1.1-.1.1-.1s0-.1.1-.1l.2-.3c0-.1 0-.1.1-.1H16.7l.1.1v.1l-.1.4c-.1.6-.2 1-.2 1.4v1.3c0 .1 0 .1.1.2 0 .1.1.1.2.1h.2l.1-.1.1-.1s.1-.1.2-.3c.1-.2.2-.4.3-.5.1-.1.2-.4.4-.8 0 0 0-.1.1-.2l.1-.1h.2zm-3.8.1V8l.1-.1v-.1.1c-.1 0-.1.1-.1.1-.1.3-.3.6-.3 1v0c0-.2.1-.5.3-.8zm.1-.1s-.1.1 0 .1l-.1.1v.1s-.1 0-.1.1v.1l.1-.1v-.1s.1-.1.1-.2c0 0 .1 0 0-.1.1 0 .1 0 0 0 .1 0 .1 0 0 0zM29.2 2.9v.2h-.1c-.1-.1-.1-.2-.1-.2 0-.1 0-.1-.1-.1 0 0-.1 0-.1-.1-.1 0-.2-.1-.3-.1H27.9h-.4c-.4.1-.9.1-1.3.3-.2 0-.3.1-.3.1-.3.1-.4.1-.6.1l-1.1.3c-.4.1-.6.2-.7.2l-.4.1-.3.1c-.1 0-.1.1-.2.1s-.1 0-.2.1l-.4.2-1.2.6c-.1.1-.4.2-.7.5H20s-.1 0-.1-.1v-.1V5l.2-.1.9-.6c.1 0 .2-.1.5-.3.3-.2.6-.3.8-.4.5-.2.9-.4 1.3-.5l1-.3c.1 0 .1 0 .2-.1.1 0 .2-.1.2-.1l.3-.1c.5-.1.8-.2 1-.2.2-.1.4-.1.6-.1h.6c.1 0 .2 0 .3-.1H28.7c.3.1.5.2.6.4-.2.2-.1.3-.1.4zm-9 2.1c.3-.2.7-.4 1.3-.7l.4-.2c.1-.1.2-.1.3-.1.2-.1.5-.2.9-.3.1 0 .2-.1.3-.1 0 0 .1 0 .1-.1h.1c.1 0 .1 0 .2-.1h0-.1c-.1 0-.2 0-.2.1-.1 0-.1 0-.2.1-.2.1-.5.2-.9.3l-.3.1c-.1 0-.2.1-.3.1-.1.1-.2.1-.3.1h-.1H21.1c-.1 0-.1 0-.1.1h-.1c-.1 0-.1 0-.1.1h-.2-.2c-.2.5-.2.5-.2.6-.1-.1-.1-.1 0 0-.1 0-.1 0 0 0-.1 0 0 0 0 0zm3.7-1.6c-.1 0-.1 0-.3.1h-.2c-.6.2-1.1.4-1.4.6-.4.2-.7.3-1 .5 0 0-.1 0-.1.1-.1.1-.2.1-.2.1s-.1 0-.1.1c0 0-.1 0-.1.1 0 0 .1 0 .1-.1h.1s.1 0 .1-.1c.1 0 .2 0 .2-.1.1 0 .2-.1.2-.1.1-.1.3-.1.4-.2.1-.1.2-.1.3-.2l.3-.1c.2-.1.5-.2.9-.4.1 0 .2-.1.3-.1.1 0 .2-.1.3-.1h.2c-.1 0 0 0 0-.1zm.3.7c0 .1 0 .1 0 0v.4c-.1.4-.2.8-.2 1.1v.2c0 .1-.1.3-.1.5V7l-.1.5-.1.6c0 .4-.1.6-.1.6v2.2c0 .1 0 .2.1.3V11.5h-.1s-.1 0-.1-.1l-.1-.1-.1-.1v-.1c0-.1-.1-.2-.1-.4v-.1-.9-.1-.2c0-.1 0-.3.1-.5v-.2-1-.2l.1-.6v-.3l.1-.8c0-.3.1-.6.2-.9l.1-.2v-.1c0-.1 0-.1.1-.2 0-.1.1-.2.1-.2h.2v-.1zm.2-.8h-.1c-.1 0-.2 0-.2.1.1 0 .1 0 .2-.1h.1zm0-.2c-.1.1-.1.1 0 0h-.1c-.1 0-.1 0-.1.1 0 0 .1 0 .2-.1-.1.1-.1.1 0 0zM27.9 8.3c-.1.2-.3.4-.5.7-.2.3-.5.5-.7.6-.1 0-.2.1-.3.1-.2 0-.3 0-.4-.1-.1-.1-.2-.1-.3-.2l-.2-.2c0-.1-.1-.2-.1-.3v-.2-.5c0-.1 0-.2.1-.4v-.2s0-.1.1-.1c0-.1 0-.1.1-.2 0-.1.1-.2.1-.3.1-.2.2-.4.3-.5l.3-.3c.1-.1.1-.1.2-.1h.2c.1 0 .3 0 .4.1.2.1.2.2.3.3 0 .1 0 .2-.1.4s-.2.4-.3.5c-.2.2-.4.3-.6.4h-.1c-.1 0-.1.1-.1.1v.9c0 .1 0 .1.1.2 0 .1.1.1.2.1h.1c.3-.1.5-.2.6-.3.2-.2.4-.3.5-.5 0-.1.1-.1.2-.2s.1-.2.2-.2c.2-.3.3-.5.3-.6.1-.2.1-.3.2-.4v.2c0 .2 0 .3-.1.5-.1.1-.2.3-.2.4-.5.2-.5.3-.5.3zm-2.2-1.1s.1-.1 0 0c.1-.1.1-.2.1-.3v-.1l.1-.1-.1.1v.1c0 .1 0 .1-.1.3 0-.1 0-.1 0 0 0 0-.1.1-.1.2.1-.1.1-.2.1-.2zm.1.2s0-.1 0 0c0-.1 0-.1.1-.1.1-.3.3-.6.4-.7l-.1.1c-.1.1-.2.4-.3.6-.1 0-.2.1-.1.1zm.6-.9c-.1.2-.2.3-.3.4v-.1l.3-.3zm-.2.8c0 .1 0 .1 0 0h.1s.1 0 .1-.1c.2-.2.3-.4.4-.5 0-.1.1-.2.1-.3h-.1l-.1.1-.1.1c-.2.2-.3.4-.4.7zm.6-.5c0 .1 0 .1 0 0 0 .1 0 .1-.1.2l.1-.1c0 .1.1.1 0-.1.1 0 .1 0 0 0 .1 0 .1-.1 0 0 .1-.1.1 0 0 0 .1 0 .1 0 0 0zm.2.2c-.1 0-.1.1-.1.2 0-.1.1-.2.1-.2zm.8 1.3l-.1.1v0c.1 0 .1 0 .1-.1zm-.1 0l.1-.1.1-.1.1-.1-.1.1-.1.1-.1.1zm.2-.3c.1 0 .1-.1.1-.2v-.1-.1c.1-.1.1-.1.1-.2v.1c0 .1-.1.1-.1.2v.1s0 .1-.1.2zM31.8 6.3l-.1.4c-.2.5-.6 1-1 1.6-.1.2-.3.4-.4.5-.3.3-.5.5-.7.6-.1 0-.2.1-.2.1h-.2c-.2-.1-.4-.2-.5-.4-.1-.1-.1-.2-.1-.4v-.4V8c0-.2.1-.4.2-.7l.2-.4c.1-.2.2-.5.4-.7 0-.1.1-.1.2-.2l.1-.1.1-.1h.5c.1 0 .2.1.3.3l.1.1v.1h-.1s-.1 0-.1-.1l-.1-.1h-.1-.1c-.1 0-.1.1-.2.2-.2.2-.3.5-.5.9 0 .1-.1.2-.1.3 0 .1-.1.2-.1.3V8.7c0 .1 0 .2.1.3h.2c.3-.2.6-.4.9-.7l.4-.5c0-.1.1-.2.3-.4.2-.2.3-.4.4-.6l.3-.5s0-.1.1-.1c-.3.1-.3.1-.2.1zm-2.9 1.2s.1 0 0 0c.1-.4.3-.7.4-.9l.1-.2v-.1s-.1 0-.1.1l-.1.2c-.1.2-.2.5-.3.9 0 .1 0 .1 0 0 0 .1 0 .1 0 0 0 .1 0 0 0 0zm0-.2s.1-.1.1-.2c0 0 0-.1.1-.2v-.1-.1-.1-.1.4c0 .1-.1.1-.1.1-.1.2-.1.3-.1.3zm.2-.6c.1 0 .1 0 0 0l.1-.1-.1.1zm.4-.2c-.1.1-.2.3-.2.5v.1c.1-.3.2-.4.2-.6l.1-.1-.1.1zM30.7 8s-.1 0-.1.1c.1 0 .1-.1.1-.1zm.6-1s0 .1 0 0c-.1.1-.1.1-.1.2h-.1v.1s-.1 0-.1.1v0l.1-.1c.1 0 .1-.1.1-.1.1 0 .1-.1.1-.2 0 .1 0 .1 0 0zm0 .3s-.1 0 0 0c-.1.1-.1.1-.1.2 0-.1 0-.1.1-.2zm.3-.7l-.1.1v.1c-.1 0-.1.1-.1.2v0s.1-.1.1-.2v-.1l.1-.1zM36 6.7c0 .1 0 .1-.1.2s-.2.3-.3.5l-.2.4c0 .1-.1.1-.2.2s-.1.2-.2.2c-.1.1-.1.1-.2.1-.1.1-.2.1-.3.1-.1 0-.2 0-.3-.1-.1-.1-.2-.2-.2-.3v-.4-.1V7c0-.3 0-.6.1-.7V6c-.1.1-.1.2-.2.3-.1.1-.2.2-.2.4-.1.1-.1.2-.1.3l-.3.6c-.2.3-.3.6-.3.8 0 .1-.1.3-.1.4v.1s0 .1-.1.1h-.1-.1-.1-.1c-.1 0-.1 0-.1-.1v-.2-.2-.2-.4-.3-.4V7v-.3-.1-.5c0-.4.1-.7.2-1.2 0-.2.1-.4.1-.5 0-.2.1-.3.1-.4 0-.1 0-.1.1-.2 0-.1.1-.2.1-.2s0-.1.1-.2c0-.1.1-.2.1-.2l.1-.1h.2c.1 0 .2 0 .2.1l.1.1V3.6c0 .1-.1.3-.1.5-.1.3-.2.6-.2.9-.1.2-.1.4-.2.7v.2c0 .1 0 .2-.1.4V7.6c.2-.3.3-.6.5-.9.2-.2.3-.4.5-.6l.1-.1h.1c.2 0 .4.1.4.3v.2c0 .3-.1.5-.1.8v1.3c.1 0 .1-.1.1-.1l.1-.1c.1-.1.2-.3.5-.5 0-.1.1-.1.2-.2s.1-.2.2-.3c0 0 0-.1.1-.1l.1-.1h.1c0 .1-.1.1-.1.2l-.1.1v.4h-.1v.2l.1-.1s.1 0 .1-.1.1-.1.1-.1v-.1c.1-.1.2-.2.2-.3-.3-.7-.3-.7-.2-.7-.1-.1-.1-.1 0 0 0-.1 0-.1 0 0zm-2.4-.4c0-.1.1-.1.1-.1-.1 0-.1 0-.1.1 0-.1 0 0 0 0l-.1.1h-.1V7.2l.2-.4v-.1c0-.1.1-.1.1-.2v-.1c.1 0 .1-.1.1-.1.1 0 .1-.1.1-.1s.1 0 .1-.1c-.4.3-.4.3-.4.2zm-.7 1.4s0 .1 0 0l-.1.1c.1 0 .1 0 .1-.1zm.2-3.5c-.2.7-.2 1.1-.2 1l.2-.8.3-1.2v-.1V3c0 .1-.1.5-.3 1.2zm.8 1.7c-.1 0-.1.1-.1.2 0-.1.1-.1.1-.2zm0 .1s0 .1 0 0l-.1.1.1-.1c-.1.1 0 .1 0 0 0 .1 0 .1 0 0zm.1-.1l-.1.1s.1 0 .1-.1zm1.6 1.4s0 .1 0 0l-.1.1s-.1 0-.1.1l.1-.1.1-.1zm.1-.2c0 .1 0 .1 0 0l-.1.2.1-.2c0 .1 0 .1 0 0zm.2-.2l-.1.1s.1 0 .1-.1zM41 5.5v.1c-.1.1-.2.2-.2.3-.1.2-.2.3-.2.4l-.1.2c-.1.3-.2.5-.2.5 0 .1-.1.3-.3.5-.2.3-.2.5-.3.6-.1 0-.2.1-.3.3-.1.1-.2.1-.2.2l-.1.1s-.1 0-.2-.1h-.1-.1l-.1-.1c-.1-.1-.1-.2-.2-.2 0-.1-.1-.3-.1-.4v-.3-.2l.1-.6v-.1-.2c0-.1 0-.2.1-.3 0-.1 0-.2.1-.2l.1-.4-.2.2c0 .1-.1.1-.1.2s-.1.1-.2.2c0 .1-.1.1-.1.2-.1.1-.1.2-.1.3l-.6 1.2c0 .1-.1.1-.1.2s-.1.1-.1.1h-.1c-.1 0-.1-.1-.2-.1h-.1V8s0-.1-.1-.1c0 0 0-.1-.1-.1 0-.1-.1-.2-.1-.3v-.6-.4c0-.2.1-.3.1-.5 0-.1.1-.2.1-.3v-.2c0-.1.1-.1.1-.1h.2v.1h.1v.2c-.1.2-.1.5-.2.7V7.3h.1c.1-.1.1-.2.2-.3 0-.1.1-.2.1-.2l.3-.6c.2-.3.3-.5.4-.6l.3-.3.1-.1h.2c.1 0 .2 0 .2.1.1.1.1.1.1.2v.3c0 .3 0 .5-.1.7-.1.3-.1.5-.1.5v.4c0 .2 0 .3-.1.6v.4h.1s.1 0 .1-.1l.1-.1.1-.2c.1-.2.2-.4.3-.5.3-.5.5-.8.6-1.2 0 0 .1-.1.1-.2s.1-.2.1-.2l.1-.1c0-.1.1-.1.1-.1.6-.2.6-.2.7-.2zm-3.7 2l.1-.1c.1-.1.2-.4.4-.7l.2-.4.1-.3v-.1s-.1 0-.1.1-.1.2-.2.3v.1l-.4.8c-.1.1-.1.1-.1.3 0-.1-.1-.1 0 0zm.8-1.5s-.1 0-.1.1c0 0-.1.1 0 .1l-.1.1v.1c-.1.1-.1.2-.2.3l-.1.1c0 .1-.2.3-.4.8v.1s.1 0 .1-.1v-.1l.1-.2.2-.3v-.1-.1s0-.1.1-.1c0 0 0-.1.1-.1 0 0 0-.1.1-.1v-.1-.1l.1-.1s0-.1.1-.1V6zm0-.2c-.1 0-.1.1-.1.1.1 0 .1 0 .1-.1zm1.7 1.8s0 .1-.1.1-.1.1-.1.1 0 .1-.1.1l-.1.1-.1.1s-.1 0-.1.1v.1l.1-.2c.1 0 .1-.1.1-.1v-.1-.1l.1-.1v-.1c.3.1.3.1.3 0zm.8-1.8s.1 0 0 0c0 0 0 .1 0 0l-.1.2V7.5l-.1.1v.2l-.1.1v.2c0 .1 0 .1-.1.1 0 0 .1 0 .1-.1.1-.1.2-.3.4-.7l.4-.7c0-.1.1-.2.1-.2 0-.1.1-.2.1-.3 0 0 .1-.1.1-.2-.9 0-.8-.1-.8-.2zm-.5 1.3c-.1 0-.1.1 0 0l-.1.1v.2l-.1.1.1-.1c0-.1 0-.1.1-.3-.1.1 0 .1 0 0zm0-.1c0 .1-.1.1 0 .1v0V7zm.4-.8c0 .1-.1.1-.1.1.1 0 .1 0 .1-.1zm.2-.4c0 .1 0 .1 0 0l-.1.1c.1.1.1 0 .1-.1 0 .1 0 .1 0 0z" transform="translate(-808 -799) translate(110 578) translate(698 221) translate(137 115) translate(84 48) translate(9 11) translate(0 20)"/>
                                    <path d="M44.6 5.3l-.1.1c-.1.1-.1.1-.3.2-.1.1-.2.1-.3.2-.2.1-.3.1-.4.1h-.2-.1v.5c0 .2 0 .3-.1.5 0 .1 0 .1-.1.2 0 .1-.1.2-.1.2s0 .1-.1.1c0 0 0 .1-.1.1 0 .1-.1.1-.2.2-.1 0-.2.1-.3.1-.1 0-.2 0-.3-.1h-.1c-.1 0-.2-.1-.3-.1-.1-.1-.2-.2-.2-.3v-.1V7 6.4v-.2c0-.2.1-.3.1-.4v-.1-.1-.1c0-.1.1-.2.1-.2 0-.1.1-.1.1-.2 0 0 .1-.1.2-.3l.1-.1.1-.1H42.3v.1l-.1.1v.1c0 .1 0 .1-.1.2 0 .1-.1.2-.1.2v.2c0 .2-.1.3-.1.4V7.2c0 .1 0 .1.1.2v.2H42.3l.1-.1c.1-.2.2-.3.2-.5l.1-.3c0-.1.1-.2.1-.3v-.1-.2h-.1-.1s-.1 0-.1-.1h-.1s-.1 0-.1-.1.1-.2.3-.3H42.9c.1 0 .1.1.1.1 0 .1 0 .1.1.1h.1c.1 0 .2-.1.4-.1.1 0 .2-.1.3-.1 0 0 .1-.1.2-.1l.1-.1h.1c.2-.2.2-.2.3-.1-.1 0-.1 0 0 0-.1-.1 0-.1 0 0 0-.1 0-.1 0 0zm-3.1 1.3v-.1-.2-.2-.2c0-.1.1-.3.1-.5s.1-.3.2-.5v-.1-.1c-.1 0-.1.1-.1.1v.1c-.1.2-.1.3-.2.5 0 .2-.1.3-.1.5v.5l.1.2v.2-.2zm.2-.8c0-.1.1-.3.2-.6L42 5v-.1s0-.1.1-.2v-.1c0 .1-.1.1-.1.2-.1.3-.2.6-.3 1 0 .1 0 .2-.1.3V6.2c0-.1.1-.3.1-.4zm.5-1.1c-.1.2-.2.3-.2.5.1-.2.1-.4.2-.5 0 0 .1 0 0 0zm.5.9l-.1.1.1-.1zm.3.7c0 .1-.1.2-.1.3-.1.3-.1.5-.2.6v.1l.1-.1c.1-.1.1-.3.2-.4v-.5zm-.2.6s.1-.1 0-.1v-.1-.1-.1.4zm.2-.2l-.1.2s0 .1-.1.4v-.1c.2-.2.2-.3.2-.5zM46.3.8v.8l-.1.7c0 .1 0 .2-.1.4s-.1.3-.1.4c0 .1-.1.3-.1.5s-.1.4-.1.5c0 .1-.1.4-.1.7-.1.3-.1.5-.1.7l-.1.2v.4c0 .2-.1.4-.1.6v.4c0 .2.1.4.1.5v.1h.1c.2 0 .4-.2.7-.6.2-.3.4-.7.7-1.1l.4-.7c.1 0 .1 0 .1.1v.1c-.1.3-.2.6-.3.8-.1.2-.3.4-.5.7l-.2.3-.4.4c-.2.1-.3.2-.5.2h-.1c-.1 0-.2-.1-.2-.1-.1 0-.1-.1-.2-.3-.1-.1-.1-.2-.1-.3 0-.1 0-.2-.1-.4V5.6c0-.4.1-.9.1-1.6.1-.6.2-1.2.4-2 .2-.7.4-1.1.7-1.1h.1c0-.2 0-.2.1-.1-.1-.1 0-.1 0-.1v.1zm-1.2 4.1V4.9c.1-.2.1-.3.1-.3v-.4c0-.2 0-.3.1-.4v-.3l.1-.5v-.1-.2l-.1.1c-.1.1 0 .1 0 .1l-.2 1.3v.7zm.7-1.6c.2-.9.3-1.5.4-1.9v-.1-.1h-.1c-.1 0-.2.2-.3.7-.1.4-.2.9-.3 1.5-.1.5-.1.9-.1 1.1v.1l-.1.7c.2-.5.3-1.2.5-2zm-.3-1.1c0-.2.1-.3 0-.3v.3c-.1.2-.1.3-.1.3s0-.2.1-.3zM51.1 4.6l-.1.1c-.1.1-.1.1-.3.2-.1.1-.2.1-.3.2-.2.1-.3.1-.4.1h-.2-.1v.5c0 .2 0 .3-.1.5 0 .1 0 .1-.1.2 0 .1-.1.2-.1.2s0 .1-.1.1c0 0 0 .1-.1.1 0 .1-.1.1-.2.2-.1 0-.2.1-.3.1-.1 0-.2 0-.3-.1h-.1c-.1 0-.2-.1-.3-.1-.1-.1-.2-.2-.2-.3v-.1-.2V5.7v-.2c0-.2.1-.3.1-.4V5v-.1-.1c0-.1.1-.2.1-.2 0-.1.1-.1.1-.2 0 0 .1-.1.2-.3l.1-.1.1-.1H48.8V4l-.1.1v.1c0 .1 0 .1-.1.2 0 .1-.1.2-.1.2v.2c0 .2-.1.3-.1.4V6.5c0 .1 0 .1.1.2v.2H48.8l.1-.1c.1-.2.2-.3.2-.5l.1-.3c0-.1.1-.2.1-.3v-.1-.2h-.1-.1s-.1 0-.1-.1h-.1s-.1 0-.1-.1.1-.2.3-.3H49.4c.1 0 .1.1.1.1 0 .1 0 .1.1.1h.1c.1 0 .2-.1.4-.1.1 0 .2-.1.3-.1 0 0 .1-.1.2-.1l.1-.1h.1c.2-.2.2-.2.3-.1 0-.1 0 0 0 0zM48 5.9v-.1-.2-.2-.2c0-.1.1-.3.1-.5s.1-.3.2-.5v-.1V4c-.1 0-.1.1-.1.1v.1c-.1.2-.1.3-.2.5 0 .2-.1.3-.1.5v.5l.1.2v.2-.2zm.3-.8c0-.1.1-.3.2-.6l.1-.2v-.1s0-.1.1-.2v-.1c0 .1-.1.1-.1.2-.1.3-.2.6-.3 1 0 .1 0 .2-.1.3V5.5c0-.1 0-.3.1-.4zm.4-1.1c-.1.2-.2.3-.2.5.1-.2.2-.4.2-.5.1 0 .1 0 0 0 .1 0 0 0 0 0zm.5.9l-.1.1.1-.1zm.4.7c0 .1-.1.2-.1.3-.1.3-.1.5-.2.6v.1l.1-.1c.1-.1.1-.3.2-.4-.1-.3 0-.4 0-.5zm-.2.6s.1-.1 0-.1V6v-.1-.1.2c0 .1-.1.1 0 .2zm.2-.2l-.1.2s0 .1-.1.4v-.1c.1-.2.2-.3.2-.5zM55.3 4.2v.1l-.1.1c-.1.1-.3.2-.7.5-.2.1-.3.2-.4.3 0 0-.1.1-.1.2V8c0 .1 0 .2-.1.4 0 .2-.1.5-.2.9s-.3.7-.4 1c-.2.4-.5.6-.8.8-.2.1-.4.2-.6.2h-.2c-.4-.1-.6-.4-.7-.7v-.1-.2c0-.2.1-.5.2-.8.1-.3.2-.6.4-.9.1-.2.2-.4.3-.7l.3-.5c.1-.2.3-.4.5-.8.3-.4.5-.7.8-.9.1-.1.1-.2.1-.2v-.1-.1V5 4.2v.1l-.5.7c-.2.3-.4.5-.5.7-.1.1-.3.2-.4.3H51.9c-.1 0-.2-.1-.3-.3 0 0 0-.1-.1-.2v-.1c0-.2.1-.4.2-.6l.1-.2.2-.4c.1-.2.2-.3.4-.4.1-.1.2-.1.3-.2.1 0 .2 0 .3.1.1 0 .2.1.2.2V4c-.1 0-.1-.1-.2-.1h-.1-.1c-.1.1-.3.2-.4.4-.1.1-.2.3-.2.4-.1.2-.2.4-.2.6v.2s.1 0 .1-.1l.6-.6.5-.6.4-.6.1-.1h.1c.1 0 .2.1.3.3v1.1l.5-.3c.1-.1.2-.1.2-.2 0 0 .1-.1.2-.1s.1-.1.2-.1c-.1-.1 0-.1.1 0-.1-.1-.1 0 0 0zM53.5 6l-.3.2-.2.2-.1.2s-.1.2-.3.4l-.3.5c-.2.4-.4.7-.5.9-.1.2-.2.4-.3.7l-.3.9v.3c0 .1 0 .2.1.2 0 .1 0 .1.1.2 0 .1.1.1.2.1s.2-.1.3-.1c.2-.1.4-.3.5-.5.1-.2.3-.4.4-.6.1-.1.1-.3.2-.6s.2-.7.3-1c.1-.3.1-.6.1-1.1v-.4-.3l.1-.2zm-2.1 3l.1-.1.3-.6v-.2c.1-.1.1-.1.1-.2.1-.1.2-.2.2-.3.1 0 .1-.1.1-.2 0 0 0-.1.1-.1.1-.1.1-.2.2-.3l.1-.1c.1 0 .1-.1.1-.1s.1 0 .1-.1l.1-.1c.1 0 .1-.1.1-.1-.1 0-.1.1-.1.1-.1 0-.1.1-.1.1l-.1.1c-.1 0-.1.1-.1.1s-.1 0-.1.1-.1.1-.1.1v.2h-.1v.1h-.1v.2h-.1v.5l-.1.1v.1h-.1l-.1.1v.4l-.1.1-.3.1zm.3-4.3l.1-.1.1-.1.2-.4.2-.2-.1.1-.1.1V4v.6c-.4 0-.4 0-.4.1zm.5-.7c-.1.1-.1.1-.1.2v.1l-.1.1v-.1l.1-.1c.1-.1.1-.1.1-.2zm1.3-.3s0-.1 0 0c-.1 0-.1 0 0 0-.1 0-.1 0 0 0-.1 0-.1 0 0 0l-.1.1v.1h-.1l-.1.1v.1s0 .1-.1.1c0 .1-.1.1-.1.1v.2l-.1.1-.1.1-.2.2c.1-.1.1-.1.1-.2l.2-.2.1-.1c0-.1.1-.1.1-.2.1-.1.1-.2.2-.3l.1-.1.1-.1c.1 0 .1-.1.1-.1l-.1.1zm-1 3.4l-.1.1v.1c0-.1 0-.1.1-.2 0-.1 0 0 0 0zm.1-.2c-.1 0-.1.1 0 0 0 .1 0 .1 0 0l.1-.1c-.1 0-.1.1-.1.1zm.2-2.1c-.1 0-.1.1-.1.1-.1.1-.1.1-.1.2.1 0 .1-.1.1-.2.1 0 .1 0 .1-.1zm.4 4.7c-.1.1-.1.2-.1.2-.1.1-.1.2-.1.2 0 .1-.1.1-.1.1v-.1-.1-.1-.1V9.9c-.1 0-.1.1-.1.2l-.1.1h.1c0 .1-.1.1-.1.2s-.1.1 0 .1h.1c.2-.2.3-.4.4-.7v-.1-.2zm-.5-2.7l.1-.1c-.1 0-.1 0-.1.1zm.4 3.2l-.3.4v.1s.1 0 .1-.1c.1-.1.1-.2.2-.4zm-.2-3.7c.1 0 .1-.1.1-.1-.1 0-.1 0-.1.1zm.1-1.8l-.1.1c.1 0 .1 0 .1-.1zm0 1.9l.1-.1c-.1 0-.1 0-.1.1zm.1-2s-.1 0-.1.1c.1 0 .1-.1.1-.1zm.1-.1l-.1.1.1-.1zm.1-.2l-.1.1s.1 0 .1-.1zm.1-.1c-.1 0-.1.1-.1.1l.1-.1zM60.6 3.2c0 .1 0 .1 0 0l-1 .7c-.1.1-.2.2-.4.3-.1.1-.3.2-.3.3-.1 0-.1.1-.1.2v2c0 .1 0 .3-.1.5 0 .2 0 .3-.1.4-.1.4-.2.7-.2.9-.1.4-.3.7-.4.9-.2.4-.5.6-.8.8-.2.1-.4.2-.5.2H56.4c-.3-.1-.5-.4-.6-.7v-.1-.2c0-.3.1-.5.2-.9.1-.3.2-.6.4-.9.1-.2.2-.5.3-.7l.1-.2c0-.1.1-.2.2-.3.1-.2.3-.4.5-.8.2-.3.5-.6.7-.9.1-.1.1-.1.1-.2l-.1.1-.1.1V3.6v-.1.1c-.1.2-.2.5-.4.8-.2.3-.4.6-.6.8-.2.2-.3.3-.5.4h-.4c-.1-.1-.2-.2-.3-.4-.1 0-.1-.1-.1-.2v-.1-.1c0-.2 0-.3.1-.5S56 4 56 4s.1-.1.1-.2v-.2c0-.1.1-.2.1-.3.1-.1.1-.1.2-.1h.1c.1 0 .1.1.1.2v.4c0 .1 0 .2-.1.2-.1.3-.2.5-.3.8V5c.1 0 .1 0 .1-.1.3-.3.5-.5.7-.8.1-.1.1-.2.3-.4.1-.1.2-.3.3-.4 0-.1.1-.2.1-.3 0-.1.1-.1.1-.2s.1-.2.1-.2v-.1h.5c.1 0 .1 0 .1.1V4l.3-.1c.4-.2.7-.3.7-.4.4-.2.6-.4.6-.4h.1c.3 0 .3 0 .4.1zm-2.3 2l-.3.2-.2.2-.4.7-.3.5c-.2.3-.3.6-.5.9 0 .1-.1.3-.3.7-.1.3-.2.6-.2.9V9.6c0 .1 0 .2.1.3 0 .1 0 .1.1.2 0 .1.1.1.2.1s.2-.1.3-.1c.2-.2.4-.3.5-.5.1-.2.3-.4.4-.6.1-.1.1-.3.1-.4 0-.1.1-.2.1-.2.1-.2.2-.6.3-1 .1-.3.1-.6.1-1.1V6v-.8zm-2.1 3l.1-.1.3-.6v-.1-.1l.1-.1v-.1c.1-.1.2-.2.2-.3 0 0 .1-.1.1-.2l.1-.1c.1-.1.1-.2.2-.3l.1-.1c.1 0 .1-.1.1-.1l.1-.1c.1 0 .1-.1.1-.1.1 0 .1-.1.1-.1l-.1.1-.1.1-.1.1-.1.1c0 .1-.1.1-.1.1v.2h-.1v.2h-.1V7.4H57l-.1.1v.2l-.2.3c-.5.1-.5.1-.5.2zM58.1 3c-.1 0-.1 0 0 0l-.1.1-.1.1V3.5l-.1.1v.2s0 .1-.1.1v.2l-.1.1c-.1.1-.1.1-.1.2 0 0 0 .1-.1.1 0 .1-.1.1-.1.1.1-.1.1-.2.2-.2 0 0 .1-.1.2-.1.1-.1.1-.1.1-.2V4v-.1c0-.1.1-.2.1-.3.1-.1.1-.2.2-.3v-.1-.1V3v-.1-.1c-.1.3-.1.3 0 .2zm-.6 1.4c-.1 0-.1.1-.1.2 0 0-.1 0-.1.1-.1 0-.1.1-.1.1s.1 0 .1-.1c.1 0 .1-.1.1-.1.1-.1.1-.2.1-.2zm-.2 1.9l-.1.1v0c.1 0 .1 0 .1-.1zm.1-.1l.1-.1s-.1 0-.1.1zm.6 2.5c-.1.1-.1.1-.1.2l-.1.2c0 .1-.1.1-.1.1v-.1V9v-.1-.1V9.1s-.1.1-.1.2l-.1.1h.1s0 .1-.1.1l-.1.1s-.1.1 0 .1h.1c.2-.2.3-.4.4-.7v-.1c.1-.1.1-.1.1-.2zM57.5 6l.1-.1c-.1 0-.1.1-.1.1zm.1-1.8l-.1.1c.1 0 .1-.1.1-.1zm.1-.2l-.1.1c.1 0 .1 0 .1-.1zm.3 5.2l-.3.4s.1 0 .1-.1c0 0 .1-.1.2-.3 0 .1 0 0 0 0zm-.2-5.3l-.1.1c0-.1.1-.1.1-.1zm-.1 1.6c.1 0 .1-.1.1-.1l-.1.1zm.1.1s0-.1.1-.1c-.1 0-.1.1-.1.1zm.2-2.3l-.1.1c.1 0 .1 0 .1-.1z" transform="translate(-808 -799) translate(110 578) translate(698 221) translate(137 115) translate(84 48) translate(9 11) translate(0 20)"/>
                                </g>
                            </g>
                        </g>
                        <g fill="#000" fill-rule="nonzero">
                            <path d="M2.5 5.8C5 41.9 2.9 78.1.8 114.1c-.1 1.7 2.6 1.7 2.7 0 2.1-36 4.2-72.2 1.7-108.3-.2-1.7-2.9-1.7-2.7 0z" transform="translate(-808 -799) translate(110 578) translate(698 221) translate(137 115) translate(86 91)"/>
                            <path stroke="#000" stroke-width=".883" d="M3.4 4.2c13.1.5 27.4.5 42.9-.5C58 3 68.9 1.8 79.1.3c-.2 11.2-.5 22.4-.7 33.7-11.2 2.2-24.2 4-38.8 4.8-12.9.7-24.6.3-35-.5L3.4 4.2h0z" transform="translate(-808 -799) translate(110 578) translate(698 221) translate(137 115) translate(86 91)"/>
                            <path d="M77.1 7.7c-3.3 34-6.5 68-9.8 102-.2 1.7 2.5 1.7 2.7 0 3.3-34 6.5-68 9.8-102 .1-1.6-2.6-1.6-2.7 0z" transform="translate(-808 -799) translate(110 578) translate(698 221) translate(137 115) translate(86 91)"/>
                        </g>
                        <g>
                            <path fill="#FFF" d="M2 24.3c-.3.9 0 2.6.4 4.8.1.6.4 1.9 1 3.9 1.1 3.6 2.4 6.3 2.7 6.9 3.2 6.4 7.1 10.5 8.2 11.6 1.9 1.9 3.6 3.3 4.8 4.2 3.9-1.5 7.7-3.1 11.6-4.7 1.4-1 3.5-2.9 4.9-5.9 2.6-5.5 1.2-11.6-.8-15.1C27.6 17.5 3.5 19.9 2 24.3z" transform="translate(-808 -799) translate(110 578) translate(698 221) translate(137 115) translate(81)"/>
                            <path fill="#161616" d="M1.2 27.9c1.3 6 3.6 11.7 6.8 17 1.5 2.5 3.2 4.8 5.1 7 1.6 1.9 3.4 3.9 6 4.5.8.2 1.2-1.1.4-1.3-2.8-.6-4.6-3.1-6.4-5.3-1.8-2.2-3.3-4.5-4.7-6.9-2.8-4.8-4.7-10-5.9-15.4-.1-.8-1.4-.4-1.3.4z" transform="translate(-808 -799) translate(110 578) translate(698 221) translate(137 115) translate(81)"/>
                            <path fill="#161616" d="M11.3 38.7c-.2-3.9 4.4-2.7 5.9-.7 1.8 2.3 1.3 7.3-2.6 6.6-.8-.1-1.2 1.1-.4 1.3 5 .8 6.7-5.3 4-8.7-2.3-3-8.6-3.7-8.3 1.5.1.9 1.4.9 1.4 0z" transform="translate(-808 -799) translate(110 578) translate(698 221) translate(137 115) translate(81)"/>
                            <path fill="#454451" d="M1.5 26.9c-.6-2-1.6-5.3.2-8.5 1.5-2.7 4.1-3.9 5.2-4.2 0-.6-.2-4.1 2.5-7 2.7-2.9 6.2-3 6.8-3 1.1-.8 2.7-1.9 4.8-2.7.8-.3 4.3-1.5 8.4-.9 5.7.8 6.7 4.2 13 7 2.1.9 5.5 2 10.2 2.1-1.1 1.3-2.3 2.6-3.4 3.9.8.9 2 2.4 2.8 4.4.4 1 1.2 3.4 1.1 7.8-.2 4.3-1.2 7.8-2.1 10.8-1.6 5.2-2.5 6.8-1.6 8.9 1 2.4 3.5 3.1 3.2 4.1-.4 1.1-3.5 1.2-5.6 1-3.2-.4-5.3-1.8-5.6-1.3-.4.6 2.6 2.6 2.1 3.9-.6 1.7-6.4 1.5-10.6.5-1.4-.3-3.9-1.1-6.8-2.7-3.7-2.1-6.2-4.7-7.7-6.4 1.1-2.5 1-5.2-.5-7.1-.1-.2-2.4-2.9-5-2.1-1.5.4-2.3 1.7-2.5 2.1-2.1-1.1-7.1-4.4-8.9-10.6z" transform="translate(-808 -799) translate(110 578) translate(698 221) translate(137 115) translate(81)"/>
                            <path fill="#4C4C4C" d="M6.9 14.4c.9 2.8 7 2.3 11.5 3.8 3.2 1.1 7.6 3.9 11.4 11.6-1.1-3.5-6-17.7-17.7-20.9-1.1-.3-2.3-.5-3.7-.6-.4.5-1.3 1.8-1.6 3.5.1.1-.2 1.6.1 2.6z" opacity=".24" transform="translate(-808 -799) translate(110 578) translate(698 221) translate(137 115) translate(81)"/>
                            <path fill="#4C4C4C" d="M16.4 3.9c.8-.6 2-1.4 3.4-2 1.2-.5 2.2-.8 3.1-.9 2.3 2 5.8 4.6 10.6 6.5 8 3.2 15.2 2.8 18.9 2.3-.6 1.1-1.6 2.6-3.3 3.8-6.2 4.4-15.4.6-19.8-1.2-3.1-1.3-8-3.8-12.9-8.5z" opacity=".17" transform="translate(-808 -799) translate(110 578) translate(698 221) translate(137 115) translate(81)"/>
                            <path fill="#4C4C4C" d="M38.2 34.3c-.7.2.2 5.2.5 6.7.7 3.5 1.8 6.2 2.8 8.1 1.4.4 2.8.9 4.2 1.4-5.2-13.6-6.9-16.4-7.5-16.2z" opacity=".14" transform="translate(-808 -799) translate(110 578) translate(698 221) translate(137 115) translate(81)"/>
                            <path fill="#4C4C4C" d="M17.2 39.7c.1 1.1.2 2.1-.4 3-.7 1-1.8.8-2.8 2.3-.4.5-.4.8-.3.9.2.4 1.2.2 1.6.2 2.3.1 3.7 2.4 5.3 3.8 1.3 1.2 3.5 2.3 7.5 2.4-2-1.1-4.2-2.5-6.5-4.4-1.3-1.1-2.4-2.2-3.4-3.2.4-1 1.2-3.1.4-5.4-.6-1.7-2-2.9-2.2-2.7-.2.2.6 1.2.8 3.1z" opacity=".12" transform="translate(-808 -799) translate(110 578) translate(698 221) translate(137 115) translate(81)"/>
                        </g>
                    </g>
                </g>
            </g>
        </g>
    </g>
</svg>
