<svg xmlns="http://www.w3.org/2000/svg" width="24" height="24" viewBox="0 0 24 24">
    <g fill="none" fill-rule="evenodd">
        <g fill="#202B50" fill-rule="nonzero">
            <g>
                <g>
                    <g>
                        <g>
                            <path d="M4 12.5c0-.337.272-.611.607-.611h14.32l-3.822-3.845c-.237-.239-.237-.626 0-.865.238-.239.622-.239.86 0l4.857 4.888c.114.115.178.27.178.433 0 .162-.064.318-.178.433l-4.857 4.888c-.238.239-.622.239-.86 0-.237-.24-.237-.626 0-.865l3.821-3.845H4.607c-.335 0-.607-.274-.607-.611z" transform="translate(-554 -4415) translate(140 4252) translate(279 152) translate(28 9) translate(107 2)"/>
                        </g>
                    </g>
                </g>
            </g>
        </g>
    </g>
</svg>
