<svg xmlns="http://www.w3.org/2000/svg" width="24" height="24" viewBox="0 0 24 24">
    <g fill="none" fill-rule="evenodd">
        <g fill="#202B50">
            <g>
                <g>
                    <g>
                        <g>
                            <path d="M21.728 11.331l-5.952-6.054c-.363-.37-.952-.37-1.315 0s-.363.968 0 1.338l4.364 4.439H2.93c-.514 0-.93.424-.93.946s.416.946.93.946h15.895l-4.364 4.44c-.363.369-.363.968 0 1.337.181.185.42.277.658.277.237 0 .475-.092.657-.277l5.952-6.054c.363-.37.363-.968 0-1.338z" transform="translate(-556 -961) translate(156 539) translate(384) translate(16 422)"/>
                        </g>
                    </g>
                </g>
            </g>
        </g>
    </g>
</svg>
