<svg width="24" height="24" xmlns="http://www.w3.org/2000/svg">
    <path d="M11.97 2c5.52-.01 10.01 4.45 10.03 9.97.02 5.52-4.45 10.01-9.97 10.03-5.52.02-10.01-4.45-10.03-9.97C1.98 6.51 6.45 2.02 11.97 2zM12 5.35c-.41 0-.75.34-.75.75v.58h-.65c-1.48 0-2.69 1.24-2.69 2.78 0 1.79 1.05 2.37 1.83 2.64l1.51.54v3.38h-.36c-.81 0-1.47-.71-1.47-1.58 0-.41-.34-.75-.75-.75s-.75.34-.75.75c0 1.7 1.33 3.08 2.97 3.08h.36v.58c0 .41.34.75.75.75s.75-.34.75-.75v-.58h.65c1.48 0 2.69-1.24 2.69-2.78 0-1.79-1.05-2.37-1.83-2.64l-1.51-.54V8.18h.36c.81 0 1.47.71 1.47 1.58 0 .41.34.75.75.75s.75-.34.75-.75c0-1.7-1.33-3.08-2.97-3.08h-.36V6.1c0-.41-.34-.75-.75-.75zm.76 7.822 1.01.35c.51.18.82.35.82 1.22 0 .7-.54 1.28-1.19 1.28h-.64v-2.85zM11.252 8.18v2.86l-1.01-.35c-.51-.18-.82-.35-.82-1.22 0-.71.53-1.29 1.18-1.29h.65z" fill="#04A8F5" fill-rule="evenodd"/>
</svg>
