<svg width="32" height="32" xmlns="http://www.w3.org/2000/svg">
    <g fill="none" fill-rule="evenodd">
        <path d="M0 0h32v32H0z"/>
        <path d="M22.667 17.333A6.67 6.67 0 0 1 29.333 24a6.67 6.67 0 0 1-6.666 6.667A6.67 6.67 0 0 1 16 24a6.67 6.67 0 0 1 6.667-6.667zM21.4 2.761c3.667.493 5.267 3 5.267 6.573v5.96a.655.655 0 0 1-.88.627 8.646 8.646 0 0 0-4.867-.413c-3.467.693-6.227 3.533-6.8 7.026-.347 2.134.08 4.147 1.053 5.787a.668.668 0 0 1-.573 1.013H9.333c-4.666 0-6.666-2.666-6.666-6.666V9.334c0-3.546 1.573-6.04 5.186-6.56.387-.053.734.254.747.654l.04 1.346c.04 2.134 1.84 3.894 4 3.894h4.027c2.2 0 4-1.8 4-4v-1.24c0-.4.346-.72.733-.667zm.147 18.319a.877.877 0 0 0-1.227 0l-2.307 2.307a.877.877 0 0 0 0 1.226l2.307 2.307a.847.847 0 0 0 .613.253c.227 0 .44-.08.614-.253a.877.877 0 0 0 0-1.227L19.853 24l1.694-1.693a.877.877 0 0 0 0-1.227zm3.466 0a.877.877 0 0 0-1.226 0 .877.877 0 0 0 0 1.227L25.48 24l-1.707 1.693a.877.877 0 0 0 0 1.227.847.847 0 0 0 .614.253c.226 0 .44-.08.613-.253l2.307-2.307a.89.89 0 0 0 .013-1.226zm-7.68-18.413c.733 0 1.333.6 1.333 1.333v.667c0 1.093-.907 2-2 2h-4.04a2.004 2.004 0 0 1-2-1.947l-.013-.68a1.322 1.322 0 0 1 1.333-1.373h5.387z" fill="#5F29D2"/>
    </g>
</svg>
