<svg width="38" height="39" xmlns="http://www.w3.org/2000/svg">
    <path d="M18.97 31.249c.452.373.982.533 1.553.562.237.012.48 0 .713-.042a10 10 0 0 0 1.095-.259c.731-.22 1.363-.601 1.834-1.217.269-.35.49-.73.631-1.15a13.1 13.1 0 0 0 .314-1.049c.07-.279.104-.567.146-.852.028-.189.044-.38.062-.57.028-.308.058-.616.078-.926.014-.215.014-.431.022-.647.003-.065.013-.13.02-.196.005-.06.036-.082.098-.08.218.003.436.008.653-.002.244-.01.49-.021.73-.061.34-.057.68-.13 1.015-.217.395-.103.757-.289 1.107-.5.406-.245.777-.533 1.077-.904.262-.323.386-.698.323-1.106-.092-.594-.59-.983-1.17-1.01-.211-.009-.424.013-.633.04-.254.032-.503.089-.756.127-.174.026-.35.037-.525.055l-.004-.022c.325-.614.663-1.221.97-1.844.237-.478.439-.972.647-1.464.345-.813.62-1.652.85-2.504.218-.816.405-1.641.464-2.488.023-.338.04-.678.038-1.016-.002-.27-.031-.54-.058-.81-.03-.308-.124-.6-.253-.882-.17-.37-.434-.675-.711-.964-.222-.231-.467-.442-.709-.652-.346-.3-.734-.541-1.137-.754a6.556 6.556 0 0 0-1.443-.56 18.026 18.026 0 0 0-.922-.206c-.11-.023-.22-.079-.331-.079h-2.084c-.075 0-.15.05-.226.058a7.92 7.92 0 0 0-1.47.303c-.18.056-.342.023-.512.007-.131-.012-.26-.045-.39-.052-.497-.024-.994-.06-1.49-.055a5.368 5.368 0 0 0-1.408.214c-.385.11-.763.243-1.108.446-.148.087-.266.07-.419.027a26.34 26.34 0 0 0-1.553-.404 8.57 8.57 0 0 0-.993-.144c-.319-.034-.64-.053-.96-.06a8.532 8.532 0 0 0-.94.021 6.131 6.131 0 0 0-1.456.308 4.852 4.852 0 0 0-1.442.786A4.438 4.438 0 0 0 7.23 9.717a5.649 5.649 0 0 0-.633 1.64c-.07.312-.044.634-.092.951-.015.099.015.198.015.296v1.383c0 .091-.027.183-.015.276.028.221.018.444.056.664.059.349.112.696.183 1.041.1.484.196.966.307 1.447.08.35.168.698.264 1.044.146.529.289 1.058.454 1.58.154.486.33.965.505 1.444.242.662.532 1.303.88 1.917.3.532.644 1.03 1.105 1.44.305.27.642.477 1.036.581.31.081.624.091.94.026.368-.075.693-.233.982-.47.034-.027.07-.048.11.002.149.19.349.316.558.425.565.295 1.181.384 1.806.42.152.008.305-.014.457-.018.298-.008.587-.066.87-.148.15-.043.295-.098.447-.149.008.162.018.317.023.472l.02.848c.005.129.01.258.022.386.03.332.06.663.1.993.027.227.056.457.11.679.107.448.253.884.438 1.307.182.415.444.766.794 1.055zm-.904-4.226a52.447 52.447 0 0 1-.04-1.194c-.01-.49-.014-.98-.021-1.469l-.001-.019c-.25.15-.494.313-.754.448-.304.158-.634.25-.976.276a5.26 5.26 0 0 1-.806.017c-.438-.036-.875-.104-1.267-.32-.159-.087-.325-.194-.434-.333-.263-.335-.137-.758.259-.962.273-.14.572-.2.868-.268.257-.06.514-.127.765-.21.249-.08.405-.282.56-.48l.246-.316-.295-.03a2.677 2.677 0 0 1-.84-.227c-.228-.101-.232-.112-.4.07-.28.303-.551.615-.826.924-.202.227-.402.456-.603.684-.2.225-.386.463-.6.673-.318.312-.702.499-1.16.478a1.52 1.52 0 0 1-.803-.285c-.5-.347-.835-.834-1.141-1.344a11.686 11.686 0 0 1-.95-2.067c-.179-.495-.358-.99-.513-1.492A40.525 40.525 0 0 1 7.27 15.23c-.06-.325-.096-.655-.145-.983a6.55 6.55 0 0 1-.054-1.33c.021-.4.078-.798.135-1.194.08-.55.26-1.067.52-1.556A3.908 3.908 0 0 1 9.647 8.4a5.089 5.089 0 0 1 1.108-.327c.564-.11 1.134-.105 1.703-.094.25.006.498.05.746.076.536.053 1.061.166 1.58.305.378.1.748.232 1.122.346.038.012.093.01.124-.01a4.823 4.823 0 0 1 1.653-.675 4.79 4.79 0 0 1 .684-.083c.278-.017.56-.034.837-.017.334.019.667.068.999.113.161.022.318.078.48.093.077.008.16-.049.24-.068.418-.096.833-.203 1.253-.28.313-.056.634-.082.952-.1.355-.021.712-.036 1.067-.019.449.022.894.086 1.334.188.544.127 1.067.31 1.563.566a5.36 5.36 0 0 1 1.042.685c.208.179.421.355.609.554.232.245.468.49.614.805.11.237.188.483.21.742.026.323.059.647.056.97-.003.309-.045.618-.075.926-.068.703-.22 1.39-.407 2.069-.153.56-.332 1.114-.526 1.662-.179.505-.385 1-.594 1.494-.154.365-.32.726-.5 1.079a21.34 21.34 0 0 1-1.106 1.96c-.071.108-.138.22-.207.33.179.121.382.164.586.186.194.021.392.034.586.02.311-.024.62-.068.93-.111.306-.043.605-.13.92-.107.313.023.538.261.517.555a.801.801 0 0 1-.223.482c-.583.644-1.316 1.034-2.153 1.226a7.45 7.45 0 0 1-1.81.16c-.204-.007-.407-.054-.616-.084-.021.191-.041.39-.065.59l-.098.761c-.03.242-.052.484-.083.725-.03.235-.067.468-.098.702-.029.218-.05.437-.083.655-.05.334-.097.668-.163 1a3.913 3.913 0 0 1-.393 1.135 2.568 2.568 0 0 1-1.007 1.014c-.443.253-.929.385-1.42.495a3.416 3.416 0 0 1-1.059.059 2.179 2.179 0 0 1-1.527-.79 3.173 3.173 0 0 1-.722-1.558c-.044-.279-.075-.56-.1-.842a21.756 21.756 0 0 1-.061-.94zm.687-4.02c.004.208-.018.418-.017.627.004.973.011 1.947.02 2.92.001.16.009.32.02.478.024.333.048.666.08.997.023.236.055.471.092.705.053.33.203.626.374.908.148.242.34.448.592.59.429.241.89.261 1.355.172.314-.06.623-.156.928-.255a1.946 1.946 0 0 0 1.269-1.218c.199-.541.26-1.111.343-1.676.03-.212.057-.424.085-.636l.095-.723.066-.54c.031-.257.064-.515.094-.773.023-.2.043-.4.063-.6.026-.256.054-.511.077-.768.017-.194.01-.391.045-.582.063-.35.229-.647.539-.84.13-.08.276-.133.42-.2l-.025-.038c-.133-.173-.27-.342-.4-.517-.204-.273-.351-.579-.5-.885-.14-.291-.31-.566-.458-.854-.257-.501-.52-1.002-.757-1.512-.298-.643-.533-1.308-.607-2.02-.031-.3-.04-.601.022-.9.098-.476.346-.848.764-1.104.389-.237.82-.313 1.264-.337.274-.015.55-.003.836-.003l-.01-.048c-.177-.371-.343-.749-.537-1.11a6.98 6.98 0 0 0-1.015-1.4 7.041 7.041 0 0 0-.945-.87 6.6 6.6 0 0 0-1.071-.669 6.288 6.288 0 0 0-1.418-.504 6.977 6.977 0 0 0-1.44-.175 5.197 5.197 0 0 0-1.233.108c-.61.141-1.17.393-1.655.8a4.288 4.288 0 0 0-.715.767 5.79 5.79 0 0 0-.608 1.074c-.23.52-.388 1.06-.497 1.615-.054.277-.096.556-.139.835-.015.098-.016.198-.025.31l.184-.096.18-.08c.61-.28 1.24-.459 1.918-.438.288.008.564.066.82.192.492.242.779.654.904 1.175.086.36.145.727.203 1.093.045.286.09.575.096.863.007.422-.014.844-.037 1.265-.02.36-.094.712-.22 1.047-.228.609-.482 1.208-.719 1.813-.078.2-.138.407-.212.627h.3c.035.001.072.002.107.01.273.065.51.188.703.398.26.278.395.604.402.981zm-5.204-2.888a3.575 3.575 0 0 1-.275-1.143c-.026-.372.018-.741.056-1.111.037-.358.068-.718.079-1.077.017-.592-.022-1.182-.05-1.773-.017-.352.023-.708.055-1.06a9.243 9.243 0 0 1 .548-2.493c.18-.477.388-.94.68-1.357.201-.286.428-.553.647-.833l-.065-.023a10.909 10.909 0 0 0-2.18-.48c-.35-.036-.704-.057-1.056-.078-.109-.007-.219.008-.327.018-.27.026-.542.036-.806.087-.45.086-.883.23-1.283.464-.359.211-.66.483-.913.81-.28.36-.468.768-.603 1.202a6.067 6.067 0 0 0-.255 1.574c-.018.467-.027.936.054 1.401.06.346.1.697.165 1.042a45.712 45.712 0 0 0 .807 3.396c.182.63.386 1.254.608 1.872.18.504.39.998.61 1.486.144.318.318.624.5.92.194.317.415.617.714.846.378.29.67.335 1.054.017.164-.136.303-.304.446-.464.227-.254.446-.516.673-.771.288-.325.58-.647.869-.97l.18-.208-.1-.087a3.611 3.611 0 0 1-.832-1.207zm10.923-9.678c.235.276.463.56.673.856.407.571.732 1.188.972 1.848.106.291.19.585.153.904-.027.223-.025.449-.044.673-.017.186-.046.372-.07.558-.037.28-.089.56-.105.841-.015.269.001.54.018.808.017.273.054.544.079.816.028.31.066.618.075.928.007.254-.016.51-.038.763a3.04 3.04 0 0 1-.219.885c-.081.2-.178.394-.27.594l.037.039.056.043.057-.1c.475-.75.899-1.53 1.265-2.339.236-.52.457-1.048.669-1.58.33-.827.592-1.676.794-2.544.09-.389.16-.784.222-1.179.048-.309.088-.621.097-.933a8.28 8.28 0 0 0-.04-.994c-.023-.249-.084-.5-.24-.702-.25-.326-.521-.637-.854-.884-.28-.208-.56-.421-.861-.595a5.513 5.513 0 0 0-1.533-.587 7.731 7.731 0 0 0-1.597-.187c-.317-.007-.635.027-.95.057-.287.027-.571.073-.86.11.31.175.615.33.902.512a7.075 7.075 0 0 1 1.612 1.39zm-7.858 10.727c.196-.625.462-1.222.72-1.823.21-.487.323-1 .361-1.527a6.45 6.45 0 0 0 .001-.784 8.982 8.982 0 0 0-.08-.866 12.404 12.404 0 0 0-.202-1.093c-.094-.389-.33-.66-.737-.76a1.856 1.856 0 0 0-.743-.019c-.61.096-1.17.321-1.69.651-.105.066-.163.12-.145.27.038.319.047.642.045.963-.002.455-.021.91-.038 1.365-.006.148-.027.295-.043.443-.025.226-.072.451-.07.677.001.232.025.47.081.695.18.714.559 1.297 1.18 1.71a2.48 2.48 0 0 0 1.27.405c.03-.107.06-.207.09-.307zm-.73-6.121c-.082-.172-.035-.314.155-.38.046-.016.094-.034.141-.039.067-.006.134-.001.2-.001.241.001.472.035.67.187.128.099.162.229.08.363a.633.633 0 0 1-.515.303c-.345.028-.587-.133-.73-.433zm9.57-.063.079-.687c.011-.092-.037-.117-.114-.12-.243-.006-.485-.014-.728-.019a1.973 1.973 0 0 0-.792.143c-.281.116-.495.3-.582.606a1.831 1.831 0 0 0-.06.694c.035.363.116.716.243 1.053.17.452.347.904.56 1.337.287.586.612 1.153.918 1.73.081.154.15.316.235.495a2.8 2.8 0 0 0 .275-1.143c.008-.328-.018-.657-.037-.985-.012-.2-.04-.4-.06-.6-.027-.279-.068-.558-.074-.837a8 8 0 0 1 .038-.854c.022-.272.067-.542.1-.813zm-.546-.22a.646.646 0 0 1-.533.43.605.605 0 0 1-.588-.233c-.109-.133-.067-.29.095-.379.186-.103.39-.129.631-.144.066.012.164.022.258.048.136.039.186.141.137.278zm-7.207 7.662c-.133-.11-.31-.116-.436.004-.157.149-.296.318-.434.486-.16.193-.31.394-.515.544-.3.218-.65.309-1.001.394-.28.068-.56.131-.84.196l-.004.037c.083.038.164.086.25.114.428.135.862.202 1.314.164.326-.028.636-.1.93-.239.405-.191.717-.495.982-.849a.432.432 0 0 0 .07-.222c.017-.269-.119-.469-.316-.63zm7.799-.117c-.21.07-.38.178-.43.404-.035.153-.048.312-.061.469-.003.028.032.079.058.086.161.042.323.092.488.107.203.019.41.013.613.003.22-.011.442-.026.66-.062.511-.086 1.006-.226 1.446-.516.158-.105.315-.212.473-.318l-.013-.022c-.168.025-.336.055-.505.073-.343.037-.687.076-1.032.095-.167.01-.336-.022-.504-.036-.281-.022-.557-.085-.795-.236a.42.42 0 0 0-.398-.047z" fill="#FFF" fill-rule="evenodd"/>
</svg>
