<svg width="24" height="24" xmlns="http://www.w3.org/2000/svg">
    <g fill="none" fill-rule="evenodd">
        <path d="M0 0h24v24H0z"/>
        <path d="M4.77 13.935c2.523-1.674 6.61-1.674 9.115 0 1.132.756 1.751 1.782 1.76 2.889 0 1.116-.628 2.142-1.76 2.907-1.257.846-2.91 1.269-4.562 1.269-1.653 0-3.305-.423-4.563-1.27C3.63 18.976 3 17.95 3 16.843s.629-2.142 1.77-2.907zm15.053-.17c.826.666 1.248 1.503 1.167 2.367-.072.873-.628 1.63-1.563 2.142-.898.495-2.03.73-3.152.702.647-.585 1.024-1.314 1.096-2.088.09-1.116-.44-2.187-1.5-3.042a7.41 7.41 0 0 0-2.066-1.134c1.985-.576 4.482-.19 6.018 1.053zM9.322 3a4.274 4.274 0 0 1 4.266 4.275 4.26 4.26 0 0 1-4.113 4.266h-.063a.723.723 0 0 0-.198 0c-2.353-.08-4.158-1.953-4.158-4.266A4.274 4.274 0 0 1 9.322 3zm9.87 4.805c.143 1.746-1.096 3.276-2.812 3.483h-.045c-.053 0-.107 0-.152.018a3.218 3.218 0 0 1-2.272-.747 4.123 4.123 0 0 0 1.347-3.42 4.183 4.183 0 0 0-.692-1.963 3.228 3.228 0 0 1 4.625 2.628z" fill="#04A8F5"/>
    </g>
</svg>
