<svg width="24" height="24" xmlns="http://www.w3.org/2000/svg">
    <g fill="none" fill-rule="evenodd">
        <path d="M10.712 0h2.576c3.021 0 4.641.418 6.108 1.202a8.178 8.178 0 0 1 3.402 3.402C23.582 6.071 24 7.691 24 10.712v2.576c0 3.021-.418 4.641-1.202 6.108a8.178 8.178 0 0 1-3.402 3.402C17.929 23.582 16.309 24 13.288 24h-2.576c-3.021 0-4.641-.418-6.108-1.202a8.178 8.178 0 0 1-3.402-3.402C.418 17.929 0 16.309 0 13.288v-2.576C0 7.69.418 6.07 1.202 4.604a8.178 8.178 0 0 1 3.402-3.402C6.071.418 7.691 0 10.712 0z" fill="#202B50"/>
        <path d="M18.863 13.494v5.045H15.92v-4.707c0-1.182-.426-1.99-1.49-1.99-.813 0-1.297.545-1.51 1.07-.077.189-.097.45-.097.714v4.913H9.88s.04-7.972 0-8.798h2.942v1.247l-.019.029h.02v-.029c.39-.598 1.088-1.454 2.651-1.454 1.936 0 3.388 1.258 3.388 3.96zM6.803 5.5c-1.007 0-1.666.656-1.666 1.52 0 .844.64 1.52 1.626 1.52h.02c1.026 0 1.665-.676 1.665-1.52-.02-.864-.639-1.52-1.646-1.52zM5.311 18.54h2.942V9.74H5.312v8.798z" fill="#FFF" fill-rule="nonzero"/>
    </g>
</svg>
