<svg width="32" height="32" xmlns="http://www.w3.org/2000/svg">
    <g fill="none" fill-rule="evenodd">
        <path d="M0 0h32v32H0z"/>
        <path d="M17.08 2.667c.733 0 1.333.6 1.333 1.333v3.853a5.742 5.742 0 0 0 5.734 5.734H28c.733 0 1.333.6 1.333 1.333v6.987c0 4.76-3.32 7.426-7.426 7.426h-10.48C7.32 29.333 4 26.667 4 21.907V10.093c0-4.76 3.32-7.426 7.427-7.426zm-1.08 19h-5.333c-.547 0-1 .453-1 1 0 .546.453 1 1 1H16c.547 0 1-.454 1-1 0-.547-.453-1-1-1zm2.667-5.334h-8c-.547 0-1 .454-1 1 0 .547.453 1 1 1h8c.546 0 1-.453 1-1 0-.546-.454-1-1-1zM20.24 3.534c0-.76.946-1.133 1.493-.587 1.973 1.974 5.413 5.454 7.333 7.387.534.533.134 1.427-.626 1.427-1.507 0-3.267 0-4.534-.014-2.013 0-3.666-1.613-3.666-3.56z" fill="#DB0202"/>
    </g>
</svg>
