<svg width="21" height="20" viewBox="0 0 21 20" xmlns="http://www.w3.org/2000/svg">
    <g transform="translate(-11.5 -14)" fill="#FFF" fill-rule="evenodd">
        <path d="M29.863 16.152a1.61 1.61 0 0 0-1.61-.42l-13.413 3.9a1.6 1.6 0 0 0-1.153 1.268c-.118.626.295 1.42.835 1.753l4.195 2.578c.43.264.985.198 1.341-.161l4.803-4.833a.612.612 0 0 1 .883 0 .636.636 0 0 1 0 .89l-4.81 4.833a1.103 1.103 0 0 0-.162 1.349l2.563 4.236c.3.503.817.788 1.384.788.067 0 .142 0 .208-.008a1.625 1.625 0 0 0 1.36-1.158l3.976-13.396a1.637 1.637 0 0 0-.4-1.62"/>
    </g>
</svg>
