<svg width="24" height="24" xmlns="http://www.w3.org/2000/svg">
    <g fill="none" fill-rule="evenodd">
        <path d="M0 0h24v24H0z"/>
        <path d="m7.932 8.275 9.31 9.216c.6.595.257 1.614-.584 1.733L4.178 20.99c-.74.105-1.343-.58-1.137-1.292L6.21 8.717c.217-.75 1.165-.993 1.722-.442zm10.572 5.445a.562.562 0 0 1 .778 0 .522.522 0 0 1 0 .754.562.562 0 0 1-.778 0 .522.522 0 0 1 0-.754zm-3.113-1.51c2.546-2.468 5.124-1.672 5.233-1.637a.53.53 0 0 1 .348.674.554.554 0 0 1-.696.338c-.02-.006-2.036-.627-4.107 1.38a.562.562 0 0 1-.778 0 .522.522 0 0 1 0-.755zm4.67-9.054a.562.562 0 0 1 .778 0 .522.522 0 0 1 .003.752c-.14.274.39 1.131-.1 1.606-.485.47-1.351-.029-1.653.096-.129.293.387 1.132-.099 1.602-.485.47-1.349-.03-1.652.095-.13.294.387 1.132-.099 1.603-.485.47-1.35-.03-1.652.095-.13.294.386 1.132-.1 1.602-.49.475-1.372-.04-1.656.098a.563.563 0 0 1-.775-.003.523.523 0 0 1 0-.755c.434-.42 1.046-.338 1.484-.26-.082-.423-.167-1.017.267-1.438.434-.42 1.046-.338 1.484-.259-.082-.424-.166-1.018.267-1.438.434-.421 1.046-.339 1.484-.26-.082-.424-.166-1.018.267-1.438.434-.42 1.047-.338 1.484-.26-.081-.424-.166-1.017.268-1.438zm-.39 5.126c.304 0 .55.239.55.533a.542.542 0 0 1-.55.534.542.542 0 0 1-.55-.534c0-.294.246-.533.55-.533zm-6.79-4.877c.29-.093.6.058.697.337.036.105.857 2.605-1.69 5.073a.562.562 0 0 1-.778 0 .522.522 0 0 1 0-.755c2.07-2.006 1.43-3.961 1.424-3.98a.53.53 0 0 1 .348-.675zm-2.16 2.015a.522.522 0 0 1 0 .754.562.562 0 0 1-.778 0 .522.522 0 0 1 0-.754.562.562 0 0 1 .778 0zm4.67-.755a.562.562 0 0 1 .778 0 .522.522 0 0 1 0 .755.562.562 0 0 1-.778 0 .522.522 0 0 1 0-.755z" fill="#29D29A"/>
    </g>
</svg>
