<svg width="34" height="28" viewBox="0 0 34 28" xmlns="http://www.w3.org/2000/svg">
    <path d="M33.667 3.844a13.52 13.52 0 0 1-3.929 1.053 6.805 6.805 0 0 0 3.015-3.733 13.591 13.591 0 0 1-4.337 1.628A6.92 6.92 0 0 0 23.418.667c-3.773 0-6.846 3.024-6.846 6.738 0 .536.058 1.034.175 1.532-5.679-.288-10.735-2.968-14.1-7.045a6.666 6.666 0 0 0-.933 3.388 6.69 6.69 0 0 0 3.053 5.61 6.945 6.945 0 0 1-3.092-.843v.076c0 3.255 2.353 5.992 5.484 6.605a7.094 7.094 0 0 1-1.808.23c-.447 0-.875-.039-1.284-.115a6.816 6.816 0 0 0 6.399 4.67A13.896 13.896 0 0 1 .333 24.31a19.588 19.588 0 0 0 10.483 3.024c12.582 0 19.467-10.26 19.467-19.162 0-.287 0-.574-.02-.88a12.86 12.86 0 0 0 3.404-3.447z" fill="#FFF" fill-rule="evenodd"/>
</svg>
