<svg width="38" height="39" xmlns="http://www.w3.org/2000/svg">
    <g fill="none" fill-rule="evenodd">
        <path d="M28.927 5.438H9.073a4.136 4.136 0 0 0-4.136 4.135v19.854a4.136 4.136 0 0 0 4.136 4.136h19.854a4.136 4.136 0 0 0 4.136-4.136V9.573a4.136 4.136 0 0 0-4.136-4.136z" stroke="#FFF" stroke-width=".606"/>
        <path d="M21.344 10.125c4.916 3.247 5.86 7.031 5.86 9.668 0 1.666-.45 2.703-.45 2.703s1.621 1.838 1.621 3.889c0 .44-.056.883-.225 1.318 0 0-.967-1.7-2.587-1.7-1.563 0-2.481 1.7-5.625 1.7-7.383 0-10.313-5.86-10.313-5.86 2.516 1.737 4.712 2.36 6.445 2.345 2.612-.024 4.169-1.354 4.169-1.354-2.842-1.732-9.442-10.365-9.442-10.365 5.263 4.704 8.094 6.295 8.094 6.295-1.358-1.179-5.75-7.467-5.75-7.467s3.121 3.224 9.668 8.203c.642-.756.878-1.825.878-2.783 0-3.662-2.343-6.592-2.343-6.592z" fill="#FFF"/>
    </g>
</svg>
