<svg width="24" height="24" xmlns="http://www.w3.org/2000/svg">
    <g fill="none" fill-rule="evenodd">
        <path d="M0 0h24v24H0z"/>
        <path d="M5.993 5.275c1.903-1.982 4.938-2.77 7.556-1.96 2.408.734 4.102 2.705 4.707 5.442a5.79 5.79 0 0 1 3.068 1.807c.627.668 1.1 1.49 1.386 2.431.726 2.376.066 4.818-1.727 6.384a6.24 6.24 0 0 1-4.2 1.621H5.365C2.353 20.781 1 18.47 1 16.412c0-.11 0-.22.011-.34.121-1.74 1.21-3.57 3.41-4.106-.65-2.552-.1-4.95 1.572-6.69zm6.58 4.771-.037.068c-.297.562-.785.562-1.085 0l-.036-.068c-.149-.282-.485-.382-.746-.214l-.57.354c-.3.186-.403.604-.231.93.3.557.056 1.015-.541 1.015-.343 0-.627.304-.627.68v.629c0 .372.28.679.627.679.597 0 .84.458.54 1.02-.17.324-.069.74.232.925l.57.354c.26.168.597.068.752-.214l.036-.068c.297-.562.785-.562 1.086 0l.036.068c.155.282.491.382.752.214l.57-.354c.3-.186.403-.604.231-.926-.3-.561-.056-1.019.541-1.019.343 0 .627-.304.627-.68v-.629c-.003-.372-.284-.679-.63-.679-.597 0-.841-.458-.544-1.02.171-.324.07-.74-.231-.925l-.57-.354c-.261-.168-.598-.068-.753.214zm-.575 1.917c.59 0 1.072.522 1.072 1.162 0 .64-.481 1.162-1.072 1.162-.59 0-1.072-.522-1.072-1.162 0-.64.482-1.162 1.072-1.162z" fill="#04A8F5"/>
    </g>
</svg>
