<svg width="48" height="48" viewBox="0 0 48 48" xmlns="http://www.w3.org/2000/svg">
    <g fill="none" fill-rule="evenodd">
        <rect fill="#FFF4E5" x="12" y="4" width="32" height="32" rx="6"/>
        <g stroke-linecap="round" stroke-linejoin="round" stroke-width="2">
            <path d="M14 12V8a2 2 0 0 0-2-2H8a2 2 0 0 0-2 2v4a2 2 0 0 0 2 2h4a2 2 0 0 0 2-2zM15.693 28v-3.692a2 2 0 0 0-2-2H9.999c-1.102 0-2 .896-2 2V28c0 1.104.898 2 2 2h3.694a2 2 0 0 0 2-2zM28 18v-4a2 2 0 0 0-2-2h-4a2 2 0 0 0-2 2v4a2 2 0 0 0 2 2h4a2 2 0 0 0 2-2z" stroke="#FF9A01"/>
            <path d="M26 34v-6a2 2 0 0 1 2-2h6v-6a2 2 0 0 1 2-2h4a2 2 0 0 1 2 2v20a2 2 0 0 1-2 2H20a2 2 0 0 1-2-2v-4a2 2 0 0 1 2-2h6z" stroke="#0F1425"/>
        </g>
    </g>
</svg>
