<svg width="40" height="40" viewBox="0 0 40 40" xmlns="http://www.w3.org/2000/svg">
    <path d="M21.897 3.333c4.482 0 8.62 1.701 11.724 4.422L35 8.775l-5.517 5.103-1.035-1.02c-1.724-1.702-4.138-2.382-6.551-2.382-5.518 0-9.31 3.742-9.31 9.184 0 5.442 3.792 9.524 9.31 9.524 2.413 0 4.827-1.02 6.551-2.381l1.035-1.02L35 31.223l-1.38 1.02a17.82 17.82 0 0 1-11.723 4.423C12.24 36.667 5 29.524 5 20c0-9.524 7.241-16.667 16.897-16.667zm-.345 11.225c3.047 0 5.517 2.436 5.517 5.442 0 3.006-2.47 5.442-5.517 5.442S16.034 23.006 16.034 20c0-3.006 2.47-5.442 5.518-5.442z" fill="#FFF" fill-rule="evenodd"/>
</svg>
