<svg width="38" height="39" xmlns="http://www.w3.org/2000/svg">
    <path d="M17.778 4.183c.735-.41 1.713-.41 2.443 0L31.84 10.8a2.415 2.415 0 0 1 1.221 2.087v13.216c0 .859-.468 1.657-1.22 2.09l-11.621 6.61a2.462 2.462 0 0 1-1.224.322c-.425 0-.848-.11-1.22-.322l-3.88-2.262c-.579-.319-.296-.432-.105-.498.773-.264.929-.326 1.754-.786.086-.048.2-.03.289.022l2.981 1.744c.108.06.261.06.36 0l11.622-6.61a.36.36 0 0 0 .177-.31V12.888c0-.13-.069-.25-.18-.316L19.178 5.968a.369.369 0 0 0-.358 0L7.206 12.573a.367.367 0 0 0-.184.314v13.216a.35.35 0 0 0 .183.306l3.184 1.812c1.727.851 2.785-.15 2.785-1.158V14.015c0-.185.15-.33.337-.33h1.474c.185 0 .337.146.337.33v13.048c0 2.271-1.255 3.574-3.44 3.574-.673 0-1.201 0-2.678-.717l-3.048-1.729a2.413 2.413 0 0 1-1.218-2.089V12.887c0-.859.466-1.66 1.218-2.087zm4.342 9.15c3.723 0 5.566 1.274 5.799 4.006a.334.334 0 0 1-.334.36h-1.509a.334.334 0 0 1-.326-.259c-.362-1.586-1.241-2.093-3.63-2.093-2.672 0-2.983.918-2.983 1.605 0 .833.367 1.076 3.976 1.546 3.571.466 5.268 1.125 5.268 3.598 0 2.495-2.111 3.924-5.794 3.924-5.085 0-6.15-2.3-6.15-4.23 0-.183.149-.33.335-.33h1.502c.168 0 .307.12.334.281.226 1.507.903 2.268 3.979 2.268 2.448 0 3.49-.546 3.49-1.825 0-.738-.295-1.285-4.1-1.653-3.18-.31-5.147-1.002-5.147-3.509 0-2.31 1.976-3.688 5.29-3.688z" fill="#FFF" fill-rule="evenodd"/>
</svg>
