<svg width="38" height="39" xmlns="http://www.w3.org/2000/svg">
    <path d="M19 11.688c8.63 0 15.625 3.847 15.625 8.593 0 4.747-6.995 8.594-15.625 8.594-8.63 0-15.625-3.847-15.625-8.594 0-4.746 6.995-8.593 15.625-8.593zm-5.565 4.522h-3.96l-1.712 9.16h2.033l.428-2.375h1.926c1.82.113 3.853-1.47 3.853-4.184 0-1.583-.856-2.488-2.568-2.6zm14.34 0h-3.96l-1.711 9.16h2.033l.428-2.375h1.927c1.819.113 3.852-1.47 3.852-4.184 0-1.583-.856-2.488-2.569-2.6zm-8.668-2.374h-2.033l-1.712 9.159h2.033l.963-5.088h1.606c.748 0 .748.339.641.904l-.749 4.184h2.14l.75-4.636c.214-1.131-.428-2.036-2.14-2.149h-1.927l.428-2.374zm7.812 4.07c.75 0 1.285.34 1.285 1.019-.107 1.922-.964 2.262-1.927 2.374h-1.284l.535-3.392zm-14.34 0c.75 0 1.284.34 1.284 1.019-.106 1.922-.963 2.262-1.926 2.374h-1.285l.536-3.392z" fill="#FFF" fill-rule="evenodd"/>
</svg>
