<svg width="38" height="39" xmlns="http://www.w3.org/2000/svg">
    <path d="M18.987 3.875c.02-.006.897.472 2.75 1.507.788.436 1.902 1.06 2.48 1.38.58.318 1.712.949 2.514 1.396.808.447 1.82 1.011 2.26 1.256.438.24 1.456.803 2.258 1.256.808.448 1.54.858 1.635.913l.178.098v15.625l-.178.098-6.248 3.475c-.58.318-1.693.943-2.482 1.378-.789.442-1.788 1-2.227 1.238-.439.245-1.273.705-1.858 1.036L19 35.125l-1.063-.594c-.591-.331-1.425-.79-1.864-1.036-.44-.239-1.438-.796-2.227-1.238-.79-.435-1.903-1.06-2.482-1.378l-6.248-3.475-.178-.098v-15.63l1.482-.822c.808-.453 1.909-1.06 2.43-1.348l2.419-1.348c.808-.447 1.934-1.078 2.513-1.397.58-.318 1.693-.943 2.482-1.379.789-.44 1.718-.955 2.068-1.151.35-.197.643-.356.655-.356zm-.012.735S15.97 6.283 12.3 8.324l-6.663 3.713v14.92l.942.515c.821.453 5.313 2.947 10.652 5.919l1.769.98 6.681-3.713 6.682-3.713V12.037l-3.258-1.814C27.31 9.23 24.3 7.558 22.41 6.51a301.588 301.588 0 0 0-3.436-1.9zM13.61 9.322c1.229-.25 3.22.589 4.945 2.078l.445.38.535-.448c1.069-.9 2.227-1.593 3.187-1.9.35-.11.586-.14 1.114-.14.598 0 .7.018.986.165.624.313 1.063.92 1.324 1.814.248.864.165 2.99-.16 4.301-.012.043.293.178.752.331 2.042.693 3.474 1.667 3.996 2.727.165.343.197.478.197.864 0 .398-.032.52-.204.864-.585 1.146-2.303 2.255-4.505 2.923-.102.03-.184.092-.178.14 0 .05.064.405.134.791.324 1.765.203 3.321-.319 4.314-.184.355-.674.827-1.03.999-.433.214-1.146.257-1.77.11-.973-.22-2.335-.974-3.448-1.906-.395-.33-.586-.453-.643-.416-.044.03-.305.245-.579.477-.96.81-2.297 1.557-3.213 1.796-.248.067-.643.11-1.012.11-.522 0-.655-.024-.96-.16-.663-.3-1.114-.882-1.375-1.776-.185-.631-.16-2.598.038-3.579.083-.404.153-.747.146-.76 0-.018-.286-.122-.63-.232-2.462-.79-4.218-2.249-4.327-3.585-.114-1.385 1.566-2.861 4.238-3.731.446-.141.732-.27.732-.313a60.787 60.787 0 0 0-.153-.784c-.197-.999-.241-2.482-.095-3.217.242-1.256.89-2.047 1.832-2.237zm11.32 14.283c-.025.007-.216.043-.426.092-.394.086-1.769.294-2.392.362l-.357.037-.445.594a25.36 25.36 0 0 1-1 1.22l-.546.624.623.497c1.343 1.084 2.533 1.666 3.41 1.672.459.007.726-.11.962-.41.407-.515.579-1.366.521-2.598-.031-.717-.152-1.587-.273-1.992-.02-.055-.051-.104-.077-.098zm-11.829.056c-.089 0-.324 1.341-.375 2.138-.07 1.03.153 2.09.528 2.525.242.27.471.361.93.361.966 0 2.309-.643 3.594-1.716.528-.44.528-.44.414-.576a27.908 27.908 0 0 1-1.406-1.636l-.516-.65-.719-.079a26.49 26.49 0 0 1-1.578-.22c-.47-.08-.865-.147-.872-.147zm7.187.502h-.028c-.045.012-.636.025-1.305.03-.674.013-1.228.037-1.228.062 0 .049.618.784 1 1.183l.318.33.241-.263c.37-.392 1.05-1.232 1.05-1.3 0-.03-.038-.048-.076-.042zm-1.014-8.321c-1.006-.006-1.973 0-2.138.018l-.306.025-.4.594a29.696 29.696 0 0 0-1.464 2.445l-.293.57.293.564c.375.723.948 1.685 1.457 2.444.394.583.4.589.7.625.388.056 3.2.056 3.697.007.363-.037.382-.05.56-.325.585-.882 1.234-1.955 1.571-2.604l.395-.742-.496-.888c-.497-.889-1.381-2.298-1.617-2.58l-.12-.147zm-5.167 4.939c-.051 0-.707 1.666-.707 1.801 0 .098.23.153 1.292.313.382.055.706.092.726.073.019-.018-.153-.33-.382-.698a32.3 32.3 0 0 1-.643-1.079c-.134-.226-.26-.41-.286-.41zm9.812.018c-.038-.012-.178.16-.312.392-.127.227-.42.717-.65 1.079-.222.367-.394.674-.38.686.044.043 1.984-.282 2.048-.343.032-.03-.083-.405-.286-.92-.191-.483-.376-.882-.42-.894zm-11.594-4.185c-.153 0-1.565.527-2.049.76-1.024.502-1.852 1.164-2.068 1.66-.28.656.134 1.391 1.196 2.096.77.515 2.444 1.244 2.845 1.244.076 0 .152-.135.286-.527.096-.288.337-.889.528-1.33.191-.447.363-.864.382-.937.02-.074-.076-.38-.223-.705-.286-.656-.661-1.611-.782-2.004-.045-.14-.096-.257-.115-.257zm13.426.061c-.076 0-.14.098-.222.35a23.5 23.5 0 0 1-.56 1.409l-.446 1.06.414.931c.229.515.496 1.158.592 1.428.095.27.178.496.184.509.032.036 1.19-.386 1.73-.632 1.503-.68 2.438-1.544 2.438-2.26 0-.846-1.438-1.93-3.455-2.605-.312-.104-.611-.19-.675-.19zm-7.52.877a2.144 2.144 0 0 1 2.843 1.44c.338 1.286-.687 2.536-2.074 2.536-1.394 0-2.412-1.244-2.074-2.53.184-.687.623-1.17 1.304-1.446zm-2.858-1.428c0-.092-.4-.068-1.082.067-.96.178-.91.16-.859.343.096.368.624 1.673.675 1.673.032 0 .133-.14.235-.312.096-.172.363-.625.605-1.011.235-.386.426-.73.426-.76zm8.056.03c-.662-.11-.802-.11-.802-.03 0 .03.153.3.337.594.185.294.458.754.611 1.011.146.264.293.478.325.478.05 0 .7-1.6.7-1.74 0-.092-.261-.165-1.171-.313zm-8.113-5.594c-.694-.27-1.451-.337-1.763-.147-.649.398-.942 1.532-.795 3.07.063.698.267 1.808.337 1.875.013.012.286-.025.605-.086.318-.067.935-.165 1.368-.22.432-.056.878-.11.986-.13.178-.024.293-.14.776-.747.318-.392.764-.925.993-1.176.223-.251.413-.478.413-.503 0-.092-1.253-1.047-1.813-1.384a8.902 8.902 0 0 0-1.107-.552zm9.093-.165c-.611-.3-1.77.012-3.01.82-.426.277-.694.479-1.438 1.091l-.223.184.465.515c.254.282.706.827 1.005 1.201.452.576.579.692.744.717.109.018.541.073.961.129.42.055 1.031.153 1.362.22.33.068.624.098.65.074.025-.031.107-.41.184-.846.35-2.01.057-3.732-.7-4.105zm-5.384 2.837-.286.3c-.286.3-1.075 1.22-1.075 1.256 0 .01.44.017 1.03.018h.46c.661-.001 1.182-.013 1.182-.03 0-.019-.165-.227-.369-.466-.197-.239-.49-.576-.649-.754l-.293-.324z" fill="#FFF" fill-rule="evenodd"/>
</svg>
