<svg width="80" height="80" viewBox="0 0 80 80" xmlns="http://www.w3.org/2000/svg">
    <g fill="none" fill-rule="evenodd">
        <path d="M26.667 57.843c0 4.874 10.446 8.824 23.333 8.824 12.887 0 23.333-3.95 23.333-8.824V15.49c0-4.874-10.446-8.823-23.333-8.823-12.887 0-23.333 3.95-23.333 8.823v42.353z" fill="#FFF4E5"/>
        <g stroke-linecap="round" stroke-linejoin="round" stroke-width="3.333">
            <path d="M6.666 53.726c0 4.874 11.247 8.824 25.12 8.824M56.666 25.49c0 4.873-11.19 8.823-25 8.823-13.807 0-25-3.95-25-8.823M56.666 39.607c0 4.873-11.19 8.823-25 8.823-13.807 0-25-3.946-25-8.823" stroke="#0F1425"/>
            <path d="M31.787 76.667c-13.874 0-25.12-3.95-25.12-8.824V25.49c0-4.873 11.193-8.823 25-8.823 13.806 0 25 3.95 25 8.823V50" stroke="#0F1425"/>
            <path stroke="#FF9A01" d="m60 63.334-10 10M50 73.334l-6.667-6.667"/>
        </g>
    </g>
</svg>
