<svg width="24" height="24" xmlns="http://www.w3.org/2000/svg">
    <g fill="none" fill-rule="evenodd">
        <path d="M0 0h24v24H0z"/>
        <path d="M19.93 9.863c.44-.23.96-.2 1.39.06.43.27.68.722.68 1.224v5.527a2.5 2.5 0 0 1-1.38 2.247l-5.83 2.929a1.438 1.438 0 0 1-1.39-.06c-.43-.261-.68-.723-.68-1.224v-5.527a2.5 2.5 0 0 1 1.38-2.247zm-17.25.06c.42-.26.94-.28 1.39-.06l5.84 2.929a2.462 2.462 0 0 1 1.37 2.247v5.527c0 .501-.25.962-.68 1.223a1.438 1.438 0 0 1-1.39.06L3.38 18.92A2.51 2.51 0 0 1 2 16.674v-5.527c0-.502.25-.953.68-1.224zm8.26-7.652a2.21 2.21 0 0 1 2.12 0l6.27 3.39c.46.251.74.732.74 1.284s-.28 1.033-.74 1.284l-6.27 3.39c-.33.181-.7.271-1.06.271-.36 0-.73-.09-1.06-.27L4.67 8.228c-.46-.25-.74-.742-.74-1.284 0-.552.28-1.033.74-1.284z" fill="#29D29A"/>
    </g>
</svg>
