<svg width="38" height="39" xmlns="http://www.w3.org/2000/svg">
    <path d="M34.625 19.498c0 2.196-1.697 4.214-4.776 5.69-.112.057-.224.107-.336.157.014.121.035.25.049.37.434 3.43-.323 5.976-2.146 7.16-1.817 1.19-4.405.827-7.287-1.034A18.17 18.17 0 0 1 19 31.05c-.372.285-.75.549-1.129.791-2.875 1.84-5.463 2.203-7.287 1.02-1.486-.963-2.265-2.831-2.265-5.348 0-.604.04-1.206.12-1.804.014-.122.028-.243.049-.371-.113-.05-.225-.107-.337-.157-3.079-1.469-4.776-3.494-4.776-5.69s1.697-4.214 4.776-5.69c.112-.058.224-.107.337-.158-.014-.12-.035-.25-.05-.37-.076-.599-.116-1.201-.119-1.804 0-2.517.779-4.386 2.265-5.348 1.817-1.184 4.412-.82 7.287 1.02.379.242.75.506 1.129.791.372-.285.75-.55 1.13-.792 2.875-1.84 5.462-2.203 7.286-1.02 1.823 1.184 2.588 3.723 2.146 7.16a7.982 7.982 0 0 1-.05.37c.113.05.225.108.337.158 3.079 1.469 4.776 3.494 4.776 5.69zm-24.384.007a25.536 25.536 0 0 1-1.48-4.414.025.025 0 0 1-.014.007c-2.525 1.205-3.97 2.81-3.97 4.4 0 1.59 1.445 3.194 3.97 4.4.007.007.014.007.014.02a24.94 24.94 0 0 1 1.48-4.413zm7.623 10.646a26.367 26.367 0 0 1-2.953-3.059 24.89 24.89 0 0 1-5.084-1.198v.014c-.365 2.81.19 4.913 1.508 5.77 1.318.855 3.43.484 5.785-1.028.253-.157.498-.328.744-.499zm.007-21.306c-.245-.179-.498-.35-.743-.507-2.357-1.511-4.468-1.882-5.786-1.026-1.06.684-1.62 2.167-1.62 4.171.002.537.037 1.072.105 1.604 0 .007 0 .015.007.015a24.9 24.9 0 0 1 5.084-1.198 26.344 26.344 0 0 1 2.953-3.06zm-4.222 16.6c-.4-.556-.785-1.127-1.157-1.712a36.504 36.504 0 0 1-1.43-2.517 22.744 22.744 0 0 0-.982 3.252c1.161.425 2.355.752 3.569.977zm0-11.894a22.116 22.116 0 0 0-3.57.977c.241 1.109.57 2.196.982 3.251a33.89 33.89 0 0 1 1.438-2.517c.365-.592.75-1.162 1.15-1.711zm12.56 5.94a31.631 31.631 0 0 0-3.85-6.247 30.508 30.508 0 0 0-6.718 0 31.39 31.39 0 0 0-1.964 2.781 32.335 32.335 0 0 0-1.886 3.466 30.497 30.497 0 0 0 1.886 3.465 30.41 30.41 0 0 0 1.964 2.781 30.35 30.35 0 0 0 6.718 0 31.39 31.39 0 0 0 1.964-2.78 32.288 32.288 0 0 0 1.886-3.466zm-4.432.007c0 1.559-1.243 2.823-2.777 2.824-1.534 0-2.777-1.265-2.777-2.824 0-1.56 1.243-2.824 2.777-2.824s2.777 1.264 2.777 2.824zm-.736 7.787a32.094 32.094 0 0 1-4.082 0c.64.698 1.322 1.355 2.041 1.968a22.87 22.87 0 0 0 2.04-1.968zm0-15.574A22.91 22.91 0 0 0 19 9.743c-.72.613-1.401 1.27-2.04 1.968a32.078 32.078 0 0 1 4.08 0zm-.666 7.787c0-.772-.616-1.398-1.375-1.398-.76 0-1.374.626-1.374 1.398A1.389 1.389 0 0 0 19 20.896c.76 0 1.375-.626 1.375-1.398zm6.29 12.172c1.319-.856 1.866-2.96 1.508-5.769v-.014a24.88 24.88 0 0 1-5.084 1.198 25.714 25.714 0 0 1-2.953 3.052c.246.178.498.35.744.506 2.356 1.512 4.467 1.883 5.785 1.027zm1.62-20.18c0-2.004-.568-3.487-1.62-4.171-1.318-.856-3.429-.485-5.785 1.027-.253.156-.498.327-.737.506a26.391 26.391 0 0 1 2.953 3.059c1.73.22 3.434.62 5.084 1.198v-.015c.068-.532.103-1.067.105-1.604zm-.365 3.038a22.1 22.1 0 0 0-3.569-.977c.4.556.785 1.126 1.157 1.711.519.835.996 1.676 1.43 2.517.409-1.057.737-2.144.982-3.251zm0 9.933a21.332 21.332 0 0 0-.981-3.252c-.428.849-.912 1.69-1.43 2.517a30.163 30.163 0 0 1-1.158 1.712 22.158 22.158 0 0 0 3.57-.977zm5.302-4.963c0-1.59-1.444-3.195-3.97-4.4-.006-.007-.013-.007-.013-.021a24.962 24.962 0 0 1-1.48 4.414 25.559 25.559 0 0 1 1.48 4.414.025.025 0 0 1 .014-.008c2.525-1.205 3.97-2.809 3.97-4.4z" fill="#FFF" fill-rule="evenodd"/>
</svg>
