<svg xmlns="http://www.w3.org/2000/svg" width="24" height="24" viewBox="0 0 24 24">
    <defs>
        <linearGradient id="pb0lhum3ka" x1="66.826%" x2="50%" y1="-31.736%" y2="100%">
            <stop offset="0%" stop-color="#1EC790"/>
            <stop offset="100%" stop-color="#0D9657"/>
        </linearGradient>
    </defs>
    <g fill="none" fill-rule="evenodd">
        <g fill="url(#pb0lhum3ka)">
            <path d="M20 5.051c0 .198-.054.398-.167.577l-8.556 13.54-.021.035c-.077.122-.17.235-.278.338-.328.31-.739.46-1.149.459-.463-.002-.924-.199-1.26-.585l-4.128-4.762c-.632-.73-.579-1.854.12-2.514.326-.307.736-.46 1.143-.46.465 0 .929.198 1.265.586l2.856 3.294 8.377-11.157c.307-.409.854-.522 1.288-.266.328.195.51.551.51.915"/>
        </g>
    </g>
</svg>
