<svg width="38" height="39" xmlns="http://www.w3.org/2000/svg">
    <path d="M27.438 17.938h-.728v4.687h3.42l.463-.766h-3.155v-3.92zm-9.982.232-2.67 4.455h.883l.805-1.346h1.72l.453-.765h-1.72l.937-1.543 2.195 3.654h.883l-2.692-4.466c-.165-.29-.607-.29-.794.011zm5.173.532h3.062l.451-.765-3.534.003c-1.23 0-2.04 1.048-2.04 2.341 0 1.294.81 2.343 2.04 2.343l2.99-.004.468-.76H22.63c-.83 0-1.315-.706-1.315-1.579 0-.872.485-1.579 1.314-1.579zM7.007 17.94H3.852c-1.23 0-2.04 1.048-2.04 2.342 0 1.293.81 2.342 2.04 2.342h3.155c1.23 0 2.04-1.05 2.04-2.342 0-1.294-.81-2.342-2.04-2.342zm0 3.92H3.852c-.83 0-1.314-.706-1.314-1.578 0-.873.485-1.58 1.314-1.58h3.155c.83 0 1.314.707 1.314 1.58 0 .872-.485 1.579-1.314 1.579zm24.388-1.207h3.855l.464-.766h-4.32c.127-.678.582-1.184 1.28-1.184h3.062l.452-.765-3.536.002c-1.23 0-2.039 1.048-2.039 2.342 0 1.293.81 2.342 2.04 2.342l2.99-.004.468-.76h-3.437c-.707 0-1.16-.514-1.28-1.207zm-18.2.068c.731 0 1.323-.623 1.323-1.39 0-.769-.592-1.391-1.322-1.391l-3.712-.002v4.687h.816v-3.922h2.896c.33 0 .597.28.597.627s-.268.628-.597.628h-2.322l2.62 2.662h1.053l-1.875-1.898.524-.001z" fill="#FFF" fill-rule="evenodd"/>
</svg>
