<svg width="24" height="24" xmlns="http://www.w3.org/2000/svg">
    <g fill="none" fill-rule="evenodd">
        <path d="M0 0h24v24H0z"/>
        <path d="m7.267 16.15.888.668c-.32.426-.633.854-.958 1.272-.096.122-.097.201-.006.332.937 1.342.127 3.262-1.489 3.54a.924.924 0 0 0-.119.038h-.556c-.413-.09-.805-.221-1.145-.488a2.301 2.301 0 0 1-.606-2.903 2.283 2.283 0 0 1 2.758-1.077c.122.043.18.026.256-.078.32-.439.65-.87.977-1.305zm12.677-1.243c1.118.986 1.384 2.6.628 3.856-.77 1.276-2.31 1.824-3.681 1.3a2.975 2.975 0 0 1-1.7-1.591c-.348-.76-.357-1.54-.088-2.333l-.851-.518.575-.95.847.507a3.068 3.068 0 0 1 4.27-.27zm-9.396-5.862a3.65 3.65 0 0 1 3.626 3.647c-.002 2.012-1.642 3.652-3.645 3.645a3.651 3.651 0 0 1-3.637-3.654C6.9 10.676 8.55 9.03 10.548 9.045zm-5.01-3.09a1.892 1.892 0 0 1 1.13 2.404c-.038.11-.03.173.063.249.216.174.42.363.626.544l-.734.837c-.204-.179-.413-.352-.61-.538-.09-.084-.155-.099-.271-.038-.714.374-1.54.248-2.161-.318-.538-.49-.728-1.33-.46-2.03a1.895 1.895 0 0 1 2.416-1.11zm13.066-1.072c.22 1.219-.56 2.378-1.787 2.654a2.134 2.134 0 0 1-1.257-.094c-.121-.047-.184-.025-.26.075-.423.548-.852 1.09-1.28 1.635-.042.052-.086.103-.124.151l-.871-.686L14.527 6.7a2.547 2.547 0 0 1-.456-1.085c-.198-1.195.691-2.415 1.897-2.59 1.267-.184 2.414.624 2.636 1.857z" fill="#DB0202"/>
    </g>
</svg>
