<svg width="38" height="39" xmlns="http://www.w3.org/2000/svg">
    <path d="M21.528 14.168c.887.57 1.523 1.352 1.942 2.297.1.146.033.228-.168.277-1.054.26-1.774.456-2.811.716-.251.066-.268.082-.486-.162-.25-.277-.435-.457-.786-.62-1.055-.505-2.076-.358-3.03.245-1.138.717-1.724 1.775-1.707 3.095.017 1.303.937 2.378 2.26 2.557 1.138.147 2.092-.244 2.845-1.075.15-.179.284-.374.452-.602h-3.23c-.352 0-.436-.212-.318-.49.217-.504.619-1.351.853-1.775a.452.452 0 0 1 .419-.26l5.386-.001c.242-.746.634-1.45 1.158-2.117 1.221-1.564 2.694-2.378 4.686-2.72 1.707-.294 3.314-.13 4.77.83 1.322.88 2.142 2.07 2.36 3.633.284 2.2-.369 3.991-1.925 5.522-1.105 1.092-2.46 1.776-4.017 2.085-.452.082-.904.098-1.339.147-1.523-.033-2.912-.456-4.084-1.434-.824-.693-1.392-1.546-1.674-2.538a6.75 6.75 0 0 1-.702 1.105c-1.205 1.548-2.778 2.509-4.77 2.77-1.64.211-3.163-.098-4.502-1.076-1.239-.912-1.942-2.118-2.126-3.616-.217-1.776.318-3.372 1.423-4.773 1.188-1.515 2.761-2.476 4.686-2.818 1.573-.277 3.08-.098 4.435.798zm7.833 2.297c-1.557.342-2.56 1.303-2.929 2.834a2.663 2.663 0 0 0 1.54 3.079c.92.39 1.84.342 2.728-.098 1.322-.668 2.042-1.71 2.125-3.111-.016-.212-.016-.375-.05-.538-.301-1.612-1.824-2.525-3.414-2.166zM9.629 19.429c.066 0 .1.05.1.115l-.034.39c0 .066-.066.115-.117.115l-3.648-.017c-.067 0-.084-.049-.05-.098l.234-.407c.033-.049.1-.098.167-.098H9.63zm.368-1.498c.067 0 .1.049.083.098l-.133.39c-.017.066-.084.098-.151.098l-7.917.017c-.067 0-.083-.033-.05-.082l.352-.44c.033-.049.117-.081.184-.081h7.632zm.87-1.499c.067 0 .084.049.05.098l-.284.423c-.034.05-.117.098-.168.098l-6.058-.016c-.067 0-.084-.033-.05-.082l.35-.44c.034-.048.118-.08.185-.08h5.975z" fill="#FFF" fill-rule="evenodd"/>
</svg>
