<svg width="38" height="39" xmlns="http://www.w3.org/2000/svg">
    <path d="M3.507 4.988c.9-2.24 4.019-.537 5.235.246.305.198.643.603.969.742l1.6.099c.993.24 1.934.424 2.714.889 3.67 2.188 6.039 4.414 8.24 8.102.458.769.699 1.614 1.066 2.47a64.081 64.081 0 0 0 1.745 3.755c.29.57.496 1.19.873 1.68.16.206.583.27.824.395.717.369 1.553.652 2.23 1.087 1.219.785 2.404 1.726 3.49 2.668.414.36.685.887 1.066 1.285v.197l-1.019.297c-.752.198-1.404.147-2.132.346-.434.118-.985.292-1.455.345l.049.05c.277.787 1.761 1.442 2.424 1.927.831.609 1.614 1.34 2.23 2.174l.63.642c.143.211.183.49.339.692v.049c-.297-.107-.45-.373-.678-.543-.463-.346-.933-.732-1.406-1.038-.803-.519-1.735-.815-2.569-1.333-.469-.292-.92-.652-1.357-.988-.4-.308-.85-.896-1.115-1.334-.139-.228-.165-.506-.34-.692.052-.404.557-.407.873-.543 1.113-.48 2.416-.64 4.12-.593-.053-.447-1.11-.988-1.454-1.234-.689-.494-1.4-1.031-2.133-1.482-.385-.236-1.05-.418-1.455-.593-.578-.25-1.851-.49-2.18-.939-.628-.854-1.06-1.89-1.503-2.915-.444-1.028-1.007-2.11-1.454-3.162-.221-.521-.33-.99-.581-1.482-1.563-3.053-3.847-5.613-6.641-7.411-.917-.59-1.926-1.133-3.053-1.482-.638-.198-1.402-.087-2.084-.247h-.437c-.382-.114-.7-.528-1.017-.741-.66-.445-1.307-.758-2.085-1.087-.292-.125-1.075-.42-1.357-.198-.165.056-.239.127-.29.296-.165.253-.014.645.096.89.312.69.762 1.11 1.164 1.68.363.514.805 1.1 1.066 1.68.547 1.21.79 2.555 1.309 3.754.199.46.487.985.775 1.383.233.323.65.566.776.988.264.423-.39 1.864-.534 2.322-.558 1.77-.44 4.244.194 5.78.251.608.488 1.316 1.163 1.482.05-.039.012-.018.097-.049.143-1.184.194-2.325.582-3.26.242-.587.704-.987 1.018-1.483.23.135.229.53.339.79.286.677.581 1.41.921 2.075.711 1.392 1.492 2.73 2.375 3.953.313.434.735.905 1.115 1.284.16.161.358.244.484.445h.049v.05c-.651-.227-1.048-.898-1.55-1.285-.972-.747-2.118-1.855-2.764-2.915l-.872-1.779v-.049c-.121.165-.084.346-.145.593-.275 1.088-.061 2.32-1.019 2.717-1.095.455-1.892-.731-2.23-1.284-1.102-1.803-1.387-4.829-.63-7.263.168-.541.185-1.204.485-1.63-.05-.384-.355-.494-.534-.742-.29-.405-.544-.881-.775-1.334-.456-.894-.762-1.947-1.114-2.915-.144-.393-.172-.765-.34-1.136-.254-.565-.71-1.128-1.066-1.63-.507-.717-1.925-2.096-1.357-3.508zm9.243 4.958c.431 0 .781.356.781.796 0 .44-.35.796-.781.796a.789.789 0 0 1-.781-.796c0-.44.35-.796.781-.796z" fill="#FFF" fill-rule="evenodd"/>
</svg>
