<svg width="40" height="40" xmlns="http://www.w3.org/2000/svg">
    <g fill="none" fill-rule="evenodd">
        <path d="M0 0h40v40H0z"/>
        <g fill="#FF9502">
            <path d="M26.199 16.15c-3.417-3.434-8.983-3.434-12.4 0-3.433 3.432-3.433 8.982 0 12.4 3.433 3.432 8.983 3.432 12.4 0 3.433-3.434 3.433-8.984 0-12.4zm-5.317 7.082-2.65 2.65c-.25.25-.566.367-.883.367a1.21 1.21 0 0 1-.883-.367c-.484-.483-.484-1.283 0-1.783l2.65-2.65c.483-.483 1.283-.483 1.783 0 .483.5.483 1.3-.017 1.783zM32.664 9.681a1.878 1.878 0 0 0-1.35-.566c-.517 0-.984.2-1.35.55-.75.75-.75 1.95 0 2.7.366.366.833.566 1.35.566.516 0 .983-.2 1.35-.55.366-.366.566-.833.566-1.35 0-.516-.2-1-.566-1.35zM10.031 32.318a1.878 1.878 0 0 0-1.35-.567c-.517 0-.983.2-1.35.55a1.878 1.878 0 0 0-.567 1.35c0 .517.2.984.567 1.35.367.367.867.55 1.35.55.483 0 .983-.183 1.35-.566.733-.717.733-1.934 0-2.667zM37.351 21.003c-.35-.367-.833-.55-1.35-.567-.517 0-.983.2-1.35.567-.75.75-.75 1.95 0 2.7.367.366.867.55 1.35.55.483 0 .983-.184 1.35-.55.75-.75.75-1.967 0-2.7zM5.352 20.999a1.916 1.916 0 0 0-2.7 0c-.75.75-.75 1.95 0 2.7.367.367.867.55 1.35.55.484 0 .984-.183 1.35-.55.734-.75.734-1.967 0-2.7zM32.664 32.314c-.75-.75-1.95-.75-2.7 0-.75.75-.75 1.95 0 2.7.366.366.866.55 1.35.55a1.906 1.906 0 0 0 1.917-1.9c0-.517-.2-1-.567-1.35zM10.031 9.681a1.878 1.878 0 0 0-1.35-.566c-.517 0-.983.2-1.35.55a1.878 1.878 0 0 0-.567 1.35c0 .516.2 1 .567 1.35.367.366.833.566 1.35.566.517 0 .983-.2 1.35-.55.733-.75.733-1.966 0-2.7zM21.353 5.003c0-.017 0-.017 0 0-.75-.75-1.95-.75-2.7 0-.367.366-.567.85-.567 1.35 0 .516.2.983.55 1.35.367.366.833.566 1.35.566.517 0 .983-.2 1.35-.566.767-.75.767-1.967.017-2.7z"/>
        </g>
    </g>
</svg>
