<svg width="24" height="25" viewBox="0 0 24 25" xmlns="http://www.w3.org/2000/svg">
    <path d="M11.094 3c5.023 0 9.095 4.005 9.095 8.946a8.83 8.83 0 0 1-2.282 5.928l3.855 4.49a.983.983 0 0 1-.12 1.401 1.022 1.022 0 0 1-1.425-.118l-3.81-4.439a9.155 9.155 0 0 1-5.313 1.685C6.072 20.893 2 16.887 2 11.946 2 7.006 6.072 3 11.094 3zm0 1.988c-3.906 0-7.073 3.115-7.073 6.958s3.167 6.959 7.073 6.959c3.907 0 7.074-3.116 7.074-6.959 0-3.843-3.167-6.958-7.074-6.958z" fill="#81848B" fill-rule="nonzero"/>
</svg>
