<svg width="24" height="24" viewBox="0 0 24 24" xmlns="http://www.w3.org/2000/svg">
    <path d="M22 14.036V21h-4.287v-6.498c0-1.632-.62-2.746-2.171-2.746-1.185 0-1.89.75-2.2 1.477-.113.26-.142.62-.142.984V21H8.912s.058-11.005 0-12.145H13.2v1.721l-.029.04h.029v-.04c.57-.826 1.587-2.007 3.864-2.007 2.821 0 4.936 1.736 4.936 5.467zM4.426 3C2.96 3 2 3.906 2 5.098c0 1.166.932 2.1 2.37 2.1h.028c1.496 0 2.426-.934 2.426-2.1C6.795 3.906 5.894 3 4.426 3zM2.255 21H6.54V8.855H2.255V21z" fill="#0A1129" fill-rule="evenodd"/>
</svg>
