<svg width="32" height="32" xmlns="http://www.w3.org/2000/svg">
    <g fill="none" fill-rule="evenodd">
        <path d="M0 0h32v32H0z"/>
        <path d="M17.587 8c4.253 0 6.386 2.133 6.386 6.387v5.333c0 .347-.013.68-.053 1-.307 3.6-2.427 5.387-6.333 5.387h-.534c-.333 0-.653.16-.853.426l-1.6 2.134c-.707.946-1.853.946-2.56 0l-1.6-2.134c-.173-.226-.56-.426-.853-.426h-.534c-4.253 0-6.386-1.054-6.386-6.387v-5.333c0-3.907 1.8-6.027 5.386-6.334.32-.04.654-.053 1-.053zm5.333-5.333c4.254 0 6.387 2.133 6.387 6.386v5.334c0 2.666-.827 4.48-2.48 5.48-.4.24-.867-.08-.867-.547l.014-4.933C25.974 9.053 22.92 6 17.587 6l-8.12.013c-.467 0-.787-.466-.547-.866 1-1.654 2.814-2.48 5.467-2.48h8.533zM8.667 16c-.734 0-1.334.6-1.334 1.333 0 .734.587 1.334 1.334 1.334.733 0 1.333-.6 1.333-1.334C10 16.6 9.4 16 8.667 16zm4.653 0c-.733 0-1.333.6-1.333 1.333 0 .734.586 1.334 1.333 1.334s1.333-.6 1.333-1.334c0-.733-.6-1.333-1.333-1.333zm4.667 0c-.734 0-1.334.6-1.334 1.333 0 .734.587 1.334 1.334 1.334.733 0 1.333-.6 1.333-1.334 0-.733-.6-1.333-1.333-1.333z" fill="#29D29A"/>
    </g>
</svg>
