<svg width="38" height="39" xmlns="http://www.w3.org/2000/svg">
    <path d="M23.52 23.074c.125-.28.25-.622.343-.901.28-.902.591-1.773.87-2.674.28-.87.56-1.741.84-2.642.218-.653.467-1.337.872-1.928.653-.902 1.586-1.4 2.706-1.555.404-.093.902-.124 1.306-.124H34.501c.03.031.093.031.124.031-.031.031-.031.063-.031.093-.031.032-.031.032-.031.063-.25.435-.498.87-.716 1.306l-.747 1.306-1.306 2.238c-.467.746-.902 1.492-1.338 2.238a24.093 24.093 0 0 1-1.929 2.736c-.528.622-1.058 1.213-1.773 1.679-.498.28-.995.498-1.587.466H19.01c-.622 0-1.12-.248-1.586-.652-.623-.591-.996-1.337-1.338-2.114a13.356 13.356 0 0 1-.684-2.238 248.66 248.66 0 0 1-.56-2.27 25.971 25.971 0 0 0-.56-2.083.328.328 0 0 0-.062-.155l-.125.124c-.84.777-1.524 1.71-2.146 2.612-.218.248-.249.56-.343.902-.342 1.119-.684 2.238-1.057 3.326-.373 1.088-1.027 1.897-2.054 2.394a5.32 5.32 0 0 1-1.928.467H5.103c-.498.031-.995.031-1.493.031-.249 0-.28-.031-.187-.249.404-1.585.964-3.108 1.618-4.601.715-1.523 1.524-2.985 2.55-4.322.716-.902 1.494-1.772 2.458-2.394a3.864 3.864 0 0 1 1.618-.652h3.452c1.058 0 2.116 0 3.173-.031 1.12 0 1.96.497 2.551 1.398.404.529.653 1.182.902 1.803.218.653.436 1.306.591 1.959.311 1.337.56 2.394.778 3.14l.28 1.12c.031.092.063.092.063.186l.063-.033z" fill="#FFF" fill-rule="evenodd"/>
</svg>
