<svg width="24" height="24" xmlns="http://www.w3.org/2000/svg">
    <g fill="none" fill-rule="evenodd">
        <path d="M10.712 0h2.576c3.021 0 4.641.418 6.108 1.202a8.178 8.178 0 0 1 3.402 3.402C23.582 6.071 24 7.691 24 10.712v2.576c0 3.021-.418 4.641-1.202 6.108a8.178 8.178 0 0 1-3.402 3.402C17.929 23.582 16.309 24 13.288 24h-2.576c-3.021 0-4.641-.418-6.108-1.202a8.178 8.178 0 0 1-3.402-3.402C.418 17.929 0 16.309 0 13.288v-2.576C0 7.69.418 6.07 1.202 4.604a8.178 8.178 0 0 1 3.402-3.402C6.071.418 7.691 0 10.712 0z" fill="#202B50"/>
        <path d="M13.25 19.056v-6.529h1.803l.239-2.25H13.25l.003-1.126c0-.587.056-.9.898-.9h1.127V6h-1.802c-2.165 0-2.927 1.091-2.927 2.927v1.35H9.2v2.25h1.35v6.529h2.7z" fill="#FFF" fill-rule="nonzero"/>
    </g>
</svg>
