<svg width="32" height="33" viewBox="0 0 32 33" xmlns="http://www.w3.org/2000/svg">
    <g fill-rule="nonzero" fill="none">
        <path d="M30.667 25.413a.62.62 0 0 1-.618.618H1.951a.62.62 0 0 1-.618-.618V7.285a.62.62 0 0 1 .618-.618h28.098a.62.62 0 0 1 .618.618v18.128z" fill="#FFF7EE"/>
        <g fill="#E02424">
            <path d="M30.05 6.667H13.328v1.862h17.338V7.285a.62.62 0 0 0-.618-.618zM13.329 13.668v1.162a.7.7 0 0 1-.697.7h18.035v-1.862H13.329zM1.333 17.168h29.333v1.862H1.333z"/>
        </g>
        <path fill="#000" opacity=".1" d="M1.333 17.168h1.884v1.862H1.333z"/>
        <g fill="#E02424">
            <path d="M1.333 20.668h29.333v1.862H1.333zM30.667 25.413V24.17H1.333v1.244c0 .34.278.618.618.618h28.098a.62.62 0 0 0 .618-.618zM13.328 10.167h17.338v1.862H13.328z"/>
        </g>
        <path d="M1.95 6.667a.62.62 0 0 0-.617.618v8.245h11.958a.7.7 0 0 0 .696-.7V6.667H1.951z" fill="#0853A4"/>
        <path d="M3.896 6.667H1.951a.62.62 0 0 0-.618.618v8.245H3.28V7.285a.62.62 0 0 1 .617-.618z" fill="#000" opacity=".1"/>
        <g fill="#FFF">
            <path d="M4.067 9.135a.086.086 0 0 1-.041-.01l-.168-.09-.169.09a.087.087 0 0 1-.093-.007.091.091 0 0 1-.035-.089l.032-.192-.136-.136a.092.092 0 0 1-.022-.093.089.089 0 0 1 .07-.061l.19-.028.083-.175a.088.088 0 0 1 .08-.05c.033 0 .064.019.079.05l.084.175.188.028a.089.089 0 0 1 .072.061.092.092 0 0 1-.023.093l-.136.136.032.192a.091.091 0 0 1-.035.089.087.087 0 0 1-.052.017zM4.067 10.706a.085.085 0 0 1-.041-.01l-.168-.091-.169.09a.087.087 0 0 1-.093-.007.091.091 0 0 1-.035-.088l.032-.192-.136-.136a.092.092 0 0 1-.022-.093.09.09 0 0 1 .07-.061l.19-.028.083-.175a.088.088 0 0 1 .08-.05c.033 0 .064.019.079.05l.084.175.188.028a.09.09 0 0 1 .072.061.092.092 0 0 1-.023.093l-.136.136.032.192a.091.091 0 0 1-.035.089.087.087 0 0 1-.052.017zM4.067 12.277a.087.087 0 0 1-.041-.01l-.168-.091-.169.09a.087.087 0 0 1-.093-.007.091.091 0 0 1-.035-.088l.032-.192-.136-.136a.092.092 0 0 1-.022-.093.09.09 0 0 1 .07-.061l.19-.028.083-.175a.088.088 0 0 1 .08-.05c.033 0 .064.019.079.05l.084.175.188.028a.09.09 0 0 1 .072.061.092.092 0 0 1-.023.093l-.136.136.032.192a.091.091 0 0 1-.035.089.087.087 0 0 1-.052.017zM4.067 13.848a.087.087 0 0 1-.041-.01l-.168-.091-.169.09a.087.087 0 0 1-.093-.007.091.091 0 0 1-.035-.088l.032-.192-.136-.136a.092.092 0 0 1-.022-.093.09.09 0 0 1 .07-.062l.19-.028.083-.174a.088.088 0 0 1 .08-.05c.033 0 .064.019.079.05l.084.174.188.028a.09.09 0 0 1 .072.062.092.092 0 0 1-.023.093l-.136.136.032.192a.091.091 0 0 1-.035.089.087.087 0 0 1-.052.017zM3.072 8.35a.085.085 0 0 1-.041-.01l-.169-.091-.168.09a.087.087 0 0 1-.093-.007.091.091 0 0 1-.035-.088l.032-.192-.136-.136a.092.092 0 0 1-.023-.093.089.089 0 0 1 .072-.062l.188-.028.084-.175a.088.088 0 0 1 .08-.05c.033 0 .064.02.079.05l.084.175.188.028a.09.09 0 0 1 .071.062.092.092 0 0 1-.022.093l-.136.136.032.192a.091.091 0 0 1-.035.088.087.087 0 0 1-.052.018zM3.072 9.92a.088.088 0 0 1-.041-.01l-.169-.09-.168.09a.087.087 0 0 1-.093-.007.091.091 0 0 1-.035-.088l.032-.192-.136-.136a.092.092 0 0 1-.023-.093.089.089 0 0 1 .072-.062l.188-.028.084-.175a.088.088 0 0 1 .08-.05c.033 0 .064.02.079.05l.084.175.188.028a.089.089 0 0 1 .071.062.092.092 0 0 1-.022.093l-.136.136.032.192a.092.092 0 0 1-.035.088.087.087 0 0 1-.052.018zM3.072 11.492a.088.088 0 0 1-.041-.01l-.169-.092-.168.091a.087.087 0 0 1-.093-.007.091.091 0 0 1-.035-.088l.032-.192-.136-.136a.092.092 0 0 1-.023-.093.089.089 0 0 1 .072-.062l.188-.028.084-.175a.088.088 0 0 1 .08-.05c.033 0 .064.02.079.05l.084.175.188.028a.09.09 0 0 1 .071.062.092.092 0 0 1-.022.093l-.136.136.032.192a.091.091 0 0 1-.035.088.087.087 0 0 1-.052.018zM3.072 13.062a.086.086 0 0 1-.041-.01l-.169-.09-.168.09a.086.086 0 0 1-.093-.007.091.091 0 0 1-.035-.088l.032-.192-.136-.136a.092.092 0 0 1-.023-.093.089.089 0 0 1 .072-.062l.188-.028.084-.175a.088.088 0 0 1 .08-.05c.033 0 .064.02.079.05l.084.175.188.028a.09.09 0 0 1 .071.062.092.092 0 0 1-.022.093l-.136.136.032.192a.092.092 0 0 1-.035.088.087.087 0 0 1-.052.017zM3.072 14.633a.087.087 0 0 1-.041-.01l-.169-.09-.168.09a.087.087 0 0 1-.093-.007.091.091 0 0 1-.035-.088l.032-.193-.136-.135a.092.092 0 0 1-.023-.093.089.089 0 0 1 .072-.062l.188-.028.084-.175a.088.088 0 0 1 .08-.05c.033 0 .064.02.079.05l.084.175.188.028a.089.089 0 0 1 .071.062.092.092 0 0 1-.022.093l-.136.136.032.192a.091.091 0 0 1-.035.088.086.086 0 0 1-.052.017zM5.999 9.135a.086.086 0 0 1-.041-.01l-.169-.09-.168.09a.087.087 0 0 1-.093-.007.091.091 0 0 1-.035-.089l.032-.192-.137-.136a.092.092 0 0 1-.022-.093.089.089 0 0 1 .072-.061l.188-.028.084-.175a.088.088 0 0 1 .08-.05c.033 0 .064.019.078.05l.085.175.188.028a.089.089 0 0 1 .071.061.092.092 0 0 1-.022.093l-.136.136.032.192a.091.091 0 0 1-.035.089.087.087 0 0 1-.052.017zM5.999 10.706a.085.085 0 0 1-.041-.01l-.169-.091-.168.09a.087.087 0 0 1-.093-.007.091.091 0 0 1-.035-.088l.032-.192-.137-.136a.092.092 0 0 1-.022-.093.09.09 0 0 1 .072-.061l.188-.028.084-.175a.088.088 0 0 1 .08-.05c.033 0 .064.019.078.05l.085.175.188.028a.09.09 0 0 1 .071.061.092.092 0 0 1-.022.093l-.136.136.032.192a.092.092 0 0 1-.035.089.086.086 0 0 1-.052.017zM5.999 12.277a.087.087 0 0 1-.041-.01l-.169-.091-.168.09a.087.087 0 0 1-.093-.007.091.091 0 0 1-.035-.088l.032-.192-.137-.136a.092.092 0 0 1-.022-.093.09.09 0 0 1 .072-.061l.188-.028.084-.175a.088.088 0 0 1 .08-.05c.033 0 .064.019.078.05l.085.175.188.028a.09.09 0 0 1 .071.061.092.092 0 0 1-.022.093l-.136.136.032.192a.092.092 0 0 1-.035.089.087.087 0 0 1-.052.017zM5.999 13.848a.087.087 0 0 1-.041-.01l-.169-.091-.168.09a.086.086 0 0 1-.093-.006.091.091 0 0 1-.035-.089l.032-.192-.137-.136a.092.092 0 0 1-.022-.093.09.09 0 0 1 .072-.062l.188-.028.084-.174a.088.088 0 0 1 .08-.05c.033 0 .064.019.078.05l.085.174.188.028a.09.09 0 0 1 .071.062.092.092 0 0 1-.022.093l-.136.136.032.192a.092.092 0 0 1-.035.089.086.086 0 0 1-.052.017zM5.004 8.35a.085.085 0 0 1-.042-.01l-.168-.091-.168.09a.087.087 0 0 1-.093-.007.091.091 0 0 1-.036-.088l.033-.192-.137-.136a.092.092 0 0 1-.022-.093.089.089 0 0 1 .071-.062l.189-.028.084-.175a.088.088 0 0 1 .08-.05c.033 0 .064.02.078.05l.085.175.188.028a.089.089 0 0 1 .071.062.092.092 0 0 1-.022.093l-.136.136.032.192a.091.091 0 0 1-.035.088.087.087 0 0 1-.052.018zM5.004 9.92a.087.087 0 0 1-.042-.01l-.168-.09-.168.09a.086.086 0 0 1-.093-.007.092.092 0 0 1-.036-.088l.033-.192-.137-.136a.092.092 0 0 1-.022-.093.089.089 0 0 1 .071-.062l.189-.028.084-.175a.088.088 0 0 1 .08-.05c.033 0 .064.02.078.05l.085.175.188.028a.089.089 0 0 1 .071.062.092.092 0 0 1-.022.093l-.136.136.032.192a.092.092 0 0 1-.035.088.088.088 0 0 1-.052.018zM5.004 11.492a.087.087 0 0 1-.042-.01l-.168-.092-.168.091a.087.087 0 0 1-.093-.007.091.091 0 0 1-.036-.088l.033-.192-.137-.136a.092.092 0 0 1-.022-.093.089.089 0 0 1 .071-.062l.189-.028.084-.175a.088.088 0 0 1 .08-.05c.033 0 .064.02.078.05l.085.175.188.028a.089.089 0 0 1 .071.062.092.092 0 0 1-.022.093l-.136.136.032.192a.092.092 0 0 1-.035.088.088.088 0 0 1-.052.018zM5.004 13.062a.085.085 0 0 1-.042-.01l-.168-.09-.168.09a.086.086 0 0 1-.093-.007.091.091 0 0 1-.036-.088l.033-.192-.137-.136a.092.092 0 0 1-.022-.093.089.089 0 0 1 .071-.062l.189-.028.084-.175a.088.088 0 0 1 .08-.05c.033 0 .064.02.078.05l.085.175.188.028a.09.09 0 0 1 .071.062.092.092 0 0 1-.022.093l-.136.136.032.192a.092.092 0 0 1-.035.088.087.087 0 0 1-.052.017zM5.004 14.633a.087.087 0 0 1-.042-.01l-.168-.09-.168.09a.086.086 0 0 1-.093-.007.091.091 0 0 1-.036-.088l.033-.193-.137-.135a.092.092 0 0 1-.022-.093.089.089 0 0 1 .071-.062l.189-.028.084-.175a.088.088 0 0 1 .08-.05c.033 0 .064.02.078.05l.085.175.188.028a.089.089 0 0 1 .071.062.092.092 0 0 1-.022.093l-.136.136.032.192a.091.091 0 0 1-.035.088.087.087 0 0 1-.052.017zM7.93 9.135a.086.086 0 0 1-.04-.01l-.17-.09-.168.09a.086.086 0 0 1-.093-.007.091.091 0 0 1-.035-.089l.032-.192-.136-.136a.092.092 0 0 1-.022-.093.089.089 0 0 1 .071-.061l.188-.028.085-.175a.088.088 0 0 1 .079-.05c.033 0 .064.019.079.05l.084.175.188.028a.089.089 0 0 1 .072.061.092.092 0 0 1-.023.093l-.136.136.032.192a.091.091 0 0 1-.035.089.087.087 0 0 1-.052.017zM7.93 10.706a.085.085 0 0 1-.04-.01l-.17-.091-.168.09a.087.087 0 0 1-.093-.007.091.091 0 0 1-.035-.088l.032-.192-.136-.136a.092.092 0 0 1-.022-.093.09.09 0 0 1 .071-.061l.188-.028.085-.175a.088.088 0 0 1 .079-.05c.033 0 .064.019.079.05l.084.175.188.028a.09.09 0 0 1 .072.061.092.092 0 0 1-.023.093l-.136.136.032.192a.092.092 0 0 1-.035.089.087.087 0 0 1-.052.017zM7.93 12.277a.087.087 0 0 1-.04-.01l-.17-.091-.168.09a.086.086 0 0 1-.093-.006.091.091 0 0 1-.035-.089l.032-.192-.136-.136a.092.092 0 0 1-.022-.093.089.089 0 0 1 .071-.061l.188-.028.085-.175a.088.088 0 0 1 .079-.05c.033 0 .064.019.079.05l.084.175.188.028a.09.09 0 0 1 .072.061.092.092 0 0 1-.023.093l-.136.136.032.192a.092.092 0 0 1-.035.089.087.087 0 0 1-.052.017zM7.93 13.848a.087.087 0 0 1-.04-.01l-.17-.091-.168.09a.086.086 0 0 1-.093-.006.091.091 0 0 1-.035-.089l.032-.192-.136-.136a.092.092 0 0 1-.022-.093.089.089 0 0 1 .071-.062l.188-.028.085-.174a.088.088 0 0 1 .079-.05c.033 0 .064.019.079.05l.084.174.188.028a.09.09 0 0 1 .072.062.092.092 0 0 1-.023.093l-.136.136.032.192a.092.092 0 0 1-.035.089.087.087 0 0 1-.052.017zM6.935 8.35a.085.085 0 0 1-.04-.01l-.17-.091-.168.09a.087.087 0 0 1-.093-.007.091.091 0 0 1-.035-.088l.032-.192-.136-.136a.092.092 0 0 1-.022-.093.089.089 0 0 1 .071-.062l.188-.028.084-.175a.088.088 0 0 1 .08-.05c.033 0 .064.02.079.05l.084.175.188.028a.089.089 0 0 1 .072.062.092.092 0 0 1-.023.093l-.136.136.032.192a.092.092 0 0 1-.035.088.087.087 0 0 1-.052.018zM6.935 9.92a.087.087 0 0 1-.04-.01l-.17-.09-.168.09a.086.086 0 0 1-.093-.007.092.092 0 0 1-.035-.088l.032-.192-.136-.136a.092.092 0 0 1-.022-.093.089.089 0 0 1 .071-.062l.188-.028.084-.175a.088.088 0 0 1 .08-.05c.033 0 .064.02.079.05l.084.175.188.028a.089.089 0 0 1 .072.062.092.092 0 0 1-.023.093l-.136.136.032.192a.092.092 0 0 1-.035.088.087.087 0 0 1-.052.018zM6.935 11.492a.087.087 0 0 1-.04-.01l-.17-.092-.168.091a.087.087 0 0 1-.093-.007.091.091 0 0 1-.035-.088l.032-.192-.136-.136a.092.092 0 0 1-.022-.093.089.089 0 0 1 .071-.062l.188-.028.084-.175a.088.088 0 0 1 .08-.05c.033 0 .064.02.079.05l.084.175.188.028a.089.089 0 0 1 .072.062.092.092 0 0 1-.023.093l-.136.136.032.192a.092.092 0 0 1-.035.088.087.087 0 0 1-.052.018zM6.935 13.062a.085.085 0 0 1-.04-.01l-.17-.09-.168.09a.087.087 0 0 1-.093-.007.091.091 0 0 1-.035-.088l.032-.192-.136-.136a.092.092 0 0 1-.022-.093.089.089 0 0 1 .071-.062l.188-.028.084-.175a.088.088 0 0 1 .08-.05c.033 0 .064.02.079.05l.084.175.188.028a.089.089 0 0 1 .072.062.092.092 0 0 1-.023.093l-.136.136.032.192a.092.092 0 0 1-.035.088.086.086 0 0 1-.052.017zM6.935 14.633a.087.087 0 0 1-.04-.01l-.17-.09-.168.09a.086.086 0 0 1-.093-.007.091.091 0 0 1-.035-.088l.032-.193-.136-.135a.092.092 0 0 1-.022-.093.089.089 0 0 1 .071-.062l.188-.028.084-.175a.088.088 0 0 1 .08-.05c.033 0 .064.02.079.05l.084.175.188.028a.089.089 0 0 1 .072.062.092.092 0 0 1-.023.093l-.136.136.032.192a.091.091 0 0 1-.035.088.086.086 0 0 1-.052.017zM9.862 9.135a.086.086 0 0 1-.041-.01l-.169-.09-.168.09a.086.086 0 0 1-.093-.007.091.091 0 0 1-.035-.089l.032-.192-.136-.136a.092.092 0 0 1-.023-.093.089.089 0 0 1 .072-.061l.188-.028.084-.175a.088.088 0 0 1 .08-.05c.033 0 .064.019.079.05l.084.175.188.028a.089.089 0 0 1 .071.061.092.092 0 0 1-.022.093l-.136.136.032.192a.091.091 0 0 1-.035.089.086.086 0 0 1-.052.017zM9.862 10.706a.085.085 0 0 1-.041-.01l-.169-.091-.168.09a.087.087 0 0 1-.093-.007.091.091 0 0 1-.035-.088l.032-.192-.136-.136a.092.092 0 0 1-.023-.093.09.09 0 0 1 .072-.061l.188-.028.084-.175a.088.088 0 0 1 .08-.05c.033 0 .064.019.079.05l.084.175.188.028a.089.089 0 0 1 .071.061.092.092 0 0 1-.022.093l-.136.136.032.192a.092.092 0 0 1-.035.089.085.085 0 0 1-.052.017zM9.862 12.277a.087.087 0 0 1-.041-.01l-.169-.091-.168.09a.086.086 0 0 1-.093-.006.091.091 0 0 1-.035-.089l.032-.192-.136-.136a.092.092 0 0 1-.023-.093.089.089 0 0 1 .072-.061l.188-.028.084-.175a.088.088 0 0 1 .08-.05c.033 0 .064.019.079.05l.084.175.188.028a.089.089 0 0 1 .071.061.092.092 0 0 1-.022.093l-.136.136.032.192a.092.092 0 0 1-.035.089.086.086 0 0 1-.052.017zM9.862 13.848a.087.087 0 0 1-.041-.01l-.169-.091-.168.09a.086.086 0 0 1-.093-.006.091.091 0 0 1-.035-.089l.032-.192-.136-.136a.092.092 0 0 1-.023-.093.089.089 0 0 1 .072-.062l.188-.028.084-.174a.088.088 0 0 1 .08-.05c.033 0 .064.019.079.05l.084.174.188.028a.089.089 0 0 1 .071.062.092.092 0 0 1-.022.093l-.136.136.032.192a.092.092 0 0 1-.035.089.085.085 0 0 1-.052.017zM8.867 8.35a.085.085 0 0 1-.041-.01l-.169-.091-.168.09a.087.087 0 0 1-.093-.007.091.091 0 0 1-.035-.088l.032-.192-.136-.136a.092.092 0 0 1-.023-.093.09.09 0 0 1 .072-.062l.188-.028.084-.175a.088.088 0 0 1 .08-.05c.033 0 .064.02.079.05l.084.175.188.028a.089.089 0 0 1 .071.062.092.092 0 0 1-.022.093l-.136.136.032.192a.092.092 0 0 1-.035.088.087.087 0 0 1-.052.018zM8.867 9.92a.088.088 0 0 1-.041-.01l-.169-.09-.168.09a.087.087 0 0 1-.093-.007.091.091 0 0 1-.035-.088l.032-.192-.136-.136a.092.092 0 0 1-.023-.093.09.09 0 0 1 .072-.062l.188-.028.084-.175a.088.088 0 0 1 .08-.05c.033 0 .064.02.079.05l.084.175.188.028a.089.089 0 0 1 .071.062.092.092 0 0 1-.022.093l-.136.136.032.192a.092.092 0 0 1-.035.088.087.087 0 0 1-.052.018zM8.867 11.492a.088.088 0 0 1-.041-.01l-.169-.092-.168.091a.087.087 0 0 1-.093-.007.091.091 0 0 1-.035-.088l.032-.192-.136-.136a.092.092 0 0 1-.023-.093.089.089 0 0 1 .072-.062l.188-.028.084-.175a.088.088 0 0 1 .08-.05c.033 0 .064.02.079.05l.084.175.188.028a.089.089 0 0 1 .071.062.092.092 0 0 1-.022.093l-.136.136.032.192a.092.092 0 0 1-.035.088.087.087 0 0 1-.052.018zM8.867 13.062a.086.086 0 0 1-.041-.01l-.169-.09-.168.09a.086.086 0 0 1-.093-.007.091.091 0 0 1-.035-.088l.032-.192-.136-.136a.092.092 0 0 1-.023-.093.09.09 0 0 1 .072-.062l.188-.028.084-.175a.088.088 0 0 1 .08-.05c.033 0 .064.02.079.05l.084.175.188.028a.09.09 0 0 1 .071.062.092.092 0 0 1-.022.093l-.136.136.032.192a.092.092 0 0 1-.035.088.086.086 0 0 1-.052.017zM8.867 14.633a.087.087 0 0 1-.041-.01l-.169-.09-.168.09a.087.087 0 0 1-.093-.007.091.091 0 0 1-.035-.088l.032-.193-.136-.135a.092.092 0 0 1-.023-.093.09.09 0 0 1 .072-.062l.188-.028.084-.175a.088.088 0 0 1 .08-.05c.033 0 .064.02.079.05l.084.175.188.028a.089.089 0 0 1 .071.062.092.092 0 0 1-.022.093l-.136.136.032.192a.091.091 0 0 1-.035.088.086.086 0 0 1-.052.017zM11.793 9.135a.086.086 0 0 1-.04-.01l-.17-.09-.167.09a.086.086 0 0 1-.093-.007.09.09 0 0 1-.036-.089l.032-.192-.136-.136a.092.092 0 0 1-.022-.093.089.089 0 0 1 .071-.061l.189-.028.084-.175a.088.088 0 0 1 .079-.05c.034 0 .064.019.08.05l.083.175.189.028a.089.089 0 0 1 .07.061.092.092 0 0 1-.021.093l-.137.136.033.192a.091.091 0 0 1-.036.089.087.087 0 0 1-.052.017zM11.793 10.706a.085.085 0 0 1-.04-.01l-.17-.091-.167.09a.086.086 0 0 1-.093-.007.09.09 0 0 1-.036-.088l.032-.192-.136-.136a.092.092 0 0 1-.022-.093.09.09 0 0 1 .071-.061l.189-.028.084-.175a.088.088 0 0 1 .079-.05c.034 0 .064.019.08.05l.083.175.189.028a.089.089 0 0 1 .07.061.092.092 0 0 1-.021.093l-.137.136.033.192a.092.092 0 0 1-.036.089.086.086 0 0 1-.052.017zM11.793 12.277a.087.087 0 0 1-.04-.01l-.17-.091-.167.09a.086.086 0 0 1-.093-.006.09.09 0 0 1-.036-.089l.032-.192-.136-.136a.092.092 0 0 1-.022-.093.09.09 0 0 1 .071-.061l.189-.028.084-.175a.088.088 0 0 1 .079-.05c.034 0 .064.019.08.05l.083.175.189.028a.089.089 0 0 1 .07.061.092.092 0 0 1-.021.093l-.137.136.033.192a.092.092 0 0 1-.036.089.087.087 0 0 1-.052.017zM11.793 13.848a.087.087 0 0 1-.04-.01l-.17-.091-.167.09a.086.086 0 0 1-.093-.006.09.09 0 0 1-.036-.089l.032-.192-.136-.136a.092.092 0 0 1-.022-.093.09.09 0 0 1 .071-.062l.189-.028.084-.174a.088.088 0 0 1 .079-.05c.034 0 .064.019.08.05l.083.174.189.028a.089.089 0 0 1 .07.062.092.092 0 0 1-.021.093l-.137.136.033.192a.092.092 0 0 1-.036.089.086.086 0 0 1-.052.017zM10.798 8.35a.085.085 0 0 1-.04-.01l-.17-.091-.167.09a.087.087 0 0 1-.093-.007.091.091 0 0 1-.036-.088l.032-.192-.136-.136a.092.092 0 0 1-.022-.093.089.089 0 0 1 .071-.062l.189-.028.084-.175a.088.088 0 0 1 .079-.05c.034 0 .064.02.08.05l.083.175.189.028a.089.089 0 0 1 .071.062.092.092 0 0 1-.022.093l-.137.136.033.192a.092.092 0 0 1-.036.088.087.087 0 0 1-.052.018zM10.798 9.92a.087.087 0 0 1-.04-.01l-.17-.09-.167.09a.086.086 0 0 1-.094-.007.092.092 0 0 1-.035-.088l.032-.192-.136-.136a.092.092 0 0 1-.022-.093.089.089 0 0 1 .071-.062l.189-.028.084-.175a.088.088 0 0 1 .079-.05c.034 0 .064.02.08.05l.083.175.189.028a.089.089 0 0 1 .071.062.092.092 0 0 1-.022.093l-.137.136.033.192a.092.092 0 0 1-.036.088.088.088 0 0 1-.052.018zM10.798 11.492a.087.087 0 0 1-.04-.01l-.17-.092-.167.091a.087.087 0 0 1-.094-.007.091.091 0 0 1-.035-.088l.032-.192-.136-.136a.092.092 0 0 1-.022-.093.089.089 0 0 1 .071-.062l.189-.028.084-.175a.088.088 0 0 1 .079-.05c.034 0 .064.02.08.05l.083.175.189.028a.089.089 0 0 1 .071.062.092.092 0 0 1-.022.093l-.137.136.033.192a.092.092 0 0 1-.036.088.088.088 0 0 1-.052.018zM10.798 13.062a.085.085 0 0 1-.04-.01l-.17-.09-.167.09a.086.086 0 0 1-.094-.007.091.091 0 0 1-.035-.088l.032-.192-.136-.136a.092.092 0 0 1-.022-.093.089.089 0 0 1 .071-.062l.189-.028.084-.175a.088.088 0 0 1 .079-.05c.034 0 .064.02.08.05l.083.175.189.028a.089.089 0 0 1 .071.062.092.092 0 0 1-.022.093l-.137.136.033.192a.092.092 0 0 1-.036.088.087.087 0 0 1-.052.017zM10.798 14.633a.087.087 0 0 1-.04-.01l-.17-.09-.167.09a.086.086 0 0 1-.094-.007.091.091 0 0 1-.035-.088l.032-.193-.136-.135a.092.092 0 0 1-.022-.093.089.089 0 0 1 .071-.062l.189-.028.084-.175a.088.088 0 0 1 .079-.05c.034 0 .064.02.08.05l.083.175.189.028a.089.089 0 0 1 .071.062.092.092 0 0 1-.022.093l-.137.136.033.192a.091.091 0 0 1-.036.088.086.086 0 0 1-.052.017zM12.73 8.35a.085.085 0 0 1-.041-.01l-.168-.091-.169.09a.087.087 0 0 1-.093-.007.091.091 0 0 1-.035-.088l.032-.192-.136-.136a.092.092 0 0 1-.023-.093.09.09 0 0 1 .072-.062l.188-.028.084-.175a.088.088 0 0 1 .08-.05c.033 0 .064.02.079.05l.084.175.188.028a.09.09 0 0 1 .072.062.092.092 0 0 1-.023.093l-.136.136.032.192a.092.092 0 0 1-.035.088.086.086 0 0 1-.052.018zM12.73 9.92a.087.087 0 0 1-.041-.01l-.168-.09-.169.09a.087.087 0 0 1-.093-.007.092.092 0 0 1-.035-.088l.032-.192-.136-.136a.092.092 0 0 1-.023-.093.089.089 0 0 1 .072-.062l.188-.028.084-.175a.088.088 0 0 1 .08-.05c.033 0 .064.02.079.05l.084.175.188.028a.09.09 0 0 1 .072.062.092.092 0 0 1-.023.093l-.136.136.032.192a.092.092 0 0 1-.035.088.087.087 0 0 1-.052.018zM12.73 11.492a.087.087 0 0 1-.041-.01l-.168-.092-.169.091a.087.087 0 0 1-.093-.007.091.091 0 0 1-.035-.088l.032-.192-.136-.136a.092.092 0 0 1-.023-.093.089.089 0 0 1 .072-.062l.188-.028.084-.175a.088.088 0 0 1 .08-.05c.033 0 .064.02.079.05l.084.175.188.028a.09.09 0 0 1 .072.062.092.092 0 0 1-.023.093l-.136.136.032.192a.092.092 0 0 1-.035.088.087.087 0 0 1-.052.018zM12.73 13.062a.085.085 0 0 1-.041-.01l-.168-.09-.169.09a.086.086 0 0 1-.093-.007.091.091 0 0 1-.035-.088l.032-.192-.136-.136a.092.092 0 0 1-.023-.093.089.089 0 0 1 .072-.062l.188-.028.084-.175a.088.088 0 0 1 .08-.05c.033 0 .064.02.079.05l.084.175.188.028a.09.09 0 0 1 .072.062.092.092 0 0 1-.023.093l-.136.136.032.192a.092.092 0 0 1-.035.088.086.086 0 0 1-.052.017zM12.73 14.633a.087.087 0 0 1-.041-.01l-.168-.09-.169.09a.087.087 0 0 1-.093-.007.091.091 0 0 1-.035-.088l.032-.193-.136-.135a.092.092 0 0 1-.023-.093.09.09 0 0 1 .072-.062l.188-.028.084-.175a.088.088 0 0 1 .08-.05c.033 0 .064.02.079.05l.084.175.188.028a.09.09 0 0 1 .072.062.092.092 0 0 1-.023.093l-.136.136.032.192a.092.092 0 0 1-.035.088.086.086 0 0 1-.052.017z"/>
        </g>
        <path fill="#000" opacity=".1" d="M1.333 20.668h1.884v1.862H1.333zM3.217 25.413V24.17H1.333v1.244c0 .34.278.618.618.618h1.883a.62.62 0 0 1-.617-.618z"/>
    </g>
</svg>
