<svg width="24" height="24" xmlns="http://www.w3.org/2000/svg">
    <g fill="none" fill-rule="evenodd">
        <path d="M0 0h24v24H0z"/>
        <path d="M17.139 4.26A5.286 5.286 0 0 0 15.465 4 5.66 5.66 0 0 0 12 5.162c-.081-.061-.18-.116-.27-.169-.09-.054-.252-.188-.387-.26L11 4.583a3.183 3.183 0 0 0-.567-.234.315.315 0 0 0-.081-.053H10.3A5.648 5.648 0 0 0 8.652 4h-.099c-.252 0-.503.017-.756.054h-.108c-.27.035-.54.097-.8.187C3.53 5.333 2.334 8.957 3.35 12.124a11.562 11.562 0 0 0 2.71 4.294 34.258 34.258 0 0 0 5.732 4.438l.234.144.225-.135a34.582 34.582 0 0 0 5.698-4.438 11.379 11.379 0 0 0 2.708-4.303c1-3.167-.197-6.79-3.52-7.864z" fill="#DB0202"/>
    </g>
</svg>
