<svg width="38" height="39" xmlns="http://www.w3.org/2000/svg">
    <path d="M33.063 16.268c0-.976-.942-1.745-2.06-1.745-1.116 0-2.058.77-2.058 1.745v7.272c0 .947.942 1.715 2.059 1.715 1.117 0 2.058-.77 2.058-1.715v-7.272zM9.858 14.849v11.263c0 1.035.942 1.863 2.163 1.863h1.5v3.843c0 .946.908 1.744 2.06 1.744 1.117 0 2.023-.798 2.023-1.744v-3.843h2.792v3.843c0 .946.907 1.744 2.023 1.744 1.152 0 2.06-.798 2.06-1.744v-3.843h1.5c1.221 0 2.199-.828 2.199-1.863V14.85H9.858zm13.329-3.43c-.418 0-.768-.295-.768-.65 0-.354.35-.68.768-.68.454 0 .802.326.802.68 0 .355-.348.65-.802.65zm-8.374 0c-.454 0-.802-.295-.802-.65 0-.354.349-.68.802-.65.418-.03.768.296.768.65 0 .355-.35.65-.768.65zm8.723-3.429 1.431-2.217c.035-.118 0-.236-.14-.325-.14-.03-.279 0-.383.118l-1.431 2.218A11.778 11.778 0 0 0 19 7.074c-1.43 0-2.791.237-4.013.71l-1.43-2.218a.383.383 0 0 0-.385-.118c-.14.089-.174.207-.14.325l1.432 2.217c-2.792 1.213-4.71 3.577-4.71 6.267h18.458c0-2.69-1.884-5.054-4.676-6.267zm-16.54 6.534c-1.117 0-2.059.769-2.059 1.744v7.273c0 .946.942 1.714 2.06 1.714 1.116 0 2.058-.768 2.058-1.714v-7.273c0-.976-.942-1.744-2.059-1.744z" fill="#FFF" fill-rule="evenodd"/>
</svg>
