<svg width="32" height="32" xmlns="http://www.w3.org/2000/svg">
    <g fill="none" fill-rule="evenodd">
        <path d="M0 0h32v32H0z"/>
        <path d="m28.74 14.323-1.813-2.106c-.347-.4-.627-1.147-.627-1.68V8.27a2.583 2.583 0 0 0-2.573-2.573H21.46c-.52 0-1.28-.28-1.68-.627l-2.107-1.813c-.92-.787-2.426-.787-3.36 0L12.22 5.083c-.4.334-1.16.614-1.68.614H8.233A2.583 2.583 0 0 0 5.66 8.27v2.28c0 .52-.28 1.267-.613 1.667l-1.8 2.12c-.774.92-.774 2.413 0 3.333l1.8 2.12c.333.4.613 1.147.613 1.667v2.28a2.583 2.583 0 0 0 2.573 2.573h2.307c.52 0 1.28.28 1.68.627l2.107 1.813c.92.787 2.426.787 3.36 0l2.106-1.813c.4-.347 1.147-.627 1.68-.627h2.267a2.583 2.583 0 0 0 2.573-2.573V21.47c0-.52.28-1.28.627-1.68l1.813-2.107c.774-.92.774-2.44-.013-3.36zm-7.2-.84-6.44 6.44a.999.999 0 0 1-1.413 0l-3.227-3.226a1.006 1.006 0 0 1 0-1.414 1.006 1.006 0 0 1 1.413 0l2.52 2.52 5.734-5.733a1.006 1.006 0 0 1 1.413 0 1.006 1.006 0 0 1 0 1.413z" fill="#FF9502"/>
    </g>
</svg>
