<svg width="80" height="80" viewBox="0 0 80 80" xmlns="http://www.w3.org/2000/svg">
    <g fill="none" fill-rule="evenodd">
        <path d="M27.026 23.56c-7.72 1.11-13.693 8.007-13.693 16.44 0 9.203 7.09 16.667 15.834 16.667H64c6.995 0 12.667-5.967 12.667-13.334C76.667 35.97 70.995 30 64 30c0-11.047-8.509-20-19-20-8.35 0-15.425 5.68-17.974 13.56z" fill="#FFF4E5"/>
        <path d="M17.747 36.893C9.62 38.003 3.333 44.9 3.333 53.333 3.333 62.537 10.797 70 20 70h36.667C64.03 70 70 64.033 70 56.667c0-7.364-5.97-13.334-13.333-13.334 0-11.046-8.957-20-20-20-8.79 0-16.237 5.68-18.92 13.56z" stroke="#0F1425" stroke-width="3.333" stroke-linecap="round" stroke-linejoin="round"/>
        <g stroke="#FF9A01" stroke-linecap="round" stroke-linejoin="round" stroke-width="3.333">
            <path d="M36.666 43.467v2.4M36.666 55.467v2.4M30.432 47.068l2.076 1.197M40.823 53.068l2.079 1.197M30.432 54.266l2.076-1.197M40.823 48.266l2.079-1.197M41.468 50.665a4.8 4.8 0 1 1-9.6 0 4.801 4.801 0 0 1 9.6 0z"/>
        </g>
    </g>
</svg>
