<svg width="38" height="39" xmlns="http://www.w3.org/2000/svg">
    <path d="m20.687 30.77-.077.087c-.227.257-.608.702-.675.98-.227.946-.074 2.92-.047 3.243l.004.045h-1.126s.57-2.72-.63-4.33l.002.001c.764.603 1.282.923 1.282.923s.517-.323 1.267-.95zM19.412 3.958s5.443 4.894 7.156 11.88c1.78 9.617-6.734 14.915-6.734 14.915s1.661-18.603-.422-26.785zm-1.077-.083c.01.02.023.052.035.084l-.002-.001v.01c2.084 8.183.423 26.785.423 26.785s-7.999-4.908-7.588-12.845c.408-7.938 7.081-13.416 7.132-14.033z" fill="#FFF" fill-rule="evenodd"/>
</svg>
