<svg width="32" height="32" xmlns="http://www.w3.org/2000/svg">
    <g fill="none" fill-rule="evenodd">
        <path d="M0 0h32v32H0z"/>
        <path d="M29 18.667c.547 0 1 .453 1 1v2.666C30 26.92 26.92 30 22.333 30H9c-4.587 0-7.667-3.08-7.667-7.667v-2.666c0-.547.454-1 1-1 .547 0 1 .453 1 1v2.666C3.333 25.773 5.56 28 9 28h13.333C25.773 28 28 25.773 28 22.333v-2.666c0-.547.453-1 1-1zM8.2 14.01c.347-.213.76-.226 1.12-.053l4.667 2.333a2.012 2.012 0 0 1 1.12 1.787v4.413c0 .4-.2.76-.547.974-.187.12-.387.173-.6.173-.187 0-.36-.04-.52-.12l-4.667-2.333a1.985 1.985 0 0 1-1.106-1.787v-4.413c0-.4.2-.76.533-.974zm13.803-.053c.36-.173.773-.16 1.12.053.346.214.546.574.546.974v4.413a2 2 0 0 1-1.106 1.787l-4.667 2.333c-.173.08-.347.12-.52.12-.213 0-.413-.053-.6-.173a1.129 1.129 0 0 1-.547-.974v-4.413a2 2 0 0 1 1.107-1.787zm-7.176-6.05c.533-.28 1.16-.28 1.693 0l5.014 2.707c.36.2.586.586.586 1.013 0 .44-.226.827-.586 1.027L16.52 15.36c-.266.147-.56.214-.853.214-.293 0-.587-.067-.853-.214L9.8 12.655a1.16 1.16 0 0 1-.586-1.027c0-.427.226-.813.586-1.013zm7.506-6.575C26.92 1.333 30 4.413 30 9v2.667c0 .546-.453 1-1 1-.547 0-1-.454-1-1V9c0-3.44-2.227-5.667-5.667-5.667H9C5.56 3.333 3.333 5.56 3.333 9v2.667c0 .546-.453 1-1 1-.546 0-1-.454-1-1V9c0-4.587 3.08-7.667 7.667-7.667h13.333z" fill="#DB0202"/>
    </g>
</svg>
