<svg width="38" height="39" xmlns="http://www.w3.org/2000/svg">
    <path d="M17.977 3.883c-.068.007-.281.028-.474.043-4.438.4-8.596 2.795-11.23 6.475a15.465 15.465 0 0 0-2.757 6.827c-.126.858-.141 1.111-.141 2.275s.015 1.417.14 2.276c.85 5.867 5.026 10.796 10.69 12.623 1.013.327 2.082.55 3.298.684.474.052 2.52.052 2.994 0 2.098-.232 3.876-.751 5.63-1.646.269-.138.32-.174.284-.205-.025-.018-1.17-1.554-2.545-3.411l-2.499-3.375-3.13-4.634c-1.724-2.547-3.141-4.63-3.153-4.63-.012-.003-.025 2.055-.03 4.57-.01 4.4-.013 4.577-.068 4.681-.08.15-.14.211-.269.278-.097.05-.183.058-.644.058h-.529l-.14-.088a.571.571 0 0 1-.205-.223l-.064-.138.006-6.124.01-6.126.094-.12a.838.838 0 0 1 .226-.186c.125-.061.174-.067.703-.067.623 0 .727.024.888.201.046.05 1.742 2.603 3.77 5.678 2.028 3.076 4.802 7.276 6.164 9.337l2.475 3.748.125-.082c1.109-.721 2.282-1.748 3.21-2.817a15.552 15.552 0 0 0 3.678-7.986c.126-.859.141-1.112.141-2.276 0-1.164-.015-1.417-.14-2.275-.85-5.868-5.026-10.797-10.69-12.624a16.407 16.407 0 0 0-3.252-.68c-.294-.031-2.313-.065-2.566-.04zm6.396 9.45a.616.616 0 0 1 .309.36c.024.08.03 1.778.024 5.605l-.009 5.492-.968-1.484-.972-1.485V17.83c0-2.58.013-4.031.03-4.102a.623.623 0 0 1 .303-.384c.126-.065.171-.07.651-.07.452 0 .531.005.632.06z" fill="#FFF" fill-rule="evenodd"/>
</svg>
