<svg width="24" height="24" xmlns="http://www.w3.org/2000/svg">
    <g fill="none" fill-rule="evenodd">
        <path d="M0 0h24v24H0z"/>
        <path d="M2 14.25c.41 0 .75.34.75.75 0 2.96 2.06 5.44 4.83 6.09l-.27-.45a.751.751 0 1 1 1.29-.77l1.05 1.75c.14.23.14.52.01.75-.14.23-.39.38-.66.38-4.27 0-7.75-3.48-7.75-7.75 0-.41.34-.75.75-.75zm6.14-2.4c-1.93-5.37 6.22-7.51 7.15-1.87 2.6.33 3.66 3.8 1.68 5.53-.6.54-1.38.85-2.19.84H8.11c-2.81-.2-2.82-4.3 0-4.5zM15 1.25c4.27 0 7.75 3.48 7.75 7.75 0 .41-.34.75-.75.75s-.75-.34-.75-.75c0-2.96-2.06-5.44-4.83-6.09l.27.45a.751.751 0 1 1-1.29.77l-1.05-1.75a.745.745 0 0 1-.01-.75c.14-.23.39-.38.66-.38z" fill="#FF9502"/>
    </g>
</svg>
