<svg width="48" height="49" viewBox="0 0 48 49" xmlns="http://www.w3.org/2000/svg">
    <g transform="translate(0 1)" fill="none" fill-rule="evenodd">
        <circle fill="#FFF4E5" cx="28" cy="20" r="18"/>
        <g stroke-linecap="round" stroke-linejoin="round" stroke-width="2">
            <path d="M13.445 38.556a17.905 17.905 0 0 1-3.124-2.874M7.046 18a18.023 18.023 0 0 1 5.652-8M6 24c0 2.11.38 4.121 1.046 6M34.105 9.107a17.905 17.905 0 0 0-10.106-3.108c-1.824 0-3.582.278-5.24.782" stroke="#0F1425"/>
            <path d="M18.324 20.597c-2.44.332-4.324 2.4-4.324 4.932a5 5 0 0 0 5 5h10.998a4 4 0 1 0 0-8 6.001 6.001 0 0 0-6-6.002 5.997 5.997 0 0 0-5.674 4.07z" stroke="#FF9A01"/>
            <path d="M18.76 41.22c1.657.504 3.415.78 5.24.78 9.943 0 18-8.058 18-18 0-1.086-.113-2.144-.295-3.176M36.73 7.825a3.376 3.376 0 1 1 0 6.752 3.376 3.376 0 0 1 0-6.752" stroke="#0F1425"/>
        </g>
    </g>
</svg>
