<svg width="24" height="24" xmlns="http://www.w3.org/2000/svg">
    <g fill="none" fill-rule="evenodd">
        <path d="M0 0h24v24H0z"/>
        <path d="m17.533 15.115.132.005c1.096.072 2.143.794 2.404 2.36 1.857.227 2.61 2.697 1.2 3.922a2.31 2.31 0 0 1-1.562.598h-4.773c-2.01-.142-2.01-3.049 0-3.191h.029c-.82-2.267.898-3.724 2.57-3.694zM8.42 2c1.553 0 2.039.503 2.658 1.33l1.333 1.766c.296.39.334.437.886.437h2.658a5.092 5.092 0 0 1 4.848 3.533c.143.427.22.864.238 1.33.01.066.01.152.01.218v4.055c0 .304-.486.437-.695.219a3.865 3.865 0 0 0-1.658-1.016c-1.495-.466-3.22-.01-4.305 1.11a3.905 3.905 0 0 0-1.077 2.632.544.544 0 0 1-.219.427c-.686.541-1.105 1.387-1.105 2.355v.01c0 .304-.219.58-.524.58H7.087A5.078 5.078 0 0 1 2 15.913V6.198A4.205 4.205 0 0 1 6.21 2h2.21z" fill="#04A8F5"/>
    </g>
</svg>
