<svg width="24" height="24" xmlns="http://www.w3.org/2000/svg">
    <g fill="none" fill-rule="evenodd">
        <path d="M0 0h24v24H0z"/>
        <path d="M11.998 12.094c2.788 0 5.051 2.219 5.051 4.953 0 .733-.161 1.426-.464 2.04-.081.179-.172.347-.273.506A5.032 5.032 0 0 1 11.998 22a5.032 5.032 0 0 1-4.314-2.407 4.046 4.046 0 0 1-.273-.505 4.595 4.595 0 0 1-.464-2.041c0-2.734 2.263-4.953 5.051-4.953zm5.455-3.616c4.374.545 6.142 6.26 2.828 9.104a5.886 5.886 0 0 1-1.182.802c-.363.179-.727-.168-.666-.564.04-.288.06-.585.06-.892 0-3.546-2.95-6.439-6.566-6.439-3.617 0-6.567 2.893-6.567 6.44 0 .455.05.89.141 1.317.071.346-.202.693-.555.604-3.99-.951-4.011-6.974.454-7.281h.05C2.209 2.723 15.888-.814 17.454 8.479zm-3.323 7.093a.773.773 0 0 0-1.071-.04l-1.617 1.466-.485-.475a.773.773 0 0 0-1.07 0 .737.737 0 0 0 0 1.05l1 .98a.757.757 0 0 0 .535.219c.182 0 .374-.07.515-.199l2.152-1.951a.738.738 0 0 0 .04-1.05z" fill="#29D29A"/>
    </g>
</svg>
