<svg width="38" height="39" xmlns="http://www.w3.org/2000/svg">
    <path d="M25.028 26.171a2.228 2.228 0 0 0 1.988-2.308 2.234 2.234 0 0 0-2.227-2.15h-.08a2.226 2.226 0 0 0-2.147 2.309c.04.597.279 1.114.637 1.472-1.352 2.667-3.42 4.617-6.522 6.248-2.108 1.115-4.295 1.513-6.482 1.234-1.79-.239-3.181-1.035-4.056-2.348-1.273-1.95-1.392-4.06-.318-6.168.755-1.513 1.948-2.627 2.704-3.184a21.474 21.474 0 0 1-.517-2.03c-5.767 4.18-5.17 9.83-3.42 12.496 1.312 1.99 3.976 3.224 6.92 3.224.794 0 1.59-.08 2.385-.279 5.09-.995 8.948-4.02 11.135-8.516zm6.999-4.935c-3.022-3.541-7.476-5.491-12.566-5.491h-.637a2.185 2.185 0 0 0-1.948-1.194h-.08a2.226 2.226 0 0 0-2.147 2.308 2.235 2.235 0 0 0 2.227 2.149h.08a2.24 2.24 0 0 0 1.948-1.353h.716c3.022 0 5.885.875 8.47 2.586 1.988 1.314 3.42 3.025 4.215 5.094.676 1.672.637 3.303-.08 4.696-1.113 2.11-2.982 3.263-5.447 3.263-1.591 0-3.102-.477-3.898-.835a23.5 23.5 0 0 1-1.79 1.432c1.711.796 3.46 1.234 5.13 1.234 3.819 0 6.642-2.11 7.716-4.218 1.153-2.309 1.073-6.288-1.909-9.67zm-20.202 5.611a2.234 2.234 0 0 0 2.227 2.15h.08a2.226 2.226 0 0 0 2.147-2.309 2.234 2.234 0 0 0-2.227-2.149h-.08c-.079 0-.198 0-.278.04-1.63-2.706-2.306-5.65-2.067-8.835.159-2.387.954-4.457 2.346-6.168 1.153-1.472 3.38-2.189 4.891-2.228 4.215-.08 6.005 5.173 6.124 7.282.517.12 1.392.398 1.989.597-.478-6.447-4.454-9.79-8.272-9.79-3.579 0-6.88 2.587-8.192 6.408-1.83 5.093-.636 9.988 1.59 13.848-.198.279-.317.717-.278 1.154z" fill="#FFF" fill-rule="evenodd"/>
</svg>
