<svg width="24" height="24" xmlns="http://www.w3.org/2000/svg">
    <g fill="none" fill-rule="evenodd">
        <path d="M0 0h24v24H0z"/>
        <path d="M8.54 19.728c.645.32 1.331.54 2.027.67.942.18 1.904.19 2.845.03a7.853 7.853 0 0 0 2.017-.63c.378-.17.829-.03.993.34.184.36.04.8-.338.971A9.392 9.392 0 0 1 12.06 22a9.301 9.301 0 0 1-4.186-.971.709.709 0 0 1-.327-.971c.174-.36.624-.5.992-.33zm-3.654-5.856c1.587 0 2.887 1.261 2.887 2.823s-1.29 2.823-2.887 2.823C3.29 19.518 2 18.257 2 16.695s1.3-2.823 2.886-2.823zm14.228 0c1.596 0 2.886 1.261 2.886 2.823s-1.29 2.823-2.886 2.823c-1.597 0-2.887-1.261-2.887-2.823s1.3-2.823 2.887-2.823zM7.733 5.653a.72.72 0 0 1-.174 1.011c-1.843 1.282-3.04 3.264-3.266 5.456a.747.747 0 0 1-.747.661h-.071a.735.735 0 0 1-.666-.8C3.086 9.366 4.5 7.004 6.7 5.482a.76.76 0 0 1 1.034.17zm9.62-.21c2.221 1.512 3.654 3.875 3.951 6.487.041.4-.256.761-.665.801h-.082a.737.737 0 0 1-.737-.65c-.246-2.203-1.453-4.185-3.316-5.446a.714.714 0 0 1-.184-1.011.75.75 0 0 1 1.033-.18zM12.051 2c1.597 0 2.886 1.261 2.886 2.823s-1.29 2.823-2.886 2.823c-1.597 0-2.886-1.261-2.886-2.823S10.465 2 12.05 2z" fill="#04A8F5"/>
    </g>
</svg>
