<svg width="38" height="39" xmlns="http://www.w3.org/2000/svg">
    <path d="M16.339 3.875c.051.005.06.024.14.346.144.53.405 1.267.68 1.906.354.823.96 2.043 1.51 3.027l.094.17a79.24 79.24 0 0 1 2.809.488c2.991.6 5.354 1.41 7.18 2.445 1.328.757 2.414 1.67 3.309 2.796.307.388.564.752.936 1.339l.066.104-.425.066c-2.743.426-6.883 1.446-10.627 2.575a.96.96 0 0 0 .017.145c.117.676.191 1.367.233 2.218.028.52.014 2.058-.018 2.517-.126 1.641-.317 3.027-.56 4.068-.405 1.717-1.15 3.728-2.185 5.87-.303.63-.564 1.136-.601 1.16-.019.014-.475.014-.815 0-1.683-.067-4.74-.507-6.319-.914-.95-.24-2.213-.671-2.964-1.007-1.472-.658-2.735-1.623-3.369-2.569-.493-.742-.62-1.547-.363-2.341.144-.44.48-1.013.904-1.552a9.456 9.456 0 0 1 1.292-1.287l-.048.015c3.155-2.63 5.2-5 6.17-7.148.545-1.197.764-2.228.736-3.4-.047-1.827-.545-3.151-1.692-4.495-.251-.293-2.325-2.346-2.325-2.346-.2-.19-.377-.374-.438-.525a.584.584 0 0 1-.04-.17l-.016-.014a.448.448 0 0 1 .04-.185l.006-.013.015-.03.001.006c.102-.152.373-.418.595-.578.69-.492 1.808-1.06 3.248-1.656 1.067-.44 2.721-1.045 2.824-1.03zm3.467 27.97a1.973 1.973 0 0 0-.303.124 20.56 20.56 0 0 1-2.745 1.073c-.727.227-1.444.412-2.935.752l-.695.161.112.024c.49.113 2.437.459 3.597.639.667.099 1.762.255 1.841.26.033.005.056-.033.116-.185.275-.671 1.03-2.8 1.012-2.847zm-4.986-1.404c0 .004-.13.198-.284.435-.555.86-1.221 1.77-1.892 2.583-.135.16-.247.307-.247.317 0 .018.154.061.2.052a327.99 327.99 0 0 0 5.946-1.774c.503-.161 1.188-.393 1.22-.412.02-.014-.037-.023-.139-.033-.676-.057-1.822-.255-2.614-.459a14.75 14.75 0 0 1-1.729-.544 6.645 6.645 0 0 0-.461-.165zm-.82.023a1.84 1.84 0 0 0-.257.071c-.74.237-1.873.563-3.914 1.126-.769.213-1.407.388-1.416.393-.038.01.428.312.801.515.298.161.699.35 1.086.506.312.128 1.49.55 1.659.597l.07.018.135-.24c.079-.133.219-.37.312-.521.098-.156.373-.6.62-.994.577-.927.908-1.466.904-1.47zM11.1 27.74l-.824 1.007c-1.198 1.467-1.748 2.171-2.186 2.815l-.135.198.084.062a.8.8 0 0 0 .093.061c.005 0 .615-.212 1.356-.477 1.319-.464 4.166-1.49 4.198-1.514.01-.005-.102-.08-.251-.166a8.778 8.778 0 0 1-2.186-1.816l-.149-.17zm-.596-.232a204.071 204.071 0 0 1-2.162.516c-1.165.274-2.41.572-2.48.59-.046.015-.046.129.005.356.108.487.378 1.021.779 1.527.19.246.62.691.866.9l.21.179.196-.307c.107-.17.298-.455.424-.634.126-.18.461-.663.75-1.074.83-1.178 1.421-2.044 1.412-2.053zm10.629-.369-.02.005a.839.839 0 0 0-.153.08c-.689.419-2.582 1.347-4.52 2.221l-.554.248c-.354.156-.634.289-.625.298.028.024.494.237.82.37 1.165.472 2.405.827 3.789 1.083.028.009.056.014.06.014.005 0 .103-.298.215-.658.256-.818.396-1.282.559-1.873.196-.705.433-1.68.429-1.788zm-4.604-1.632c-.005 0-.154.062-.336.137a30.12 30.12 0 0 1-4.09 1.433l-.425.119.084.104c.573.733 1.45 1.49 2.437 2.105.168.104.308.19.312.19.005 0 .15-.252.322-.564.68-1.22 1.211-2.308 1.617-3.306.046-.114.084-.213.079-.218zm.74-.246c-.004.005-.027.085-.065.175-.298.937-.885 2.285-1.467 3.392a9.874 9.874 0 0 0-.191.373c0 .005.05-.01.107-.033.056-.023.354-.137.657-.25 2.083-.79 4.119-1.651 4.739-2.001l.149-.085-.107-.024c-1.184-.28-2.572-.823-3.57-1.41a1.87 1.87 0 0 0-.251-.137zm-7.268-1.32c-.228.12-.451.242-.671.365l.194-.107c-.25.14-.556.313-.795.452-.662.383-1.049.68-1.534 1.192-.726.766-1.248 1.674-1.356 2.37-.013.08-.009.085.024.075l.559-.156c.97-.27 4.054-1.187 4.087-1.215a3.959 3.959 0 0 0-.164-.36c-.335-.7-.447-1.21-.41-1.902.01-.156.033-.383.052-.506.028-.17.032-.208.014-.208zm11.556-1.4-.075.057a12.86 12.86 0 0 1-.806.591 27.364 27.364 0 0 1-2.549 1.519c-.228.123-.424.227-.429.231-.018.02.639.43 1.09.682.686.383 1.445.71 2.144.931.159.048.294.086.294.086.004-.005.028-.157.056-.341.163-1.055.275-2.502.275-3.557v-.199zm-8.046-.3-.097.045c-.9.398-1.747.799-2.555 1.208-.032.041-.045.111-.08.282-.08.397-.093 1.04-.024 1.41.07.373.2.78.36 1.097.074.146.083.156.106.123.015-.02.122-.19.233-.374a36.792 36.792 0 0 0 1.608-2.843c.2-.399.404-.829.449-.947zm.958-.41-.18.076a15.031 15.031 0 0 1-.193.516c-.466 1.201-1.295 2.9-1.84 3.765-.121.194-.135.218-.093.204.262-.088.524-.175.787-.26 1.1-.36 2.06-.7 2.94-1.041.76-.294.75-.289.723-.317a7.96 7.96 0 0 1-1.305-1.377c-.289-.388-.624-.993-.773-1.405a.891.891 0 0 0-.07-.17l.004.01zm3.743-1.459-.103.038c-.006.058-.007.176-.01.423-.01.956-.186 2.148-.498 3.326-.038.142-.066.26-.056.26.004 0 .195-.08.424-.184 1.295-.582 2.353-1.16 3.201-1.746.396-.274.377-.246.205-.322-.56-.246-1.864-.983-2.824-1.594a4.163 4.163 0 0 0-.34-.2zm-.708.256-.003.002-.478.18c-.72.274-1.41.547-2.07.82.028.096.165.43.257.613.21.416.494.842.858 1.268.21.246.848.88.866.856a12.198 12.198 0 0 0 .536-2.389c.034-.265.053-1.18.034-1.35zm-1.72-2.013c-.02.005-.108.113-.206.232-.904 1.126-2.11 2.251-3.504 3.278a7.462 7.462 0 0 0-.321.246c0 .005.186-.085.414-.204.229-.113.578-.283.779-.378a57.145 57.145 0 0 1 2.907-1.225l.639-.25-.01-.095c-.051-.436-.256-.975-.522-1.377-.125-.19-.153-.232-.177-.227zm-.723.18c-.019-.02-1.598 1.069-2.283 1.57-.256.185-.29.218-.466.45-.266.35-.499.633-.806.97-.485.534-.527.581-.494.562l.28-.18a15.5 15.5 0 0 0 2.893-2.37c.364-.373.895-.983.876-1.002zm6.247.556-.58.182c-.698.22-1.375.444-2.016.665.15.119 1.026.709 1.489 1.005.536.34 1.286.79 1.323.79.01 0 .014-.128.005-.322-.033-.817-.155-2.057-.221-2.32zM20.104 15.9c-.014-.01-.918.454-1.496.766-.857.468-2.213 1.254-2.302 1.334-.023.024-.004.076.103.293.251.52.396 1.13.396 1.703 0 .109.004.18.018.175.01-.005.21-.236.443-.515.56-.672 1.37-1.703 1.827-2.318.382-.516 1.02-1.429 1.01-1.438zm.974-.246-.163.255c-.811 1.235-1.901 2.503-3.132 3.652-.411.385-.453.423-.439.426h.01c.015 0 .196-.067.41-.147a67.707 67.707 0 0 1 5.709-1.854l.377-.109-.056-.061a15.816 15.816 0 0 0-.88-.805c-.471-.402-1.086-.86-1.608-1.206l-.228-.151zm-6.864 1.712a.809.809 0 0 0-.093.241 8.883 8.883 0 0 1-.392.989 8.753 8.753 0 0 1-.624 1.093c-.047.07-.033.061.378-.27a43.595 43.595 0 0 1 1.505-1.154c.158-.118.28-.218.27-.227a5.114 5.114 0 0 0-1.044-.672zm13.783-4.546c-.009-.01-.61.166-1.174.346a47.29 47.29 0 0 0-3.565 1.291c-.6.246-1.393.591-1.393.605 0 .005.042.043.093.08.052.039.205.166.345.285a9.725 9.725 0 0 1 1.887 2.114c.066.104.126.19.13.19.006 0 .16-.2.346-.436.181-.236.731-.941 1.22-1.566.928-1.182 1.338-1.721 1.617-2.128.196-.28.504-.771.494-.78zm.36.095-.01.017c-.027.055-.109.229-.2.428-.765 1.56-1.412 2.436-2.829 3.822-.228.222-.41.406-.4.406.009 0 .153-.033.316-.07 2.414-.592 4.926-1.013 6.887-1.164l.466-.038c.01-.005-.6-.648-.848-.894a15.827 15.827 0 0 0-3.117-2.375c-.135-.08-.247-.137-.266-.132zm-10.984 1.192c-.014-.014-.936.738-1.374 1.121-.61.53-1.408 1.263-1.408 1.3 0 .01.098.067.224.133.317.166.564.35.867.648l.26.256.117-.19c.06-.108.173-.302.247-.435.312-.567.634-1.32.825-1.92.098-.317.256-.899.242-.913zm.606-.114c-.014 0-.033.048-.051.119a9.972 9.972 0 0 1-.946 2.606c-.126.232-.13.25-.112.25.005 0 .191-.113.415-.25a32.342 32.342 0 0 1 2.409-1.348 6.6 6.6 0 0 0 .494-.26 22.437 22.437 0 0 0-1.081-.582c-.457-.232-1.063-.52-1.128-.535zm-3.576-1.187h-.017c-.004.005.01.118.024.25.149 1.037.172 2.058.065 2.853-.005.038 0 .066.01.066.009 0 .186-.165.395-.369a33.82 33.82 0 0 1 1.902-1.75c.149-.132.274-.241.274-.246 0-.028-1.127-.411-1.658-.563-.35-.099-.998-.255-1.012-.24zm8.073-2.024c-.019-.02-1.044.558-1.673.946-.792.482-2.293 1.49-2.26 1.518.005.01.168.076.354.156a15.08 15.08 0 0 1 1.827.908c.144.085.27.156.28.152.009-.005.097-.147.195-.322.554-.984 1.006-2.03 1.174-2.734.056-.227.117-.61.103-.624zm.354.056c-.014 0-.028.071-.033.161-.079.956-.4 2.077-.9 3.15-.06.133-.106.242-.097.242.01 0 .13-.048.266-.104 1.654-.681 3.369-1.22 5.372-1.689l.238-.057-.34-.156c-.82-.378-2.079-.847-3.174-1.178-.442-.132-1.29-.369-1.332-.369zM17.2 9.741c-.041-.014-1.318.988-1.788 1.41-.247.222-.825.808-.825.837 0 .01.321.109.717.217.695.199 1.505.44 2.004.601l.242.08.014-.047c.01-.023.019-.208.028-.407a7.856 7.856 0 0 0-.223-2.166c-.094-.355-.14-.516-.168-.525zm.336.047h-.014a.723.723 0 0 0 .056.152c.327.766.504 1.674.504 2.573 0 .165.004.303.009.303.005 0 .205-.133.443-.294.908-.615 1.821-1.12 3.052-1.684.312-.142.41-.198.382-.208-.056-.023-.997-.222-1.645-.35-.871-.17-2.787-.506-2.8-.492zm-4.37-.828-.004.001.004.01c.009.026.031.078.059.139l.03.063c.316.686.665 1.66.833 2.318.024.1.051.18.051.18s.117-.114.252-.25c.336-.341.802-.72 1.319-1.07.205-.142.825-.516.978-.596a.47.47 0 0 0 .126-.08c0-.01-.121-.038-.275-.062-.908-.156-2.33-.43-3.122-.61a1.805 1.805 0 0 0-.251-.043zm-2.293-.643c0 .005.098.09.228.184.998.795 1.86 1.784 2.405 2.758.06.109.111.19.116.185.005 0-.042-.19-.102-.412-.159-.586-.63-2.114-.662-2.147-.005 0-.238-.067-.517-.137-.206-.054-.41-.109-.615-.166-.27-.076-.499-.147-.676-.208-.098-.033-.172-.062-.177-.057zm6.295-.8c-.004-.004-.014 0-.018.01-.019.014-.117.1-.224.19a9.094 9.094 0 0 1-1.421.997.483.483 0 0 0-.107.071c.798.128 1.641.266 2.658.428 0-.007-.009-.017-.016-.03-.121-.185-.615-1.14-.774-1.495-.056-.128-.08-.17-.098-.17zm-5.396-1.281.243.222c.247.237.89.86 1.71 1.67l.443.44.448.078c.045-.02.16-.085.283-.163.503-.317 1.23-.729 1.892-1.065.168-.08.298-.151.293-.156l-.289-.028c-1.37-.114-3.853-.596-4.84-.937l-.183-.061zm-.186.146-.06.043c-.672.482-1.068.955-1.072 1.272v.052l.14.052c.419.147.955.275 1.234.336.379.083.892.178 1.353.26-.016-.025-.072-.093-.137-.175-.079-.099-.442-.548-.801-1.007l-.657-.833zm4.683-2.265c-.135.023-1.887.766-2.526 1.064-.498.236-1.63.837-1.612.856 0 .005.21.038.457.071l.224.032c1.517.22 3.47.566 3.923.692.2.061.2.09.028-.43-.228-.691-.373-1.33-.452-1.992a3.345 3.345 0 0 0-.042-.293z" fill="#FFF" fill-rule="evenodd"/>
</svg>
