<svg width="48" height="49" viewBox="0 0 48 49" xmlns="http://www.w3.org/2000/svg">
    <g fill="none" fill-rule="evenodd">
        <path d="M16.216 13.136C11.583 13.802 8 17.94 8 23c0 5.522 4.254 10 9.5 10h20.9c4.197 0 7.6-3.58 7.6-8 0-4.418-3.403-8-7.6-8 0-6.628-5.105-12-11.4-12-5.01 0-9.255 3.408-10.784 8.136z" fill="#FFF4E5"/>
        <g stroke-linecap="round" stroke-linejoin="round" stroke-width="2">
            <path d="M12.648 19.136C7.772 19.802 4 23.94 4 29c0 5.522 4.478 10 10 10h22a8 8 0 0 0 0-16c0-6.628-5.374-12-12-12-5.274 0-9.742 3.408-11.352 8.136z" stroke="#0F1425"/>
            <path stroke="#FF9A01" d="M23.59 31.167 22.2 32.555l1.388 1.39M18.629 28.37a5.433 5.433 0 0 1-.184-1.372 5.554 5.554 0 0 1 7.126-5.326"/>
            <path d="M29.369 25.63c.116.44.188.894.188 1.37a5.557 5.557 0 0 1-7.128 5.328M24.41 22.833l1.388-1.388-1.388-1.39" stroke="#FF9A01"/>
        </g>
    </g>
</svg>
