<svg width="32" height="32" xmlns="http://www.w3.org/2000/svg">
    <g fill="none" fill-rule="evenodd">
        <path d="M0 0h32v32H0z"/>
        <path d="M20.276 27.93a.702.702 0 1 1 0 1.403h-8.552a.702.702 0 0 1 0-1.403h8.552zm6.39-15.021c0 3.19-1.521 6.032-3.903 7.907-1.279 1.008-2.023 2.506-2.023 4.093 0 .893-.724 1.617-1.618 1.617h-6.247a1.618 1.618 0 0 1-1.611-1.47l-.007-.147c0-1.606-.774-3.102-2.063-4.126-2.23-1.774-3.696-4.4-3.848-7.361C5.052 7.745 9.912 2.756 15.832 2.668c5.968-.088 10.835 4.53 10.835 10.241z" fill="#04A8F5"/>
    </g>
</svg>
