<svg width="32" height="32" xmlns="http://www.w3.org/2000/svg">
    <g fill="none" fill-rule="evenodd">
        <path d="M0 0h32v32H0z"/>
        <path d="M28 13.333c.733 0 1.333.6 1.333 1.334v6.92c0 .266-.013.533-.04.8-.266 4.106-2.8 6.64-6.906 6.906-.267.027-.534.04-.8.04H10.413c-.266 0-.533-.013-.8-.04-4.106-.266-6.64-2.8-6.906-6.906a8.035 8.035 0 0 1-.04-.8v-6.92c0-.734.6-1.334 1.333-1.334zm-15.107 4.88a.981.981 0 0 0-1.333-.44 6.468 6.468 0 0 0-2.547 2.24c-.533.8-.533 1.84 0 2.64a6.468 6.468 0 0 0 2.547 2.24c.133.067.293.107.44.107.36 0 .72-.2.893-.547a.987.987 0 0 0-.453-1.346 4.787 4.787 0 0 1-1.773-1.574.363.363 0 0 1 0-.4 4.787 4.787 0 0 1 1.773-1.573.987.987 0 0 0 .453-1.347zm7.827-.44a.981.981 0 0 0-1.333.44.993.993 0 0 0 .44 1.347 4.59 4.59 0 0 1 1.773 1.573.32.32 0 0 1 0 .4 4.59 4.59 0 0 1-1.773 1.574.993.993 0 0 0-.44 1.346.989.989 0 0 0 1.333.44 6.656 6.656 0 0 0 2.547-2.24c.533-.8.533-1.84 0-2.64a6.656 6.656 0 0 0-2.547-2.24zm.867-15.106c.266 0 .533.013.8.04 4.106.266 6.64 2.8 6.906 6.906.027.267.04.534.04.8v.254c0 .733-.6 1.333-1.333 1.333l-24 .013c-.733 0-1.333-.6-1.333-1.333v-.267c0-.266.013-.533.04-.8.266-4.106 2.8-6.64 6.906-6.906.267-.027.534-.04.8-.04h11.174z" fill="#04A8F5"/>
    </g>
</svg>
