<svg width="40" height="40" xmlns="http://www.w3.org/2000/svg">
    <g fill="none" fill-rule="evenodd">
        <path d="M0 0h40v40H0z"/>
        <g fill="#29D29A">
            <path d="M19.825 6.667a6.64 6.64 0 0 0-6.635 6.635c0 3.59 2.808 6.495 6.468 6.62.112-.013.223-.013.307 0h.098a6.618 6.618 0 0 0 6.397-6.62 6.64 6.64 0 0 0-6.635-6.635zM26.923 23.638c-3.898-2.598-10.253-2.598-14.178 0-1.774 1.187-2.752 2.794-2.752 4.512 0 1.718.978 3.31 2.738 4.484 1.955 1.313 4.526 1.969 7.096 1.969 2.57 0 5.14-.656 7.096-1.97 1.76-1.187 2.737-2.78 2.737-4.511-.014-1.718-.977-3.31-2.737-4.484zM35.178 14.126c.224 2.71-1.704 5.084-4.372 5.406h-.07c-.083 0-.167 0-.237.028-1.355.07-2.598-.364-3.534-1.16 1.439-1.285 2.263-3.213 2.095-5.308a6.482 6.482 0 0 0-1.075-3.045 5.018 5.018 0 0 1 7.194 4.079zM4.647 14.126c-.223 2.71 1.704 5.084 4.372 5.406h.07c.084 0 .168 0 .237.028 1.355.07 2.599-.364 3.534-1.16-1.438-1.285-2.262-3.213-2.095-5.308a6.482 6.482 0 0 1 1.076-3.045 5.018 5.018 0 0 0-7.194 4.079z"/>
            <path d="M37.97 27.046c-.111 1.355-.977 2.528-2.43 3.325-1.397.768-3.157 1.131-4.903 1.09 1.006-.909 1.592-2.04 1.704-3.241.14-1.733-.684-3.395-2.332-4.722-.936-.74-2.026-1.327-3.213-1.76 3.087-.894 6.97-.293 9.359 1.635 1.285 1.033 1.941 2.332 1.815 3.673zM1.682 27.046c.112 1.355.978 2.528 2.43 3.325 1.397.768 3.157 1.131 4.903 1.09-1.005-.909-1.592-2.04-1.704-3.241-.14-1.733.685-3.395 2.333-4.722.936-.74 2.025-1.327 3.213-1.76-3.087-.894-6.97-.293-9.36 1.635-1.284 1.033-1.94 2.332-1.815 3.673z"/>
        </g>
    </g>
</svg>
