<svg width="24" height="24" xmlns="http://www.w3.org/2000/svg">
    <g fill="none" fill-rule="evenodd">
        <path d="M0 0h24v24H0z"/>
        <path d="M16.935 6.573c3.907.457 5.493 5.228 2.529 7.6-.892.752-2.073 1.17-3.285 1.161h-3.401v2.856c0 .048 0 .086-.02.134.539.19.964.58 1.17 1.076.053-.019.094-.019.146-.019h4.145c.425 0 .778.324.778.714 0 .39-.353.715-.778.715h-4.145c-.052 0-.093 0-.145-.02-.3.705-1.057 1.21-1.928 1.21-.87 0-1.627-.505-1.927-1.21-.052.02-.094.02-.145.02H5.783c-.425 0-.777-.324-.777-.715 0-.39.352-.714.777-.714H9.93c.051 0 .093 0 .145.019a1.962 1.962 0 0 1 1.17-1.076.242.242 0 0 1-.02-.088v-2.902H6.167c-4.218-.276-4.228-5.904 0-6.18h.042C3.317 1.762 15.536-1.18 16.935 6.572z" fill="#29D29A"/>
    </g>
</svg>
