<svg version="1.2" xmlns="http://www.w3.org/2000/svg" viewBox="0 0 20 14" width="20" height="14"><style>.a{fill:#fff}</style><path fill-rule="evenodd" class="a" d="m0.4 6l1-1.1 4-4.4q0.2-0.3 0.4-0.4 0.3-0.1 0.6-0.1 0.3 0 0.5 0.1 0.3 0.1 0.5 0.4 0.2 0.2 0.3 0.5 0.1 0.3 0.1 0.6 0 0.3-0.1 0.6-0.1 0.3-0.3 0.5l-2.4 2.7h13.5c0.4 0 0.8 0.2 1.1 0.5 0.3 0.3 0.5 0.7 0.5 1.1 0 0.4-0.2 0.8-0.5 1.1-0.3 0.3-0.7 0.5-1.1 0.5h-13.5l2.4 2.7q0.2 0.2 0.3 0.5 0.1 0.3 0.1 0.6 0 0.3-0.1 0.6-0.1 0.3-0.3 0.5-0.2 0.3-0.5 0.4-0.2 0.1-0.5 0.1-0.3 0-0.6-0.1-0.2-0.1-0.4-0.4l-4-4.4-1-1.1q-0.2-0.2-0.3-0.5-0.1-0.2-0.1-0.5 0-0.3 0.1-0.5 0.1-0.3 0.3-0.5z"/></svg>