<svg width="34" height="32" viewBox="0 0 34 32" xmlns="http://www.w3.org/2000/svg">
    <path d="M33.667 19.415v12.252h-7.145V20.235c0-2.871-1.033-4.831-3.62-4.831-1.973 0-3.148 1.32-3.665 2.598-.188.457-.237 1.093-.237 1.732v11.933h-7.147s.097-19.361 0-21.367H19v3.029l-.047.069H19v-.07c.95-1.453 2.645-3.53 6.44-3.53 4.703 0 8.228 3.054 8.228 9.617zM4.377 0C1.933 0 .333 1.594.333 3.691c0 2.05 1.553 3.694 3.95 3.694h.047c2.493 0 4.043-1.643 4.043-3.694C8.326 1.594 6.823 0 4.377 0zM.757 31.667h7.145V10.3H.758v21.367z" fill="#FFF" fill-rule="nonzero"/>
</svg>
