<svg xmlns="http://www.w3.org/2000/svg" width="16" height="16" viewBox="0 0 16 16">
    <g fill="none" fill-rule="evenodd">
        <g fill="#202B50" fill-rule="nonzero">
            <g>
                <g>
                    <path d="M7.396 1.333c3.349 0 6.063 2.67 6.063 5.965 0 1.515-.575 2.899-1.521 3.951l2.57 2.994c.24.28.204.698-.08.934-.285.236-.71.2-.95-.079l-2.54-2.96c-.996.708-2.22 1.124-3.542 1.124-3.348 0-6.063-2.67-6.063-5.964 0-3.294 2.715-5.965 6.063-5.965zm0 1.326c-2.604 0-4.715 2.077-4.715 4.639 0 2.562 2.11 4.638 4.715 4.638s4.716-2.076 4.716-4.638S10 2.658 7.396 2.658z" transform="translate(-904 -298) translate(668 254) translate(236 44)"/>
                </g>
            </g>
        </g>
    </g>
</svg>
