<svg width="24" height="24" viewBox="0 0 24 24" xmlns="http://www.w3.org/2000/svg">
    <g fill="none" fill-rule="evenodd">
        <path d="M0 0h24v24H0z"/>
        <g fill-rule="nonzero">
            <path fill="#F0F0F0" d="M1 5.014h22v14.667H1z"/>
            <path d="M23 17.847v1.834H1v-1.834h22zm0-3.666v1.833H1V14.18h22zm0-3.667v1.833H1v-1.833h22zm0-3.667v1.834H1V6.847h22z" fill="#D80027"/>
            <path fill="#2E52B2" d="M1 5.014h11v7.898H1z"/>
            <path d="m5.29 10.216.176.545h.573l-.464.337.178.545-.464-.337-.463.337.177-.545-.464-.337h.573l.177-.545zm-2.423 0 .177.545h.573l-.463.337.177.545-.464-.337-.463.337.177-.545-.464-.337h.573l.177-.545zm4.844 0 .177.545h.573l-.464.337.177.545-.463-.337-.464.337.177-.545-.463-.337h.573l.177-.545zm2.422 0 .177.545h.573l-.464.337.177.545-.463-.337-.464.337.177-.545-.463-.337h.573l.177-.545zM5.289 8.25l.177.545h.573l-.464.337.178.545-.464-.337-.463.337.177-.545-.464-.337h.573l.177-.545zm-2.422 0 .177.545h.573l-.463.337.177.545-.464-.337-.463.337.177-.545-.464-.337h.573l.177-.545zm4.844 0 .177.545h.573l-.464.337.177.545-.463-.337-.464.337.177-.545-.463-.337h.573l.177-.545zm2.422 0 .177.545h.573l-.464.337.177.545-.463-.337-.464.337.177-.545-.463-.337h.573l.177-.545zM5.289 6.283l.177.545h.573l-.464.336.178.545-.464-.336-.463.336.177-.545-.464-.336h.573l.177-.545zm-2.422 0 .177.545h.573l-.463.336.177.545-.464-.336-.463.336.177-.545-.464-.336h.573l.177-.545zm4.844 0 .177.545h.573l-.464.336.177.545-.463-.336-.464.336.177-.545-.463-.336h.573l.177-.545zm2.422 0 .177.545h.573l-.464.336.177.545-.463-.336-.464.336.177-.545-.463-.336h.573l.177-.545z" fill="#F0F0F0"/>
        </g>
    </g>
</svg>
